<svg width="167" height="110" viewBox="0 0 167 110" fill="none" xmlns="http://www.w3.org/2000/svg">
<path d="M18.9954 23.03C18.8154 23.13 18.6454 23.22 18.4854 23.3C18.3254 23.36 18.1654 23.43 18.0054 23.51C17.8454 23.61 17.7054 23.67 17.5854 23.69C17.3254 23.83 17.1654 23.78 17.1054 23.54C17.0454 23.3 17.1254 23.13 17.3454 23.03C17.6254 22.87 17.8954 22.72 18.1554 22.58C18.4354 22.42 18.7154 22.26 18.9954 22.1C19.1354 22.04 19.2154 21.93 19.2354 21.77C19.3354 21.19 19.4154 20.62 19.4754 20.06C19.5554 19.48 19.5954 18.88 19.5954 18.26C19.5754 18.14 19.5554 18.01 19.5354 17.87C19.5354 17.73 19.5154 17.59 19.4754 17.45C19.4154 17.09 19.2254 16.97 18.9054 17.09C18.4254 17.25 18.0254 17.49 17.7054 17.81C17.4254 18.09 17.1554 18.39 16.8954 18.71C16.6354 19.03 16.4054 19.36 16.2054 19.7C16.1454 19.78 16.0954 19.86 16.0554 19.94C16.0354 20.02 16.0054 20.1 15.9654 20.18C15.9254 20.24 15.8854 20.3 15.8454 20.36C15.8254 20.42 15.7954 20.45 15.7554 20.45C15.6754 20.45 15.5954 20.37 15.5154 20.21C15.4554 19.93 15.4954 19.69 15.6354 19.49C15.7554 19.31 15.8654 19.13 15.9654 18.95C16.0854 18.77 16.1954 18.59 16.2954 18.41C16.6354 18.03 16.9654 17.68 17.2854 17.36C17.6254 17.02 18.0054 16.74 18.4254 16.52C18.6254 16.4 18.8554 16.34 19.1154 16.34C19.3554 16.34 19.5654 16.41 19.7454 16.55C19.9454 16.69 20.0854 16.9 20.1654 17.18C20.2254 17.34 20.2654 17.5 20.2854 17.66C20.3054 17.8 20.3154 17.95 20.3154 18.11C20.3554 18.67 20.3454 19.2 20.2854 19.7C20.2254 20.18 20.1654 20.68 20.1054 21.2C20.0854 21.3 20.0754 21.38 20.0754 21.44C20.0754 21.48 20.0654 21.54 20.0454 21.62C20.1654 21.6 20.2654 21.58 20.3454 21.56C20.4254 21.52 20.4854 21.44 20.5254 21.32C20.8654 20.34 21.2454 19.39 21.6654 18.47C22.1054 17.53 22.5754 16.61 23.0754 15.71C24.0354 13.97 25.0054 12.37 25.9854 10.91C26.9854 9.45 28.1754 8.12 29.5554 6.92C29.7554 6.72 29.9754 6.57 30.2154 6.47C30.4554 6.37 30.6954 6.27 30.9354 6.17C31.2554 6.07 31.5754 6.08 31.8954 6.2C32.2154 6.32 32.4954 6.51 32.7354 6.77C32.9754 7.03 33.1554 7.33 33.2754 7.67C33.4154 8.01 33.4754 8.35 33.4554 8.69C33.4354 9.95 33.3554 11.32 33.2154 12.8C33.0954 14.26 32.9354 15.75 32.7354 17.27C32.5354 18.79 32.3054 20.29 32.0454 21.77C31.7854 23.25 31.5154 24.63 31.2354 25.91C30.9754 27.17 30.7154 28.28 30.4554 29.24C30.1954 30.22 29.9654 30.96 29.7654 31.46C29.7254 31.56 29.5554 31.75 29.2554 32.03C28.9754 32.33 28.6754 32.59 28.3554 32.81C28.0354 33.05 27.7554 33.17 27.5154 33.17C27.2754 33.19 27.1854 32.96 27.2454 32.48C27.7454 30.46 28.1854 28.43 28.5654 26.39C28.9654 24.33 29.3954 22.3 29.8554 20.3C29.8554 20.24 29.8654 20.19 29.8854 20.15C29.9054 20.11 29.9154 20.06 29.9154 20C29.7354 20.02 29.5654 20.04 29.4054 20.06C29.2454 20.08 29.0854 20.11 28.9254 20.15C27.8454 20.41 26.7854 20.68 25.7454 20.96C24.7054 21.24 23.6654 21.51 22.6254 21.77C22.4454 21.83 22.3054 21.91 22.2054 22.01C22.1254 22.11 22.0554 22.24 21.9954 22.4C21.8154 23 21.6354 23.61 21.4554 24.23C21.2954 24.83 21.1154 25.44 20.9154 26.06C20.8154 26.4 20.7254 26.73 20.6454 27.05C20.5654 27.35 20.4854 27.66 20.4054 27.98C20.3254 28.2 20.1954 28.28 20.0154 28.22C19.7154 28.1 19.4354 27.96 19.1754 27.8C18.9354 27.62 18.7354 27.39 18.5754 27.11C18.5154 27.03 18.4754 26.93 18.4554 26.81C18.4354 26.67 18.4354 26.54 18.4554 26.42C18.4554 26.06 18.5054 25.66 18.6054 25.22C18.6854 24.58 18.8054 23.94 18.9654 23.3C18.9654 23.2 18.9754 23.11 18.9954 23.03ZM22.3854 20.9C22.4654 20.86 22.5454 20.84 22.6254 20.84C23.1054 20.7 23.5754 20.57 24.0354 20.45C24.5154 20.31 24.9854 20.17 25.4454 20.03C26.1854 19.83 26.9154 19.68 27.6354 19.58C28.3554 19.48 29.0754 19.48 29.7954 19.58C29.9554 19.58 30.0454 19.51 30.0654 19.37C30.5454 17.41 30.9354 15.54 31.2354 13.76C31.5554 11.98 31.7654 10.18 31.8654 8.36C31.8654 8.2 31.8554 8.05 31.8354 7.91C31.8154 7.75 31.7954 7.59 31.7754 7.43C31.6554 7.09 31.4654 6.99 31.2054 7.13C31.1054 7.21 31.0054 7.28 30.9054 7.34C30.8054 7.4 30.7154 7.48 30.6354 7.58C29.8754 8.38 29.1754 9.21 28.5354 10.07C27.8954 10.91 27.2954 11.78 26.7354 12.68C26.1754 13.58 25.6454 14.5 25.1454 15.44C24.6654 16.36 24.1854 17.29 23.7054 18.23C23.4854 18.67 23.2654 19.11 23.0454 19.55C22.8254 19.99 22.6054 20.44 22.3854 20.9ZM20.1054 22.67C20.0854 22.67 20.0754 22.66 20.0754 22.64C20.0754 22.62 20.0654 22.61 20.0454 22.61C20.0054 22.65 19.9454 22.69 19.8654 22.73C19.8054 22.75 19.7654 22.78 19.7454 22.82C19.7054 22.98 19.6754 23.15 19.6554 23.33C19.6354 23.51 19.6154 23.71 19.5954 23.93H19.6254C19.7054 23.71 19.7854 23.5 19.8654 23.3C19.9454 23.08 20.0254 22.87 20.1054 22.67ZM36.0368 20.78C36.0568 20.74 36.0768 20.71 36.0968 20.69C36.1368 20.67 36.1568 20.65 36.1568 20.63C36.4168 20.23 36.7068 19.89 37.0268 19.61C37.3668 19.31 37.7168 19.03 38.0768 18.77C38.4768 18.49 38.8768 18.22 39.2768 17.96C39.6968 17.7 40.1168 17.45 40.5368 17.21C40.6968 17.11 40.8568 17.04 41.0168 17C41.1968 16.96 41.3768 16.92 41.5568 16.88C41.8968 16.82 42.1468 16.87 42.3068 17.03C42.4868 17.17 42.5368 17.38 42.4568 17.66C42.3568 18 42.1968 18.25 41.9768 18.41C41.6968 18.65 41.4168 18.88 41.1368 19.1C40.8568 19.3 40.5668 19.51 40.2668 19.73C39.9668 19.95 39.6468 20.17 39.3068 20.39C38.9668 20.59 38.6068 20.75 38.2268 20.87C38.1268 20.91 38.0768 20.96 38.0768 21.02C38.2768 21.6 38.4768 22.17 38.6768 22.73C38.8968 23.29 39.1668 23.85 39.4868 24.41C39.6468 24.65 39.8268 24.86 40.0268 25.04C40.2268 25.22 40.4668 25.39 40.7468 25.55C41.0668 25.71 41.3868 25.79 41.7068 25.79C42.0268 25.77 42.3468 25.62 42.6668 25.34C43.0268 25.06 43.3868 24.75 43.7468 24.41C44.1268 24.05 44.4968 23.68 44.8568 23.3C45.2168 22.92 45.5568 22.55 45.8768 22.19C46.2168 21.83 46.5268 21.5 46.8068 21.2C47.0468 20.96 47.2768 20.72 47.4968 20.48C47.7368 20.22 47.9768 19.94 48.2168 19.64C48.2568 19.6 48.2968 19.56 48.3368 19.52C48.3968 19.48 48.4468 19.44 48.4868 19.4C48.5068 19.42 48.5168 19.43 48.5168 19.43C48.4968 19.51 48.4768 19.59 48.4568 19.67C48.4568 19.75 48.4368 19.84 48.3968 19.94C47.8168 21.08 47.0468 22.2 46.0868 23.3C45.1268 24.4 44.1268 25.35 43.0868 26.15C42.5668 26.51 42.0068 26.78 41.4068 26.96C40.6668 27.18 40.0168 27.08 39.4568 26.66C39.2968 26.56 39.1368 26.45 38.9768 26.33C38.8368 26.19 38.7068 26.05 38.5868 25.91C38.0468 25.19 37.5668 24.43 37.1468 23.63C37.0268 23.33 36.9068 23.04 36.7868 22.76C36.6668 22.46 36.5468 22.18 36.4268 21.92C36.3668 21.84 36.3168 21.77 36.2768 21.71C36.2368 21.63 36.1868 21.55 36.1268 21.47C35.9268 21.59 35.7968 21.74 35.7368 21.92C35.6368 22.38 35.5368 22.85 35.4368 23.33C35.3368 23.79 35.2368 24.25 35.1368 24.71C35.0768 24.93 34.9368 25.07 34.7168 25.13C34.5168 25.17 34.2868 25.12 34.0268 24.98C33.7868 24.84 33.6368 24.66 33.5768 24.44C33.4968 24.22 33.4668 24 33.4868 23.78C33.5268 23.3 33.5668 22.84 33.6068 22.4C33.6268 21.96 33.6868 21.53 33.7868 21.11C33.8868 20.51 33.9968 19.92 34.1168 19.34C34.2368 18.74 34.3768 18.14 34.5368 17.54C35.0168 15.72 35.5568 14.04 36.1568 12.5C36.7768 10.96 37.4668 9.47 38.2268 8.03C38.3068 7.87 38.4068 7.71 38.5268 7.55C38.6468 7.37 38.8168 7.21 39.0368 7.07C39.4968 6.73 40.0468 6.67 40.6868 6.89C40.7868 6.93 40.8668 7 40.9268 7.1C41.0068 7.2 41.0468 7.3 41.0468 7.4C41.0868 7.8 41.0868 8.18 41.0468 8.54C40.8668 9.62 40.5668 10.68 40.1468 11.72C39.7468 12.76 39.2768 13.79 38.7368 14.81C38.4368 15.47 38.0968 16.11 37.7168 16.73C37.3368 17.35 36.9468 17.97 36.5468 18.59C36.3868 18.83 36.2868 19.07 36.2468 19.31C36.2268 19.55 36.1668 19.79 36.0668 20.03C36.0468 20.15 36.0268 20.28 36.0068 20.42C36.0068 20.54 35.9868 20.66 35.9468 20.78H36.0368ZM36.7268 16.76H36.8468C36.8868 16.7 36.9268 16.63 36.9668 16.55C37.0068 16.47 37.0568 16.38 37.1168 16.28C37.5368 15.48 37.9468 14.7 38.3468 13.94C38.7468 13.16 39.1068 12.35 39.4268 11.51C39.6268 10.93 39.7868 10.36 39.9068 9.8C40.0268 9.24 40.1168 8.69 40.1768 8.15C40.2368 8.07 40.2668 7.95 40.2668 7.79H40.1468C40.0868 7.87 40.0468 7.95 40.0268 8.03C39.6268 8.65 39.2768 9.3 38.9768 9.98C38.6968 10.66 38.4368 11.34 38.1968 12.02C37.9768 12.56 37.7868 13.12 37.6268 13.7C37.4668 14.26 37.2968 14.83 37.1168 15.41C37.0568 15.63 36.9968 15.85 36.9368 16.07C36.8768 16.29 36.8068 16.52 36.7268 16.76ZM37.1468 20.33C37.6868 20.15 38.2068 19.94 38.7068 19.7C39.2068 19.44 39.6568 19.18 40.0568 18.92C40.4568 18.64 40.7868 18.38 41.0468 18.14C41.3068 17.88 41.4668 17.68 41.5268 17.54C40.6268 17.86 39.8368 18.27 39.1568 18.77C38.4768 19.27 37.8068 19.79 37.1468 20.33ZM51.1277 22.67C50.9877 22.81 50.8577 22.94 50.7377 23.06C50.6377 23.18 50.5177 23.29 50.3777 23.39C50.1577 23.57 49.9477 23.74 49.7477 23.9C49.5477 24.04 49.3077 24.17 49.0277 24.29C48.7477 24.39 48.4277 24.4 48.0677 24.32C47.7077 24.24 47.4377 24.08 47.2577 23.84C47.1177 23.68 47.0277 23.52 46.9877 23.36C46.9277 23.18 46.8977 23 46.8977 22.82C46.8577 22.26 46.9277 21.75 47.1077 21.29C47.2677 20.81 47.5077 20.35 47.8277 19.91C48.0477 19.63 48.2977 19.36 48.5777 19.1C48.8777 18.84 49.1977 18.62 49.5377 18.44C49.8377 18.28 50.1577 18.16 50.4977 18.08C50.8377 17.98 51.1777 17.94 51.5177 17.96C51.6977 17.96 51.8577 18 51.9977 18.08C52.1577 18.14 52.3277 18.19 52.5077 18.23C52.5877 18.23 52.6477 18.25 52.6877 18.29C53.0077 18.33 53.2577 18.4 53.4377 18.5C53.5977 18.56 53.7077 18.68 53.7677 18.86C53.8277 19.04 53.8377 19.23 53.7977 19.43L53.2277 21.53C53.1677 21.75 53.1077 21.99 53.0477 22.25C53.0077 22.51 52.9777 22.77 52.9577 23.03C52.9577 23.29 52.9777 23.54 53.0177 23.78C53.0777 24.02 53.1777 24.23 53.3177 24.41C53.3777 24.55 53.4877 24.6 53.6477 24.56C54.1877 24.48 54.7777 24.19 55.4177 23.69C56.0777 23.17 56.6977 22.61 57.2777 22.01C57.8777 21.41 58.3877 20.85 58.8077 20.33C59.2277 19.81 59.4877 19.5 59.5877 19.4C59.6077 19.36 59.6477 19.34 59.7077 19.34C59.7077 19.44 59.6777 19.53 59.6177 19.61C59.2777 20.25 58.8977 20.89 58.4777 21.53C58.0777 22.15 57.6277 22.73 57.1277 23.27C56.6277 23.81 56.0777 24.29 55.4777 24.71C54.8977 25.13 54.2677 25.46 53.5877 25.7C53.3677 25.78 53.1277 25.82 52.8677 25.82C52.6277 25.82 52.3877 25.77 52.1477 25.67C51.9077 25.57 51.7177 25.42 51.5777 25.22C51.4377 25.02 51.3177 24.81 51.2177 24.59C51.1177 24.31 51.0577 24.04 51.0377 23.78C51.0377 23.5 51.0577 23.22 51.0977 22.94C51.0977 22.86 51.1077 22.77 51.1277 22.67ZM52.3877 18.53H52.2077C52.0277 18.53 51.8577 18.54 51.6977 18.56C51.5377 18.58 51.3777 18.6 51.2177 18.62C50.1577 18.88 49.4477 19.54 49.0877 20.6C49.0077 20.88 48.9377 21.15 48.8777 21.41C48.8377 21.67 48.8277 21.95 48.8477 22.25C48.8477 22.43 48.8977 22.65 48.9977 22.91C49.0777 23.07 49.2077 23.1 49.3877 23C49.6677 22.82 49.9177 22.61 50.1377 22.37C50.3577 22.11 50.5677 21.84 50.7677 21.56C51.1077 21.1 51.4077 20.63 51.6677 20.15C51.9277 19.65 52.1677 19.11 52.3877 18.53ZM62.1077 24.17C61.9477 24.29 61.7877 24.41 61.6277 24.53C61.4877 24.65 61.3377 24.75 61.1777 24.83C61.0377 24.93 60.8777 25.01 60.6977 25.07C60.5377 25.13 60.3777 25.18 60.2177 25.22C59.8777 25.32 59.5677 25.29 59.2877 25.13C59.0277 24.97 58.8377 24.72 58.7177 24.38C58.5977 24.08 58.5277 23.79 58.5077 23.51C58.4877 23.21 58.4977 22.9 58.5377 22.58C58.5977 22.1 58.6777 21.58 58.7777 21.02C58.8577 20.46 59.0177 19.98 59.2577 19.58C59.6577 18.94 60.1177 18.63 60.6377 18.65C61.1777 18.65 61.7177 18.83 62.2577 19.19C62.3777 19.29 62.4877 19.39 62.5877 19.49C62.6877 19.57 62.7977 19.66 62.9177 19.76C62.9377 19.78 62.9677 19.81 63.0077 19.85C63.0477 19.87 63.0877 19.89 63.1277 19.91C63.1677 19.73 63.1977 19.57 63.2177 19.43C63.2577 19.29 63.2877 19.15 63.3077 19.01C63.3677 18.73 63.4277 18.47 63.4877 18.23C63.5677 17.97 63.6377 17.7 63.6977 17.42C63.8177 16.9 63.9277 16.39 64.0277 15.89C64.1477 15.39 64.2677 14.89 64.3877 14.39C64.5077 13.79 64.6577 13.22 64.8377 12.68C65.0177 12.12 65.2177 11.57 65.4377 11.03C65.5777 10.67 65.7177 10.33 65.8577 10.01C65.9977 9.67 66.1777 9.35 66.3977 9.05C66.4977 8.87 66.6077 8.7 66.7277 8.54C66.8677 8.38 66.9977 8.22 67.1177 8.06C67.2377 7.9 67.3777 7.79 67.5377 7.73C67.7977 7.61 68.0077 7.61 68.1677 7.73C68.3477 7.83 68.4577 8.02 68.4977 8.3C68.5377 8.64 68.5377 8.97 68.4977 9.29C68.4577 9.61 68.3877 9.93 68.2877 10.25C68.0877 10.83 67.8977 11.42 67.7177 12.02C67.5377 12.62 67.3377 13.21 67.1177 13.79C66.7977 14.73 66.4677 15.66 66.1277 16.58C65.7877 17.5 65.4577 18.42 65.1377 19.34C64.8177 20.34 64.5277 21.34 64.2677 22.34C64.0077 23.32 63.7977 24.33 63.6377 25.37C63.5977 25.69 63.5777 26.01 63.5777 26.33C63.5977 26.63 63.6377 26.94 63.6977 27.26C63.7377 27.42 63.8277 27.57 63.9677 27.71C64.1277 27.83 64.2977 27.81 64.4777 27.65C64.6377 27.51 64.7977 27.36 64.9577 27.2C65.1377 27.04 65.3077 26.87 65.4677 26.69C65.9277 26.19 66.3877 25.64 66.8477 25.04C67.3277 24.44 67.7877 23.83 68.2277 23.21C68.6677 22.57 69.0777 21.94 69.4577 21.32C69.8577 20.68 70.2077 20.07 70.5077 19.49C70.6277 19.51 70.6477 19.66 70.5677 19.94C70.4877 20.22 70.3377 20.59 70.1177 21.05C69.9177 21.49 69.6477 22 69.3077 22.58C68.9877 23.14 68.6377 23.71 68.2577 24.29C67.8777 24.85 67.4877 25.4 67.0877 25.94C66.6877 26.46 66.3077 26.91 65.9477 27.29C65.8277 27.43 65.6977 27.56 65.5577 27.68C65.4377 27.8 65.3077 27.93 65.1677 28.07C65.0277 28.17 64.8777 28.27 64.7177 28.37C64.5777 28.45 64.4177 28.49 64.2377 28.49C63.7377 28.53 63.3277 28.32 63.0077 27.86C62.2077 26.88 61.8977 25.73 62.0777 24.41C62.0777 24.39 62.0777 24.36 62.0777 24.32C62.0977 24.28 62.1077 24.23 62.1077 24.17ZM60.8477 24.17C61.1077 23.91 61.3577 23.66 61.5977 23.42C61.8577 23.18 62.1177 22.93 62.3777 22.67C62.4177 22.63 62.4477 22.58 62.4677 22.52C62.4877 22.46 62.4977 22.41 62.4977 22.37C62.5577 22.09 62.6077 21.83 62.6477 21.59C62.7077 21.33 62.7577 21.07 62.7977 20.81C62.8377 20.77 62.8477 20.74 62.8277 20.72C62.8077 20.68 62.7877 20.64 62.7677 20.6C62.6077 20.46 62.4377 20.33 62.2577 20.21C62.0977 20.09 61.9377 19.98 61.7777 19.88C61.6177 19.72 61.5077 19.73 61.4477 19.91C61.2677 20.07 61.0877 20.29 60.9077 20.57C60.8477 20.67 60.7677 20.95 60.6677 21.41C60.5677 21.87 60.4877 22.34 60.4277 22.82C60.3877 23.28 60.3877 23.67 60.4277 23.99C60.4877 24.31 60.6277 24.37 60.8477 24.17ZM67.9577 8.45H67.9277C67.2877 9.75 66.7977 11.09 66.4577 12.47C66.1377 13.85 65.7777 15.23 65.3777 16.61C65.4177 16.59 65.4377 16.58 65.4377 16.58C65.7177 15.82 65.9977 15.06 66.2777 14.3C66.5777 13.52 66.8577 12.74 67.1177 11.96C67.2777 11.52 67.4077 11.1 67.5077 10.7C67.6277 10.28 67.7377 9.86 67.8377 9.44C67.8777 9.3 67.8977 9.14 67.8977 8.96C67.9177 8.78 67.9377 8.61 67.9577 8.45ZM98.055 23.06C98.255 22.2 98.445 21.39 98.625 20.63C98.805 19.87 98.955 19.29 99.075 18.89C99.415 17.87 99.705 16.85 99.945 15.83C100.185 14.81 100.395 13.78 100.575 12.74C100.675 12.2 100.725 11.67 100.725 11.15C100.745 10.61 100.705 10.07 100.605 9.53C100.425 8.53 99.885 8.1 98.985 8.24C98.765 8.3 98.565 8.4 98.385 8.54C97.785 8.94 97.225 9.38 96.705 9.86C96.185 10.32 95.675 10.82 95.175 11.36C94.775 11.8 94.385 12.26 94.005 12.74C93.645 13.2 93.295 13.67 92.955 14.15C91.915 15.57 90.935 17.02 90.015 18.5C89.095 19.98 88.215 21.5 87.375 23.06C87.115 23.52 86.855 23.98 86.595 24.44C86.335 24.9 86.095 25.37 85.875 25.85C85.695 26.25 85.515 26.67 85.335 27.11C85.155 27.55 84.985 27.98 84.825 28.4C84.805 28.48 84.775 28.56 84.735 28.64C84.715 28.7 84.685 28.76 84.645 28.82C84.545 29.04 84.465 29.16 84.405 29.18C84.365 29.22 84.245 29.22 84.045 29.18C83.845 29.14 83.655 29.09 83.475 29.03C83.295 28.97 83.125 28.89 82.965 28.79C82.745 28.63 82.575 28.44 82.455 28.22C82.355 27.98 82.345 27.7 82.425 27.38C82.565 26.74 82.695 26.11 82.815 25.49C82.935 24.85 83.075 24.2 83.235 23.54C83.375 22.86 83.495 22.17 83.595 21.47C83.695 20.77 83.745 20.07 83.745 19.37C83.745 19.13 83.725 18.91 83.685 18.71C83.645 18.49 83.605 18.27 83.565 18.05C83.525 17.83 83.435 17.66 83.295 17.54C83.155 17.4 83.005 17.28 82.845 17.18C82.765 17.12 82.675 17.14 82.575 17.24C82.475 17.32 82.425 17.41 82.425 17.51V20.09C82.425 20.27 82.425 20.47 82.425 20.69C82.425 20.89 82.405 21.09 82.365 21.29C82.285 21.61 82.145 21.93 81.945 22.25C81.785 22.49 81.605 22.71 81.405 22.91C81.225 23.09 81.005 23.24 80.745 23.36C80.165 23.64 79.725 23.53 79.425 23.03C79.345 22.95 79.285 22.8 79.245 22.58C79.085 21.7 79.105 20.87 79.305 20.09C79.505 19.31 79.845 18.57 80.325 17.87C80.325 17.85 80.325 17.84 80.325 17.84C80.345 17.84 80.355 17.83 80.355 17.81C80.555 17.67 80.675 17.52 80.715 17.36C80.755 17.18 80.765 16.97 80.745 16.73C80.705 16.29 80.625 15.87 80.505 15.47C80.405 15.07 80.295 14.67 80.175 14.27C80.095 14.07 79.995 13.9 79.875 13.76C79.575 13.32 79.205 13.27 78.765 13.61C78.465 13.89 78.205 14.19 77.985 14.51C77.765 14.81 77.575 15.14 77.415 15.5C76.895 16.8 76.525 18.12 76.305 19.46C76.065 20.8 75.965 22.16 76.005 23.54C76.005 24.06 76.105 24.52 76.305 24.92C76.325 24.96 76.335 25.02 76.335 25.1C76.355 25.16 76.345 25.21 76.305 25.25C76.265 25.29 76.215 25.33 76.155 25.37C76.095 25.39 76.045 25.39 76.005 25.37C75.785 25.23 75.635 25.09 75.555 24.95C75.495 24.73 75.445 24.52 75.405 24.32C75.345 24.12 75.315 23.91 75.315 23.69C75.215 22.39 75.255 21.12 75.435 19.88C75.615 18.64 75.915 17.41 76.335 16.19C76.495 15.75 76.665 15.32 76.845 14.9C77.045 14.48 77.285 14.08 77.565 13.7C77.705 13.56 77.835 13.42 77.955 13.28C78.075 13.12 78.215 12.97 78.375 12.83C78.815 12.51 79.305 12.44 79.845 12.62C80.245 12.74 80.575 12.95 80.835 13.25C81.095 13.53 81.345 13.85 81.585 14.21C81.785 14.51 81.955 14.84 82.095 15.2C82.235 15.54 82.335 15.91 82.395 16.31C82.495 16.29 82.595 16.27 82.695 16.25C82.815 16.23 82.925 16.22 83.025 16.22C83.605 16.16 84.205 16.21 84.825 16.37C85.605 16.61 86.035 17.17 86.115 18.05C86.155 18.47 86.175 18.9 86.175 19.34C86.175 19.76 86.175 20.19 86.175 20.63C86.155 21.19 86.115 21.75 86.055 22.31C86.015 22.85 85.975 23.4 85.935 23.96C85.975 23.88 86.015 23.8 86.055 23.72C86.095 23.64 86.135 23.57 86.175 23.51C86.575 22.79 86.975 22.07 87.375 21.35C87.775 20.61 88.185 19.87 88.605 19.13C89.885 16.93 91.255 14.85 92.715 12.89C93.355 12.01 94.035 11.18 94.755 10.4C95.495 9.62 96.285 8.9 97.125 8.24C97.465 7.98 97.815 7.73 98.175 7.49C98.535 7.23 98.915 7.02 99.315 6.86C99.535 6.78 99.775 6.7 100.035 6.62C100.295 6.54 100.555 6.47 100.815 6.41C101.815 6.19 102.485 6.66 102.825 7.82C102.985 8.34 103.065 8.87 103.065 9.41C103.065 9.93 103.045 10.45 103.005 10.97C102.865 12.23 102.685 13.47 102.465 14.69C102.265 15.89 102.025 17.1 101.745 18.32C101.545 19.12 101.355 19.91 101.175 20.69C100.995 21.47 100.815 22.24 100.635 23C100.575 23.36 100.475 23.84 100.335 24.44C100.215 25.02 100.135 25.61 100.095 26.21C100.075 26.79 100.135 27.31 100.275 27.77C100.415 28.21 100.715 28.47 101.175 28.55C101.055 28.83 100.895 29.04 100.695 29.18C100.515 29.34 100.315 29.45 100.095 29.51C99.895 29.59 99.695 29.63 99.495 29.63C99.295 29.65 99.125 29.66 98.985 29.66C98.405 29.62 98.005 29.37 97.785 28.91C97.565 28.45 97.445 27.89 97.425 27.23C97.425 26.57 97.495 25.87 97.635 25.13C97.775 24.37 97.915 23.68 98.055 23.06ZM80.085 22.31C80.405 21.79 80.585 21.23 80.625 20.63C80.665 20.03 80.705 19.44 80.745 18.86C80.425 19.38 80.195 19.93 80.055 20.51C79.935 21.07 79.945 21.67 80.085 22.31ZM113.782 19.31C113.722 19.41 113.652 19.5 113.572 19.58C113.512 19.66 113.452 19.74 113.392 19.82C113.032 20.26 112.662 20.69 112.282 21.11C111.922 21.53 111.542 21.94 111.142 22.34C110.682 22.8 110.192 23.24 109.672 23.66C109.152 24.06 108.612 24.46 108.052 24.86C107.692 25.1 107.312 25.33 106.912 25.55C106.532 25.75 106.152 25.94 105.772 26.12C105.292 26.34 104.812 26.41 104.332 26.33C103.712 26.23 103.282 25.88 103.042 25.28C102.942 24.96 102.892 24.64 102.892 24.32C102.872 23.98 102.882 23.64 102.922 23.3C102.962 22.78 103.042 22.27 103.162 21.77C103.282 21.27 103.412 20.76 103.552 20.24C103.652 19.84 103.782 19.45 103.942 19.07C104.102 18.69 104.262 18.31 104.422 17.93C104.462 17.89 104.502 17.84 104.542 17.78C104.602 17.72 104.652 17.69 104.692 17.69C104.872 17.67 105.042 17.65 105.202 17.63C105.382 17.61 105.552 17.62 105.712 17.66C105.932 17.68 106.102 17.77 106.222 17.93C106.342 18.09 106.402 18.28 106.402 18.5C106.422 18.7 106.392 18.9 106.312 19.1C106.252 19.3 106.172 19.49 106.072 19.67C105.832 20.25 105.602 20.83 105.382 21.41C105.182 21.99 105.032 22.58 104.932 23.18C104.892 23.46 104.862 23.74 104.842 24.02C104.842 24.28 104.842 24.55 104.842 24.83C104.862 25.05 104.912 25.18 104.992 25.22C105.092 25.26 105.252 25.25 105.472 25.19C106.192 24.93 106.902 24.58 107.602 24.14C108.322 23.7 109.012 23.22 109.672 22.7C110.352 22.16 111.002 21.61 111.622 21.05C112.262 20.49 112.882 19.97 113.482 19.49C113.542 19.45 113.632 19.37 113.752 19.25V19.31H113.782ZM105.412 16.82C105.232 16.78 105.062 16.75 104.902 16.73C104.762 16.71 104.632 16.63 104.512 16.49C104.412 16.35 104.362 16.2 104.362 16.04C104.362 15.86 104.432 15.7 104.572 15.56C104.672 15.46 104.782 15.39 104.902 15.35C105.042 15.29 105.182 15.24 105.322 15.2C105.422 15.2 105.502 15.19 105.562 15.17C105.622 15.13 105.692 15.1 105.772 15.08C105.952 14.98 106.132 14.93 106.312 14.93C106.492 14.91 106.672 14.96 106.852 15.08C106.972 15.18 107.062 15.32 107.122 15.5C107.182 15.68 107.162 15.83 107.062 15.95C106.922 16.17 106.742 16.34 106.522 16.46C106.322 16.56 106.112 16.65 105.892 16.73C105.792 16.75 105.702 16.77 105.622 16.79C105.542 16.81 105.472 16.82 105.412 16.82ZM114.875 20.78C114.895 20.74 114.915 20.71 114.935 20.69C114.975 20.67 114.995 20.65 114.995 20.63C115.255 20.23 115.545 19.89 115.865 19.61C116.205 19.31 116.555 19.03 116.915 18.77C117.315 18.49 117.715 18.22 118.115 17.96C118.535 17.7 118.955 17.45 119.375 17.21C119.535 17.11 119.695 17.04 119.855 17C120.035 16.96 120.215 16.92 120.395 16.88C120.735 16.82 120.985 16.87 121.145 17.03C121.325 17.17 121.375 17.38 121.295 17.66C121.195 18 121.035 18.25 120.815 18.41C120.535 18.65 120.255 18.88 119.975 19.1C119.695 19.3 119.405 19.51 119.105 19.73C118.805 19.95 118.485 20.17 118.145 20.39C117.805 20.59 117.445 20.75 117.065 20.87C116.965 20.91 116.915 20.96 116.915 21.02C117.115 21.6 117.315 22.17 117.515 22.73C117.735 23.29 118.005 23.85 118.325 24.41C118.485 24.65 118.665 24.86 118.865 25.04C119.065 25.22 119.305 25.39 119.585 25.55C119.905 25.71 120.225 25.79 120.545 25.79C120.865 25.77 121.185 25.62 121.505 25.34C121.865 25.06 122.225 24.75 122.585 24.41C122.965 24.05 123.335 23.68 123.695 23.3C124.055 22.92 124.395 22.55 124.715 22.19C125.055 21.83 125.365 21.5 125.645 21.2C125.885 20.96 126.115 20.72 126.335 20.48C126.575 20.22 126.815 19.94 127.055 19.64C127.095 19.6 127.135 19.56 127.175 19.52C127.235 19.48 127.285 19.44 127.325 19.4C127.345 19.42 127.355 19.43 127.355 19.43C127.335 19.51 127.315 19.59 127.295 19.67C127.295 19.75 127.275 19.84 127.235 19.94C126.655 21.08 125.885 22.2 124.925 23.3C123.965 24.4 122.965 25.35 121.925 26.15C121.405 26.51 120.845 26.78 120.245 26.96C119.505 27.18 118.855 27.08 118.295 26.66C118.135 26.56 117.975 26.45 117.815 26.33C117.675 26.19 117.545 26.05 117.425 25.91C116.885 25.19 116.405 24.43 115.985 23.63C115.865 23.33 115.745 23.04 115.625 22.76C115.505 22.46 115.385 22.18 115.265 21.92C115.205 21.84 115.155 21.77 115.115 21.71C115.075 21.63 115.025 21.55 114.965 21.47C114.765 21.59 114.635 21.74 114.575 21.92C114.475 22.38 114.375 22.85 114.275 23.33C114.175 23.79 114.075 24.25 113.975 24.71C113.915 24.93 113.775 25.07 113.555 25.13C113.355 25.17 113.125 25.12 112.865 24.98C112.625 24.84 112.475 24.66 112.415 24.44C112.335 24.22 112.305 24 112.325 23.78C112.365 23.3 112.405 22.84 112.445 22.4C112.465 21.96 112.525 21.53 112.625 21.11C112.725 20.51 112.835 19.92 112.955 19.34C113.075 18.74 113.215 18.14 113.375 17.54C113.855 15.72 114.395 14.04 114.995 12.5C115.615 10.96 116.305 9.47 117.065 8.03C117.145 7.87 117.245 7.71 117.365 7.55C117.485 7.37 117.655 7.21 117.875 7.07C118.335 6.73 118.885 6.67 119.525 6.89C119.625 6.93 119.705 7 119.765 7.1C119.845 7.2 119.885 7.3 119.885 7.4C119.925 7.8 119.925 8.18 119.885 8.54C119.705 9.62 119.405 10.68 118.985 11.72C118.585 12.76 118.115 13.79 117.575 14.81C117.275 15.47 116.935 16.11 116.555 16.73C116.175 17.35 115.785 17.97 115.385 18.59C115.225 18.83 115.125 19.07 115.085 19.31C115.065 19.55 115.005 19.79 114.905 20.03C114.885 20.15 114.865 20.28 114.845 20.42C114.845 20.54 114.825 20.66 114.785 20.78H114.875ZM115.565 16.76H115.685C115.725 16.7 115.765 16.63 115.805 16.55C115.845 16.47 115.895 16.38 115.955 16.28C116.375 15.48 116.785 14.7 117.185 13.94C117.585 13.16 117.945 12.35 118.265 11.51C118.465 10.93 118.625 10.36 118.745 9.8C118.865 9.24 118.955 8.69 119.015 8.15C119.075 8.07 119.105 7.95 119.105 7.79H118.985C118.925 7.87 118.885 7.95 118.865 8.03C118.465 8.65 118.115 9.3 117.815 9.98C117.535 10.66 117.275 11.34 117.035 12.02C116.815 12.56 116.625 13.12 116.465 13.7C116.305 14.26 116.135 14.83 115.955 15.41C115.895 15.63 115.835 15.85 115.775 16.07C115.715 16.29 115.645 16.52 115.565 16.76ZM115.985 20.33C116.525 20.15 117.045 19.94 117.545 19.7C118.045 19.44 118.495 19.18 118.895 18.92C119.295 18.64 119.625 18.38 119.885 18.14C120.145 17.88 120.305 17.68 120.365 17.54C119.465 17.86 118.675 18.27 117.995 18.77C117.315 19.27 116.645 19.79 115.985 20.33ZM129.966 22.67C129.826 22.81 129.696 22.94 129.576 23.06C129.476 23.18 129.356 23.29 129.216 23.39C128.996 23.57 128.786 23.74 128.586 23.9C128.386 24.04 128.146 24.17 127.866 24.29C127.586 24.39 127.266 24.4 126.906 24.32C126.546 24.24 126.276 24.08 126.096 23.84C125.956 23.68 125.866 23.52 125.826 23.36C125.766 23.18 125.736 23 125.736 22.82C125.696 22.26 125.766 21.75 125.946 21.29C126.106 20.81 126.346 20.35 126.666 19.91C126.886 19.63 127.136 19.36 127.416 19.1C127.716 18.84 128.036 18.62 128.376 18.44C128.676 18.28 128.996 18.16 129.336 18.08C129.676 17.98 130.016 17.94 130.356 17.96C130.536 17.96 130.696 18 130.836 18.08C130.996 18.14 131.166 18.19 131.346 18.23C131.426 18.23 131.486 18.25 131.526 18.29C131.846 18.33 132.096 18.4 132.276 18.5C132.436 18.56 132.546 18.68 132.606 18.86C132.666 19.04 132.676 19.23 132.636 19.43L132.066 21.53C132.006 21.75 131.946 21.99 131.886 22.25C131.846 22.51 131.816 22.77 131.796 23.03C131.796 23.29 131.816 23.54 131.856 23.78C131.916 24.02 132.016 24.23 132.156 24.41C132.216 24.55 132.326 24.6 132.486 24.56C133.026 24.48 133.616 24.19 134.256 23.69C134.916 23.17 135.536 22.61 136.116 22.01C136.716 21.41 137.226 20.85 137.646 20.33C138.066 19.81 138.326 19.5 138.426 19.4C138.446 19.36 138.486 19.34 138.546 19.34C138.546 19.44 138.516 19.53 138.456 19.61C138.116 20.25 137.736 20.89 137.316 21.53C136.916 22.15 136.466 22.73 135.966 23.27C135.466 23.81 134.916 24.29 134.316 24.71C133.736 25.13 133.106 25.46 132.426 25.7C132.206 25.78 131.966 25.82 131.706 25.82C131.466 25.82 131.226 25.77 130.986 25.67C130.746 25.57 130.556 25.42 130.416 25.22C130.276 25.02 130.156 24.81 130.056 24.59C129.956 24.31 129.896 24.04 129.876 23.78C129.876 23.5 129.896 23.22 129.936 22.94C129.936 22.86 129.946 22.77 129.966 22.67ZM131.226 18.53H131.046C130.866 18.53 130.696 18.54 130.536 18.56C130.376 18.58 130.216 18.6 130.056 18.62C128.996 18.88 128.286 19.54 127.926 20.6C127.846 20.88 127.776 21.15 127.716 21.41C127.676 21.67 127.666 21.95 127.686 22.25C127.686 22.43 127.736 22.65 127.836 22.91C127.916 23.07 128.046 23.1 128.226 23C128.506 22.82 128.756 22.61 128.976 22.37C129.196 22.11 129.406 21.84 129.606 21.56C129.946 21.1 130.246 20.63 130.506 20.15C130.766 19.65 131.006 19.11 131.226 18.53ZM150.906 19.46C150.906 19.58 150.886 19.68 150.846 19.76C150.626 20.32 150.356 20.95 150.036 21.65C149.736 22.33 149.446 22.93 149.166 23.45C148.786 24.19 148.366 24.92 147.906 25.64C147.466 26.36 146.976 27.05 146.436 27.71C146.176 28.05 145.896 28.34 145.596 28.58C145.316 28.82 144.976 29.02 144.576 29.18C143.916 29.46 143.426 29.26 143.106 28.58C142.726 27.58 142.536 26.52 142.536 25.4V22.37C142.536 22.01 142.476 21.66 142.356 21.32C142.316 21.1 142.236 20.98 142.116 20.96C142.016 20.92 141.856 20.95 141.636 21.05C141.196 21.29 140.796 21.6 140.436 21.98C140.096 22.36 139.756 22.72 139.416 23.06C139.136 23.36 138.786 23.51 138.366 23.51C137.946 23.51 137.626 23.35 137.406 23.03C137.366 22.93 137.346 22.84 137.346 22.76C137.346 22.68 137.346 22.6 137.346 22.52C137.446 22.06 137.536 21.6 137.616 21.14C137.676 20.66 137.766 20.17 137.886 19.67C138.126 18.55 138.376 17.47 138.636 16.43C138.916 15.39 139.226 14.37 139.566 13.37C139.926 12.35 140.316 11.36 140.736 10.4C141.176 9.42 141.686 8.43 142.266 7.43C142.466 7.09 142.786 6.81 143.226 6.59C143.666 6.35 144.066 6.18 144.426 6.08C144.606 6.02 144.786 6.04 144.966 6.14C145.166 6.22 145.286 6.37 145.326 6.59C145.386 6.91 145.386 7.28 145.326 7.7C145.226 8.54 145.036 9.38 144.756 10.22C144.496 11.06 144.206 11.9 143.886 12.74C143.606 13.26 143.336 13.8 143.076 14.36C142.836 14.9 142.576 15.43 142.296 15.95C142.036 16.39 141.776 16.83 141.516 17.27C141.276 17.69 140.956 18.08 140.556 18.44C140.516 18.5 140.456 18.55 140.376 18.59C140.316 18.61 140.236 18.57 140.136 18.47C140.016 19.07 139.886 19.66 139.746 20.24C139.626 20.82 139.506 21.39 139.386 21.95C139.406 21.95 139.436 21.96 139.476 21.98C139.716 21.84 139.936 21.67 140.136 21.47C140.336 21.27 140.536 21.08 140.736 20.9C140.956 20.72 141.186 20.57 141.426 20.45C141.666 20.33 141.956 20.27 142.296 20.27C142.636 20.29 142.966 20.36 143.286 20.48C143.606 20.58 143.896 20.74 144.156 20.96C144.356 21.12 144.496 21.3 144.576 21.5C144.696 21.96 144.756 22.41 144.756 22.85C144.696 23.63 144.636 24.4 144.576 25.16C144.536 25.9 144.566 26.65 144.666 27.41C144.686 27.49 144.706 27.57 144.726 27.65C144.746 27.73 144.766 27.81 144.786 27.89C144.866 28.07 145.006 28.09 145.206 27.95C145.306 27.85 145.406 27.75 145.506 27.65C145.606 27.55 145.696 27.44 145.776 27.32C146.416 26.56 146.966 25.76 147.426 24.92C147.566 24.68 147.726 24.41 147.906 24.11C148.106 23.79 148.306 23.47 148.506 23.15C148.706 22.83 148.896 22.52 149.076 22.22C149.276 21.92 149.456 21.65 149.616 21.41C149.776 21.15 149.936 20.89 150.096 20.63C150.256 20.35 150.426 20.07 150.606 19.79C150.626 19.73 150.656 19.68 150.696 19.64C150.756 19.58 150.806 19.52 150.846 19.46H150.906ZM140.286 18.11C140.286 18.13 140.306 18.14 140.346 18.14C140.586 17.74 140.816 17.34 141.036 16.94C141.276 16.54 141.506 16.14 141.726 15.74C142.006 15.18 142.276 14.62 142.536 14.06C142.796 13.48 143.036 12.9 143.256 12.32C143.396 11.96 143.526 11.6 143.646 11.24C143.786 10.86 143.916 10.47 144.036 10.07C144.156 9.61 144.256 9.15 144.336 8.69C144.436 8.23 144.486 7.75 144.486 7.25C144.506 7.21 144.506 7.17 144.486 7.13C144.486 7.09 144.486 7.05 144.486 7.01H144.456C144.356 7.09 144.256 7.23 144.156 7.43C143.936 7.87 143.706 8.31 143.466 8.75C143.226 9.17 143.006 9.61 142.806 10.07C142.226 11.49 141.706 12.86 141.246 14.18C140.786 15.5 140.466 16.81 140.286 18.11Z" fill="#A62800"/>
<path d="M25.779 55.708C25.779 56.644 25.239 57.184 24.171 57.184C23.235 57.184 22.719 56.764 22.383 56.764C22.143 56.764 21.951 56.992 21.951 57.232C21.951 57.88 23.391 58.12 24.159 58.12C25.671 58.12 26.787 57.208 26.787 55.624C26.787 53.524 24.807 53.5 23.655 52.9C23.379 52.756 22.959 52.492 22.959 51.7C22.959 50.656 23.691 50.356 24.459 50.356C25.275 50.356 25.587 50.692 25.959 50.692C26.259 50.692 26.439 50.476 26.439 50.236C26.439 49.564 24.987 49.42 24.387 49.42C22.899 49.42 21.963 50.308 21.963 51.76C21.963 53.884 23.955 53.896 25.095 54.496C25.395 54.652 25.779 54.928 25.779 55.708ZM31.1589 54.628C30.7869 54.52 30.3789 54.46 29.9469 54.46C28.5309 54.46 27.8349 55.06 27.8349 56.236V56.284C27.8349 57.364 28.4349 58.096 29.6709 58.096C30.3189 58.096 30.8589 57.88 31.3149 57.46C31.4949 57.832 31.8189 58.06 32.2149 58.06C32.4789 58.06 32.7549 57.952 32.7549 57.652C32.7549 57.448 32.6349 57.244 32.4069 57.244C32.3589 57.244 32.3469 57.256 32.3109 57.256C32.1669 57.256 32.0949 57.136 32.0949 56.896V54.256C32.0949 52.672 31.4949 51.832 29.9949 51.832C29.1669 51.832 28.2669 52.06 28.3149 52.612C28.3269 52.792 28.4229 53.008 28.6509 53.008C28.7829 53.008 28.9269 52.924 28.9629 52.912C29.2269 52.768 29.4549 52.66 29.8749 52.66C30.7389 52.66 31.1589 53.068 31.1589 53.944V54.628ZM29.9349 55.252C30.2949 55.252 30.7629 55.312 31.1589 55.432V56.728C30.7389 57.088 30.3309 57.256 29.8149 57.256C29.0109 57.256 28.7589 56.86 28.7589 56.296V56.248C28.7589 55.708 28.9509 55.252 29.9349 55.252ZM34.908 53.248C35.244 52.876 35.676 52.648 36.276 52.648C37.08 52.648 37.428 53.044 37.428 53.704V55.96C37.428 56.752 37.032 57.232 36.168 57.232C35.388 57.232 34.908 56.848 34.908 56.2V53.248ZM33.972 56.2C33.972 57.256 34.776 58.096 36.168 58.096C37.632 58.096 38.364 57.16 38.364 55.96V53.704C38.364 52.648 37.872 51.832 36.504 51.832C35.856 51.832 35.352 52.012 34.908 52.324V49.756C34.908 49.516 34.74 49.3 34.44 49.3C34.14 49.3 33.972 49.516 33.972 49.756V56.2ZM39.7962 55.564C39.7962 57.22 40.2042 58.048 41.8842 58.048C42.2202 58.048 42.5682 58 42.5682 57.592C42.5682 57.208 42.2202 57.16 41.9442 57.16C41.8722 57.16 41.7882 57.172 41.7162 57.172C40.8522 57.172 40.7322 56.716 40.7322 55.48V53.092H41.9802C42.2202 53.092 42.4122 52.9 42.4122 52.648C42.4122 52.396 42.2202 52.204 41.9802 52.204H40.7322V50.548C40.7322 50.296 40.5642 50.092 40.2642 50.092C39.9642 50.092 39.7962 50.296 39.7962 50.548V55.564ZM46.9056 56.524C46.9056 56.62 46.9176 56.74 46.9296 56.86C46.5336 57.112 46.0776 57.256 45.6096 57.256C44.8896 57.256 44.5056 56.74 44.5056 55.828V52.324C44.5056 52.072 44.3376 51.868 44.0376 51.868C43.7376 51.868 43.5696 52.072 43.5696 52.324V55.828C43.5696 57.184 44.2056 58.096 45.4776 58.096C46.0416 58.096 46.6536 57.964 47.1816 57.664C47.3136 57.88 47.4696 58.024 47.6976 58.024C47.9496 58.024 48.1416 57.832 48.1416 57.604C48.1416 57.496 48.0816 57.412 48.0576 57.364C47.9616 57.184 47.8416 57.184 47.8416 56.524V52.324C47.8416 52.072 47.6856 51.868 47.3736 51.868C47.0616 51.868 46.9056 52.072 46.9056 52.324V56.524ZM50.6508 57.46C50.6508 57.112 50.3628 56.824 50.0148 56.824C49.6548 56.824 49.3668 57.112 49.3668 57.46C49.3668 57.808 49.6188 58.084 49.9548 58.12C49.8108 58.624 49.5108 58.84 49.5108 59.224C49.5108 59.38 49.6188 59.428 49.7388 59.428C50.0628 59.428 50.6508 58.264 50.6508 57.46ZM58.25 57.628C58.25 57.88 58.466 58.108 58.73 58.108C58.994 58.108 59.21 57.88 59.21 57.628V49.936C59.21 49.648 58.982 49.42 58.694 49.42C58.586 49.42 58.502 49.444 58.406 49.504L56.042 51.016C55.898 51.112 55.826 51.268 55.826 51.436C55.826 51.652 56.042 51.844 56.246 51.844C56.414 51.844 56.606 51.712 56.774 51.604L58.25 50.656V57.628ZM65.846 56.212H66.362C66.614 56.212 66.806 56.008 66.806 55.756C66.806 55.516 66.614 55.312 66.362 55.312H65.846V52.96C65.846 52.696 65.63 52.492 65.378 52.492C65.114 52.492 64.91 52.696 64.91 52.96V55.312H62.522L64.67 49.96C64.694 49.912 64.694 49.852 64.694 49.804C64.694 49.54 64.454 49.324 64.226 49.324C64.058 49.324 63.89 49.432 63.818 49.6L61.514 55.372C61.454 55.492 61.418 55.66 61.418 55.696C61.418 55.972 61.622 56.212 61.91 56.212H64.91V57.64C64.91 57.904 65.114 58.108 65.378 58.108C65.642 58.108 65.846 57.904 65.846 57.64V56.212ZM76.6917 54.832V52.588C76.6917 50.98 75.8517 49.528 73.4037 49.528H72.0477C71.7357 49.528 71.4717 49.792 71.4717 50.104V57.424C71.4717 57.736 71.7357 58 72.0477 58H73.4037C75.8637 58 76.6917 56.476 76.6917 54.832ZM75.7317 54.832C75.7317 56.068 75.1917 57.064 73.6077 57.064H72.4317V50.464H73.6077C75.1677 50.464 75.7317 51.4 75.7317 52.588V54.832ZM80.0242 57.268C79.1602 57.268 78.7162 56.836 78.7162 56.164V55.456C79.1362 55.528 79.5802 55.564 79.9402 55.564C81.3682 55.564 81.9682 54.892 81.9682 53.788C81.9682 52.6 81.3082 51.832 79.9762 51.832C78.5482 51.832 77.7802 52.708 77.7802 53.86V56.104C77.7802 57.232 78.5602 58.096 79.9162 58.096C80.5642 58.096 81.8602 57.904 81.8602 57.316C81.8602 57.1 81.6802 56.896 81.4402 56.896C81.3562 56.896 81.2962 56.92 81.2722 56.932C80.8522 57.124 80.5282 57.268 80.0242 57.268ZM81.0442 53.788C81.0442 54.28 80.8882 54.772 79.9762 54.772C79.7362 54.772 79.1602 54.748 78.7162 54.688V53.776C78.7162 53.104 79.1722 52.684 79.9522 52.684C80.6482 52.684 81.0442 53.008 81.0442 53.788ZM83.0676 53.56C83.0676 55.144 84.6636 55.228 85.4196 55.636C85.6596 55.768 85.8636 55.948 85.8636 56.38C85.8636 57.004 85.4196 57.268 84.7596 57.268C84.2796 57.268 83.8956 57.124 83.5596 56.992C83.5236 56.98 83.5116 56.968 83.4396 56.968C83.1516 56.968 82.9956 57.196 82.9956 57.4C82.9956 57.952 84.1476 58.096 84.7596 58.096C86.0916 58.096 86.7756 57.424 86.7756 56.344C86.7756 54.784 85.3716 54.676 84.5436 54.268C84.1356 54.064 83.9796 53.872 83.9796 53.5C83.9796 52.948 84.3156 52.66 85.0476 52.66C85.4796 52.66 85.7076 52.756 85.9596 52.876C86.0316 52.912 86.0916 52.936 86.1756 52.936C86.4276 52.936 86.6076 52.732 86.6076 52.504C86.6076 52 85.6356 51.832 85.0116 51.832C83.7396 51.832 83.0676 52.528 83.0676 53.56ZM90.0906 57.268C89.2266 57.268 88.7826 56.836 88.7826 56.164V55.456C89.2026 55.528 89.6466 55.564 90.0066 55.564C91.4346 55.564 92.0346 54.892 92.0346 53.788C92.0346 52.6 91.3746 51.832 90.0426 51.832C88.6146 51.832 87.8466 52.708 87.8466 53.86V56.104C87.8466 57.232 88.6266 58.096 89.9826 58.096C90.6306 58.096 91.9266 57.904 91.9266 57.316C91.9266 57.1 91.7466 56.896 91.5066 56.896C91.4226 56.896 91.3626 56.92 91.3386 56.932C90.9186 57.124 90.5946 57.268 90.0906 57.268ZM91.1106 53.788C91.1106 54.28 90.9546 54.772 90.0426 54.772C89.8026 54.772 89.2266 54.748 88.7826 54.688V53.776C88.7826 53.104 89.2386 52.684 90.0186 52.684C90.7146 52.684 91.1106 53.008 91.1106 53.788ZM100.021 57.628C100.021 57.88 100.177 58.084 100.489 58.084C100.801 58.084 100.957 57.88 100.957 57.628V53.872C100.957 52.66 100.249 51.832 98.9535 51.832C98.2815 51.832 97.7175 52.06 97.2135 52.444C96.9135 52.048 96.4815 51.832 95.8215 51.832C95.1975 51.832 94.5975 52.036 94.0695 52.372C93.9495 52.18 93.7935 52.048 93.5895 52.048C93.3375 52.048 93.1455 52.228 93.1455 52.468C93.1455 52.588 93.2055 52.66 93.2295 52.708C93.3375 52.888 93.4455 52.888 93.4455 53.548V57.628C93.4455 57.88 93.6015 58.084 93.9135 58.084C94.2255 58.084 94.3815 57.88 94.3815 57.628V53.548C94.3815 53.44 94.3695 53.32 94.3455 53.176C94.6815 52.924 95.2095 52.696 95.7375 52.696C96.5895 52.696 96.7335 53.296 96.7335 54.148V57.628C96.7335 57.88 96.8895 58.084 97.2015 58.084C97.5135 58.084 97.6695 57.88 97.6695 57.628V53.872C97.6695 53.68 97.6455 53.5 97.6095 53.332C97.8975 52.972 98.4135 52.696 98.9295 52.696C99.6615 52.696 100.021 53.224 100.021 53.896V57.628ZM103.685 53.248C104.021 52.876 104.453 52.648 105.053 52.648C105.857 52.648 106.205 53.044 106.205 53.704V55.96C106.205 56.752 105.809 57.232 104.945 57.232C104.165 57.232 103.685 56.848 103.685 56.2V53.248ZM102.749 56.2C102.749 57.256 103.553 58.096 104.945 58.096C106.409 58.096 107.141 57.16 107.141 55.96V53.704C107.141 52.648 106.649 51.832 105.281 51.832C104.633 51.832 104.129 52.012 103.685 52.324V49.756C103.685 49.516 103.517 49.3 103.217 49.3C102.917 49.3 102.749 49.516 102.749 49.756V56.2ZM110.47 57.268C109.606 57.268 109.162 56.836 109.162 56.164V55.456C109.582 55.528 110.026 55.564 110.386 55.564C111.814 55.564 112.414 54.892 112.414 53.788C112.414 52.6 111.754 51.832 110.422 51.832C108.994 51.832 108.226 52.708 108.226 53.86V56.104C108.226 57.232 109.006 58.096 110.362 58.096C111.01 58.096 112.306 57.904 112.306 57.316C112.306 57.1 112.126 56.896 111.886 56.896C111.802 56.896 111.742 56.92 111.718 56.932C111.298 57.124 110.974 57.268 110.47 57.268ZM111.49 53.788C111.49 54.28 111.334 54.772 110.422 54.772C110.182 54.772 109.606 54.748 109.162 54.688V53.776C109.162 53.104 109.618 52.684 110.398 52.684C111.094 52.684 111.49 53.008 111.49 53.788ZM114.76 53.572C114.76 53.476 114.748 53.368 114.736 53.248C115.336 52.804 115.768 52.804 116.26 52.816C116.512 52.828 116.728 52.636 116.728 52.336C116.728 52.084 116.584 51.88 116.104 51.88C115.648 51.88 114.976 52.072 114.46 52.396C114.34 52.204 114.172 52.072 113.98 52.072C113.752 52.072 113.548 52.24 113.548 52.492C113.548 52.6 113.584 52.66 113.632 52.732C113.776 52.948 113.824 53.176 113.824 53.572V57.628C113.824 57.892 114.028 58.096 114.292 58.096C114.556 58.096 114.76 57.892 114.76 57.628V53.572ZM125.989 57.544C125.989 57.292 125.785 57.088 125.521 57.088H122.221C122.821 55.816 124.093 54.916 125.077 53.812C125.581 53.248 125.941 52.588 125.941 51.592C125.941 50.32 125.053 49.3 123.529 49.3C122.773 49.3 122.137 49.444 121.513 49.84C121.309 49.972 121.201 50.104 121.201 50.296C121.201 50.56 121.429 50.74 121.657 50.74C121.873 50.74 122.077 50.536 122.377 50.404C122.701 50.26 123.061 50.176 123.517 50.176C124.501 50.176 125.005 50.848 125.005 51.724C125.005 52.348 124.693 52.852 124.345 53.248C123.313 54.436 121.801 55.48 121.153 57.028C121.093 57.16 121.081 57.34 121.081 57.496C121.081 57.784 121.285 58 121.573 58H125.521C125.785 58 125.989 57.796 125.989 57.544ZM129.541 50.176C130.585 50.176 131.005 50.92 131.005 51.952V55.624C131.005 56.584 130.489 57.232 129.541 57.232C128.593 57.232 128.077 56.584 128.077 55.624V51.952C128.077 50.92 128.497 50.176 129.541 50.176ZM129.541 49.3C127.861 49.3 127.129 50.536 127.129 52.048V55.624C127.129 57.016 127.981 58.12 129.541 58.12C131.101 58.12 131.953 57.016 131.953 55.624V52.048C131.953 50.536 131.221 49.3 129.541 49.3ZM135.793 57.628C135.793 57.88 136.009 58.108 136.273 58.108C136.537 58.108 136.753 57.88 136.753 57.628V49.936C136.753 49.648 136.525 49.42 136.237 49.42C136.129 49.42 136.045 49.444 135.949 49.504L133.585 51.016C133.441 51.112 133.369 51.268 133.369 51.436C133.369 51.652 133.585 51.844 133.789 51.844C133.957 51.844 134.149 51.712 134.317 51.604L135.793 50.656V57.628ZM143.065 54.22C143.065 55.888 142.717 57.256 141.253 57.256C140.869 57.256 140.521 57.16 140.257 57.076C140.149 57.04 140.065 57.016 139.993 57.016C139.753 57.016 139.561 57.244 139.561 57.46C139.561 58.036 140.989 58.12 141.409 58.12C143.209 58.12 144.049 56.596 144.049 53.62C144.049 51.1 143.449 49.42 141.481 49.42C139.777 49.42 139.033 50.68 139.033 52.156C139.033 53.944 140.125 54.784 141.445 54.784C141.985 54.784 142.597 54.64 143.065 54.22ZM143.089 53.2C142.765 53.584 142.153 53.872 141.493 53.872C140.581 53.872 139.981 53.332 139.981 52.168C139.981 51.244 140.365 50.356 141.445 50.356C142.657 50.356 143.089 51.472 143.089 52.912V53.2ZM46.7648 67.88C48.4088 67.88 49.4648 66.932 49.4648 65.228C49.4648 63.824 48.7568 62.54 46.7648 62.54H45.0008C44.6888 62.54 44.4248 62.804 44.4248 63.116V70.616C44.4248 70.892 44.6528 71.12 44.9048 71.12C45.1688 71.12 45.3848 70.88 45.3848 70.616V67.88H46.7648ZM45.3848 63.476H46.7648C48.1808 63.476 48.5048 64.352 48.5048 65.216C48.5048 66.392 47.9048 66.944 46.7648 66.944H45.3848V63.476ZM54.1361 69.524C54.1361 69.62 54.1481 69.74 54.1601 69.86C53.7641 70.112 53.3081 70.256 52.8401 70.256C52.1201 70.256 51.7361 69.74 51.7361 68.828V65.324C51.7361 65.072 51.5681 64.868 51.2681 64.868C50.9681 64.868 50.8001 65.072 50.8001 65.324V68.828C50.8001 70.184 51.4361 71.096 52.7081 71.096C53.2721 71.096 53.8841 70.964 54.4121 70.664C54.5441 70.88 54.7001 71.024 54.9281 71.024C55.1801 71.024 55.3721 70.832 55.3721 70.604C55.3721 70.496 55.3121 70.412 55.2881 70.364C55.1921 70.184 55.0721 70.184 55.0721 69.524V65.324C55.0721 65.072 54.9161 64.868 54.6041 64.868C54.2921 64.868 54.1361 65.072 54.1361 65.324V69.524ZM57.8416 62.768C57.8416 62.504 57.6376 62.3 57.3736 62.3C57.1096 62.3 56.9056 62.504 56.9056 62.768V70.628C56.9056 70.892 57.1096 71.096 57.3736 71.096C57.6376 71.096 57.8416 70.892 57.8416 70.628V68.48L58.2736 68.036L60.1336 70.868C60.2296 71.024 60.3616 71.096 60.5176 71.096C60.7576 71.096 60.9496 70.94 60.9616 70.7C60.9616 70.616 60.9376 70.496 60.8896 70.424L58.8616 67.424L60.6256 65.624C60.7096 65.54 60.7456 65.432 60.7456 65.312C60.7456 65.072 60.5536 64.88 60.3016 64.88C60.1936 64.88 60.0736 64.916 60.0136 64.988L57.8416 67.244V62.768ZM65.3275 69.524C65.3275 69.62 65.3395 69.74 65.3515 69.86C64.9555 70.112 64.4995 70.256 64.0315 70.256C63.3115 70.256 62.9275 69.74 62.9275 68.828V65.324C62.9275 65.072 62.7595 64.868 62.4595 64.868C62.1595 64.868 61.9915 65.072 61.9915 65.324V68.828C61.9915 70.184 62.6275 71.096 63.8995 71.096C64.4635 71.096 65.0755 70.964 65.6035 70.664C65.7355 70.88 65.8915 71.024 66.1195 71.024C66.3715 71.024 66.5635 70.832 66.5635 70.604C66.5635 70.496 66.5035 70.412 66.4795 70.364C66.3835 70.184 66.2635 70.184 66.2635 69.524V65.324C66.2635 65.072 66.1075 64.868 65.7955 64.868C65.4835 64.868 65.3275 65.072 65.3275 65.324V69.524ZM68.097 69.872C68.097 70.952 68.553 71.096 68.853 71.096C69.093 71.096 69.285 70.904 69.285 70.664C69.285 70.568 69.237 70.484 69.201 70.436C69.057 70.292 69.033 70.136 69.033 69.872V62.768C69.033 62.504 68.829 62.3 68.565 62.3C68.301 62.3 68.097 62.516 68.097 62.768V69.872ZM76.7891 70.628C76.7891 70.88 77.0051 71.108 77.2691 71.108C77.5331 71.108 77.7491 70.88 77.7491 70.628V62.936C77.7491 62.648 77.5211 62.42 77.2331 62.42C77.1251 62.42 77.0411 62.444 76.9451 62.504L74.5811 64.016C74.4371 64.112 74.3651 64.268 74.3651 64.436C74.3651 64.652 74.5811 64.844 74.7851 64.844C74.9531 64.844 75.1451 64.712 75.3131 64.604L76.7891 63.656V70.628ZM81.0131 66.32C81.0131 64.652 81.3611 63.284 82.8251 63.284C83.2091 63.284 83.5571 63.38 83.8211 63.464C83.9291 63.5 84.0131 63.524 84.0851 63.524C84.3251 63.524 84.5171 63.296 84.5171 63.08C84.5171 62.504 83.0771 62.42 82.6691 62.42C80.8931 62.42 80.0291 64.052 80.0291 67.016C80.0291 69.404 80.5931 71.12 82.5491 71.12C84.2291 71.12 85.0451 69.86 85.0451 68.36C85.0451 66.632 83.9651 65.756 82.6331 65.756C82.0931 65.756 81.4811 65.9 81.0131 66.32ZM80.9891 67.34C81.3131 66.956 81.9371 66.668 82.5971 66.668C83.4971 66.668 84.0971 67.208 84.0971 68.384C84.0971 69.308 83.7251 70.184 82.5971 70.184C81.2651 70.184 80.9891 68.96 80.9891 67.628V67.34ZM87.5531 70.46C87.5531 70.112 87.2651 69.824 86.9171 69.824C86.5571 69.824 86.2691 70.112 86.2691 70.46C86.2691 70.82 86.5571 71.12 86.9171 71.12C87.2651 71.12 87.5531 70.82 87.5531 70.46ZM91.3027 63.176C92.3467 63.176 92.7667 63.92 92.7667 64.952V68.624C92.7667 69.584 92.2507 70.232 91.3027 70.232C90.3547 70.232 89.8387 69.584 89.8387 68.624V64.952C89.8387 63.92 90.2587 63.176 91.3027 63.176ZM91.3027 62.3C89.6227 62.3 88.8907 63.536 88.8907 65.048V68.624C88.8907 70.016 89.7427 71.12 91.3027 71.12C92.8627 71.12 93.7147 70.016 93.7147 68.624V65.048C93.7147 63.536 92.9827 62.3 91.3027 62.3ZM97.3027 63.176C98.3467 63.176 98.7667 63.92 98.7667 64.952V68.624C98.7667 69.584 98.2507 70.232 97.3027 70.232C96.3547 70.232 95.8387 69.584 95.8387 68.624V64.952C95.8387 63.92 96.2587 63.176 97.3027 63.176ZM97.3027 62.3C95.6227 62.3 94.8907 63.536 94.8907 65.048V68.624C94.8907 70.016 95.7427 71.12 97.3027 71.12C98.8627 71.12 99.7147 70.016 99.7147 68.624V65.048C99.7147 63.536 98.9827 62.3 97.3027 62.3ZM109.936 70.436C110.02 70.784 110.224 71.12 110.584 71.12C110.944 71.12 111.136 70.796 111.22 70.448L113.008 63.032C113.02 62.972 113.032 62.924 113.032 62.9C113.032 62.6 112.708 62.468 112.456 62.468C112.264 62.468 112.12 62.6 112.048 62.816L110.56 69.212L109.168 63.116C109.072 62.696 108.94 62.42 108.556 62.42C108.148 62.42 108.04 62.672 107.932 63.116L106.54 69.212L105.052 62.816C104.992 62.576 104.812 62.468 104.62 62.468C104.368 62.468 104.08 62.624 104.08 62.888C104.08 62.888 104.08 63.02 104.092 63.02L105.88 70.448C105.964 70.808 106.18 71.12 106.528 71.12C106.924 71.12 107.08 70.76 107.164 70.448L108.556 64.4L109.936 70.436ZM114.105 70.64C114.105 70.892 114.321 71.12 114.585 71.12C114.849 71.12 115.065 70.892 115.065 70.64V62.9C115.065 62.648 114.849 62.42 114.585 62.42C114.321 62.42 114.105 62.648 114.105 62.9V70.64ZM117.783 66.14V63.476H119.367C120.447 63.476 120.807 64.076 120.807 64.712C120.807 65.684 119.943 66.14 119.163 66.14H117.783ZM119.199 67.076C120.255 67.076 121.035 67.616 121.035 68.612C121.035 69.476 120.447 70.064 119.247 70.064H117.783V67.076H119.199ZM119.379 71C120.999 71 121.995 69.956 121.995 68.6C121.995 67.256 121.023 66.896 120.219 66.644C121.107 66.272 121.767 65.756 121.767 64.724C121.767 63.608 120.987 62.54 119.427 62.54H117.399C117.087 62.54 116.823 62.792 116.823 63.116V70.424C116.823 70.736 117.075 71 117.399 71H119.379Z" fill="#4E2E1F"/>
<path d="M21.6903 87.924C21.6903 87.648 21.4743 87.42 21.1863 87.42C20.9823 87.42 20.8023 87.504 20.6823 87.72L18.3423 92.748L16.0023 87.732C15.8943 87.528 15.7263 87.42 15.4863 87.42C15.1983 87.42 14.9823 87.636 14.9823 87.924V95.652C14.9823 95.904 15.1863 96.12 15.4383 96.12C15.7143 96.12 15.9423 95.904 15.9423 95.652V89.808L17.8743 93.936C17.9703 94.128 18.1383 94.224 18.3303 94.224C18.5343 94.224 18.7023 94.128 18.7983 93.936L20.7303 89.808V95.652C20.7303 95.904 20.9583 96.12 21.2223 96.12C21.4743 96.12 21.6903 95.904 21.6903 95.652V87.924ZM25.3289 95.268C24.4649 95.268 24.0209 94.836 24.0209 94.164V93.456C24.4409 93.528 24.8849 93.564 25.2449 93.564C26.6729 93.564 27.2729 92.892 27.2729 91.788C27.2729 90.6 26.6129 89.832 25.2809 89.832C23.8529 89.832 23.0849 90.708 23.0849 91.86V94.104C23.0849 95.232 23.8649 96.096 25.2209 96.096C25.8689 96.096 27.1649 95.904 27.1649 95.316C27.1649 95.1 26.9849 94.896 26.7449 94.896C26.6609 94.896 26.6009 94.92 26.5769 94.932C26.1569 95.124 25.8329 95.268 25.3289 95.268ZM26.3489 91.788C26.3489 92.28 26.1929 92.772 25.2809 92.772C25.0409 92.772 24.4649 92.748 24.0209 92.688V91.776C24.0209 91.104 24.4769 90.684 25.2569 90.684C25.9529 90.684 26.3489 91.008 26.3489 91.788ZM29.6198 91.572C29.6198 91.476 29.6078 91.368 29.5958 91.248C30.1958 90.804 30.6278 90.804 31.1198 90.816C31.3718 90.828 31.5878 90.636 31.5878 90.336C31.5878 90.084 31.4438 89.88 30.9638 89.88C30.5078 89.88 29.8358 90.072 29.3198 90.396C29.1998 90.204 29.0318 90.072 28.8398 90.072C28.6118 90.072 28.4078 90.24 28.4078 90.492C28.4078 90.6 28.4438 90.66 28.4918 90.732C28.6358 90.948 28.6838 91.176 28.6838 91.572V95.628C28.6838 95.892 28.8878 96.096 29.1518 96.096C29.4158 96.096 29.6198 95.892 29.6198 95.628V91.572ZM35.5847 92.628C35.2127 92.52 34.8047 92.46 34.3727 92.46C32.9567 92.46 32.2607 93.06 32.2607 94.236V94.284C32.2607 95.364 32.8607 96.096 34.0967 96.096C34.7447 96.096 35.2847 95.88 35.7407 95.46C35.9207 95.832 36.2447 96.06 36.6407 96.06C36.9047 96.06 37.1807 95.952 37.1807 95.652C37.1807 95.448 37.0607 95.244 36.8327 95.244C36.7847 95.244 36.7727 95.256 36.7367 95.256C36.5927 95.256 36.5207 95.136 36.5207 94.896V92.256C36.5207 90.672 35.9207 89.832 34.4207 89.832C33.5927 89.832 32.6927 90.06 32.7407 90.612C32.7527 90.792 32.8487 91.008 33.0767 91.008C33.2087 91.008 33.3527 90.924 33.3887 90.912C33.6527 90.768 33.8807 90.66 34.3007 90.66C35.1647 90.66 35.5847 91.068 35.5847 91.944V92.628ZM34.3607 93.252C34.7207 93.252 35.1887 93.312 35.5847 93.432V94.728C35.1647 95.088 34.7567 95.256 34.2407 95.256C33.4367 95.256 33.1847 94.86 33.1847 94.296V94.248C33.1847 93.708 33.3767 93.252 34.3607 93.252ZM40.7018 96.084C42.2258 96.084 42.7058 95.088 42.7058 93.66V92.1C42.7058 90.756 42.0578 89.832 40.7978 89.832C40.1738 89.832 39.5858 90.072 39.0458 90.36C38.9258 90.192 38.7698 90.072 38.5778 90.072C38.3738 90.072 38.1578 90.24 38.1578 90.492C38.1578 90.6 38.1938 90.66 38.2418 90.732C38.3858 90.948 38.4338 91.176 38.4338 91.572V98.124C38.4338 98.376 38.6018 98.58 38.9018 98.58C39.2018 98.58 39.3698 98.376 39.3698 98.124V95.856C39.8018 96 40.2938 96.084 40.7018 96.084ZM39.3698 91.572C39.3698 91.428 39.3458 91.26 39.3098 91.08C39.7178 90.828 40.1978 90.672 40.6058 90.672C41.3978 90.672 41.7698 91.164 41.7698 92.1V93.66C41.7698 94.776 41.4578 95.268 40.5818 95.268C40.2818 95.268 39.7538 95.196 39.3698 95.016V91.572ZM45.2802 87.984C45.2802 87.66 45.0282 87.408 44.7042 87.408C44.3802 87.408 44.1282 87.66 44.1282 87.984C44.1282 88.296 44.3802 88.56 44.7042 88.56C45.0282 88.56 45.2802 88.296 45.2802 87.984ZM45.1722 95.628V90.336C45.1722 90.084 44.9682 89.868 44.7042 89.868C44.4402 89.868 44.2362 90.084 44.2362 90.336V95.628C44.2362 95.892 44.4402 96.096 44.7042 96.096C44.9682 96.096 45.1722 95.892 45.1722 95.628ZM51.6153 91.14V88.476H53.1993C54.2793 88.476 54.6393 89.076 54.6393 89.712C54.6393 90.684 53.7753 91.14 52.9953 91.14H51.6153ZM53.0313 92.076C54.0873 92.076 54.8673 92.616 54.8673 93.612C54.8673 94.476 54.2793 95.064 53.0793 95.064H51.6153V92.076H53.0313ZM53.2113 96C54.8313 96 55.8273 94.956 55.8273 93.6C55.8273 92.256 54.8553 91.896 54.0513 91.644C54.9393 91.272 55.5993 90.756 55.5993 89.724C55.5993 88.608 54.8193 87.54 53.2593 87.54H51.2313C50.9193 87.54 50.6553 87.792 50.6553 88.116V95.424C50.6553 95.736 50.9073 96 51.2313 96H53.2113ZM60.1472 92.628C59.7752 92.52 59.3672 92.46 58.9352 92.46C57.5192 92.46 56.8232 93.06 56.8232 94.236V94.284C56.8232 95.364 57.4232 96.096 58.6592 96.096C59.3072 96.096 59.8472 95.88 60.3032 95.46C60.4832 95.832 60.8072 96.06 61.2032 96.06C61.4672 96.06 61.7432 95.952 61.7432 95.652C61.7432 95.448 61.6232 95.244 61.3952 95.244C61.3472 95.244 61.3352 95.256 61.2992 95.256C61.1552 95.256 61.0832 95.136 61.0832 94.896V92.256C61.0832 90.672 60.4832 89.832 58.9832 89.832C58.1552 89.832 57.2552 90.06 57.3032 90.612C57.3152 90.792 57.4112 91.008 57.6392 91.008C57.7712 91.008 57.9152 90.924 57.9512 90.912C58.2152 90.768 58.4432 90.66 58.8632 90.66C59.7272 90.66 60.1472 91.068 60.1472 91.944V92.628ZM58.9232 93.252C59.2832 93.252 59.7512 93.312 60.1472 93.432V94.728C59.7272 95.088 59.3192 95.256 58.8032 95.256C57.9992 95.256 57.7472 94.86 57.7472 94.296V94.248C57.7472 93.708 57.9392 93.252 58.9232 93.252ZM62.9603 94.872C62.9603 95.952 63.4163 96.096 63.7163 96.096C63.9563 96.096 64.1483 95.904 64.1483 95.664C64.1483 95.568 64.1003 95.484 64.0643 95.436C63.9203 95.292 63.8963 95.136 63.8963 94.872V87.768C63.8963 87.504 63.6923 87.3 63.4283 87.3C63.1643 87.3 62.9603 87.516 62.9603 87.768V94.872ZM65.6907 94.872C65.6907 95.952 66.1467 96.096 66.4467 96.096C66.6867 96.096 66.8787 95.904 66.8787 95.664C66.8787 95.568 66.8307 95.484 66.7947 95.436C66.6507 95.292 66.6267 95.136 66.6267 94.872V87.768C66.6267 87.504 66.4227 87.3 66.1587 87.3C65.8947 87.3 65.6907 87.516 65.6907 87.768V94.872ZM69.3932 91.572C69.3932 91.476 69.3812 91.368 69.3692 91.248C69.9692 90.804 70.4012 90.804 70.8932 90.816C71.1452 90.828 71.3612 90.636 71.3612 90.336C71.3612 90.084 71.2172 89.88 70.7372 89.88C70.2812 89.88 69.6092 90.072 69.0932 90.396C68.9732 90.204 68.8052 90.072 68.6132 90.072C68.3852 90.072 68.1812 90.24 68.1812 90.492C68.1812 90.6 68.2172 90.66 68.2652 90.732C68.4092 90.948 68.4572 91.176 68.4572 91.572V95.628C68.4572 95.892 68.6612 96.096 68.9252 96.096C69.1892 96.096 69.3932 95.892 69.3932 95.628V91.572ZM74.3133 96.096C75.7773 96.096 76.5573 95.16 76.5573 93.96V91.956C76.5573 90.756 75.7773 89.82 74.3133 89.82C72.8493 89.82 72.0693 90.756 72.0693 91.956V93.96C72.0693 95.16 72.8493 96.096 74.3133 96.096ZM74.3133 95.232C73.4493 95.232 73.0053 94.752 73.0053 93.96V91.944C73.0053 91.164 73.4493 90.684 74.3133 90.684C75.1773 90.684 75.6213 91.164 75.6213 91.944V93.96C75.6213 94.752 75.1773 95.232 74.3133 95.232ZM79.8797 96.096C81.3437 96.096 82.1237 95.16 82.1237 93.96V91.956C82.1237 90.756 81.3437 89.82 79.8797 89.82C78.4157 89.82 77.6357 90.756 77.6357 91.956V93.96C77.6357 95.16 78.4157 96.096 79.8797 96.096ZM79.8797 95.232C79.0157 95.232 78.5717 94.752 78.5717 93.96V91.944C78.5717 91.164 79.0157 90.684 79.8797 90.684C80.7437 90.684 81.1877 91.164 81.1877 91.944V93.96C81.1877 94.752 80.7437 95.232 79.8797 95.232ZM90.1621 95.628C90.1621 95.88 90.3181 96.084 90.6301 96.084C90.9421 96.084 91.0981 95.88 91.0981 95.628V91.872C91.0981 90.66 90.3901 89.832 89.0941 89.832C88.4221 89.832 87.8581 90.06 87.3541 90.444C87.0541 90.048 86.6221 89.832 85.9621 89.832C85.3381 89.832 84.7381 90.036 84.2101 90.372C84.0901 90.18 83.9341 90.048 83.7301 90.048C83.4781 90.048 83.2861 90.228 83.2861 90.468C83.2861 90.588 83.3461 90.66 83.3701 90.708C83.4781 90.888 83.5861 90.888 83.5861 91.548V95.628C83.5861 95.88 83.7421 96.084 84.0541 96.084C84.3661 96.084 84.5221 95.88 84.5221 95.628V91.548C84.5221 91.44 84.5101 91.32 84.4861 91.176C84.8221 90.924 85.3501 90.696 85.8781 90.696C86.7301 90.696 86.8741 91.296 86.8741 92.148V95.628C86.8741 95.88 87.0301 96.084 87.3421 96.084C87.6541 96.084 87.8101 95.88 87.8101 95.628V91.872C87.8101 91.68 87.7861 91.5 87.7501 91.332C88.0381 90.972 88.5541 90.696 89.0701 90.696C89.8021 90.696 90.1621 91.224 90.1621 91.896V95.628ZM101.672 95.628V87.9C101.672 87.648 101.444 87.42 101.192 87.42C100.94 87.42 100.712 87.648 100.712 87.9V91.296H97.4356V87.9C97.4356 87.648 97.2196 87.42 96.9556 87.42C96.6916 87.42 96.4756 87.648 96.4756 87.9V95.628C96.4756 95.892 96.6916 96.12 96.9556 96.12C97.2196 96.12 97.4356 95.892 97.4356 95.628V92.232H100.712V95.628C100.712 95.892 100.94 96.12 101.192 96.12C101.456 96.12 101.672 95.892 101.672 95.628ZM105.345 96.096C106.809 96.096 107.589 95.16 107.589 93.96V91.956C107.589 90.756 106.809 89.82 105.345 89.82C103.881 89.82 103.101 90.756 103.101 91.956V93.96C103.101 95.16 103.881 96.096 105.345 96.096ZM105.345 95.232C104.481 95.232 104.037 94.752 104.037 93.96V91.944C104.037 91.164 104.481 90.684 105.345 90.684C106.209 90.684 106.653 91.164 106.653 91.944V93.96C106.653 94.752 106.209 95.232 105.345 95.232ZM109.015 93.564C109.015 95.22 109.423 96.048 111.103 96.048C111.439 96.048 111.787 96 111.787 95.592C111.787 95.208 111.439 95.16 111.163 95.16C111.091 95.16 111.007 95.172 110.935 95.172C110.071 95.172 109.951 94.716 109.951 93.48V91.092H111.199C111.439 91.092 111.631 90.9 111.631 90.648C111.631 90.396 111.439 90.204 111.199 90.204H109.951V88.548C109.951 88.296 109.783 88.092 109.483 88.092C109.183 88.092 109.015 88.296 109.015 88.548V93.564ZM114.755 95.268C113.891 95.268 113.447 94.836 113.447 94.164V93.456C113.867 93.528 114.311 93.564 114.671 93.564C116.099 93.564 116.699 92.892 116.699 91.788C116.699 90.6 116.039 89.832 114.707 89.832C113.279 89.832 112.511 90.708 112.511 91.86V94.104C112.511 95.232 113.291 96.096 114.647 96.096C115.295 96.096 116.591 95.904 116.591 95.316C116.591 95.1 116.411 94.896 116.171 94.896C116.087 94.896 116.027 94.92 116.003 94.932C115.583 95.124 115.259 95.268 114.755 95.268ZM115.775 91.788C115.775 92.28 115.619 92.772 114.707 92.772C114.467 92.772 113.891 92.748 113.447 92.688V91.776C113.447 91.104 113.903 90.684 114.683 90.684C115.379 90.684 115.775 91.008 115.775 91.788ZM117.909 94.872C117.909 95.952 118.365 96.096 118.665 96.096C118.905 96.096 119.097 95.904 119.097 95.664C119.097 95.568 119.049 95.484 119.013 95.436C118.869 95.292 118.845 95.136 118.845 94.872V87.768C118.845 87.504 118.641 87.3 118.377 87.3C118.113 87.3 117.909 87.516 117.909 87.768V94.872ZM124.85 90.48C124.85 89.136 125.294 88.296 126.65 88.296C127.118 88.296 127.49 88.416 127.85 88.668C128.042 88.788 128.114 88.872 128.282 88.872C128.534 88.872 128.714 88.68 128.714 88.452C128.714 87.888 127.682 87.42 126.59 87.42C124.742 87.42 123.89 88.632 123.89 90.48V93.048C123.89 94.896 124.742 96.108 126.59 96.108C127.658 96.108 128.954 95.688 128.954 94.716V91.848C128.954 91.464 128.654 91.296 128.27 91.296H126.842C126.602 91.296 126.386 91.5 126.386 91.752C126.386 92.004 126.602 92.208 126.842 92.208H128.006V94.788C127.646 95.064 127.226 95.232 126.65 95.232C125.294 95.232 124.85 94.392 124.85 93.048V90.48ZM131.444 91.572C131.444 91.476 131.432 91.368 131.42 91.248C132.02 90.804 132.452 90.804 132.944 90.816C133.196 90.828 133.412 90.636 133.412 90.336C133.412 90.084 133.268 89.88 132.788 89.88C132.332 89.88 131.66 90.072 131.144 90.396C131.024 90.204 130.856 90.072 130.664 90.072C130.436 90.072 130.232 90.24 130.232 90.492C130.232 90.6 130.268 90.66 130.316 90.732C130.46 90.948 130.508 91.176 130.508 91.572V95.628C130.508 95.892 130.712 96.096 130.976 96.096C131.24 96.096 131.444 95.892 131.444 95.628V91.572ZM137.409 92.628C137.037 92.52 136.629 92.46 136.197 92.46C134.781 92.46 134.085 93.06 134.085 94.236V94.284C134.085 95.364 134.685 96.096 135.921 96.096C136.569 96.096 137.109 95.88 137.565 95.46C137.745 95.832 138.069 96.06 138.465 96.06C138.729 96.06 139.005 95.952 139.005 95.652C139.005 95.448 138.885 95.244 138.657 95.244C138.609 95.244 138.597 95.256 138.561 95.256C138.417 95.256 138.345 95.136 138.345 94.896V92.256C138.345 90.672 137.745 89.832 136.245 89.832C135.417 89.832 134.517 90.06 134.565 90.612C134.577 90.792 134.673 91.008 134.901 91.008C135.033 91.008 135.177 90.924 135.213 90.912C135.477 90.768 135.705 90.66 136.125 90.66C136.989 90.66 137.409 91.068 137.409 91.944V92.628ZM136.185 93.252C136.545 93.252 137.013 93.312 137.409 93.432V94.728C136.989 95.088 136.581 95.256 136.065 95.256C135.261 95.256 135.009 94.86 135.009 94.296V94.248C135.009 93.708 135.201 93.252 136.185 93.252ZM140.064 91.56C140.064 93.144 141.66 93.228 142.416 93.636C142.656 93.768 142.86 93.948 142.86 94.38C142.86 95.004 142.416 95.268 141.756 95.268C141.276 95.268 140.892 95.124 140.556 94.992C140.52 94.98 140.508 94.968 140.436 94.968C140.148 94.968 139.992 95.196 139.992 95.4C139.992 95.952 141.144 96.096 141.756 96.096C143.088 96.096 143.772 95.424 143.772 94.344C143.772 92.784 142.368 92.676 141.54 92.268C141.132 92.064 140.976 91.872 140.976 91.5C140.976 90.948 141.312 90.66 142.044 90.66C142.476 90.66 142.704 90.756 142.956 90.876C143.028 90.912 143.088 90.936 143.172 90.936C143.424 90.936 143.604 90.732 143.604 90.504C143.604 90 142.632 89.832 142.008 89.832C140.736 89.832 140.064 90.528 140.064 91.56ZM146.155 87.984C146.155 87.66 145.903 87.408 145.579 87.408C145.255 87.408 145.003 87.66 145.003 87.984C145.003 88.296 145.255 88.56 145.579 88.56C145.903 88.56 146.155 88.296 146.155 87.984ZM146.047 95.628V90.336C146.047 90.084 145.843 89.868 145.579 89.868C145.315 89.868 145.111 90.084 145.111 90.336V95.628C145.111 95.892 145.315 96.096 145.579 96.096C145.843 96.096 146.047 95.892 146.047 95.628ZM150.921 92.628C150.549 92.52 150.141 92.46 149.709 92.46C148.293 92.46 147.597 93.06 147.597 94.236V94.284C147.597 95.364 148.197 96.096 149.433 96.096C150.081 96.096 150.621 95.88 151.077 95.46C151.257 95.832 151.581 96.06 151.977 96.06C152.241 96.06 152.517 95.952 152.517 95.652C152.517 95.448 152.397 95.244 152.169 95.244C152.121 95.244 152.109 95.256 152.073 95.256C151.929 95.256 151.857 95.136 151.857 94.896V92.256C151.857 90.672 151.257 89.832 149.757 89.832C148.929 89.832 148.029 90.06 148.077 90.612C148.089 90.792 148.185 91.008 148.413 91.008C148.545 91.008 148.689 90.924 148.725 90.912C148.989 90.768 149.217 90.66 149.637 90.66C150.501 90.66 150.921 91.068 150.921 91.944V92.628ZM149.697 93.252C150.057 93.252 150.525 93.312 150.921 93.432V94.728C150.501 95.088 150.093 95.256 149.577 95.256C148.773 95.256 148.521 94.86 148.521 94.296V94.248C148.521 93.708 148.713 93.252 149.697 93.252Z" fill="#4E2E1F"/>
<path d="M3.45523 100.17C3.45523 100 3.29523 99.84 3.12523 99.84C2.93523 99.84 2.78523 99.99 2.78523 100.17V104.77C2.78523 105.8 2.58523 106.46 1.58523 106.46C1.37523 106.46 1.22523 106.43 1.11523 106.41C1.04523 106.4 0.975234 106.39 0.955234 106.39C0.835234 106.39 0.675234 106.5 0.675234 106.71C0.675234 107.07 1.20523 107.09 1.47523 107.09C2.99523 107.09 3.45523 106.21 3.45523 104.77V100.17ZM5.03289 106.1C5.03289 106.96 5.38289 107.07 5.60289 107.07C5.77289 107.07 5.89289 106.95 5.89289 106.78C5.89289 106.74 5.87289 106.67 5.85289 106.64C5.72289 106.5 5.67289 106.33 5.67289 106.1V100C5.67289 99.82 5.53289 99.67 5.35289 99.67C5.17289 99.67 5.03289 99.83 5.03289 100V106.1ZM7.97156 106.61C7.97156 106.36 7.77156 106.14 7.51156 106.14C7.25156 106.14 7.03156 106.36 7.03156 106.61C7.03156 106.88 7.25156 107.09 7.51156 107.09C7.77156 107.09 7.97156 106.88 7.97156 106.61ZM12.8243 102.37C12.8243 101.18 13.2243 100.43 14.4343 100.43C14.8343 100.43 15.1743 100.55 15.4943 100.77C15.5243 100.79 15.5843 100.81 15.6043 100.83C15.6843 100.88 15.7343 100.92 15.8243 100.92C15.9843 100.92 16.1143 100.8 16.1143 100.64C16.1143 100.21 15.2743 99.84 14.3843 99.84C12.8643 99.84 12.1543 100.84 12.1543 102.37V104.56C12.1543 106.08 12.8643 107.08 14.3843 107.08C15.2543 107.08 16.3143 106.74 16.3143 105.98V103.54C16.3143 103.26 16.1043 103.14 15.8143 103.14H14.5943C14.4343 103.14 14.2843 103.28 14.2843 103.45C14.2843 103.63 14.4343 103.76 14.5943 103.76H15.6643V106.08C15.3343 106.34 14.9443 106.49 14.4343 106.49C13.2243 106.49 12.8243 105.74 12.8243 104.56V102.37ZM20.5096 105.8C20.5096 105.93 20.5196 106.03 20.5296 106.13C20.1596 106.37 19.7396 106.51 19.3196 106.51C18.6496 106.51 18.2896 106.03 18.2896 105.21V102.2C18.2896 102.02 18.1796 101.88 17.9696 101.88C17.7596 101.88 17.6396 102.02 17.6396 102.2V105.21C17.6396 106.32 18.1696 107.07 19.2096 107.07C19.6796 107.07 20.2096 106.96 20.6896 106.68C20.8196 106.88 20.9496 107.01 21.1196 107.01C21.2796 107.01 21.4196 106.89 21.4196 106.73C21.4196 106.63 21.3296 106.52 21.2696 106.45C21.2096 106.38 21.1596 106.3 21.1596 105.8V102.2C21.1596 102.02 21.0496 101.88 20.8396 101.88C20.6196 101.88 20.5096 102.02 20.5096 102.2V105.8ZM23.2275 102.36C23.1175 102.14 22.9475 102.03 22.8175 102.03C22.6675 102.03 22.5275 102.15 22.5275 102.32C22.5275 102.38 22.5475 102.44 22.5875 102.49C22.7275 102.69 22.7675 102.9 22.7675 103.25V106.75C22.7675 106.93 22.8775 107.06 23.0975 107.06C23.3075 107.06 23.4175 106.93 23.4175 106.75V103.25C23.4175 103.14 23.4075 103.02 23.3875 102.91C23.7675 102.62 24.1875 102.43 24.6075 102.43C25.2775 102.43 25.6275 102.91 25.6275 103.74V106.75C25.6275 106.93 25.7475 107.06 25.9575 107.06C26.1675 107.06 26.2775 106.93 26.2775 106.75V103.74C26.2775 102.62 25.7675 101.87 24.7275 101.87C24.2375 101.87 23.7175 102.02 23.2275 102.36ZM27.8354 104.98C27.8354 106.35 28.1754 107.03 29.5554 107.03C29.7954 107.03 30.0554 107 30.0554 106.72C30.0554 106.45 29.7954 106.42 29.6054 106.42C29.5354 106.42 29.4754 106.43 29.4054 106.43C28.5954 106.43 28.4754 106.02 28.4754 104.91V102.77H29.6354C29.7954 102.77 29.9254 102.64 29.9254 102.48C29.9254 102.3 29.7954 102.17 29.6354 102.17H28.4754V100.67C28.4754 100.5 28.3654 100.35 28.1554 100.35C27.9454 100.35 27.8354 100.5 27.8354 100.67V104.98ZM33.8299 105.8C33.8299 105.93 33.8399 106.03 33.8499 106.13C33.4799 106.37 33.0599 106.51 32.6399 106.51C31.9699 106.51 31.6099 106.03 31.6099 105.21V102.2C31.6099 102.02 31.4999 101.88 31.2899 101.88C31.0799 101.88 30.9599 102.02 30.9599 102.2V105.21C30.9599 106.32 31.4899 107.07 32.5299 107.07C32.9999 107.07 33.5299 106.96 34.0099 106.68C34.1399 106.88 34.2699 107.01 34.4399 107.01C34.5999 107.01 34.7399 106.89 34.7399 106.73C34.7399 106.63 34.6499 106.52 34.5899 106.45C34.5299 106.38 34.4799 106.3 34.4799 105.8V102.2C34.4799 102.02 34.3699 101.88 34.1599 101.88C33.9399 101.88 33.8299 102.02 33.8299 102.2V105.8ZM36.7478 103.27C36.7478 102.97 36.7378 102.96 36.7378 102.96V102.95C37.2878 102.54 37.6678 102.54 38.1178 102.55C38.2878 102.56 38.4378 102.41 38.4378 102.21C38.4378 102.03 38.3278 101.89 37.9778 101.89C37.6078 101.89 37.0178 102.06 36.5478 102.36C36.4378 102.18 36.2878 102.05 36.1578 102.05C35.9978 102.05 35.8578 102.17 35.8578 102.34C35.8578 102.4 35.8778 102.46 35.9178 102.51C36.0578 102.71 36.0978 102.92 36.0978 103.27V106.75C36.0978 106.93 36.2378 107.07 36.4278 107.07C36.5978 107.07 36.7478 106.93 36.7478 106.75V103.27ZM46.515 107.09C46.735 107.09 46.885 106.93 46.885 106.72V100.18C46.885 100 46.745 99.84 46.565 99.84C46.385 99.84 46.225 100 46.225 100.18V105.77L43.135 100.05C43.065 99.92 42.925 99.84 42.775 99.84C42.565 99.84 42.405 100 42.405 100.22V106.75C42.405 106.94 42.555 107.09 42.735 107.09C42.925 107.09 43.075 106.94 43.075 106.75V101.19L46.165 106.9C46.225 107.02 46.385 107.09 46.515 107.09ZM49.9711 107.07C51.1811 107.07 51.8211 106.31 51.8211 105.32V103.6C51.8211 102.61 51.1811 101.84 49.9711 101.84C48.7711 101.84 48.1211 102.61 48.1211 103.6V105.32C48.1211 106.31 48.7711 107.07 49.9711 107.07ZM49.9711 106.48C49.1811 106.48 48.7711 106.04 48.7711 105.32V103.59C48.7711 102.87 49.1811 102.42 49.9711 102.42C50.7711 102.42 51.1711 102.87 51.1711 103.59V105.32C51.1711 106.04 50.7711 106.48 49.9711 106.48ZM53.7235 106.61C53.7235 106.36 53.5235 106.14 53.2635 106.14C53.0035 106.14 52.7835 106.36 52.7835 106.61C52.7835 106.88 53.0035 107.09 53.2635 107.09C53.5235 107.09 53.7235 106.88 53.7235 106.61ZM58.5682 100.58C58.6282 100.51 58.6482 100.44 58.6482 100.34C58.6482 100.1 58.4982 99.95 58.2982 99.95H55.4382C55.2582 99.95 55.1182 100.11 55.1182 100.3C55.1182 100.47 55.2582 100.61 55.4382 100.61H57.8782L55.9482 103.11C55.7882 103.31 55.9382 103.6 56.1482 103.6C56.2182 103.6 56.2582 103.61 56.3882 103.55C56.4982 103.5 56.6182 103.47 56.7582 103.47C57.5982 103.47 58.2182 103.87 58.2182 104.87C58.2182 105.63 57.8782 106.5 56.7582 106.5C56.1582 106.5 55.8082 106.32 55.4682 106.15C55.3882 106.11 55.3282 106.09 55.2882 106.09C55.1182 106.09 54.9882 106.24 54.9882 106.41C54.9882 106.99 56.3982 107.08 56.7882 107.08C58.2682 107.08 58.8782 105.85 58.8782 104.83C58.8782 103.62 57.9782 102.93 56.7582 102.9L58.5682 100.58ZM63.5763 102.37C63.5763 101.18 63.9763 100.43 65.1863 100.43C65.5863 100.43 65.9263 100.55 66.2463 100.77C66.2763 100.79 66.3363 100.81 66.3563 100.83C66.4363 100.88 66.4863 100.92 66.5763 100.92C66.7363 100.92 66.8663 100.8 66.8663 100.64C66.8663 100.21 66.0263 99.84 65.1363 99.84C63.6163 99.84 62.9063 100.84 62.9063 102.37V104.56C62.9063 106.08 63.6163 107.08 65.1363 107.08C66.0063 107.08 67.0663 106.74 67.0663 105.98V103.54C67.0663 103.26 66.8563 103.14 66.5663 103.14H65.3462C65.1863 103.14 65.0363 103.28 65.0363 103.45C65.0363 103.63 65.1863 103.76 65.3462 103.76H66.4163V106.08C66.0863 106.34 65.6963 106.49 65.1863 106.49C63.9763 106.49 63.5763 105.74 63.5763 104.56V102.37ZM70.9125 104.28C70.5225 104.17 70.1425 104.1 69.8025 104.1C68.6325 104.1 68.0625 104.6 68.0625 105.56V105.6C68.0625 106.47 68.5525 107.07 69.5625 107.07C70.1025 107.07 70.5725 106.87 70.9925 106.47C71.1725 106.82 71.4425 107.04 71.7525 107.04C71.9325 107.04 72.1325 106.97 72.1325 106.77C72.1325 106.64 72.0625 106.5 71.9125 106.5C71.8925 106.5 71.8725 106.51 71.8325 106.51C71.6525 106.51 71.5625 106.38 71.5625 106.12V103.86C71.5625 102.55 71.0725 101.85 69.8425 101.85C69.1725 101.85 68.4325 102.02 68.4725 102.44C68.4825 102.56 68.5425 102.7 68.6925 102.7C68.7925 102.7 68.8725 102.66 68.9325 102.62C69.1625 102.48 69.3725 102.4 69.7425 102.4C70.5325 102.4 70.9125 102.78 70.9125 103.59V104.28ZM69.7925 104.63C70.0925 104.63 70.5125 104.69 70.9125 104.82V106.02C70.5225 106.35 70.1525 106.51 69.6925 106.51C68.9325 106.51 68.7025 106.13 68.7025 105.61V105.57C68.7025 105.06 68.8725 104.63 69.7925 104.63ZM73.9567 102.21C73.9567 102.03 73.8067 101.88 73.6367 101.88C73.4467 101.88 73.3067 102.03 73.3067 102.21V107.27C73.3067 108.07 72.9667 108.39 72.3667 108.53C72.2367 108.55 72.0667 108.65 72.1167 108.88C72.1467 109 72.2667 109.08 72.3867 109.08C72.4467 109.08 72.4867 109.09 72.5667 109.08C73.4167 108.94 73.9567 108.24 73.9567 107.23V102.21ZM74.0467 100.19C74.0467 99.95 73.8567 99.77 73.6367 99.77C73.3967 99.77 73.2067 99.95 73.2067 100.19C73.2067 100.41 73.3967 100.6 73.6367 100.6C73.8567 100.6 74.0467 100.41 74.0467 100.19ZM78.1879 104.28C77.7979 104.17 77.4179 104.1 77.0779 104.1C75.9079 104.1 75.3379 104.6 75.3379 105.56V105.6C75.3379 106.47 75.8279 107.07 76.8379 107.07C77.3779 107.07 77.8479 106.87 78.2679 106.47C78.4479 106.82 78.7179 107.04 79.0279 107.04C79.2079 107.04 79.4079 106.97 79.4079 106.77C79.4079 106.64 79.3379 106.5 79.1879 106.5C79.1679 106.5 79.1479 106.51 79.1079 106.51C78.9279 106.51 78.8379 106.38 78.8379 106.12V103.86C78.8379 102.55 78.3479 101.85 77.1179 101.85C76.4479 101.85 75.7079 102.02 75.7479 102.44C75.7579 102.56 75.8179 102.7 75.9679 102.7C76.0679 102.7 76.1479 102.66 76.2079 102.62C76.4379 102.48 76.6479 102.4 77.0179 102.4C77.8079 102.4 78.1879 102.78 78.1879 103.59V104.28ZM77.0679 104.63C77.3679 104.63 77.7879 104.69 78.1879 104.82V106.02C77.7979 106.35 77.4279 106.51 76.9679 106.51C76.2079 106.51 75.9779 106.13 75.9779 105.61V105.57C75.9779 105.06 76.1479 104.63 77.0679 104.63ZM81.0921 106.75V103.1C81.4321 102.65 81.9421 102.44 82.3721 102.44C83.0621 102.44 83.3421 102.82 83.3421 103.5V106.75C83.3421 106.93 83.4921 107.07 83.6721 107.07C83.8521 107.07 83.9921 106.93 83.9921 106.75V103.49C83.9921 102.53 83.5221 101.85 82.4721 101.85C82.0021 101.85 81.5221 102.04 81.0921 102.37V99.94C81.0921 99.75 80.9521 99.61 80.7721 99.61C80.5921 99.61 80.4621 99.78 80.4621 99.94V106.75C80.4621 106.93 80.6021 107.07 80.7921 107.07C80.9621 107.07 81.0921 106.93 81.0921 106.75ZM94.0285 100.2C94.0285 100 93.8685 99.84 93.6785 99.84C93.5385 99.84 93.4085 99.9 93.3185 100.06V100.05L91.2585 104.49L89.1885 100.06V100.07C89.1085 99.92 88.9985 99.84 88.8285 99.84C88.6185 99.84 88.4685 99.99 88.4685 100.2V106.78C88.4685 106.95 88.6085 107.09 88.7785 107.09C88.9785 107.09 89.1285 106.95 89.1285 106.78V101.48L90.9285 105.28C90.9885 105.4 91.1085 105.48 91.2485 105.48C91.3785 105.48 91.4985 105.41 91.5685 105.28C92.1085 104.13 92.8285 102.63 93.3585 101.48V106.78C93.3585 106.95 93.5285 107.09 93.7085 107.09C93.8785 107.09 94.0285 106.95 94.0285 106.78V100.2ZM98.3807 105.8C98.3807 105.93 98.3907 106.03 98.4007 106.13C98.0307 106.37 97.6107 106.51 97.1907 106.51C96.5207 106.51 96.1607 106.03 96.1607 105.21V102.2C96.1607 102.02 96.0507 101.88 95.8407 101.88C95.6307 101.88 95.5107 102.02 95.5107 102.2V105.21C95.5107 106.32 96.0407 107.07 97.0807 107.07C97.5507 107.07 98.0807 106.96 98.5607 106.68C98.6907 106.88 98.8207 107.01 98.9907 107.01C99.1507 107.01 99.2907 106.89 99.2907 106.73C99.2907 106.63 99.2007 106.52 99.1407 106.45C99.0807 106.38 99.0307 106.3 99.0307 105.8V102.2C99.0307 102.02 98.9207 101.88 98.7107 101.88C98.4907 101.88 98.3807 102.02 98.3807 102.2V105.8ZM101.099 102.36C100.989 102.14 100.819 102.03 100.689 102.03C100.539 102.03 100.399 102.15 100.399 102.32C100.399 102.38 100.419 102.44 100.459 102.49C100.599 102.69 100.639 102.9 100.639 103.25V106.75C100.639 106.93 100.749 107.06 100.969 107.06C101.179 107.06 101.289 106.93 101.289 106.75V103.25C101.289 103.14 101.279 103.02 101.259 102.91C101.639 102.62 102.059 102.43 102.479 102.43C103.149 102.43 103.499 102.91 103.499 103.74V106.75C103.499 106.93 103.619 107.06 103.829 107.06C104.039 107.06 104.149 106.93 104.149 106.75V103.74C104.149 102.62 103.639 101.87 102.599 101.87C102.109 101.87 101.589 102.02 101.099 102.36ZM107.022 101.85C105.832 101.85 105.252 102.63 105.252 103.66C105.252 104.25 105.452 104.75 105.852 105.12C105.502 105.43 105.412 105.74 105.412 105.96C105.412 106.19 105.492 106.5 105.752 106.75C105.382 107.08 105.182 107.47 105.182 107.93C105.182 108.88 105.962 109.43 107.082 109.43C108.252 109.43 109.112 108.83 109.112 107.84C109.112 106.89 108.262 106.45 107.132 106.45H106.702C106.442 106.45 106.062 106.35 106.062 105.93C106.062 105.78 106.102 105.58 106.232 105.35C106.492 105.45 106.782 105.51 107.082 105.51C108.272 105.51 108.862 104.73 108.862 103.73V103.09C108.862 102.62 109.022 102.46 109.362 102.14L109.452 102.04C109.472 102.02 109.492 101.97 109.492 101.89C109.492 101.72 109.362 101.6 109.192 101.6C109.002 101.6 108.652 101.79 108.412 102.23C107.992 101.98 107.482 101.85 107.022 101.85ZM108.222 103.1V103.75C108.222 104.48 107.872 104.92 107.082 104.92C106.252 104.92 105.902 104.42 105.902 103.68C105.902 102.87 106.312 102.41 107.122 102.41C107.512 102.41 107.892 102.54 108.252 102.76C108.232 102.91 108.222 103.05 108.222 103.1ZM106.722 107.04H107.152C108.032 107.04 108.462 107.28 108.462 107.86C108.462 108.53 107.892 108.85 107.102 108.85C106.262 108.85 105.822 108.49 105.822 107.82C105.822 107.49 105.952 107.21 106.232 106.99C106.362 107.02 106.532 107.04 106.722 107.04ZM111.063 100C111.063 99.82 110.913 99.67 110.743 99.67C110.553 99.67 110.413 99.82 110.413 100V106.75C110.413 106.93 110.553 107.07 110.743 107.07C110.913 107.07 111.063 106.93 111.063 106.75V104.89L111.523 104.41L113.173 106.92C113.233 107.02 113.323 107.07 113.443 107.07C113.613 107.07 113.763 106.97 113.753 106.81C113.753 106.76 113.723 106.66 113.693 106.62L111.923 103.99L113.483 102.4C113.533 102.35 113.553 102.28 113.553 102.19C113.553 102.02 113.423 101.89 113.253 101.89C113.183 101.89 113.103 101.91 113.063 101.96L111.063 104.03V100ZM117.512 105.8C117.512 105.93 117.522 106.03 117.532 106.13C117.162 106.37 116.742 106.51 116.322 106.51C115.652 106.51 115.292 106.03 115.292 105.21V102.2C115.292 102.02 115.182 101.88 114.972 101.88C114.762 101.88 114.642 102.02 114.642 102.2V105.21C114.642 106.32 115.172 107.07 116.212 107.07C116.682 107.07 117.212 106.96 117.692 106.68C117.822 106.88 117.952 107.01 118.122 107.01C118.282 107.01 118.422 106.89 118.422 106.73C118.422 106.63 118.332 106.52 118.272 106.45C118.212 106.38 118.162 106.3 118.162 105.8V102.2C118.162 102.02 118.052 101.88 117.842 101.88C117.622 101.88 117.512 102.02 117.512 102.2V105.8ZM120.429 103.27C120.429 102.97 120.419 102.96 120.419 102.96V102.95C120.969 102.54 121.349 102.54 121.799 102.55C121.969 102.56 122.119 102.41 122.119 102.21C122.119 102.03 122.009 101.89 121.659 101.89C121.289 101.89 120.699 102.06 120.229 102.36C120.119 102.18 119.969 102.05 119.839 102.05C119.679 102.05 119.539 102.17 119.539 102.34C119.539 102.4 119.559 102.46 119.599 102.51C119.739 102.71 119.779 102.92 119.779 103.27V106.75C119.779 106.93 119.919 107.07 120.109 107.07C120.279 107.07 120.429 106.93 120.429 106.75V103.27ZM123.196 106.61C123.196 106.36 122.996 106.14 122.736 106.14C122.476 106.14 122.256 106.36 122.256 106.61C122.256 106.88 122.486 107.08 122.776 107.11C122.686 107.47 122.626 107.55 122.556 107.67C122.466 107.84 122.376 107.97 122.376 108.11C122.376 108.19 122.446 108.21 122.506 108.21C122.746 108.21 123.196 107.27 123.196 106.61ZM130.599 105.12C130.599 105.96 130.119 106.45 129.159 106.45C128.639 106.45 128.269 106.31 128.009 106.2C127.859 106.15 127.699 106.09 127.639 106.09C127.479 106.09 127.339 106.25 127.339 106.42C127.339 106.91 128.519 107.09 129.149 107.09C130.389 107.09 131.309 106.35 131.309 105.05C131.309 103.77 130.339 103.4 129.489 103.12C129.209 103.03 128.909 102.91 128.689 102.8C128.439 102.67 128.049 102.42 128.049 101.71C128.049 100.76 128.709 100.48 129.409 100.48C129.819 100.48 130.099 100.59 130.329 100.68C130.439 100.73 130.569 100.77 130.679 100.77C130.889 100.77 131.009 100.62 131.009 100.46C131.009 99.95 129.839 99.84 129.349 99.84C128.119 99.84 127.349 100.56 127.349 101.76C127.349 103.09 128.299 103.4 129.179 103.7C129.469 103.8 129.769 103.91 129.979 104.02C130.249 104.16 130.599 104.44 130.599 105.12ZM134.112 106.52C133.312 106.52 132.902 106.11 132.902 105.5V104.79C133.292 104.87 133.702 104.9 134.032 104.9C135.202 104.9 135.692 104.35 135.692 103.45C135.692 102.48 135.162 101.85 134.072 101.85C132.892 101.85 132.252 102.57 132.252 103.52V105.44C132.252 106.36 132.892 107.07 134.012 107.07C134.542 107.07 135.602 106.93 135.602 106.48C135.602 106.34 135.482 106.2 135.322 106.2C135.282 106.2 135.232 106.22 135.212 106.23C134.852 106.39 134.572 106.52 134.112 106.52ZM135.052 103.45C135.052 103.92 134.912 104.37 134.072 104.37C133.862 104.37 133.332 104.35 132.902 104.29V103.44C132.902 102.82 133.322 102.42 134.042 102.42C134.682 102.42 135.052 102.72 135.052 103.45ZM137.348 102.34C137.238 102.12 137.088 102.03 136.958 102.03C136.808 102.03 136.668 102.15 136.668 102.32C136.668 102.38 136.688 102.44 136.728 102.49C136.868 102.69 136.908 102.9 136.908 103.25V106.75C136.908 106.93 137.018 107.06 137.238 107.06C137.448 107.06 137.558 106.93 137.558 106.75V103.25C137.558 103.12 137.548 103.01 137.528 102.89C137.848 102.65 138.338 102.43 138.798 102.43C139.598 102.43 139.728 102.98 139.728 103.76V106.75C139.728 106.93 139.838 107.06 140.058 107.06C140.278 107.06 140.378 106.93 140.378 106.75V103.53C140.378 103.34 140.358 103.18 140.328 103.03C140.598 102.69 141.068 102.43 141.538 102.43C142.228 102.43 142.548 102.93 142.548 103.55V106.75C142.548 106.93 142.668 107.06 142.878 107.06C143.098 107.06 143.198 106.93 143.198 106.75V103.53C143.198 102.53 142.628 101.85 141.568 101.85C141.018 101.85 140.518 102.06 140.058 102.41C139.778 102.05 139.408 101.85 138.878 101.85C138.348 101.85 137.828 102.03 137.348 102.34ZM147.231 104.28C146.841 104.17 146.461 104.1 146.121 104.1C144.951 104.1 144.381 104.6 144.381 105.56V105.6C144.381 106.47 144.871 107.07 145.881 107.07C146.421 107.07 146.891 106.87 147.311 106.47C147.491 106.82 147.761 107.04 148.071 107.04C148.251 107.04 148.451 106.97 148.451 106.77C148.451 106.64 148.381 106.5 148.231 106.5C148.211 106.5 148.191 106.51 148.151 106.51C147.971 106.51 147.881 106.38 147.881 106.12V103.86C147.881 102.55 147.391 101.85 146.161 101.85C145.491 101.85 144.751 102.02 144.791 102.44C144.801 102.56 144.861 102.7 145.011 102.7C145.111 102.7 145.191 102.66 145.251 102.62C145.481 102.48 145.691 102.4 146.061 102.4C146.851 102.4 147.231 102.78 147.231 103.59V104.28ZM146.111 104.63C146.411 104.63 146.831 104.69 147.231 104.82V106.02C146.841 106.35 146.471 106.51 146.011 106.51C145.251 106.51 145.021 106.13 145.021 105.61V105.57C145.021 105.06 145.191 104.63 146.111 104.63ZM150.195 103.27C150.195 102.97 150.185 102.96 150.185 102.96V102.95C150.735 102.54 151.115 102.54 151.565 102.55C151.735 102.56 151.885 102.41 151.885 102.21C151.885 102.03 151.775 101.89 151.425 101.89C151.055 101.89 150.465 102.06 149.995 102.36C149.885 102.18 149.735 102.05 149.605 102.05C149.445 102.05 149.305 102.17 149.305 102.34C149.305 102.4 149.325 102.46 149.365 102.51C149.505 102.71 149.545 102.92 149.545 103.27V106.75C149.545 106.93 149.685 107.07 149.875 107.07C150.045 107.07 150.195 106.93 150.195 106.75V103.27ZM155.356 104.28C154.966 104.17 154.586 104.1 154.246 104.1C153.076 104.1 152.506 104.6 152.506 105.56V105.6C152.506 106.47 152.996 107.07 154.006 107.07C154.546 107.07 155.016 106.87 155.436 106.47C155.616 106.82 155.886 107.04 156.196 107.04C156.376 107.04 156.576 106.97 156.576 106.77C156.576 106.64 156.506 106.5 156.356 106.5C156.336 106.5 156.316 106.51 156.276 106.51C156.096 106.51 156.006 106.38 156.006 106.12V103.86C156.006 102.55 155.516 101.85 154.286 101.85C153.616 101.85 152.876 102.02 152.916 102.44C152.926 102.56 152.986 102.7 153.136 102.7C153.236 102.7 153.316 102.66 153.376 102.62C153.606 102.48 153.816 102.4 154.186 102.4C154.976 102.4 155.356 102.78 155.356 103.59V104.28ZM154.236 104.63C154.536 104.63 154.956 104.69 155.356 104.82V106.02C154.966 106.35 154.596 106.51 154.136 106.51C153.376 106.51 153.146 106.13 153.146 105.61V105.57C153.146 105.06 153.316 104.63 154.236 104.63ZM158.12 102.36C158.01 102.14 157.84 102.03 157.71 102.03C157.56 102.03 157.42 102.15 157.42 102.32C157.42 102.38 157.44 102.44 157.48 102.49C157.62 102.69 157.66 102.9 157.66 103.25V106.75C157.66 106.93 157.77 107.06 157.99 107.06C158.2 107.06 158.31 106.93 158.31 106.75V103.25C158.31 103.14 158.3 103.02 158.28 102.91C158.66 102.62 159.08 102.43 159.5 102.43C160.17 102.43 160.52 102.91 160.52 103.74V106.75C160.52 106.93 160.64 107.06 160.85 107.06C161.06 107.06 161.17 106.93 161.17 106.75V103.74C161.17 102.62 160.66 101.87 159.62 101.87C159.13 101.87 158.61 102.02 158.12 102.36ZM164.043 101.85C162.853 101.85 162.273 102.63 162.273 103.66C162.273 104.25 162.473 104.75 162.873 105.12C162.523 105.43 162.433 105.74 162.433 105.96C162.433 106.19 162.513 106.5 162.773 106.75C162.403 107.08 162.203 107.47 162.203 107.93C162.203 108.88 162.983 109.43 164.103 109.43C165.273 109.43 166.133 108.83 166.133 107.84C166.133 106.89 165.283 106.45 164.153 106.45H163.723C163.463 106.45 163.083 106.35 163.083 105.93C163.083 105.78 163.123 105.58 163.253 105.35C163.513 105.45 163.803 105.51 164.103 105.51C165.293 105.51 165.883 104.73 165.883 103.73V103.09C165.883 102.62 166.043 102.46 166.383 102.14L166.473 102.04C166.493 102.02 166.513 101.97 166.513 101.89C166.513 101.72 166.383 101.6 166.213 101.6C166.023 101.6 165.673 101.79 165.433 102.23C165.013 101.98 164.503 101.85 164.043 101.85ZM165.243 103.1V103.75C165.243 104.48 164.893 104.92 164.103 104.92C163.273 104.92 162.923 104.42 162.923 103.68C162.923 102.87 163.333 102.41 164.143 102.41C164.533 102.41 164.913 102.54 165.273 102.76C165.253 102.91 165.243 103.05 165.243 103.1ZM163.743 107.04H164.173C165.053 107.04 165.483 107.28 165.483 107.86C165.483 108.53 164.913 108.85 164.123 108.85C163.283 108.85 162.843 108.49 162.843 107.82C162.843 107.49 162.973 107.21 163.253 106.99C163.383 107.02 163.553 107.04 163.743 107.04Z" fill="#4E2E1F"/>
</svg>
