<svg width="110" height="28" viewBox="0 0 110 28" fill="none" xmlns="http://www.w3.org/2000/svg">
<rect width="110" height="28" rx="14" fill="url(#paint0_linear)"/>
<path d="M24.3723 14.88C26.0163 14.88 27.0723 13.932 27.0723 12.228C27.0723 10.824 26.3643 9.54 24.3723 9.54H22.6083C22.2963 9.54 22.0323 9.804 22.0323 10.116V17.616C22.0323 17.892 22.2603 18.12 22.5123 18.12C22.7763 18.12 22.9923 17.88 22.9923 17.616V14.88H24.3723ZM22.9923 10.476H24.3723C25.7883 10.476 26.1123 11.352 26.1123 12.216C26.1123 13.392 25.5123 13.944 24.3723 13.944H22.9923V10.476ZM30.2567 17.268C29.3927 17.268 28.9487 16.836 28.9487 16.164V15.456C29.3687 15.528 29.8127 15.564 30.1727 15.564C31.6007 15.564 32.2007 14.892 32.2007 13.788C32.2007 12.6 31.5407 11.832 30.2087 11.832C28.7807 11.832 28.0127 12.708 28.0127 13.86V16.104C28.0127 17.232 28.7927 18.096 30.1487 18.096C30.7967 18.096 32.0927 17.904 32.0927 17.316C32.0927 17.1 31.9127 16.896 31.6727 16.896C31.5887 16.896 31.5287 16.92 31.5047 16.932C31.0847 17.124 30.7607 17.268 30.2567 17.268ZM31.2767 13.788C31.2767 14.28 31.1207 14.772 30.2087 14.772C29.9687 14.772 29.3927 14.748 28.9487 14.688V13.776C28.9487 13.104 29.4047 12.684 30.1847 12.684C30.8807 12.684 31.2767 13.008 31.2767 13.788ZM33.4114 15.564C33.4114 17.22 33.8194 18.048 35.4994 18.048C35.8354 18.048 36.1834 18 36.1834 17.592C36.1834 17.208 35.8354 17.16 35.5594 17.16C35.4874 17.16 35.4034 17.172 35.3314 17.172C34.4674 17.172 34.3474 16.716 34.3474 15.48V13.092H35.5954C35.8354 13.092 36.0274 12.9 36.0274 12.648C36.0274 12.396 35.8354 12.204 35.5954 12.204H34.3474V10.548C34.3474 10.296 34.1794 10.092 33.8794 10.092C33.5794 10.092 33.4114 10.296 33.4114 10.548V15.564ZM40.5209 16.524C40.5209 16.62 40.5329 16.74 40.5449 16.86C40.1489 17.112 39.6929 17.256 39.2249 17.256C38.5049 17.256 38.1209 16.74 38.1209 15.828V12.324C38.1209 12.072 37.9529 11.868 37.6529 11.868C37.3529 11.868 37.1849 12.072 37.1849 12.324V15.828C37.1849 17.184 37.8209 18.096 39.0929 18.096C39.6569 18.096 40.2689 17.964 40.7969 17.664C40.9289 17.88 41.0849 18.024 41.3129 18.024C41.5649 18.024 41.7569 17.832 41.7569 17.604C41.7569 17.496 41.6969 17.412 41.6729 17.364C41.5769 17.184 41.4569 17.184 41.4569 16.524V12.324C41.4569 12.072 41.3009 11.868 40.9889 11.868C40.6769 11.868 40.5209 12.072 40.5209 12.324V16.524ZM44.2623 13.548C44.2623 13.452 44.2503 13.332 44.2263 13.2C44.6343 12.888 45.0903 12.696 45.5583 12.696C46.2783 12.696 46.6623 13.212 46.6623 14.124V17.628C46.6623 17.88 46.8303 18.084 47.1303 18.084C47.4303 18.084 47.5983 17.88 47.5983 17.628V14.124C47.5983 12.768 46.9623 11.856 45.6903 11.856C45.1143 11.856 44.5023 12.024 43.9743 12.396C43.8423 12.192 43.6863 12.048 43.4703 12.048C43.2183 12.048 43.0263 12.228 43.0263 12.468C43.0263 12.588 43.0863 12.66 43.1103 12.708C43.2183 12.888 43.3263 12.888 43.3263 13.548V17.628C43.3263 17.88 43.4823 18.084 43.7943 18.084C44.1063 18.084 44.2623 17.88 44.2623 17.628V13.548ZM50.4398 12.336C50.4398 12.084 50.2358 11.868 49.9718 11.868C49.7078 11.868 49.5038 12.084 49.5038 12.336V18.228C49.5038 19.104 49.1318 19.464 48.4838 19.608C48.3038 19.644 48.0398 19.8 48.1238 20.124C48.1718 20.316 48.3278 20.436 48.5198 20.436C48.5918 20.436 48.6518 20.436 48.7478 20.424C49.8278 20.268 50.4398 19.44 50.4398 18.18V12.336ZM50.5478 9.984C50.5478 9.66 50.2958 9.408 49.9718 9.408C49.6478 9.408 49.3958 9.66 49.3958 9.984C49.3958 10.296 49.6478 10.56 49.9718 10.56C50.2958 10.56 50.5478 10.296 50.5478 9.984ZM55.6732 16.524C55.6732 16.62 55.6852 16.74 55.6972 16.86C55.3012 17.112 54.8452 17.256 54.3772 17.256C53.6572 17.256 53.2732 16.74 53.2732 15.828V12.324C53.2732 12.072 53.1052 11.868 52.8052 11.868C52.5052 11.868 52.3372 12.072 52.3372 12.324V15.828C52.3372 17.184 52.9732 18.096 54.2452 18.096C54.8092 18.096 55.4212 17.964 55.9492 17.664C56.0812 17.88 56.2372 18.024 56.4652 18.024C56.7172 18.024 56.9092 17.832 56.9092 17.604C56.9092 17.496 56.8492 17.412 56.8252 17.364C56.7292 17.184 56.6092 17.184 56.6092 16.524V12.324C56.6092 12.072 56.4532 11.868 56.1412 11.868C55.8292 11.868 55.6732 12.072 55.6732 12.324V16.524ZM59.3787 9.768C59.3787 9.504 59.1747 9.3 58.9107 9.3C58.6467 9.3 58.4427 9.504 58.4427 9.768V17.628C58.4427 17.892 58.6467 18.096 58.9107 18.096C59.1747 18.096 59.3787 17.892 59.3787 17.628V15.48L59.8107 15.036L61.6707 17.868C61.7667 18.024 61.8987 18.096 62.0547 18.096C62.2947 18.096 62.4867 17.94 62.4987 17.7C62.4987 17.616 62.4747 17.496 62.4267 17.424L60.3987 14.424L62.1627 12.624C62.2467 12.54 62.2827 12.432 62.2827 12.312C62.2827 12.072 62.0907 11.88 61.8387 11.88C61.7307 11.88 61.6107 11.916 61.5507 11.988L59.3787 14.244V9.768ZM68.1898 16.092H71.2258L71.7418 17.76C71.8018 17.976 72.0298 18.12 72.2098 18.12C72.4978 18.12 72.7138 17.928 72.7138 17.64C72.7138 17.592 72.7018 17.496 72.6898 17.46L70.3498 10.056C70.2298 9.684 70.0738 9.42 69.7138 9.42C69.3658 9.42 69.1978 9.696 69.0898 10.056L66.7498 17.46C66.7378 17.496 66.7258 17.592 66.7258 17.64C66.7258 17.928 66.9538 18.12 67.2298 18.12C67.3978 18.12 67.6138 17.976 67.6858 17.76L68.1898 16.092ZM69.7138 11.088L70.9498 15.156H68.4778L69.7138 11.088ZM74.8717 13.572C74.8717 13.476 74.8597 13.368 74.8477 13.248C75.4477 12.804 75.8797 12.804 76.3717 12.816C76.6237 12.828 76.8397 12.636 76.8397 12.336C76.8397 12.084 76.6957 11.88 76.2157 11.88C75.7597 11.88 75.0877 12.072 74.5717 12.396C74.4517 12.204 74.2837 12.072 74.0917 12.072C73.8637 12.072 73.6597 12.24 73.6597 12.492C73.6597 12.6 73.6957 12.66 73.7437 12.732C73.8877 12.948 73.9357 13.176 73.9357 13.572V17.628C73.9357 17.892 74.1397 18.096 74.4037 18.096C74.6677 18.096 74.8717 17.892 74.8717 17.628V13.572ZM80.8367 14.628C80.4647 14.52 80.0567 14.46 79.6247 14.46C78.2087 14.46 77.5127 15.06 77.5127 16.236V16.284C77.5127 17.364 78.1127 18.096 79.3487 18.096C79.9967 18.096 80.5367 17.88 80.9927 17.46C81.1727 17.832 81.4967 18.06 81.8927 18.06C82.1567 18.06 82.4327 17.952 82.4327 17.652C82.4327 17.448 82.3127 17.244 82.0847 17.244C82.0367 17.244 82.0247 17.256 81.9887 17.256C81.8447 17.256 81.7727 17.136 81.7727 16.896V14.256C81.7727 12.672 81.1727 11.832 79.6727 11.832C78.8447 11.832 77.9447 12.06 77.9927 12.612C78.0047 12.792 78.1007 13.008 78.3287 13.008C78.4607 13.008 78.6047 12.924 78.6407 12.912C78.9047 12.768 79.1327 12.66 79.5527 12.66C80.4167 12.66 80.8367 13.068 80.8367 13.944V14.628ZM79.6127 15.252C79.9727 15.252 80.4407 15.312 80.8367 15.432V16.728C80.4167 17.088 80.0087 17.256 79.4927 17.256C78.6887 17.256 78.4367 16.86 78.4367 16.296V16.248C78.4367 15.708 78.6287 15.252 79.6127 15.252ZM84.5737 17.628V13.392C84.9217 12.924 85.4737 12.708 85.9657 12.708C86.7097 12.708 87.0097 13.104 87.0097 13.836V17.628C87.0097 17.892 87.2137 18.096 87.4777 18.096C87.7297 18.096 87.9457 17.892 87.9457 17.628V13.824C87.9457 12.66 87.3577 11.832 86.0737 11.832C85.4977 11.832 84.9817 12.024 84.5737 12.336V9.696C84.5737 9.432 84.3697 9.228 84.1057 9.228C83.8417 9.228 83.6497 9.456 83.6497 9.696V17.628C83.6497 17.892 83.8537 18.096 84.1177 18.096C84.3817 18.096 84.5737 17.892 84.5737 17.628Z" fill="white"/>
<defs>
<linearGradient id="paint0_linear" x1="55" y1="0" x2="55" y2="28" gradientUnits="userSpaceOnUse">
<stop stop-color="#A62800"/>
<stop offset="1" stop-color="#4E2E1F"/>
</linearGradient>
</defs>
</svg>
