<svg width="273" height="108" viewBox="0 0 273 108" fill="none" xmlns="http://www.w3.org/2000/svg">
<path d="M26.9673 12.82H32.0273L32.8873 15.6C32.9873 15.96 33.3673 16.2 33.6673 16.2C34.1473 16.2 34.5073 15.88 34.5073 15.4C34.5073 15.32 34.4873 15.16 34.4673 15.1L30.5673 2.76C30.3673 2.14 30.1073 1.7 29.5073 1.7C28.9273 1.7 28.6473 2.16 28.4673 2.76L24.5673 15.1C24.5473 15.16 24.5273 15.32 24.5273 15.4C24.5273 15.88 24.9073 16.2 25.3673 16.2C25.6473 16.2 26.0073 15.96 26.1273 15.6L26.9673 12.82ZM29.5073 4.48L31.5673 11.26H27.4473L29.5073 4.48ZM36.4839 14.12C36.4839 15.92 37.2439 16.16 37.7439 16.16C38.1439 16.16 38.4639 15.84 38.4639 15.44C38.4639 15.28 38.3839 15.14 38.3239 15.06C38.0839 14.82 38.0439 14.56 38.0439 14.12V2.28C38.0439 1.84 37.7039 1.5 37.2639 1.5C36.8239 1.5 36.4839 1.86 36.4839 2.28V14.12ZM48.5547 2.64C48.5547 2.1 48.1347 1.68 47.5947 1.68C47.0547 1.68 46.6347 2.1 46.6347 2.64C46.6347 3.16 47.0547 3.6 47.5947 3.6C48.1347 3.6 48.5547 3.16 48.5547 2.64ZM48.3747 15.38V6.56C48.3747 6.14 48.0347 5.78 47.5947 5.78C47.1547 5.78 46.8147 6.14 46.8147 6.56V15.38C46.8147 15.82 47.1547 16.16 47.5947 16.16C48.0347 16.16 48.3747 15.82 48.3747 15.38ZM41.0347 15.34C41.0347 15.76 41.3147 16.1 41.8147 16.1C42.3147 16.1 42.5947 15.76 42.5947 15.34V7.82H44.6747C45.0747 7.82 45.3947 7.5 45.3947 7.08C45.3947 6.66 45.0747 6.34 44.6747 6.34H42.5947V5.1C42.5947 3.96 43.0747 3 43.9747 3C44.5347 3 44.8547 3.14 45.1947 3.14C45.5947 3.14 45.9547 2.86 45.9547 2.4C45.9547 1.48 44.4547 1.48 44.1347 1.5C42.3747 1.58 41.0347 2.72 41.0347 5.26V15.34ZM56.3267 10.38C55.7067 10.2 55.0267 10.1 54.3067 10.1C51.9467 10.1 50.7867 11.1 50.7867 13.06V13.14C50.7867 14.94 51.7867 16.16 53.8467 16.16C54.9267 16.16 55.8267 15.8 56.5867 15.1C56.8867 15.72 57.4267 16.1 58.0867 16.1C58.5267 16.1 58.9867 15.92 58.9867 15.42C58.9867 15.08 58.7867 14.74 58.4067 14.74C58.3267 14.74 58.3067 14.76 58.2467 14.76C58.0067 14.76 57.8867 14.56 57.8867 14.16V9.76C57.8867 7.12 56.8867 5.72 54.3867 5.72C53.0067 5.72 51.5067 6.1 51.5867 7.02C51.6067 7.32 51.7667 7.68 52.1467 7.68C52.3667 7.68 52.6067 7.54 52.6667 7.52C53.1067 7.28 53.4867 7.1 54.1867 7.1C55.6267 7.1 56.3267 7.78 56.3267 9.24V10.38ZM54.2867 11.42C54.8867 11.42 55.6667 11.52 56.3267 11.72V13.88C55.6267 14.48 54.9467 14.76 54.0867 14.76C52.7467 14.76 52.3267 14.1 52.3267 13.16V13.08C52.3267 12.18 52.6467 11.42 54.2867 11.42ZM62.6352 8.58C62.6352 8.42 62.6152 8.22 62.5752 8C63.2552 7.48 64.0152 7.16 64.7952 7.16C65.9952 7.16 66.6352 8.02 66.6352 9.54V15.38C66.6352 15.8 66.9152 16.14 67.4152 16.14C67.9152 16.14 68.1952 15.8 68.1952 15.38V9.54C68.1952 7.28 67.1352 5.76 65.0152 5.76C64.0552 5.76 63.0352 6.04 62.1552 6.66C61.9352 6.32 61.6752 6.08 61.3152 6.08C60.8952 6.08 60.5752 6.38 60.5752 6.78C60.5752 6.98 60.6752 7.1 60.7152 7.18C60.8952 7.48 61.0752 7.48 61.0752 8.58V15.38C61.0752 15.8 61.3352 16.14 61.8552 16.14C62.3752 16.14 62.6352 15.8 62.6352 15.38V8.58ZM73.1109 2.64C73.1109 2.1 72.6909 1.68 72.1509 1.68C71.6109 1.68 71.1909 2.1 71.1909 2.64C71.1909 3.16 71.6109 3.6 72.1509 3.6C72.6909 3.6 73.1109 3.16 73.1109 2.64ZM72.9309 15.38V6.56C72.9309 6.14 72.5909 5.78 72.1509 5.78C71.7109 5.78 71.3709 6.14 71.3709 6.56V15.38C71.3709 15.82 71.7109 16.16 72.1509 16.16C72.5909 16.16 72.9309 15.82 72.9309 15.38ZM90.7694 10.72V6.98C90.7694 4.3 89.3694 1.88 85.2894 1.88H83.0294C82.5094 1.88 82.0694 2.32 82.0694 2.84V15.04C82.0694 15.56 82.5094 16 83.0294 16H85.2894C89.3894 16 90.7694 13.46 90.7694 10.72ZM89.1694 10.72C89.1694 12.78 88.2694 14.44 85.6294 14.44H83.6694V3.44H85.6294C88.2294 3.44 89.1694 5 89.1694 6.98V10.72ZM96.3236 14.78C94.8836 14.78 94.1436 14.06 94.1436 12.94V11.76C94.8436 11.88 95.5836 11.94 96.1836 11.94C98.5636 11.94 99.5636 10.82 99.5636 8.98C99.5636 7 98.4636 5.72 96.2436 5.72C93.8636 5.72 92.5836 7.18 92.5836 9.1V12.84C92.5836 14.72 93.8836 16.16 96.1436 16.16C97.2236 16.16 99.3836 15.84 99.3836 14.86C99.3836 14.5 99.0836 14.16 98.6836 14.16C98.5436 14.16 98.4436 14.2 98.4036 14.22C97.7036 14.54 97.1636 14.78 96.3236 14.78ZM98.0236 8.98C98.0236 9.8 97.7636 10.62 96.2436 10.62C95.8436 10.62 94.8836 10.58 94.1436 10.48V8.96C94.1436 7.84 94.9036 7.14 96.2036 7.14C97.3636 7.14 98.0236 7.68 98.0236 8.98ZM101.396 8.6C101.396 11.24 104.056 11.38 105.316 12.06C105.716 12.28 106.056 12.58 106.056 13.3C106.056 14.34 105.316 14.78 104.216 14.78C103.416 14.78 102.776 14.54 102.216 14.32C102.156 14.3 102.136 14.28 102.016 14.28C101.536 14.28 101.276 14.66 101.276 15C101.276 15.92 103.196 16.16 104.216 16.16C106.436 16.16 107.576 15.04 107.576 13.24C107.576 10.64 105.236 10.46 103.856 9.78C103.176 9.44 102.916 9.12 102.916 8.5C102.916 7.58 103.476 7.1 104.696 7.1C105.416 7.1 105.796 7.26 106.216 7.46C106.336 7.52 106.436 7.56 106.576 7.56C106.996 7.56 107.296 7.22 107.296 6.84C107.296 6 105.676 5.72 104.636 5.72C102.516 5.72 101.396 6.88 101.396 8.6ZM109.345 8.6C109.345 11.24 112.005 11.38 113.265 12.06C113.665 12.28 114.005 12.58 114.005 13.3C114.005 14.34 113.265 14.78 112.165 14.78C111.365 14.78 110.725 14.54 110.165 14.32C110.105 14.3 110.085 14.28 109.965 14.28C109.485 14.28 109.225 14.66 109.225 15C109.225 15.92 111.145 16.16 112.165 16.16C114.385 16.16 115.525 15.04 115.525 13.24C115.525 10.64 113.185 10.46 111.805 9.78C111.125 9.44 110.865 9.12 110.865 8.5C110.865 7.58 111.425 7.1 112.645 7.1C113.365 7.1 113.745 7.26 114.165 7.46C114.285 7.52 114.385 7.56 114.525 7.56C114.945 7.56 115.245 7.22 115.245 6.84C115.245 6 113.625 5.72 112.585 5.72C110.465 5.72 109.345 6.88 109.345 8.6ZM124.506 6.8C124.526 6.72 124.546 6.64 124.546 6.56C124.546 6.1 124.166 5.78 123.766 5.78C123.466 5.78 123.166 5.96 123.046 6.3L120.866 13.88L118.366 6.3C118.246 5.96 117.966 5.78 117.666 5.78C117.226 5.78 116.886 6.08 116.886 6.5C116.886 6.58 116.886 6.72 116.926 6.78L120.106 15.96C119.506 17.82 118.946 18.5 117.686 18.56C117.226 18.58 116.946 18.94 116.946 19.3C116.946 19.74 117.286 20.06 117.746 20.06C120.346 20 121.106 17.86 122.066 14.74L124.506 6.8ZM140.965 10.72V6.98C140.965 4.3 139.565 1.88 135.485 1.88H133.225C132.705 1.88 132.265 2.32 132.265 2.84V15.04C132.265 15.56 132.705 16 133.225 16H135.485C139.585 16 140.965 13.46 140.965 10.72ZM139.365 10.72C139.365 12.78 138.465 14.44 135.825 14.44H133.865V3.44H135.825C138.425 3.44 139.365 5 139.365 6.98V10.72ZM145.279 2.64C145.279 2.1 144.859 1.68 144.319 1.68C143.779 1.68 143.359 2.1 143.359 2.64C143.359 3.16 143.779 3.6 144.319 3.6C144.859 3.6 145.279 3.16 145.279 2.64ZM145.099 15.38V6.56C145.099 6.14 144.759 5.78 144.319 5.78C143.879 5.78 143.539 6.14 143.539 6.56V15.38C143.539 15.82 143.879 16.16 144.319 16.16C144.759 16.16 145.099 15.82 145.099 15.38ZM149.881 8.58C149.881 8.42 149.861 8.22 149.821 8C150.501 7.48 151.261 7.16 152.041 7.16C153.241 7.16 153.881 8.02 153.881 9.54V15.38C153.881 15.8 154.161 16.14 154.661 16.14C155.161 16.14 155.441 15.8 155.441 15.38V9.54C155.441 7.28 154.381 5.76 152.261 5.76C151.301 5.76 150.281 6.04 149.401 6.66C149.181 6.32 148.921 6.08 148.561 6.08C148.141 6.08 147.821 6.38 147.821 6.78C147.821 6.98 147.921 7.1 147.961 7.18C148.141 7.48 148.321 7.48 148.321 8.58V15.38C148.321 15.8 148.581 16.14 149.101 16.14C149.621 16.14 149.881 15.8 149.881 15.38V8.58ZM160.357 2.64C160.357 2.1 159.937 1.68 159.397 1.68C158.857 1.68 158.437 2.1 158.437 2.64C158.437 3.16 158.857 3.6 159.397 3.6C159.937 3.6 160.357 3.16 160.357 2.64ZM160.177 15.38V6.56C160.177 6.14 159.837 5.78 159.397 5.78C158.957 5.78 158.617 6.14 158.617 6.56V15.38C158.617 15.82 158.957 16.16 159.397 16.16C159.837 16.16 160.177 15.82 160.177 15.38ZM164.959 8.58C164.959 8.42 164.939 8.22 164.899 8C165.579 7.48 166.339 7.16 167.119 7.16C168.319 7.16 168.959 8.02 168.959 9.54V15.38C168.959 15.8 169.239 16.14 169.739 16.14C170.239 16.14 170.519 15.8 170.519 15.38V9.54C170.519 7.28 169.459 5.76 167.339 5.76C166.379 5.76 165.359 6.04 164.479 6.66C164.259 6.32 163.999 6.08 163.639 6.08C163.219 6.08 162.899 6.38 162.899 6.78C162.899 6.98 162.999 7.1 163.039 7.18C163.219 7.48 163.399 7.48 163.399 8.58V15.38C163.399 15.8 163.659 16.14 164.179 16.14C164.699 16.14 164.959 15.8 164.959 15.38V8.58ZM176.225 5.72C173.825 5.72 172.645 7.3 172.645 9.38C172.645 10.56 173.025 11.54 173.725 12.2C173.125 12.74 172.965 13.36 172.965 13.84C172.965 14.3 173.105 14.92 173.565 15.38C172.885 16.04 172.505 16.8 172.505 17.78C172.505 19.72 174.085 20.86 176.345 20.86C178.705 20.86 180.445 19.62 180.445 17.6C180.445 15.6 178.725 14.66 176.445 14.66H175.605C175.165 14.66 174.525 14.48 174.525 13.78C174.525 13.54 174.585 13.2 174.765 12.86C175.225 13.04 175.745 13.12 176.345 13.12C178.745 13.12 179.965 11.56 179.965 9.52V8.28C179.965 7.3 180.285 7.08 181.045 6.34C181.105 6.28 181.185 6.14 181.185 5.94C181.185 5.54 180.865 5.24 180.445 5.24C180.005 5.24 179.285 5.58 178.845 6.4C178.085 5.96 177.145 5.72 176.225 5.72ZM178.405 8.3V9.56C178.405 10.88 177.765 11.68 176.345 11.68C174.845 11.68 174.205 10.78 174.205 9.42C174.205 7.94 174.945 7.12 176.425 7.12C177.165 7.12 177.825 7.34 178.445 7.72C178.425 7.9 178.405 8.1 178.405 8.3ZM175.645 16.1H176.485C178.085 16.1 178.885 16.58 178.885 17.64C178.885 18.84 177.825 19.42 176.385 19.42C174.845 19.42 174.065 18.76 174.065 17.56C174.065 16.92 174.265 16.42 174.745 16C175.005 16.06 175.305 16.1 175.645 16.1ZM184.569 8.62C184.569 8.46 184.549 8.28 184.529 8.08C185.529 7.34 186.249 7.34 187.069 7.36C187.489 7.38 187.849 7.06 187.849 6.56C187.849 6.14 187.609 5.8 186.809 5.8C186.049 5.8 184.929 6.12 184.069 6.66C183.869 6.34 183.589 6.12 183.269 6.12C182.889 6.12 182.549 6.4 182.549 6.82C182.549 7 182.609 7.1 182.689 7.22C182.929 7.58 183.009 7.96 183.009 8.62V15.38C183.009 15.82 183.349 16.16 183.789 16.16C184.229 16.16 184.569 15.82 184.569 15.38V8.62ZM194.51 10.38C193.89 10.2 193.21 10.1 192.49 10.1C190.13 10.1 188.97 11.1 188.97 13.06V13.14C188.97 14.94 189.97 16.16 192.03 16.16C193.11 16.16 194.01 15.8 194.77 15.1C195.07 15.72 195.61 16.1 196.27 16.1C196.71 16.1 197.17 15.92 197.17 15.42C197.17 15.08 196.97 14.74 196.59 14.74C196.51 14.74 196.49 14.76 196.43 14.76C196.19 14.76 196.07 14.56 196.07 14.16V9.76C196.07 7.12 195.07 5.72 192.57 5.72C191.19 5.72 189.69 6.1 189.77 7.02C189.79 7.32 189.95 7.68 190.33 7.68C190.55 7.68 190.79 7.54 190.85 7.52C191.29 7.28 191.67 7.1 192.37 7.1C193.81 7.1 194.51 7.78 194.51 9.24V10.38ZM192.47 11.42C193.07 11.42 193.85 11.52 194.51 11.72V13.88C193.81 14.48 193.13 14.76 192.27 14.76C190.93 14.76 190.51 14.1 190.51 13.16V13.08C190.51 12.18 190.83 11.42 192.47 11.42ZM198.769 11.94C198.769 14.7 199.449 16.08 202.249 16.08C202.809 16.08 203.389 16 203.389 15.32C203.389 14.68 202.809 14.6 202.349 14.6C202.229 14.6 202.089 14.62 201.969 14.62C200.529 14.62 200.329 13.86 200.329 11.8V7.82H202.409C202.809 7.82 203.129 7.5 203.129 7.08C203.129 6.66 202.809 6.34 202.409 6.34H200.329V3.58C200.329 3.16 200.049 2.82 199.549 2.82C199.049 2.82 198.769 3.16 198.769 3.58V11.94ZM207.192 15.1C207.192 14.52 206.712 14.04 206.132 14.04C205.532 14.04 205.052 14.52 205.052 15.1C205.052 15.68 205.472 16.14 206.032 16.2C205.792 17.04 205.292 17.4 205.292 18.04C205.292 18.3 205.472 18.38 205.672 18.38C206.212 18.38 207.192 16.44 207.192 15.1ZM221.638 12.18C221.638 13.74 220.738 14.64 218.958 14.64C217.398 14.64 216.538 13.94 215.978 13.94C215.578 13.94 215.258 14.32 215.258 14.72C215.258 15.8 217.658 16.2 218.938 16.2C221.458 16.2 223.318 14.68 223.318 12.04C223.318 8.54 220.018 8.5 218.098 7.5C217.638 7.26 216.938 6.82 216.938 5.5C216.938 3.76 218.158 3.26 219.438 3.26C220.798 3.26 221.318 3.82 221.938 3.82C222.438 3.82 222.738 3.46 222.738 3.06C222.738 1.94 220.317 1.7 219.318 1.7C216.838 1.7 215.278 3.18 215.278 5.6C215.278 9.14 218.598 9.16 220.498 10.16C220.998 10.42 221.638 10.88 221.638 12.18ZM227.524 15.1C227.524 14.52 227.044 14.04 226.464 14.04C225.864 14.04 225.384 14.52 225.384 15.1C225.384 15.7 225.864 16.2 226.464 16.2C227.044 16.2 227.524 15.7 227.524 15.1ZM238.933 10.72V6.98C238.933 4.3 237.533 1.88 233.453 1.88H231.193C230.673 1.88 230.233 2.32 230.233 2.84V15.04C230.233 15.56 230.673 16 231.193 16H233.453C237.553 16 238.933 13.46 238.933 10.72ZM237.333 10.72C237.333 12.78 236.433 14.44 233.793 14.44H231.833V3.44H233.793C236.393 3.44 237.333 5 237.333 6.98V10.72ZM240.908 8.6C240.908 11.24 243.568 11.38 244.828 12.06C245.228 12.28 245.568 12.58 245.568 13.3C245.568 14.34 244.828 14.78 243.728 14.78C242.928 14.78 242.288 14.54 241.728 14.32C241.668 14.3 241.648 14.28 241.528 14.28C241.048 14.28 240.788 14.66 240.788 15C240.788 15.92 242.708 16.16 243.728 16.16C245.948 16.16 247.088 15.04 247.088 13.24C247.088 10.64 244.748 10.46 243.368 9.78C242.688 9.44 242.428 9.12 242.428 8.5C242.428 7.58 242.988 7.1 244.208 7.1C244.928 7.1 245.308 7.26 245.728 7.46C245.848 7.52 245.948 7.56 246.088 7.56C246.508 7.56 246.808 7.22 246.808 6.84C246.808 6 245.188 5.72 244.148 5.72C242.028 5.72 240.908 6.88 240.908 8.6Z" fill="#A62800"/>
<path d="M140.936 59.46C140.936 59.298 140.882 59.154 140.774 59.028L139.37 57.354C140 56.472 140.828 55.122 140.828 54.384C140.828 54.006 140.504 53.7 140.162 53.7C139.874 53.7 139.712 53.718 139.532 54.15C139.226 54.834 138.884 55.572 138.452 56.238L135.122 52.404C134.492 51.648 133.7 50.802 133.7 50.01C133.7 49.038 134.51 48.444 135.41 48.444C136.22 48.444 136.778 49.056 136.94 49.65C137.03 49.956 137.264 50.19 137.588 50.19C137.93 50.19 138.272 49.884 138.272 49.506C138.272 48.336 136.976 47.166 135.356 47.166C133.754 47.166 132.296 48.228 132.296 49.974C132.296 51.018 132.89 51.972 133.772 52.926C132.458 53.718 131.072 54.816 131.072 56.76C131.072 58.704 132.584 60.18 134.798 60.18C136.436 60.18 137.57 59.352 138.47 58.434L139.622 59.802C139.82 60.036 139.964 60.18 140.252 60.18C140.648 60.18 140.936 59.838 140.936 59.46ZM137.588 57.372C136.814 58.236 135.932 58.884 134.69 58.884C133.34 58.884 132.458 57.822 132.458 56.616C132.458 55.32 133.556 54.528 134.6 53.952L137.588 57.372Z" fill="#A62800"/>
<path d="M3.62114 31.796C5.24114 31.796 6.27314 30.872 6.27314 29.192C6.27314 27.8 5.57714 26.528 3.62114 26.528H1.82114C1.54514 26.528 1.31714 26.756 1.31714 27.032V34.688C1.31714 34.928 1.50914 35.108 1.71314 35.108C1.94114 35.108 2.10914 34.916 2.10914 34.688V31.796H3.62114ZM2.10914 27.296H3.62114C5.13314 27.296 5.48114 28.244 5.48114 29.18C5.48114 30.44 4.84514 31.028 3.62114 31.028H2.10914V27.296ZM11.1244 33.56C11.1244 33.716 11.1364 33.836 11.1484 33.956C10.7044 34.244 10.2004 34.412 9.69642 34.412C8.89242 34.412 8.46042 33.836 8.46042 32.852V29.24C8.46042 29.024 8.32842 28.856 8.07642 28.856C7.82442 28.856 7.68042 29.024 7.68042 29.24V32.852C7.68042 34.184 8.31642 35.084 9.56442 35.084C10.1284 35.084 10.7644 34.952 11.3404 34.616C11.4964 34.856 11.6524 35.012 11.8564 35.012C12.0484 35.012 12.2164 34.868 12.2164 34.676C12.2164 34.556 12.1084 34.424 12.0364 34.34C11.9644 34.256 11.9044 34.16 11.9044 33.56V29.24C11.9044 29.024 11.7724 28.856 11.5204 28.856C11.2564 28.856 11.1244 29.024 11.1244 29.24V33.56ZM13.8099 32.576C13.8099 34.22 14.2179 35.036 15.8739 35.036C16.1619 35.036 16.4739 35 16.4739 34.664C16.4739 34.34 16.1619 34.304 15.9339 34.304C15.8499 34.304 15.7779 34.316 15.6939 34.316C14.7219 34.316 14.5779 33.824 14.5779 32.492V29.924H15.9699C16.1619 29.924 16.3179 29.768 16.3179 29.576C16.3179 29.36 16.1619 29.204 15.9699 29.204H14.5779V27.404C14.5779 27.2 14.4459 27.02 14.1939 27.02C13.9419 27.02 13.8099 27.2 13.8099 27.404V32.576ZM18.5048 30.524C18.5048 30.164 18.4928 30.152 18.4928 30.152V30.14C19.1528 29.648 19.6088 29.648 20.1488 29.66C20.3528 29.672 20.5328 29.492 20.5328 29.252C20.5328 29.036 20.4008 28.868 19.9808 28.868C19.5368 28.868 18.8288 29.072 18.2648 29.432C18.1328 29.216 17.9528 29.06 17.7968 29.06C17.6048 29.06 17.4368 29.204 17.4368 29.408C17.4368 29.48 17.4608 29.552 17.5088 29.612C17.6768 29.852 17.7248 30.104 17.7248 30.524V34.7C17.7248 34.916 17.8928 35.084 18.1208 35.084C18.3248 35.084 18.5048 34.916 18.5048 34.7V30.524ZM22.6695 26.828C22.6695 26.54 22.4415 26.324 22.1775 26.324C21.8895 26.324 21.6735 26.54 21.6735 26.828C21.6735 27.092 21.8895 27.32 22.1775 27.32C22.4415 27.32 22.6695 27.092 22.6695 26.828ZM22.5615 34.7V29.252C22.5615 29.036 22.3815 28.856 22.1775 28.856C21.9495 28.856 21.7815 29.036 21.7815 29.252V34.7C21.7815 34.916 21.9495 35.084 22.1775 35.084C22.3815 35.084 22.5615 34.916 22.5615 34.7ZM29.8085 28.868C28.2965 28.868 27.8285 29.852 27.8285 31.28V32.852C27.8285 34.172 28.4645 35.084 29.7125 35.084C30.3005 35.084 30.9245 34.868 31.4885 34.58C31.6445 34.832 31.8605 35 32.1125 35C32.2805 35 32.4485 34.868 32.4485 34.664C32.4485 34.592 32.4245 34.544 32.4005 34.496C32.1125 34.28 32.0405 34.052 32.0405 33.68V26.588C32.0405 26.384 31.9085 26.204 31.6565 26.204C31.4045 26.204 31.2605 26.384 31.2605 26.588V29.132C30.7445 28.964 30.2045 28.868 29.8085 28.868ZM31.2605 33.68C31.2605 33.752 31.2605 33.824 31.3085 34.028C30.8525 34.256 30.3365 34.412 29.9045 34.412C29.0285 34.412 28.6085 33.872 28.6085 32.852V31.28C28.6085 30.056 28.9565 29.516 29.9285 29.516C30.2285 29.516 30.7925 29.624 31.2605 29.816V33.68ZM36.897 31.736C36.429 31.604 35.973 31.52 35.565 31.52C34.161 31.52 33.477 32.12 33.477 33.272V33.32C33.477 34.364 34.065 35.084 35.277 35.084C35.925 35.084 36.489 34.844 36.993 34.364C37.209 34.784 37.533 35.048 37.905 35.048C38.121 35.048 38.361 34.964 38.361 34.724C38.361 34.568 38.277 34.4 38.097 34.4C38.073 34.4 38.049 34.412 38.001 34.412C37.785 34.412 37.677 34.256 37.677 33.944V31.232C37.677 29.66 37.089 28.82 35.613 28.82C34.809 28.82 33.921 29.024 33.969 29.528C33.981 29.672 34.053 29.84 34.233 29.84C34.353 29.84 34.449 29.792 34.521 29.744C34.797 29.576 35.049 29.48 35.493 29.48C36.441 29.48 36.897 29.936 36.897 30.908V31.736ZM35.553 32.156C35.913 32.156 36.417 32.228 36.897 32.384V33.824C36.429 34.22 35.985 34.412 35.433 34.412C34.521 34.412 34.245 33.956 34.245 33.332V33.284C34.245 32.672 34.449 32.156 35.553 32.156ZM40.454 30.524C40.454 30.164 40.442 30.152 40.442 30.152V30.14C41.102 29.648 41.558 29.648 42.098 29.66C42.302 29.672 42.482 29.492 42.482 29.252C42.482 29.036 42.35 28.868 41.93 28.868C41.486 28.868 40.778 29.072 40.214 29.432C40.082 29.216 39.902 29.06 39.746 29.06C39.554 29.06 39.386 29.204 39.386 29.408C39.386 29.48 39.41 29.552 39.458 29.612C39.626 29.852 39.674 30.104 39.674 30.524V34.7C39.674 34.916 39.842 35.084 40.07 35.084C40.274 35.084 40.454 34.916 40.454 34.7V30.524ZM44.6187 26.828C44.6187 26.54 44.3907 26.324 44.1267 26.324C43.8387 26.324 43.6227 26.54 43.6227 26.828C43.6227 27.092 43.8387 27.32 44.1267 27.32C44.3907 27.32 44.6187 27.092 44.6187 26.828ZM44.5107 34.7V29.252C44.5107 29.036 44.3307 28.856 44.1267 28.856C43.8987 28.856 43.7307 29.036 43.7307 29.252V34.7C43.7307 34.916 43.8987 35.084 44.1267 35.084C44.3307 35.084 44.5107 34.916 44.5107 34.7ZM47.5241 30.932C47.5241 30.632 47.2841 30.368 46.9721 30.368C46.6601 30.368 46.3961 30.632 46.3961 30.932C46.3961 31.256 46.6601 31.508 46.9721 31.508C47.2841 31.508 47.5241 31.256 47.5241 30.932ZM47.5241 34.532C47.5241 34.232 47.2841 33.968 46.9721 33.968C46.6601 33.968 46.3961 34.232 46.3961 34.532C46.3961 34.856 46.6601 35.108 46.9721 35.108C47.2841 35.108 47.5241 34.856 47.5241 34.532ZM53.6474 33.044H56.8754L57.4274 34.82C57.4754 34.988 57.6674 35.108 57.8114 35.108C58.0514 35.108 58.2314 34.952 58.2314 34.712C58.2314 34.664 58.2194 34.58 58.2194 34.556L55.8314 26.996C55.7234 26.672 55.5674 26.408 55.2674 26.408C54.9554 26.408 54.8114 26.66 54.7154 26.996L52.3274 34.556C52.3154 34.592 52.3034 34.676 52.3034 34.712C52.3034 34.952 52.4954 35.108 52.7234 35.108C52.8554 35.108 53.0354 34.964 53.1074 34.82L53.6474 33.044ZM55.2674 27.716L56.6474 32.264H53.8754L55.2674 27.716ZM60.0773 29.432C59.9453 29.168 59.7413 29.036 59.5853 29.036C59.4053 29.036 59.2373 29.18 59.2373 29.384C59.2373 29.456 59.2613 29.528 59.3093 29.588C59.4773 29.828 59.5253 30.08 59.5253 30.5V34.7C59.5253 34.916 59.6573 35.072 59.9213 35.072C60.1733 35.072 60.3053 34.916 60.3053 34.7V30.5C60.3053 30.368 60.2933 30.224 60.2693 30.092C60.7253 29.744 61.2293 29.516 61.7333 29.516C62.5373 29.516 62.9573 30.092 62.9573 31.088V34.7C62.9573 34.916 63.1013 35.072 63.3533 35.072C63.6053 35.072 63.7373 34.916 63.7373 34.7V31.088C63.7373 29.744 63.1253 28.844 61.8773 28.844C61.2893 28.844 60.6653 29.024 60.0773 29.432ZM67.2148 28.868C65.7028 28.868 65.2348 29.852 65.2348 31.28V32.852C65.2348 34.172 65.8708 35.084 67.1188 35.084C67.7068 35.084 68.3308 34.868 68.8948 34.58C69.0508 34.832 69.2668 35 69.5188 35C69.6868 35 69.8548 34.868 69.8548 34.664C69.8548 34.592 69.8308 34.544 69.8068 34.496C69.5188 34.28 69.4468 34.052 69.4468 33.68V26.588C69.4468 26.384 69.3148 26.204 69.0628 26.204C68.8108 26.204 68.6668 26.384 68.6668 26.588V29.132C68.1508 28.964 67.6108 28.868 67.2148 28.868ZM68.6668 33.68C68.6668 33.752 68.6668 33.824 68.7148 34.028C68.2588 34.256 67.7428 34.412 67.3108 34.412C66.4348 34.412 66.0148 33.872 66.0148 32.852V31.28C66.0148 30.056 66.3628 29.516 67.3348 29.516C67.6348 29.516 68.1988 29.624 68.6668 29.816V33.68ZM72.2821 30.524C72.2821 30.164 72.2701 30.152 72.2701 30.152V30.14C72.9301 29.648 73.3861 29.648 73.9261 29.66C74.1301 29.672 74.3101 29.492 74.3101 29.252C74.3101 29.036 74.1781 28.868 73.7581 28.868C73.3141 28.868 72.6061 29.072 72.0421 29.432C71.9101 29.216 71.7301 29.06 71.5741 29.06C71.3821 29.06 71.2141 29.204 71.2141 29.408C71.2141 29.48 71.2381 29.552 71.2861 29.612C71.4541 29.852 71.5021 30.104 71.5021 30.524V34.7C71.5021 34.916 71.6701 35.084 71.8981 35.084C72.1021 35.084 72.2821 34.916 72.2821 34.7V30.524ZM76.4468 26.828C76.4468 26.54 76.2188 26.324 75.9548 26.324C75.6668 26.324 75.4508 26.54 75.4508 26.828C75.4508 27.092 75.6668 27.32 75.9548 27.32C76.2188 27.32 76.4468 27.092 76.4468 26.828ZM76.3388 34.7V29.252C76.3388 29.036 76.1588 28.856 75.9548 28.856C75.7268 28.856 75.5588 29.036 75.5588 29.252V34.7C75.5588 34.916 75.7268 35.084 75.9548 35.084C76.1588 35.084 76.3388 34.916 76.3388 34.7ZM81.4282 31.736C80.9602 31.604 80.5042 31.52 80.0962 31.52C78.6922 31.52 78.0082 32.12 78.0082 33.272V33.32C78.0082 34.364 78.5962 35.084 79.8082 35.084C80.4562 35.084 81.0202 34.844 81.5242 34.364C81.7402 34.784 82.0642 35.048 82.4362 35.048C82.6522 35.048 82.8922 34.964 82.8922 34.724C82.8922 34.568 82.8082 34.4 82.6282 34.4C82.6042 34.4 82.5802 34.412 82.5322 34.412C82.3162 34.412 82.2082 34.256 82.2082 33.944V31.232C82.2082 29.66 81.6202 28.82 80.1442 28.82C79.3402 28.82 78.4522 29.024 78.5002 29.528C78.5122 29.672 78.5842 29.84 78.7642 29.84C78.8842 29.84 78.9802 29.792 79.0522 29.744C79.3282 29.576 79.5802 29.48 80.0242 29.48C80.9722 29.48 81.4282 29.936 81.4282 30.908V31.736ZM80.0842 32.156C80.4442 32.156 80.9482 32.228 81.4282 32.384V33.824C80.9602 34.22 80.5162 34.412 79.9642 34.412C79.0522 34.412 78.7762 33.956 78.7762 33.332V33.284C78.7762 32.672 78.9802 32.156 80.0842 32.156ZM87.7549 34.712C87.7549 34.928 87.9469 35.108 88.1629 35.108C88.3909 35.108 88.5589 34.928 88.5589 34.712V26.804C88.5589 26.6 88.3909 26.408 88.1629 26.408C87.9469 26.408 87.7549 26.6 87.7549 26.804V34.712ZM91.0617 29.432C90.9297 29.168 90.7257 29.036 90.5697 29.036C90.3897 29.036 90.2217 29.18 90.2217 29.384C90.2217 29.456 90.2457 29.528 90.2937 29.588C90.4617 29.828 90.5097 30.08 90.5097 30.5V34.7C90.5097 34.916 90.6417 35.072 90.9057 35.072C91.1577 35.072 91.2897 34.916 91.2897 34.7V30.5C91.2897 30.368 91.2777 30.224 91.2537 30.092C91.7097 29.744 92.2137 29.516 92.7177 29.516C93.5217 29.516 93.9417 30.092 93.9417 31.088V34.7C93.9417 34.916 94.0857 35.072 94.3377 35.072C94.5897 35.072 94.7217 34.916 94.7217 34.7V31.088C94.7217 29.744 94.1097 28.844 92.8617 28.844C92.2737 28.844 91.6497 29.024 91.0617 29.432ZM98.1991 28.868C96.6871 28.868 96.2191 29.852 96.2191 31.28V32.852C96.2191 34.172 96.8551 35.084 98.1031 35.084C98.6911 35.084 99.3151 34.868 99.8791 34.58C100.035 34.832 100.251 35 100.503 35C100.671 35 100.839 34.868 100.839 34.664C100.839 34.592 100.815 34.544 100.791 34.496C100.503 34.28 100.431 34.052 100.431 33.68V26.588C100.431 26.384 100.299 26.204 100.047 26.204C99.7951 26.204 99.6511 26.384 99.6511 26.588V29.132C99.1351 28.964 98.5951 28.868 98.1991 28.868ZM99.6511 33.68C99.6511 33.752 99.6511 33.824 99.6991 34.028C99.2431 34.256 98.7271 34.412 98.2951 34.412C97.4191 34.412 96.9991 33.872 96.9991 32.852V31.28C96.9991 30.056 97.3471 29.516 98.3191 29.516C98.6191 29.516 99.1831 29.624 99.6511 29.816V33.68ZM103.267 30.524C103.267 30.164 103.255 30.152 103.255 30.152V30.14C103.915 29.648 104.371 29.648 104.911 29.66C105.115 29.672 105.295 29.492 105.295 29.252C105.295 29.036 105.163 28.868 104.743 28.868C104.299 28.868 103.591 29.072 103.027 29.432C102.895 29.216 102.715 29.06 102.559 29.06C102.367 29.06 102.199 29.204 102.199 29.408C102.199 29.48 102.223 29.552 102.271 29.612C102.439 29.852 102.487 30.104 102.487 30.524V34.7C102.487 34.916 102.655 35.084 102.883 35.084C103.087 35.084 103.267 34.916 103.267 34.7V30.524ZM109.459 31.736C108.991 31.604 108.535 31.52 108.127 31.52C106.723 31.52 106.039 32.12 106.039 33.272V33.32C106.039 34.364 106.627 35.084 107.839 35.084C108.487 35.084 109.051 34.844 109.555 34.364C109.771 34.784 110.095 35.048 110.467 35.048C110.683 35.048 110.923 34.964 110.923 34.724C110.923 34.568 110.839 34.4 110.659 34.4C110.635 34.4 110.611 34.412 110.563 34.412C110.347 34.412 110.239 34.256 110.239 33.944V31.232C110.239 29.66 109.651 28.82 108.175 28.82C107.371 28.82 106.483 29.024 106.531 29.528C106.543 29.672 106.615 29.84 106.795 29.84C106.915 29.84 107.011 29.792 107.083 29.744C107.359 29.576 107.611 29.48 108.055 29.48C109.003 29.48 109.459 29.936 109.459 30.908V31.736ZM108.115 32.156C108.475 32.156 108.979 32.228 109.459 32.384V33.824C108.991 34.22 108.547 34.412 107.995 34.412C107.083 34.412 106.807 33.956 106.807 33.332V33.284C106.807 32.672 107.011 32.156 108.115 32.156ZM113.809 28.868C112.297 28.868 111.829 29.852 111.829 31.28V32.852C111.829 34.172 112.465 35.084 113.713 35.084C114.301 35.084 114.925 34.868 115.489 34.58C115.645 34.832 115.861 35 116.113 35C116.281 35 116.449 34.868 116.449 34.664C116.449 34.592 116.425 34.544 116.401 34.496C116.113 34.28 116.041 34.052 116.041 33.68V26.588C116.041 26.384 115.909 26.204 115.657 26.204C115.405 26.204 115.261 26.384 115.261 26.588V29.132C114.745 28.964 114.205 28.868 113.809 28.868ZM115.261 33.68C115.261 33.752 115.261 33.824 115.309 34.028C114.853 34.256 114.337 34.412 113.905 34.412C113.029 34.412 112.609 33.872 112.609 32.852V31.28C112.609 30.056 112.957 29.516 113.929 29.516C114.229 29.516 114.793 29.624 115.261 29.816V33.68ZM118.972 29.252C118.972 29.036 118.792 28.856 118.588 28.856C118.36 28.856 118.192 29.036 118.192 29.252V35.324C118.192 36.284 117.784 36.668 117.064 36.836C116.908 36.86 116.704 36.98 116.764 37.256C116.8 37.4 116.944 37.496 117.088 37.496C117.16 37.496 117.208 37.508 117.304 37.496C118.324 37.328 118.972 36.488 118.972 35.276V29.252ZM119.08 26.828C119.08 26.54 118.852 26.324 118.588 26.324C118.3 26.324 118.072 26.54 118.072 26.828C118.072 27.092 118.3 27.32 118.588 27.32C118.852 27.32 119.08 27.092 119.08 26.828ZM124.049 31.736C123.581 31.604 123.125 31.52 122.717 31.52C121.313 31.52 120.629 32.12 120.629 33.272V33.32C120.629 34.364 121.217 35.084 122.429 35.084C123.077 35.084 123.641 34.844 124.145 34.364C124.361 34.784 124.685 35.048 125.057 35.048C125.273 35.048 125.513 34.964 125.513 34.724C125.513 34.568 125.429 34.4 125.249 34.4C125.225 34.4 125.201 34.412 125.153 34.412C124.937 34.412 124.829 34.256 124.829 33.944V31.232C124.829 29.66 124.241 28.82 122.765 28.82C121.961 28.82 121.073 29.024 121.121 29.528C121.133 29.672 121.205 29.84 121.385 29.84C121.505 29.84 121.601 29.792 121.673 29.744C121.949 29.576 122.201 29.48 122.645 29.48C123.593 29.48 124.049 29.936 124.049 30.908V31.736ZM122.705 32.156C123.065 32.156 123.569 32.228 124.049 32.384V33.824C123.581 34.22 123.137 34.412 122.585 34.412C121.673 34.412 121.397 33.956 121.397 33.332V33.284C121.397 32.672 121.601 32.156 122.705 32.156ZM127.702 29.252C127.702 29.036 127.522 28.856 127.318 28.856C127.09 28.856 126.922 29.036 126.922 29.252V35.324C126.922 36.284 126.514 36.668 125.794 36.836C125.638 36.86 125.434 36.98 125.494 37.256C125.53 37.4 125.674 37.496 125.818 37.496C125.89 37.496 125.938 37.508 126.034 37.496C127.054 37.328 127.702 36.488 127.702 35.276V29.252ZM127.81 26.828C127.81 26.54 127.582 26.324 127.318 26.324C127.03 26.324 126.802 26.54 126.802 26.828C126.802 27.092 127.03 27.32 127.318 27.32C127.582 27.32 127.81 27.092 127.81 26.828ZM132.78 31.736C132.312 31.604 131.856 31.52 131.448 31.52C130.044 31.52 129.36 32.12 129.36 33.272V33.32C129.36 34.364 129.948 35.084 131.16 35.084C131.808 35.084 132.372 34.844 132.876 34.364C133.092 34.784 133.416 35.048 133.788 35.048C134.004 35.048 134.244 34.964 134.244 34.724C134.244 34.568 134.16 34.4 133.98 34.4C133.956 34.4 133.932 34.412 133.884 34.412C133.668 34.412 133.56 34.256 133.56 33.944V31.232C133.56 29.66 132.972 28.82 131.496 28.82C130.692 28.82 129.804 29.024 129.852 29.528C129.864 29.672 129.936 29.84 130.116 29.84C130.236 29.84 130.332 29.792 130.404 29.744C130.68 29.576 130.932 29.48 131.376 29.48C132.324 29.48 132.78 29.936 132.78 30.908V31.736ZM131.436 32.156C131.796 32.156 132.3 32.228 132.78 32.384V33.824C132.312 34.22 131.868 34.412 131.316 34.412C130.404 34.412 130.128 33.956 130.128 33.332V33.284C130.128 32.672 130.332 32.156 131.436 32.156ZM145.298 34.712C145.298 34.616 145.274 34.544 145.214 34.484L144.218 33.296C144.662 32.684 145.226 31.748 145.226 31.256C145.226 31.052 145.058 30.884 144.866 30.884C144.722 30.884 144.638 30.896 144.53 31.136C144.314 31.592 144.086 32.084 143.702 32.684L141.362 29.972C140.81 29.324 140.366 28.784 140.366 28.28C140.366 27.56 140.978 27.116 141.638 27.116C142.214 27.116 142.646 27.572 142.766 28.016C142.814 28.172 142.946 28.304 143.114 28.304C143.306 28.304 143.486 28.148 143.486 27.932C143.486 27.188 142.658 26.432 141.602 26.432C140.558 26.432 139.598 27.116 139.598 28.256C139.598 28.928 140.03 29.588 140.666 30.284C139.73 30.836 138.77 31.604 138.77 32.876C138.77 34.136 139.754 35.108 141.218 35.108C142.31 35.108 143.09 34.532 143.726 33.884L144.578 34.892C144.686 35.024 144.77 35.108 144.938 35.108C145.142 35.108 145.298 34.928 145.298 34.712ZM143.246 33.296C142.67 33.932 142.01 34.412 141.146 34.412C140.162 34.412 139.526 33.656 139.526 32.78C139.526 31.844 140.33 31.268 141.11 30.848L143.246 33.296ZM152.023 28.868C150.511 28.868 150.043 29.852 150.043 31.28V32.852C150.043 34.172 150.679 35.084 151.927 35.084C152.515 35.084 153.139 34.868 153.703 34.58C153.859 34.832 154.075 35 154.327 35C154.495 35 154.663 34.868 154.663 34.664C154.663 34.592 154.639 34.544 154.615 34.496C154.327 34.28 154.255 34.052 154.255 33.68V26.588C154.255 26.384 154.123 26.204 153.871 26.204C153.619 26.204 153.475 26.384 153.475 26.588V29.132C152.959 28.964 152.419 28.868 152.023 28.868ZM153.475 33.68C153.475 33.752 153.475 33.824 153.523 34.028C153.067 34.256 152.551 34.412 152.119 34.412C151.243 34.412 150.823 33.872 150.823 32.852V31.28C150.823 30.056 151.171 29.516 152.143 29.516C152.443 29.516 153.007 29.624 153.475 29.816V33.68ZM157.091 30.524C157.091 30.164 157.079 30.152 157.079 30.152V30.14C157.739 29.648 158.195 29.648 158.735 29.66C158.939 29.672 159.119 29.492 159.119 29.252C159.119 29.036 158.987 28.868 158.567 28.868C158.123 28.868 157.415 29.072 156.851 29.432C156.719 29.216 156.539 29.06 156.383 29.06C156.191 29.06 156.023 29.204 156.023 29.408C156.023 29.48 156.047 29.552 156.095 29.612C156.263 29.852 156.311 30.104 156.311 30.524V34.7C156.311 34.916 156.479 35.084 156.707 35.084C156.911 35.084 157.091 34.916 157.091 34.7V30.524ZM160.411 34.532C160.411 34.232 160.171 33.968 159.859 33.968C159.547 33.968 159.283 34.232 159.283 34.532C159.283 34.856 159.547 35.108 159.859 35.108C160.171 35.108 160.411 34.856 160.411 34.532ZM169.294 32.744C169.294 33.752 168.718 34.34 167.566 34.34C166.942 34.34 166.498 34.172 166.186 34.04C166.006 33.98 165.814 33.908 165.742 33.908C165.55 33.908 165.382 34.1 165.382 34.304C165.382 34.892 166.798 35.108 167.554 35.108C169.042 35.108 170.146 34.22 170.146 32.66C170.146 31.124 168.982 30.68 167.962 30.344C167.626 30.236 167.266 30.092 167.002 29.96C166.702 29.804 166.234 29.504 166.234 28.652C166.234 27.512 167.026 27.176 167.866 27.176C168.358 27.176 168.694 27.308 168.97 27.416C169.102 27.476 169.258 27.524 169.39 27.524C169.642 27.524 169.786 27.344 169.786 27.152C169.786 26.54 168.382 26.408 167.794 26.408C166.318 26.408 165.394 27.272 165.394 28.712C165.394 30.308 166.534 30.68 167.59 31.04C167.938 31.16 168.298 31.292 168.55 31.424C168.874 31.592 169.294 31.928 169.294 32.744ZM172.423 26.828C172.423 26.54 172.195 26.324 171.931 26.324C171.643 26.324 171.427 26.54 171.427 26.828C171.427 27.092 171.643 27.32 171.931 27.32C172.195 27.32 172.423 27.092 172.423 26.828ZM172.315 34.7V29.252C172.315 29.036 172.135 28.856 171.931 28.856C171.703 28.856 171.535 29.036 171.535 29.252V34.7C171.535 34.916 171.703 35.084 171.931 35.084C172.135 35.084 172.315 34.916 172.315 34.7ZM174.357 32.576C174.357 34.22 174.765 35.036 176.421 35.036C176.709 35.036 177.021 35 177.021 34.664C177.021 34.34 176.709 34.304 176.481 34.304C176.397 34.304 176.325 34.316 176.241 34.316C175.269 34.316 175.125 33.824 175.125 32.492V29.924H176.517C176.709 29.924 176.865 29.768 176.865 29.576C176.865 29.36 176.709 29.204 176.517 29.204H175.125V27.404C175.125 27.2 174.993 27.02 174.741 27.02C174.489 27.02 174.357 27.2 174.357 27.404V32.576ZM179.162 26.828C179.162 26.54 178.934 26.324 178.67 26.324C178.382 26.324 178.166 26.54 178.166 26.828C178.166 27.092 178.382 27.32 178.67 27.32C178.934 27.32 179.162 27.092 179.162 26.828ZM179.054 34.7V29.252C179.054 29.036 178.874 28.856 178.67 28.856C178.442 28.856 178.274 29.036 178.274 29.252V34.7C178.274 34.916 178.442 35.084 178.67 35.084C178.874 35.084 179.054 34.916 179.054 34.7ZM188.185 32.744C188.185 33.752 187.609 34.34 186.457 34.34C185.833 34.34 185.389 34.172 185.077 34.04C184.897 33.98 184.705 33.908 184.633 33.908C184.441 33.908 184.273 34.1 184.273 34.304C184.273 34.892 185.689 35.108 186.445 35.108C187.933 35.108 189.037 34.22 189.037 32.66C189.037 31.124 187.873 30.68 186.853 30.344C186.517 30.236 186.157 30.092 185.893 29.96C185.593 29.804 185.125 29.504 185.125 28.652C185.125 27.512 185.917 27.176 186.757 27.176C187.249 27.176 187.585 27.308 187.861 27.416C187.993 27.476 188.149 27.524 188.281 27.524C188.533 27.524 188.677 27.344 188.677 27.152C188.677 26.54 187.273 26.408 186.685 26.408C185.209 26.408 184.285 27.272 184.285 28.712C184.285 30.308 185.425 30.68 186.481 31.04C186.829 31.16 187.189 31.292 187.441 31.424C187.765 31.592 188.185 31.928 188.185 32.744ZM193.577 31.736C193.109 31.604 192.653 31.52 192.245 31.52C190.841 31.52 190.157 32.12 190.157 33.272V33.32C190.157 34.364 190.745 35.084 191.957 35.084C192.605 35.084 193.169 34.844 193.673 34.364C193.889 34.784 194.213 35.048 194.585 35.048C194.801 35.048 195.041 34.964 195.041 34.724C195.041 34.568 194.957 34.4 194.777 34.4C194.753 34.4 194.729 34.412 194.681 34.412C194.465 34.412 194.357 34.256 194.357 33.944V31.232C194.357 29.66 193.769 28.82 192.293 28.82C191.489 28.82 190.601 29.024 190.649 29.528C190.661 29.672 190.733 29.84 190.913 29.84C191.033 29.84 191.129 29.792 191.201 29.744C191.477 29.576 191.729 29.48 192.173 29.48C193.121 29.48 193.577 29.936 193.577 30.908V31.736ZM192.233 32.156C192.593 32.156 193.097 32.228 193.577 32.384V33.824C193.109 34.22 192.665 34.412 192.113 34.412C191.201 34.412 190.925 33.956 190.925 33.332V33.284C190.925 32.672 191.129 32.156 192.233 32.156ZM200.758 26.828C200.758 26.54 200.542 26.324 200.266 26.324C199.99 26.324 199.762 26.54 199.762 26.828C199.762 27.092 199.99 27.32 200.266 27.32C200.542 27.32 200.758 27.092 200.758 26.828ZM200.65 34.7V29.252C200.65 29.036 200.482 28.856 200.266 28.856C200.05 28.856 199.87 29.036 199.87 29.252V34.7C199.87 34.916 200.05 35.084 200.266 35.084C200.482 35.084 200.65 34.916 200.65 34.7ZM196.294 34.676C196.294 34.892 196.438 35.048 196.69 35.048C196.942 35.048 197.074 34.892 197.074 34.676V29.924H198.466C198.658 29.924 198.814 29.768 198.814 29.576C198.814 29.36 198.658 29.204 198.466 29.204H197.074V28.352C197.074 27.596 197.41 26.948 198.034 26.948C198.178 26.948 198.346 26.984 198.514 27.008C198.574 27.02 198.67 27.032 198.79 27.032C198.982 27.032 199.15 26.9 199.15 26.672C199.15 26.192 198.31 26.192 198.13 26.204C197.086 26.252 196.294 26.936 196.294 28.448V34.676ZM202.517 32.576C202.517 34.22 202.925 35.036 204.581 35.036C204.869 35.036 205.181 35 205.181 34.664C205.181 34.34 204.869 34.304 204.641 34.304C204.557 34.304 204.485 34.316 204.401 34.316C203.429 34.316 203.285 33.824 203.285 32.492V29.924H204.677C204.869 29.924 205.025 29.768 205.025 29.576C205.025 29.36 204.869 29.204 204.677 29.204H203.285V27.404C203.285 27.2 203.153 27.02 202.901 27.02C202.649 27.02 202.517 27.2 202.517 27.404V32.576ZM207.212 30.524C207.212 30.164 207.2 30.152 207.2 30.152V30.14C207.86 29.648 208.316 29.648 208.856 29.66C209.06 29.672 209.24 29.492 209.24 29.252C209.24 29.036 209.108 28.868 208.688 28.868C208.244 28.868 207.536 29.072 206.972 29.432C206.84 29.216 206.66 29.06 206.504 29.06C206.312 29.06 206.144 29.204 206.144 29.408C206.144 29.48 206.168 29.552 206.216 29.612C206.384 29.852 206.432 30.104 206.432 30.524V34.7C206.432 34.916 206.6 35.084 206.828 35.084C207.032 35.084 207.212 34.916 207.212 34.7V30.524ZM211.376 26.828C211.376 26.54 211.148 26.324 210.884 26.324C210.596 26.324 210.38 26.54 210.38 26.828C210.38 27.092 210.596 27.32 210.884 27.32C211.148 27.32 211.376 27.092 211.376 26.828ZM211.268 34.7V29.252C211.268 29.036 211.088 28.856 210.884 28.856C210.656 28.856 210.488 29.036 210.488 29.252V34.7C210.488 34.916 210.656 35.084 210.884 35.084C211.088 35.084 211.268 34.916 211.268 34.7ZM222.032 31.844V29.552C222.032 27.968 221.192 26.516 218.768 26.516H217.376C217.112 26.516 216.884 26.744 216.884 27.02V34.496C216.884 34.772 217.112 34.988 217.376 34.988H218.768C221.204 34.988 222.032 33.476 222.032 31.844ZM221.228 31.844C221.228 33.164 220.652 34.22 218.972 34.22H217.676V27.284H218.972C220.628 27.284 221.228 28.292 221.228 29.552V31.844ZM227.544 29.372C227.544 29.348 227.556 29.312 227.556 29.252C227.556 29.012 227.364 28.856 227.172 28.856C227.028 28.856 226.884 28.976 226.812 29.108C226.38 30.644 225.804 32.564 225.372 34.088L223.74 29.108C223.68 28.964 223.536 28.856 223.392 28.856C223.176 28.856 222.996 29 222.996 29.216C222.996 29.252 222.996 29.312 223.032 29.348L225 35.06C224.604 36.236 224.256 36.644 223.404 36.68C223.176 36.692 223.044 36.872 223.044 37.052C223.044 37.268 223.212 37.424 223.452 37.424C224.928 37.424 225.48 36.032 226.032 34.28L227.544 29.372ZM231.663 31.736C231.195 31.604 230.739 31.52 230.331 31.52C228.927 31.52 228.243 32.12 228.243 33.272V33.32C228.243 34.364 228.831 35.084 230.043 35.084C230.691 35.084 231.255 34.844 231.759 34.364C231.975 34.784 232.299 35.048 232.671 35.048C232.887 35.048 233.127 34.964 233.127 34.724C233.127 34.568 233.043 34.4 232.863 34.4C232.839 34.4 232.815 34.412 232.767 34.412C232.551 34.412 232.443 34.256 232.443 33.944V31.232C232.443 29.66 231.855 28.82 230.379 28.82C229.575 28.82 228.687 29.024 228.735 29.528C228.747 29.672 228.819 29.84 228.999 29.84C229.119 29.84 229.215 29.792 229.287 29.744C229.563 29.576 229.815 29.48 230.259 29.48C231.207 29.48 231.663 29.936 231.663 30.908V31.736ZM230.319 32.156C230.679 32.156 231.183 32.228 231.663 32.384V33.824C231.195 34.22 230.751 34.412 230.199 34.412C229.287 34.412 229.011 33.956 229.011 33.332V33.284C229.011 32.672 229.215 32.156 230.319 32.156ZM235.148 34.7V30.32C235.556 29.78 236.168 29.528 236.684 29.528C237.512 29.528 237.848 29.984 237.848 30.8V34.7C237.848 34.916 238.028 35.084 238.244 35.084C238.46 35.084 238.628 34.916 238.628 34.7V30.788C238.628 29.636 238.064 28.82 236.804 28.82C236.24 28.82 235.664 29.048 235.148 29.444V26.528C235.148 26.3 234.98 26.132 234.764 26.132C234.548 26.132 234.392 26.336 234.392 26.528V34.7C234.392 34.916 234.56 35.084 234.788 35.084C234.992 35.084 235.148 34.916 235.148 34.7ZM244.851 31.124H247.635C247.851 31.124 248.019 30.956 248.019 30.74C248.019 30.524 247.839 30.356 247.635 30.356H244.851V27.296H247.875C248.091 27.296 248.259 27.14 248.259 26.936C248.259 26.708 248.091 26.528 247.875 26.528H244.551C244.263 26.528 244.059 26.768 244.059 27.02V34.712C244.059 34.928 244.239 35.108 244.467 35.108C244.683 35.108 244.851 34.928 244.851 34.712V31.124ZM252.1 31.736C251.632 31.604 251.176 31.52 250.768 31.52C249.364 31.52 248.68 32.12 248.68 33.272V33.32C248.68 34.364 249.268 35.084 250.48 35.084C251.128 35.084 251.692 34.844 252.196 34.364C252.412 34.784 252.736 35.048 253.108 35.048C253.324 35.048 253.564 34.964 253.564 34.724C253.564 34.568 253.48 34.4 253.3 34.4C253.276 34.4 253.252 34.412 253.204 34.412C252.988 34.412 252.88 34.256 252.88 33.944V31.232C252.88 29.66 252.292 28.82 250.816 28.82C250.012 28.82 249.124 29.024 249.172 29.528C249.184 29.672 249.256 29.84 249.436 29.84C249.556 29.84 249.652 29.792 249.724 29.744C250 29.576 250.252 29.48 250.696 29.48C251.644 29.48 252.1 29.936 252.1 30.908V31.736ZM250.756 32.156C251.116 32.156 251.62 32.228 252.1 32.384V33.824C251.632 34.22 251.188 34.412 250.636 34.412C249.724 34.412 249.448 33.956 249.448 33.332V33.284C249.448 32.672 249.652 32.156 250.756 32.156ZM254.583 32.576C254.583 34.22 254.991 35.036 256.647 35.036C256.935 35.036 257.247 35 257.247 34.664C257.247 34.34 256.935 34.304 256.707 34.304C256.623 34.304 256.551 34.316 256.467 34.316C255.495 34.316 255.351 33.824 255.351 32.492V29.924H256.743C256.935 29.924 257.091 29.768 257.091 29.576C257.091 29.36 256.935 29.204 256.743 29.204H255.351V27.404C255.351 27.2 255.219 27.02 254.967 27.02C254.715 27.02 254.583 27.2 254.583 27.404V32.576ZM259.002 29.408C258.87 29.144 258.69 29.036 258.534 29.036C258.354 29.036 258.186 29.18 258.186 29.384C258.186 29.456 258.21 29.528 258.258 29.588C258.426 29.828 258.474 30.08 258.474 30.5V34.7C258.474 34.916 258.606 35.072 258.87 35.072C259.122 35.072 259.254 34.916 259.254 34.7V30.5C259.254 30.344 259.242 30.212 259.218 30.068C259.602 29.78 260.19 29.516 260.742 29.516C261.702 29.516 261.858 30.176 261.858 31.112V34.7C261.858 34.916 261.99 35.072 262.254 35.072C262.518 35.072 262.638 34.916 262.638 34.7V30.836C262.638 30.608 262.614 30.416 262.578 30.236C262.902 29.828 263.466 29.516 264.03 29.516C264.858 29.516 265.242 30.116 265.242 30.86V34.7C265.242 34.916 265.386 35.072 265.638 35.072C265.902 35.072 266.022 34.916 266.022 34.7V30.836C266.022 29.636 265.338 28.82 264.066 28.82C263.406 28.82 262.806 29.072 262.254 29.492C261.918 29.06 261.474 28.82 260.838 28.82C260.202 28.82 259.578 29.036 259.002 29.408ZM270.862 31.736C270.394 31.604 269.938 31.52 269.53 31.52C268.126 31.52 267.442 32.12 267.442 33.272V33.32C267.442 34.364 268.03 35.084 269.242 35.084C269.89 35.084 270.454 34.844 270.958 34.364C271.174 34.784 271.498 35.048 271.87 35.048C272.086 35.048 272.326 34.964 272.326 34.724C272.326 34.568 272.242 34.4 272.062 34.4C272.038 34.4 272.014 34.412 271.966 34.412C271.75 34.412 271.642 34.256 271.642 33.944V31.232C271.642 29.66 271.054 28.82 269.578 28.82C268.774 28.82 267.886 29.024 267.934 29.528C267.946 29.672 268.018 29.84 268.198 29.84C268.318 29.84 268.414 29.792 268.486 29.744C268.762 29.576 269.014 29.48 269.458 29.48C270.406 29.48 270.862 29.936 270.862 30.908V31.736ZM269.518 32.156C269.878 32.156 270.382 32.228 270.862 32.384V33.824C270.394 34.22 269.95 34.412 269.398 34.412C268.486 34.412 268.21 33.956 268.21 33.332V33.284C268.21 32.672 268.414 32.156 269.518 32.156Z" fill="#4E2E1F"/>
<path d="M8.37309 101.796C9.99309 101.796 11.0251 100.872 11.0251 99.192C11.0251 97.8 10.3291 96.528 8.37309 96.528H6.57309C6.29709 96.528 6.06909 96.756 6.06909 97.032V104.688C6.06909 104.928 6.26109 105.108 6.46509 105.108C6.69309 105.108 6.86109 104.916 6.86109 104.688V101.796H8.37309ZM6.86109 97.296H8.37309C9.88509 97.296 10.2331 98.244 10.2331 99.18C10.2331 100.44 9.59709 101.028 8.37309 101.028H6.86109V97.296ZM15.8764 103.56C15.8764 103.716 15.8884 103.836 15.9004 103.956C15.4564 104.244 14.9524 104.412 14.4484 104.412C13.6444 104.412 13.2124 103.836 13.2124 102.852V99.24C13.2124 99.024 13.0804 98.856 12.8284 98.856C12.5764 98.856 12.4324 99.024 12.4324 99.24V102.852C12.4324 104.184 13.0684 105.084 14.3164 105.084C14.8804 105.084 15.5164 104.952 16.0924 104.616C16.2484 104.856 16.4044 105.012 16.6084 105.012C16.8004 105.012 16.9684 104.868 16.9684 104.676C16.9684 104.556 16.8604 104.424 16.7884 104.34C16.7164 104.256 16.6564 104.16 16.6564 103.56V99.24C16.6564 99.024 16.5244 98.856 16.2724 98.856C16.0084 98.856 15.8764 99.024 15.8764 99.24V103.56ZM18.5618 102.576C18.5618 104.22 18.9698 105.036 20.6258 105.036C20.9138 105.036 21.2258 105 21.2258 104.664C21.2258 104.34 20.9138 104.304 20.6858 104.304C20.6018 104.304 20.5298 104.316 20.4458 104.316C19.4738 104.316 19.3298 103.824 19.3298 102.492V99.924H20.7218C20.9138 99.924 21.0698 99.768 21.0698 99.576C21.0698 99.36 20.9138 99.204 20.7218 99.204H19.3298V97.404C19.3298 97.2 19.1978 97.02 18.9458 97.02C18.6938 97.02 18.5618 97.2 18.5618 97.404V102.576ZM23.2568 100.524C23.2568 100.164 23.2448 100.152 23.2448 100.152V100.14C23.9048 99.648 24.3608 99.648 24.9008 99.66C25.1048 99.672 25.2848 99.492 25.2848 99.252C25.2848 99.036 25.1528 98.868 24.7328 98.868C24.2888 98.868 23.5808 99.072 23.0168 99.432C22.8848 99.216 22.7048 99.06 22.5488 99.06C22.3568 99.06 22.1888 99.204 22.1888 99.408C22.1888 99.48 22.2128 99.552 22.2607 99.612C22.4288 99.852 22.4768 100.104 22.4768 100.524V104.7C22.4768 104.916 22.6448 105.084 22.8728 105.084C23.0768 105.084 23.2568 104.916 23.2568 104.7V100.524ZM29.4497 101.736C28.9817 101.604 28.5257 101.52 28.1177 101.52C26.7137 101.52 26.0297 102.12 26.0297 103.272V103.32C26.0297 104.364 26.6177 105.084 27.8297 105.084C28.4777 105.084 29.0417 104.844 29.5457 104.364C29.7617 104.784 30.0857 105.048 30.4577 105.048C30.6737 105.048 30.9137 104.964 30.9137 104.724C30.9137 104.568 30.8297 104.4 30.6497 104.4C30.6257 104.4 30.6017 104.412 30.5537 104.412C30.3377 104.412 30.2297 104.256 30.2297 103.944V101.232C30.2297 99.66 29.6417 98.82 28.1657 98.82C27.3617 98.82 26.4737 99.024 26.5217 99.528C26.5337 99.672 26.6057 99.84 26.7857 99.84C26.9057 99.84 27.0017 99.792 27.0737 99.744C27.3497 99.576 27.6017 99.48 28.0457 99.48C28.9937 99.48 29.4497 99.936 29.4497 100.908V101.736ZM28.1057 102.156C28.4657 102.156 28.9697 102.228 29.4497 102.384V103.824C28.9817 104.22 28.5377 104.412 27.9857 104.412C27.0737 104.412 26.7977 103.956 26.7977 103.332V103.284C26.7977 102.672 27.0017 102.156 28.1057 102.156ZM37.3964 98.868C35.8844 98.868 35.4164 99.852 35.4164 101.28V102.852C35.4164 104.172 36.0524 105.084 37.3004 105.084C37.8884 105.084 38.5124 104.868 39.0764 104.58C39.2324 104.832 39.4484 105 39.7004 105C39.8684 105 40.0364 104.868 40.0364 104.664C40.0364 104.592 40.0124 104.544 39.9884 104.496C39.7004 104.28 39.6284 104.052 39.6284 103.68V96.588C39.6284 96.384 39.4964 96.204 39.2444 96.204C38.9924 96.204 38.8484 96.384 38.8484 96.588V99.132C38.3324 98.964 37.7924 98.868 37.3964 98.868ZM38.8484 103.68C38.8484 103.752 38.8484 103.824 38.8964 104.028C38.4404 104.256 37.9244 104.412 37.4924 104.412C36.6164 104.412 36.1964 103.872 36.1964 102.852V101.28C36.1964 100.056 36.5444 99.516 37.5164 99.516C37.8164 99.516 38.3804 99.624 38.8484 99.816V103.68ZM44.4848 101.736C44.0168 101.604 43.5608 101.52 43.1528 101.52C41.7488 101.52 41.0648 102.12 41.0648 103.272V103.32C41.0648 104.364 41.6528 105.084 42.8648 105.084C43.5128 105.084 44.0768 104.844 44.5808 104.364C44.7968 104.784 45.1208 105.048 45.4928 105.048C45.7088 105.048 45.9488 104.964 45.9488 104.724C45.9488 104.568 45.8648 104.4 45.6848 104.4C45.6608 104.4 45.6368 104.412 45.5888 104.412C45.3728 104.412 45.2648 104.256 45.2648 103.944V101.232C45.2648 99.66 44.6768 98.82 43.2008 98.82C42.3968 98.82 41.5088 99.024 41.5568 99.528C41.5688 99.672 41.6408 99.84 41.8208 99.84C41.9408 99.84 42.0368 99.792 42.1088 99.744C42.3848 99.576 42.6368 99.48 43.0808 99.48C44.0288 99.48 44.4848 99.936 44.4848 100.908V101.736ZM43.1408 102.156C43.5008 102.156 44.0048 102.228 44.4848 102.384V103.824C44.0168 104.22 43.5728 104.412 43.0208 104.412C42.1088 104.412 41.8328 103.956 41.8328 103.332V103.284C41.8328 102.672 42.0368 102.156 43.1408 102.156ZM48.0419 100.524C48.0419 100.164 48.0299 100.152 48.0299 100.152V100.14C48.6899 99.648 49.1459 99.648 49.6859 99.66C49.8899 99.672 50.0699 99.492 50.0699 99.252C50.0699 99.036 49.9379 98.868 49.5179 98.868C49.0739 98.868 48.3659 99.072 47.8019 99.432C47.6699 99.216 47.4899 99.06 47.3339 99.06C47.1419 99.06 46.9739 99.204 46.9739 99.408C46.9739 99.48 46.9979 99.552 47.0459 99.612C47.2139 99.852 47.2619 100.104 47.2619 100.524V104.7C47.2619 104.916 47.4299 105.084 47.6579 105.084C47.8619 105.084 48.0419 104.916 48.0419 104.7V100.524ZM52.2066 96.828C52.2066 96.54 51.9786 96.324 51.7146 96.324C51.4266 96.324 51.2106 96.54 51.2106 96.828C51.2106 97.092 51.4266 97.32 51.7146 97.32C51.9786 97.32 52.2066 97.092 52.2066 96.828ZM52.0986 104.7V99.252C52.0986 99.036 51.9186 98.856 51.7146 98.856C51.4866 98.856 51.3186 99.036 51.3186 99.252V104.7C51.3186 104.916 51.4866 105.084 51.7146 105.084C51.9186 105.084 52.0986 104.916 52.0986 104.7ZM55.112 100.932C55.112 100.632 54.872 100.368 54.56 100.368C54.248 100.368 53.984 100.632 53.984 100.932C53.984 101.256 54.248 101.508 54.56 101.508C54.872 101.508 55.112 101.256 55.112 100.932ZM55.112 104.532C55.112 104.232 54.872 103.968 54.56 103.968C54.248 103.968 53.984 104.232 53.984 104.532C53.984 104.856 54.248 105.108 54.56 105.108C54.872 105.108 55.112 104.856 55.112 104.532ZM65.6633 98.892C65.6633 97.716 65.0393 96.528 63.0833 96.528H60.9473C60.6953 96.528 60.4673 96.756 60.4673 97.032V104.688C60.4673 104.928 60.6593 105.108 60.8633 105.108C61.0913 105.108 61.2713 104.916 61.2713 104.688V101.184H62.8313L65.0273 104.916C65.0993 105.024 65.2193 105.096 65.3513 105.096C65.5073 105.096 65.7833 104.94 65.7833 104.736C65.7833 104.64 65.7593 104.544 65.7353 104.484L65.7473 104.496L63.7193 101.16C64.9073 100.92 65.6633 100.14 65.6633 98.892ZM64.8593 98.892C64.8593 99.9 64.2473 100.428 63.1073 100.428H61.2713V97.296H63.0353C64.5353 97.296 64.8593 98.124 64.8593 98.892ZM70.8256 103.56C70.8256 103.716 70.8376 103.836 70.8496 103.956C70.4056 104.244 69.9016 104.412 69.3976 104.412C68.5936 104.412 68.1616 103.836 68.1616 102.852V99.24C68.1616 99.024 68.0296 98.856 67.7776 98.856C67.5256 98.856 67.3816 99.024 67.3816 99.24V102.852C67.3816 104.184 68.0176 105.084 69.2656 105.084C69.8296 105.084 70.4656 104.952 71.0416 104.616C71.1976 104.856 71.3536 105.012 71.5576 105.012C71.7496 105.012 71.9176 104.868 71.9176 104.676C71.9176 104.556 71.8096 104.424 71.7376 104.34C71.6656 104.256 71.6056 104.16 71.6056 103.56V99.24C71.6056 99.024 71.4736 98.856 71.2216 98.856C70.9576 98.856 70.8256 99.024 70.8256 99.24V103.56ZM75.1191 98.868C73.6071 98.868 73.1391 99.852 73.1391 101.28V102.852C73.1391 104.172 73.7751 105.084 75.0231 105.084C75.6111 105.084 76.2351 104.868 76.7991 104.58C76.9551 104.832 77.1711 105 77.4231 105C77.5911 105 77.7591 104.868 77.7591 104.664C77.7591 104.592 77.7351 104.544 77.7111 104.496C77.4231 104.28 77.3511 104.052 77.3511 103.68V96.588C77.3511 96.384 77.2191 96.204 76.9671 96.204C76.7151 96.204 76.5711 96.384 76.5711 96.588V99.132C76.0551 98.964 75.5151 98.868 75.1191 98.868ZM76.5711 103.68C76.5711 103.752 76.5711 103.824 76.6191 104.028C76.1631 104.256 75.6471 104.412 75.2151 104.412C74.3391 104.412 73.9191 103.872 73.9191 102.852V101.28C73.9191 100.056 74.2671 99.516 75.2391 99.516C75.5391 99.516 76.1031 99.624 76.5711 99.816V103.68ZM83.1044 99.372C83.1044 99.348 83.1164 99.312 83.1164 99.252C83.1164 99.012 82.9244 98.856 82.7324 98.856C82.5884 98.856 82.4444 98.976 82.3724 99.108C81.9404 100.644 81.3644 102.564 80.9324 104.088L79.3004 99.108C79.2404 98.964 79.0964 98.856 78.9524 98.856C78.7364 98.856 78.5564 99 78.5564 99.216C78.5564 99.252 78.5564 99.312 78.5924 99.348L80.5604 105.06C80.1644 106.236 79.8164 106.644 78.9644 106.68C78.7364 106.692 78.6044 106.872 78.6044 107.052C78.6044 107.268 78.7724 107.424 79.0124 107.424C80.4884 107.424 81.0404 106.032 81.5924 104.28L83.1044 99.372ZM93.0634 104.604C93.1354 104.856 93.3274 105.108 93.6394 105.108C93.9394 105.108 94.1314 104.868 94.2034 104.616L96.0274 96.924V96.912C96.0394 96.876 96.0394 96.816 96.0394 96.804C96.0394 96.564 95.7634 96.456 95.5474 96.456C95.4034 96.456 95.2834 96.576 95.2234 96.744L93.6274 103.692L92.1034 97.056C92.0194 96.672 91.8874 96.408 91.5634 96.408C91.2274 96.408 91.1074 96.66 91.0114 97.056L89.5114 103.68L87.9034 96.744C87.8434 96.576 87.6874 96.456 87.5434 96.456C87.3274 96.456 87.0754 96.576 87.0754 96.792V96.84L88.9114 104.616C88.9954 104.892 89.1874 105.108 89.4874 105.108C89.8234 105.108 89.9794 104.832 90.0514 104.616C90.4954 102.624 91.1194 99.96 91.5634 97.956L93.0634 104.604ZM98.1558 96.828C98.1558 96.54 97.9278 96.324 97.6638 96.324C97.3758 96.324 97.1598 96.54 97.1598 96.828C97.1598 97.092 97.3758 97.32 97.6638 97.32C97.9278 97.32 98.1558 97.092 98.1558 96.828ZM98.0478 104.7V99.252C98.0478 99.036 97.8678 98.856 97.6638 98.856C97.4358 98.856 97.2678 99.036 97.2678 99.252V104.7C97.2678 104.916 97.4358 105.084 97.6638 105.084C97.8678 105.084 98.0478 104.916 98.0478 104.7ZM101.697 98.868C100.185 98.868 99.7172 99.852 99.7172 101.28V102.852C99.7172 104.172 100.353 105.084 101.601 105.084C102.189 105.084 102.813 104.868 103.377 104.58C103.533 104.832 103.749 105 104.001 105C104.169 105 104.337 104.868 104.337 104.664C104.337 104.592 104.313 104.544 104.289 104.496C104.001 104.28 103.929 104.052 103.929 103.68V96.588C103.929 96.384 103.797 96.204 103.545 96.204C103.293 96.204 103.149 96.384 103.149 96.588V99.132C102.633 98.964 102.093 98.868 101.697 98.868ZM103.149 103.68C103.149 103.752 103.149 103.824 103.197 104.028C102.741 104.256 102.225 104.412 101.793 104.412C100.917 104.412 100.497 103.872 100.497 102.852V101.28C100.497 100.056 100.845 99.516 101.817 99.516C102.117 99.516 102.681 99.624 103.149 99.816V103.68ZM106.861 99.252C106.861 99.036 106.681 98.856 106.477 98.856C106.249 98.856 106.081 99.036 106.081 99.252V105.324C106.081 106.284 105.673 106.668 104.953 106.836C104.797 106.86 104.593 106.98 104.653 107.256C104.689 107.4 104.833 107.496 104.977 107.496C105.049 107.496 105.097 107.508 105.193 107.496C106.213 107.328 106.861 106.488 106.861 105.276V99.252ZM106.969 96.828C106.969 96.54 106.741 96.324 106.477 96.324C106.189 96.324 105.961 96.54 105.961 96.828C105.961 97.092 106.189 97.32 106.477 97.32C106.741 97.32 106.969 97.092 106.969 96.828ZM111.938 101.736C111.47 101.604 111.014 101.52 110.606 101.52C109.202 101.52 108.518 102.12 108.518 103.272V103.32C108.518 104.364 109.106 105.084 110.318 105.084C110.966 105.084 111.53 104.844 112.034 104.364C112.25 104.784 112.574 105.048 112.946 105.048C113.162 105.048 113.402 104.964 113.402 104.724C113.402 104.568 113.318 104.4 113.138 104.4C113.114 104.4 113.09 104.412 113.042 104.412C112.826 104.412 112.718 104.256 112.718 103.944V101.232C112.718 99.66 112.13 98.82 110.654 98.82C109.85 98.82 108.962 99.024 109.01 99.528C109.022 99.672 109.094 99.84 109.274 99.84C109.394 99.84 109.49 99.792 109.562 99.744C109.838 99.576 110.09 99.48 110.534 99.48C111.482 99.48 111.938 99.936 111.938 100.908V101.736ZM110.594 102.156C110.954 102.156 111.458 102.228 111.938 102.384V103.824C111.47 104.22 111.026 104.412 110.474 104.412C109.562 104.412 109.286 103.956 109.286 103.332V103.284C109.286 102.672 109.49 102.156 110.594 102.156ZM115.591 99.252C115.591 99.036 115.411 98.856 115.207 98.856C114.979 98.856 114.811 99.036 114.811 99.252V105.324C114.811 106.284 114.403 106.668 113.683 106.836C113.527 106.86 113.323 106.98 113.383 107.256C113.419 107.4 113.563 107.496 113.707 107.496C113.779 107.496 113.827 107.508 113.923 107.496C114.943 107.328 115.591 106.488 115.591 105.276V99.252ZM115.699 96.828C115.699 96.54 115.471 96.324 115.207 96.324C114.919 96.324 114.691 96.54 114.691 96.828C114.691 97.092 114.919 97.32 115.207 97.32C115.471 97.32 115.699 97.092 115.699 96.828ZM120.668 101.736C120.2 101.604 119.744 101.52 119.336 101.52C117.932 101.52 117.248 102.12 117.248 103.272V103.32C117.248 104.364 117.836 105.084 119.048 105.084C119.696 105.084 120.26 104.844 120.764 104.364C120.98 104.784 121.304 105.048 121.676 105.048C121.892 105.048 122.132 104.964 122.132 104.724C122.132 104.568 122.048 104.4 121.868 104.4C121.844 104.4 121.82 104.412 121.772 104.412C121.556 104.412 121.448 104.256 121.448 103.944V101.232C121.448 99.66 120.86 98.82 119.384 98.82C118.58 98.82 117.692 99.024 117.74 99.528C117.752 99.672 117.824 99.84 118.004 99.84C118.124 99.84 118.22 99.792 118.292 99.744C118.568 99.576 118.82 99.48 119.264 99.48C120.212 99.48 120.668 99.936 120.668 100.908V101.736ZM119.324 102.156C119.684 102.156 120.188 102.228 120.668 102.384V103.824C120.2 104.22 119.756 104.412 119.204 104.412C118.292 104.412 118.016 103.956 118.016 103.332V103.284C118.016 102.672 118.22 102.156 119.324 102.156ZM130.499 102.744C130.499 103.752 129.923 104.34 128.771 104.34C128.147 104.34 127.703 104.172 127.391 104.04C127.211 103.98 127.019 103.908 126.947 103.908C126.755 103.908 126.587 104.1 126.587 104.304C126.587 104.892 128.003 105.108 128.759 105.108C130.247 105.108 131.351 104.22 131.351 102.66C131.351 101.124 130.187 100.68 129.167 100.344C128.831 100.236 128.471 100.092 128.207 99.96C127.907 99.804 127.439 99.504 127.439 98.652C127.439 97.512 128.231 97.176 129.071 97.176C129.563 97.176 129.899 97.308 130.175 97.416C130.307 97.476 130.463 97.524 130.595 97.524C130.847 97.524 130.991 97.344 130.991 97.152C130.991 96.54 129.587 96.408 128.999 96.408C127.523 96.408 126.599 97.272 126.599 98.712C126.599 100.308 127.739 100.68 128.795 101.04C129.143 101.16 129.503 101.292 129.755 101.424C130.079 101.592 130.499 101.928 130.499 102.744ZM134.703 105.084C136.155 105.084 136.923 104.172 136.923 102.984V100.92C136.923 99.732 136.155 98.808 134.703 98.808C133.263 98.808 132.483 99.732 132.483 100.92V102.984C132.483 104.172 133.263 105.084 134.703 105.084ZM134.703 104.376C133.755 104.376 133.263 103.848 133.263 102.984V100.908C133.263 100.044 133.755 99.504 134.703 99.504C135.663 99.504 136.143 100.044 136.143 100.908V102.984C136.143 103.848 135.663 104.376 134.703 104.376ZM138.157 100.512C138.157 101.952 139.609 102.072 140.545 102.54C140.809 102.684 141.037 102.912 141.037 103.416C141.037 104.124 140.545 104.424 139.813 104.424C139.273 104.424 138.877 104.268 138.517 104.124C138.481 104.112 138.469 104.112 138.445 104.112C138.217 104.112 138.073 104.292 138.073 104.472C138.073 104.964 139.201 105.084 139.813 105.084C141.121 105.084 141.793 104.436 141.793 103.38C141.793 101.94 140.497 101.82 139.549 101.352C139.081 101.1 138.913 100.884 138.913 100.452C138.913 99.816 139.285 99.48 140.101 99.48C140.569 99.48 140.809 99.588 141.085 99.72C141.145 99.744 141.193 99.768 141.265 99.768C141.469 99.768 141.613 99.612 141.613 99.42C141.613 98.964 140.677 98.82 140.065 98.82C138.817 98.82 138.157 99.492 138.157 100.512ZM144.117 96.828C144.117 96.54 143.889 96.324 143.625 96.324C143.337 96.324 143.121 96.54 143.121 96.828C143.121 97.092 143.337 97.32 143.625 97.32C143.889 97.32 144.117 97.092 144.117 96.828ZM144.009 104.7V99.252C144.009 99.036 143.829 98.856 143.625 98.856C143.397 98.856 143.229 99.036 143.229 99.252V104.7C143.229 104.916 143.397 105.084 143.625 105.084C143.829 105.084 144.009 104.916 144.009 104.7ZM149.098 101.736C148.63 101.604 148.174 101.52 147.766 101.52C146.362 101.52 145.678 102.12 145.678 103.272V103.32C145.678 104.364 146.266 105.084 147.478 105.084C148.126 105.084 148.69 104.844 149.194 104.364C149.41 104.784 149.734 105.048 150.106 105.048C150.322 105.048 150.562 104.964 150.562 104.724C150.562 104.568 150.478 104.4 150.298 104.4C150.274 104.4 150.25 104.412 150.202 104.412C149.986 104.412 149.878 104.256 149.878 103.944V101.232C149.878 99.66 149.29 98.82 147.814 98.82C147.01 98.82 146.122 99.024 146.17 99.528C146.182 99.672 146.254 99.84 146.434 99.84C146.554 99.84 146.65 99.792 146.722 99.744C146.998 99.576 147.25 99.48 147.694 99.48C148.642 99.48 149.098 99.936 149.098 100.908V101.736ZM147.754 102.156C148.114 102.156 148.618 102.228 149.098 102.384V103.824C148.63 104.22 148.186 104.412 147.634 104.412C146.722 104.412 146.446 103.956 146.446 103.332V103.284C146.446 102.672 146.65 102.156 147.754 102.156ZM158.929 102.744C158.929 103.752 158.353 104.34 157.201 104.34C156.577 104.34 156.133 104.172 155.821 104.04C155.641 103.98 155.449 103.908 155.377 103.908C155.185 103.908 155.017 104.1 155.017 104.304C155.017 104.892 156.433 105.108 157.189 105.108C158.677 105.108 159.781 104.22 159.781 102.66C159.781 101.124 158.617 100.68 157.597 100.344C157.261 100.236 156.901 100.092 156.637 99.96C156.337 99.804 155.869 99.504 155.869 98.652C155.869 97.512 156.661 97.176 157.501 97.176C157.993 97.176 158.329 97.308 158.605 97.416C158.737 97.476 158.893 97.524 159.025 97.524C159.277 97.524 159.421 97.344 159.421 97.152C159.421 96.54 158.017 96.408 157.429 96.408C155.953 96.408 155.029 97.272 155.029 98.712C155.029 100.308 156.169 100.68 157.225 101.04C157.573 101.16 157.933 101.292 158.185 101.424C158.509 101.592 158.929 101.928 158.929 102.744ZM164.321 101.736C163.853 101.604 163.397 101.52 162.989 101.52C161.585 101.52 160.901 102.12 160.901 103.272V103.32C160.901 104.364 161.489 105.084 162.701 105.084C163.349 105.084 163.913 104.844 164.417 104.364C164.633 104.784 164.957 105.048 165.329 105.048C165.545 105.048 165.785 104.964 165.785 104.724C165.785 104.568 165.701 104.4 165.521 104.4C165.497 104.4 165.473 104.412 165.425 104.412C165.209 104.412 165.101 104.256 165.101 103.944V101.232C165.101 99.66 164.513 98.82 163.037 98.82C162.233 98.82 161.345 99.024 161.393 99.528C161.405 99.672 161.477 99.84 161.657 99.84C161.777 99.84 161.873 99.792 161.945 99.744C162.221 99.576 162.473 99.48 162.917 99.48C163.865 99.48 164.321 99.936 164.321 100.908V101.736ZM162.977 102.156C163.337 102.156 163.841 102.228 164.321 102.384V103.824C163.853 104.22 163.409 104.412 162.857 104.412C161.945 104.412 161.669 103.956 161.669 103.332V103.284C161.669 102.672 161.873 102.156 162.977 102.156ZM169.33 105.072C170.83 105.072 171.298 104.088 171.298 102.672V101.064C171.298 99.732 170.674 98.82 169.438 98.82C168.826 98.82 168.202 99.072 167.602 99.396C167.47 99.204 167.302 99.06 167.146 99.06C166.966 99.06 166.798 99.204 166.798 99.408C166.798 99.48 166.822 99.552 166.87 99.612C167.038 99.852 167.086 100.104 167.086 100.524V107.208C167.086 107.412 167.218 107.58 167.482 107.58C167.722 107.58 167.866 107.412 167.866 107.208V104.82C168.358 104.976 168.898 105.072 169.33 105.072ZM167.866 100.524C167.866 100.332 167.842 100.152 167.806 99.972C168.274 99.684 168.802 99.492 169.234 99.492C170.11 99.492 170.518 100.044 170.518 101.064V102.672C170.518 103.884 170.17 104.424 169.21 104.424C168.874 104.424 168.298 104.328 167.866 104.136V100.524ZM176.212 103.56C176.212 103.716 176.224 103.836 176.236 103.956C175.792 104.244 175.288 104.412 174.784 104.412C173.98 104.412 173.548 103.836 173.548 102.852V99.24C173.548 99.024 173.416 98.856 173.164 98.856C172.912 98.856 172.768 99.024 172.768 99.24V102.852C172.768 104.184 173.404 105.084 174.652 105.084C175.216 105.084 175.852 104.952 176.428 104.616C176.584 104.856 176.74 105.012 176.944 105.012C177.136 105.012 177.304 104.868 177.304 104.676C177.304 104.556 177.196 104.424 177.124 104.34C177.052 104.256 176.992 104.16 176.992 103.56V99.24C176.992 99.024 176.86 98.856 176.608 98.856C176.344 98.856 176.212 99.024 176.212 99.24V103.56ZM178.898 102.576C178.898 104.22 179.306 105.036 180.962 105.036C181.25 105.036 181.562 105 181.562 104.664C181.562 104.34 181.25 104.304 181.022 104.304C180.938 104.304 180.866 104.316 180.782 104.316C179.81 104.316 179.666 103.824 179.666 102.492V99.924H181.058C181.25 99.924 181.406 99.768 181.406 99.576C181.406 99.36 181.25 99.204 181.058 99.204H179.666V97.404C179.666 97.2 179.534 97.02 179.282 97.02C179.03 97.02 178.898 97.2 178.898 97.404V102.576ZM183.593 100.524C183.593 100.164 183.581 100.152 183.581 100.152V100.14C184.241 99.648 184.697 99.648 185.237 99.66C185.441 99.672 185.621 99.492 185.621 99.252C185.621 99.036 185.489 98.868 185.069 98.868C184.625 98.868 183.917 99.072 183.353 99.432C183.221 99.216 183.041 99.06 182.885 99.06C182.693 99.06 182.525 99.204 182.525 99.408C182.525 99.48 182.549 99.552 182.597 99.612C182.765 99.852 182.813 100.104 182.813 100.524V104.7C182.813 104.916 182.981 105.084 183.209 105.084C183.413 105.084 183.593 104.916 183.593 104.7V100.524ZM189.786 101.736C189.318 101.604 188.862 101.52 188.454 101.52C187.05 101.52 186.366 102.12 186.366 103.272V103.32C186.366 104.364 186.954 105.084 188.166 105.084C188.814 105.084 189.378 104.844 189.882 104.364C190.098 104.784 190.422 105.048 190.794 105.048C191.01 105.048 191.25 104.964 191.25 104.724C191.25 104.568 191.166 104.4 190.986 104.4C190.962 104.4 190.938 104.412 190.89 104.412C190.674 104.412 190.566 104.256 190.566 103.944V101.232C190.566 99.66 189.978 98.82 188.502 98.82C187.698 98.82 186.81 99.024 186.858 99.528C186.87 99.672 186.942 99.84 187.122 99.84C187.242 99.84 187.338 99.792 187.41 99.744C187.686 99.576 187.938 99.48 188.382 99.48C189.33 99.48 189.786 99.936 189.786 100.908V101.736ZM188.442 102.156C188.802 102.156 189.306 102.228 189.786 102.384V103.824C189.318 104.22 188.874 104.412 188.322 104.412C187.41 104.412 187.134 103.956 187.134 103.332V103.284C187.134 102.672 187.338 102.156 188.442 102.156ZM202.304 104.712C202.304 104.616 202.28 104.544 202.22 104.484L201.224 103.296C201.668 102.684 202.232 101.748 202.232 101.256C202.232 101.052 202.064 100.884 201.872 100.884C201.728 100.884 201.644 100.896 201.536 101.136C201.32 101.592 201.092 102.084 200.708 102.684L198.368 99.972C197.816 99.324 197.372 98.784 197.372 98.28C197.372 97.56 197.984 97.116 198.644 97.116C199.22 97.116 199.652 97.572 199.772 98.016C199.82 98.172 199.952 98.304 200.12 98.304C200.312 98.304 200.492 98.148 200.492 97.932C200.492 97.188 199.664 96.432 198.608 96.432C197.564 96.432 196.604 97.116 196.604 98.256C196.604 98.928 197.036 99.588 197.672 100.284C196.736 100.836 195.776 101.604 195.776 102.876C195.776 104.136 196.76 105.108 198.224 105.108C199.316 105.108 200.096 104.532 200.732 103.884L201.584 104.892C201.692 105.024 201.776 105.108 201.944 105.108C202.148 105.108 202.304 104.928 202.304 104.712ZM200.252 103.296C199.676 103.932 199.016 104.412 198.152 104.412C197.168 104.412 196.532 103.656 196.532 102.78C196.532 101.844 197.336 101.268 198.116 100.848L200.252 103.296ZM212.581 98.892C212.581 97.716 211.957 96.528 210.001 96.528H207.865C207.613 96.528 207.385 96.756 207.385 97.032V104.688C207.385 104.928 207.577 105.108 207.781 105.108C208.009 105.108 208.189 104.916 208.189 104.688V101.184H209.749L211.945 104.916C212.017 105.024 212.137 105.096 212.269 105.096C212.425 105.096 212.701 104.94 212.701 104.736C212.701 104.64 212.677 104.544 212.653 104.484L212.665 104.496L210.637 101.16C211.825 100.92 212.581 100.14 212.581 98.892ZM211.777 98.892C211.777 99.9 211.165 100.428 210.025 100.428H208.189V97.296H209.953C211.453 97.296 211.777 98.124 211.777 98.892ZM217.161 101.736C216.693 101.604 216.237 101.52 215.829 101.52C214.425 101.52 213.741 102.12 213.741 103.272V103.32C213.741 104.364 214.329 105.084 215.541 105.084C216.189 105.084 216.753 104.844 217.257 104.364C217.473 104.784 217.797 105.048 218.169 105.048C218.385 105.048 218.625 104.964 218.625 104.724C218.625 104.568 218.541 104.4 218.361 104.4C218.337 104.4 218.313 104.412 218.265 104.412C218.049 104.412 217.941 104.256 217.941 103.944V101.232C217.941 99.66 217.353 98.82 215.877 98.82C215.073 98.82 214.185 99.024 214.233 99.528C214.245 99.672 214.317 99.84 214.497 99.84C214.617 99.84 214.713 99.792 214.785 99.744C215.061 99.576 215.313 99.48 215.757 99.48C216.705 99.48 217.161 99.936 217.161 100.908V101.736ZM215.817 102.156C216.177 102.156 216.681 102.228 217.161 102.384V103.824C216.693 104.22 216.249 104.412 215.697 104.412C214.785 104.412 214.509 103.956 214.509 103.332V103.284C214.509 102.672 214.713 102.156 215.817 102.156ZM220.646 104.7V100.32C221.054 99.78 221.666 99.528 222.182 99.528C223.01 99.528 223.346 99.984 223.346 100.8V104.7C223.346 104.916 223.526 105.084 223.742 105.084C223.958 105.084 224.126 104.916 224.126 104.7V100.788C224.126 99.636 223.562 98.82 222.302 98.82C221.738 98.82 221.162 99.048 220.646 99.444V96.528C220.646 96.3 220.478 96.132 220.262 96.132C220.046 96.132 219.89 96.336 219.89 96.528V104.7C219.89 104.916 220.058 105.084 220.286 105.084C220.49 105.084 220.646 104.916 220.646 104.7ZM226.512 99.408C226.38 99.144 226.2 99.036 226.044 99.036C225.864 99.036 225.696 99.18 225.696 99.384C225.696 99.456 225.72 99.528 225.768 99.588C225.936 99.828 225.984 100.08 225.984 100.5V104.7C225.984 104.916 226.116 105.072 226.38 105.072C226.632 105.072 226.764 104.916 226.764 104.7V100.5C226.764 100.344 226.752 100.212 226.728 100.068C227.112 99.78 227.7 99.516 228.252 99.516C229.212 99.516 229.368 100.176 229.368 101.112V104.7C229.368 104.916 229.5 105.072 229.764 105.072C230.028 105.072 230.148 104.916 230.148 104.7V100.836C230.148 100.608 230.124 100.416 230.088 100.236C230.412 99.828 230.976 99.516 231.54 99.516C232.368 99.516 232.752 100.116 232.752 100.86V104.7C232.752 104.916 232.896 105.072 233.148 105.072C233.412 105.072 233.532 104.916 233.532 104.7V100.836C233.532 99.636 232.848 98.82 231.576 98.82C230.916 98.82 230.316 99.072 229.764 99.492C229.428 99.06 228.984 98.82 228.348 98.82C227.712 98.82 227.088 99.036 226.512 99.408ZM236.332 96.828C236.332 96.54 236.104 96.324 235.84 96.324C235.552 96.324 235.336 96.54 235.336 96.828C235.336 97.092 235.552 97.32 235.84 97.32C236.104 97.32 236.332 97.092 236.332 96.828ZM236.224 104.7V99.252C236.224 99.036 236.044 98.856 235.84 98.856C235.612 98.856 235.444 99.036 235.444 99.252V104.7C235.444 104.916 235.612 105.084 235.84 105.084C236.044 105.084 236.224 104.916 236.224 104.7ZM246.963 104.7V96.804C246.963 96.6 246.771 96.408 246.567 96.408C246.363 96.408 246.159 96.6 246.159 96.804V100.368H242.631V96.804C242.631 96.6 242.463 96.408 242.235 96.408C242.019 96.408 241.839 96.6 241.839 96.804V104.7C241.839 104.928 242.019 105.108 242.235 105.108C242.463 105.108 242.631 104.928 242.631 104.7V101.136H246.159V104.7C246.159 104.928 246.363 105.108 246.567 105.108C246.783 105.108 246.963 104.928 246.963 104.7ZM252.244 103.56C252.244 103.716 252.256 103.836 252.268 103.956C251.824 104.244 251.32 104.412 250.816 104.412C250.012 104.412 249.58 103.836 249.58 102.852V99.24C249.58 99.024 249.448 98.856 249.196 98.856C248.944 98.856 248.8 99.024 248.8 99.24V102.852C248.8 104.184 249.436 105.084 250.684 105.084C251.248 105.084 251.884 104.952 252.46 104.616C252.616 104.856 252.772 105.012 252.976 105.012C253.168 105.012 253.336 104.868 253.336 104.676C253.336 104.556 253.228 104.424 253.156 104.34C253.084 104.256 253.024 104.16 253.024 103.56V99.24C253.024 99.024 252.892 98.856 252.64 98.856C252.376 98.856 252.244 99.024 252.244 99.24V103.56ZM254.665 100.512C254.665 101.952 256.117 102.072 257.053 102.54C257.317 102.684 257.545 102.912 257.545 103.416C257.545 104.124 257.053 104.424 256.321 104.424C255.781 104.424 255.385 104.268 255.025 104.124C254.989 104.112 254.977 104.112 254.953 104.112C254.725 104.112 254.581 104.292 254.581 104.472C254.581 104.964 255.709 105.084 256.321 105.084C257.629 105.084 258.301 104.436 258.301 103.38C258.301 101.94 257.005 101.82 256.057 101.352C255.589 101.1 255.421 100.884 255.421 100.452C255.421 99.816 255.793 99.48 256.609 99.48C257.077 99.48 257.317 99.588 257.593 99.72C257.653 99.744 257.701 99.768 257.773 99.768C257.977 99.768 258.121 99.612 258.121 99.42C258.121 98.964 257.185 98.82 256.573 98.82C255.325 98.82 254.665 99.492 254.665 100.512ZM260.38 99.432C260.248 99.168 260.044 99.036 259.888 99.036C259.708 99.036 259.54 99.18 259.54 99.384C259.54 99.456 259.564 99.528 259.612 99.588C259.78 99.828 259.828 100.08 259.828 100.5V104.7C259.828 104.916 259.96 105.072 260.224 105.072C260.476 105.072 260.608 104.916 260.608 104.7V100.5C260.608 100.368 260.596 100.224 260.572 100.092C261.028 99.744 261.532 99.516 262.036 99.516C262.84 99.516 263.26 100.092 263.26 101.088V104.7C263.26 104.916 263.404 105.072 263.656 105.072C263.908 105.072 264.04 104.916 264.04 104.7V101.088C264.04 99.744 263.428 98.844 262.18 98.844C261.592 98.844 260.968 99.024 260.38 99.432ZM266.918 96.828C266.918 96.54 266.69 96.324 266.426 96.324C266.138 96.324 265.922 96.54 265.922 96.828C265.922 97.092 266.138 97.32 266.426 97.32C266.69 97.32 266.918 97.092 266.918 96.828ZM266.81 104.7V99.252C266.81 99.036 266.63 98.856 266.426 98.856C266.198 98.856 266.03 99.036 266.03 99.252V104.7C266.03 104.916 266.198 105.084 266.426 105.084C266.63 105.084 266.81 104.916 266.81 104.7Z" fill="#4E2E1F"/>
<path d="M19.1763 82.82H24.2363L25.0963 85.6C25.1963 85.96 25.5763 86.2 25.8763 86.2C26.3563 86.2 26.7163 85.88 26.7163 85.4C26.7163 85.32 26.6963 85.16 26.6763 85.1L22.7763 72.76C22.5763 72.14 22.3163 71.7 21.7163 71.7C21.1363 71.7 20.8563 72.16 20.6763 72.76L16.7763 85.1C16.7563 85.16 16.7363 85.32 16.7363 85.4C16.7363 85.88 17.1163 86.2 17.5763 86.2C17.8563 86.2 18.2163 85.96 18.3363 85.6L19.1763 82.82ZM21.7163 74.48L23.7763 81.26H19.6563L21.7163 74.48ZM28.3413 81.94C28.3413 84.7 29.0213 86.08 31.8213 86.08C32.3813 86.08 32.9613 86 32.9613 85.32C32.9613 84.68 32.3813 84.6 31.9213 84.6C31.8013 84.6 31.6613 84.62 31.5413 84.62C30.1013 84.62 29.9013 83.86 29.9013 81.8V77.82H31.9813C32.3813 77.82 32.7013 77.5 32.7013 77.08C32.7013 76.66 32.3813 76.34 31.9813 76.34H29.9013V73.58C29.9013 73.16 29.6213 72.82 29.1213 72.82C28.6213 72.82 28.3413 73.16 28.3413 73.58V81.94ZM34.6304 81.94C34.6304 84.7 35.3104 86.08 38.1104 86.08C38.6704 86.08 39.2504 86 39.2504 85.32C39.2504 84.68 38.6704 84.6 38.2104 84.6C38.0904 84.6 37.9504 84.62 37.8304 84.62C36.3904 84.62 36.1904 83.86 36.1904 81.8V77.82H38.2704C38.6704 77.82 38.9904 77.5 38.9904 77.08C38.9904 76.66 38.6704 76.34 38.2704 76.34H36.1904V73.58C36.1904 73.16 35.9104 72.82 35.4104 72.82C34.9104 72.82 34.6304 73.16 34.6304 73.58V81.94ZM42.5962 85.38V78.32C43.1762 77.54 44.0962 77.18 44.9162 77.18C46.1562 77.18 46.6562 77.84 46.6562 79.06V85.38C46.6562 85.82 46.9962 86.16 47.4362 86.16C47.8562 86.16 48.2162 85.82 48.2162 85.38V79.04C48.2162 77.1 47.2362 75.72 45.0962 75.72C44.1362 75.72 43.2762 76.04 42.5962 76.56V72.16C42.5962 71.72 42.2562 71.38 41.8162 71.38C41.3762 71.38 41.0562 71.76 41.0562 72.16V85.38C41.0562 85.82 41.3962 86.16 41.8362 86.16C42.2762 86.16 42.5962 85.82 42.5962 85.38ZM56.7529 83.54C56.7529 83.7 56.7729 83.9 56.7929 84.1C56.1329 84.52 55.3729 84.76 54.5929 84.76C53.3929 84.76 52.7529 83.9 52.7529 82.38V76.54C52.7529 76.12 52.4729 75.78 51.9729 75.78C51.4729 75.78 51.1929 76.12 51.1929 76.54V82.38C51.1929 84.64 52.2529 86.16 54.3729 86.16C55.3129 86.16 56.3329 85.94 57.2129 85.44C57.4329 85.8 57.6929 86.04 58.0729 86.04C58.4929 86.04 58.8129 85.72 58.8129 85.34C58.8129 85.16 58.7129 85.02 58.6729 84.94C58.5129 84.64 58.3129 84.64 58.3129 83.54V76.54C58.3129 76.12 58.0529 75.78 57.5329 75.78C57.0129 75.78 56.7529 76.12 56.7529 76.54V83.54ZM62.9887 78.62C62.9887 78.46 62.9687 78.28 62.9487 78.08C63.9487 77.34 64.6687 77.34 65.4887 77.36C65.9087 77.38 66.2687 77.06 66.2687 76.56C66.2687 76.14 66.0287 75.8 65.2287 75.8C64.4687 75.8 63.3487 76.12 62.4887 76.66C62.2887 76.34 62.0087 76.12 61.6887 76.12C61.3087 76.12 60.9687 76.4 60.9687 76.82C60.9687 77 61.0287 77.1 61.1087 77.22C61.3487 77.58 61.4287 77.96 61.4287 78.62V85.38C61.4287 85.82 61.7687 86.16 62.2087 86.16C62.6487 86.16 62.9887 85.82 62.9887 85.38V78.62ZM82.743 85.38V72.5C82.743 72.08 82.363 71.7 81.943 71.7C81.523 71.7 81.143 72.08 81.143 72.5V78.16H75.683V72.5C75.683 72.08 75.323 71.7 74.883 71.7C74.443 71.7 74.083 72.08 74.083 72.5V85.38C74.083 85.82 74.443 86.2 74.883 86.2C75.323 86.2 75.683 85.82 75.683 85.38V79.72H81.143V85.38C81.143 85.82 81.523 86.2 81.943 86.2C82.383 86.2 82.743 85.82 82.743 85.38ZM90.3521 80.38C89.7321 80.2 89.0521 80.1 88.3321 80.1C85.9721 80.1 84.8121 81.1 84.8121 83.06V83.14C84.8121 84.94 85.8121 86.16 87.8721 86.16C88.9521 86.16 89.8521 85.8 90.6121 85.1C90.9121 85.72 91.4521 86.1 92.1121 86.1C92.5521 86.1 93.0121 85.92 93.0121 85.42C93.0121 85.08 92.8121 84.74 92.4321 84.74C92.3521 84.74 92.3321 84.76 92.2721 84.76C92.0321 84.76 91.9121 84.56 91.9121 84.16V79.76C91.9121 77.12 90.9121 75.72 88.4121 75.72C87.0321 75.72 85.5321 76.1 85.6121 77.02C85.6321 77.32 85.7921 77.68 86.1721 77.68C86.3921 77.68 86.6321 77.54 86.6921 77.52C87.1321 77.28 87.5121 77.1 88.2121 77.1C89.6521 77.1 90.3521 77.78 90.3521 79.24V80.38ZM88.3121 81.42C88.9121 81.42 89.6921 81.52 90.3521 81.72V83.88C89.6521 84.48 88.9721 84.76 88.1121 84.76C86.7721 84.76 86.3521 84.1 86.3521 83.16V83.08C86.3521 82.18 86.6721 81.42 88.3121 81.42ZM96.6605 78.62C96.6605 78.46 96.6405 78.28 96.6205 78.08C97.6205 77.34 98.3405 77.34 99.1605 77.36C99.5805 77.38 99.9405 77.06 99.9405 76.56C99.9405 76.14 99.7005 75.8 98.9005 75.8C98.1405 75.8 97.0205 76.12 96.1605 76.66C95.9605 76.34 95.6805 76.12 95.3605 76.12C94.9805 76.12 94.6405 76.4 94.6405 76.82C94.6405 77 94.7005 77.1 94.7805 77.22C95.0205 77.58 95.1005 77.96 95.1005 78.62V85.38C95.1005 85.82 95.4405 86.16 95.8805 86.16C96.3205 86.16 96.6605 85.82 96.6605 85.38V78.62ZM108.844 76.8C108.864 76.72 108.884 76.64 108.884 76.56C108.884 76.1 108.504 75.78 108.104 75.78C107.804 75.78 107.504 75.96 107.384 76.3L105.204 83.88L102.704 76.3C102.584 75.96 102.304 75.78 102.004 75.78C101.564 75.78 101.224 76.08 101.224 76.5C101.224 76.58 101.224 76.72 101.264 76.78L104.444 85.96C103.844 87.82 103.284 88.5 102.024 88.56C101.564 88.58 101.284 88.94 101.284 89.3C101.284 89.74 101.624 90.06 102.084 90.06C104.684 90 105.444 87.86 106.404 84.74L108.844 76.8ZM113.845 86.16C116.285 86.16 117.585 84.6 117.585 82.6V79.26C117.585 77.26 116.285 75.7 113.845 75.7C111.405 75.7 110.105 77.26 110.105 79.26V82.6C110.105 84.6 111.405 86.16 113.845 86.16ZM113.845 84.72C112.405 84.72 111.665 83.92 111.665 82.6V79.24C111.665 77.94 112.405 77.14 113.845 77.14C115.285 77.14 116.025 77.94 116.025 79.24V82.6C116.025 83.92 115.285 84.72 113.845 84.72ZM133.239 85.22C133.239 84.8 132.879 84.46 132.479 84.46H127.539V72.5C127.539 72.08 127.179 71.7 126.739 71.7C126.299 71.7 125.939 72.08 125.939 72.5V85.1C125.939 85.6 126.359 86 126.839 86H132.479C132.899 86 133.239 85.66 133.239 85.22ZM140.02 80.38C139.4 80.2 138.72 80.1 138 80.1C135.64 80.1 134.48 81.1 134.48 83.06V83.14C134.48 84.94 135.48 86.16 137.54 86.16C138.62 86.16 139.52 85.8 140.28 85.1C140.58 85.72 141.12 86.1 141.78 86.1C142.22 86.1 142.68 85.92 142.68 85.42C142.68 85.08 142.48 84.74 142.1 84.74C142.02 84.74 142 84.76 141.94 84.76C141.7 84.76 141.58 84.56 141.58 84.16V79.76C141.58 77.12 140.58 75.72 138.08 75.72C136.7 75.72 135.2 76.1 135.28 77.02C135.3 77.32 135.46 77.68 135.84 77.68C136.06 77.68 136.3 77.54 136.36 77.52C136.8 77.28 137.18 77.1 137.88 77.1C139.32 77.1 140.02 77.78 140.02 79.24V80.38ZM137.98 81.42C138.58 81.42 139.36 81.52 140.02 81.72V83.88C139.32 84.48 138.64 84.76 137.78 84.76C136.44 84.76 136.02 84.1 136.02 83.16V83.08C136.02 82.18 136.34 81.42 137.98 81.42ZM147.653 75.72C145.253 75.72 144.073 77.3 144.073 79.38C144.073 80.56 144.453 81.54 145.153 82.2C144.553 82.74 144.393 83.36 144.393 83.84C144.393 84.3 144.533 84.92 144.993 85.38C144.313 86.04 143.933 86.8 143.933 87.78C143.933 89.72 145.513 90.86 147.773 90.86C150.133 90.86 151.873 89.62 151.873 87.6C151.873 85.6 150.153 84.66 147.873 84.66H147.033C146.593 84.66 145.953 84.48 145.953 83.78C145.953 83.54 146.013 83.2 146.193 82.86C146.653 83.04 147.173 83.12 147.773 83.12C150.173 83.12 151.393 81.56 151.393 79.52V78.28C151.393 77.3 151.713 77.08 152.473 76.34C152.533 76.28 152.613 76.14 152.613 75.94C152.613 75.54 152.293 75.24 151.873 75.24C151.433 75.24 150.713 75.58 150.273 76.4C149.513 75.96 148.573 75.72 147.653 75.72ZM149.833 78.3V79.56C149.833 80.88 149.193 81.68 147.773 81.68C146.273 81.68 145.633 80.78 145.633 79.42C145.633 77.94 146.373 77.12 147.853 77.12C148.593 77.12 149.253 77.34 149.873 77.72C149.853 77.9 149.833 78.1 149.833 78.3ZM147.073 86.1H147.913C149.513 86.1 150.313 86.58 150.313 87.64C150.313 88.84 149.253 89.42 147.813 89.42C146.273 89.42 145.493 88.76 145.493 87.56C145.493 86.92 145.693 86.42 146.173 86C146.433 86.06 146.733 86.1 147.073 86.1ZM155.996 78.62C155.996 78.46 155.976 78.28 155.956 78.08C156.956 77.34 157.676 77.34 158.496 77.36C158.916 77.38 159.276 77.06 159.276 76.56C159.276 76.14 159.036 75.8 158.236 75.8C157.476 75.8 156.356 76.12 155.496 76.66C155.296 76.34 155.016 76.12 154.696 76.12C154.316 76.12 153.976 76.4 153.976 76.82C153.976 77 154.036 77.1 154.116 77.22C154.356 77.58 154.436 77.96 154.436 78.62V85.38C154.436 85.82 154.776 86.16 155.216 86.16C155.656 86.16 155.996 85.82 155.996 85.38V78.62ZM165.938 80.38C165.318 80.2 164.638 80.1 163.918 80.1C161.558 80.1 160.398 81.1 160.398 83.06V83.14C160.398 84.94 161.398 86.16 163.458 86.16C164.538 86.16 165.438 85.8 166.198 85.1C166.498 85.72 167.038 86.1 167.698 86.1C168.138 86.1 168.598 85.92 168.598 85.42C168.598 85.08 168.398 84.74 168.018 84.74C167.938 84.74 167.918 84.76 167.858 84.76C167.618 84.76 167.498 84.56 167.498 84.16V79.76C167.498 77.12 166.498 75.72 163.998 75.72C162.618 75.72 161.118 76.1 161.198 77.02C161.218 77.32 161.378 77.68 161.758 77.68C161.978 77.68 162.218 77.54 162.278 77.52C162.718 77.28 163.098 77.1 163.798 77.1C165.238 77.1 165.938 77.78 165.938 79.24V80.38ZM163.898 81.42C164.498 81.42 165.278 81.52 165.938 81.72V83.88C165.238 84.48 164.558 84.76 163.698 84.76C162.358 84.76 161.938 84.1 161.938 83.16V83.08C161.938 82.18 162.258 81.42 163.898 81.42ZM172.246 78.58C172.246 78.42 172.226 78.22 172.186 78C172.866 77.48 173.626 77.16 174.406 77.16C175.606 77.16 176.246 78.02 176.246 79.54V85.38C176.246 85.8 176.526 86.14 177.026 86.14C177.526 86.14 177.806 85.8 177.806 85.38V79.54C177.806 77.28 176.746 75.76 174.626 75.76C173.666 75.76 172.646 76.04 171.766 76.66C171.546 76.32 171.286 76.08 170.926 76.08C170.506 76.08 170.186 76.38 170.186 76.78C170.186 76.98 170.286 77.1 170.326 77.18C170.506 77.48 170.686 77.48 170.686 78.58V85.38C170.686 85.8 170.946 86.14 171.466 86.14C171.986 86.14 172.246 85.8 172.246 85.38V78.58ZM183.513 75.72C181.113 75.72 179.933 77.3 179.933 79.38C179.933 80.56 180.313 81.54 181.013 82.2C180.413 82.74 180.253 83.36 180.253 83.84C180.253 84.3 180.393 84.92 180.853 85.38C180.173 86.04 179.793 86.8 179.793 87.78C179.793 89.72 181.373 90.86 183.633 90.86C185.993 90.86 187.733 89.62 187.733 87.6C187.733 85.6 186.013 84.66 183.733 84.66H182.893C182.453 84.66 181.813 84.48 181.813 83.78C181.813 83.54 181.873 83.2 182.053 82.86C182.513 83.04 183.033 83.12 183.633 83.12C186.033 83.12 187.253 81.56 187.253 79.52V78.28C187.253 77.3 187.573 77.08 188.333 76.34C188.393 76.28 188.473 76.14 188.473 75.94C188.473 75.54 188.153 75.24 187.733 75.24C187.293 75.24 186.573 75.58 186.133 76.4C185.373 75.96 184.433 75.72 183.513 75.72ZM185.693 78.3V79.56C185.693 80.88 185.053 81.68 183.633 81.68C182.133 81.68 181.493 80.78 181.493 79.42C181.493 77.94 182.233 77.12 183.713 77.12C184.453 77.12 185.113 77.34 185.733 77.72C185.713 77.9 185.693 78.1 185.693 78.3ZM182.933 86.1H183.773C185.373 86.1 186.173 86.58 186.173 87.64C186.173 88.84 185.113 89.42 183.673 89.42C182.133 89.42 181.353 88.76 181.353 87.56C181.353 86.92 181.553 86.42 182.033 86C182.293 86.06 182.593 86.1 182.933 86.1ZM193.181 84.78C191.741 84.78 191.001 84.06 191.001 82.94V81.76C191.701 81.88 192.441 81.94 193.041 81.94C195.421 81.94 196.421 80.82 196.421 78.98C196.421 77 195.321 75.72 193.101 75.72C190.721 75.72 189.441 77.18 189.441 79.1V82.84C189.441 84.72 190.741 86.16 193.001 86.16C194.081 86.16 196.241 85.84 196.241 84.86C196.241 84.5 195.941 84.16 195.541 84.16C195.401 84.16 195.301 84.2 195.261 84.22C194.561 84.54 194.021 84.78 193.181 84.78ZM194.881 78.98C194.881 79.8 194.621 80.62 193.101 80.62C192.701 80.62 191.741 80.58 191.001 80.48V78.96C191.001 77.84 191.761 77.14 193.061 77.14C194.221 77.14 194.881 77.68 194.881 78.98ZM200.378 85.1C200.378 84.52 199.898 84.04 199.318 84.04C198.718 84.04 198.238 84.52 198.238 85.1C198.238 85.68 198.658 86.14 199.218 86.2C198.978 87.04 198.478 87.4 198.478 88.04C198.478 88.3 198.658 88.38 198.858 88.38C199.398 88.38 200.378 86.44 200.378 85.1ZM214.823 82.18C214.823 83.74 213.923 84.64 212.143 84.64C210.583 84.64 209.723 83.94 209.163 83.94C208.763 83.94 208.443 84.32 208.443 84.72C208.443 85.8 210.843 86.2 212.123 86.2C214.643 86.2 216.503 84.68 216.503 82.04C216.503 78.54 213.203 78.5 211.283 77.5C210.823 77.26 210.123 76.82 210.123 75.5C210.123 73.76 211.343 73.26 212.623 73.26C213.983 73.26 214.503 73.82 215.123 73.82C215.623 73.82 215.923 73.46 215.923 73.06C215.923 71.94 213.503 71.7 212.503 71.7C210.023 71.7 208.463 73.18 208.463 75.6C208.463 79.14 211.783 79.16 213.683 80.16C214.183 80.42 214.823 80.88 214.823 82.18ZM220.71 85.1C220.71 84.52 220.23 84.04 219.65 84.04C219.05 84.04 218.57 84.52 218.57 85.1C218.57 85.7 219.05 86.2 219.65 86.2C220.23 86.2 220.71 85.7 220.71 85.1ZM230.359 85.82C230.539 86.08 230.739 86.2 231.039 86.2C231.619 86.2 231.779 85.72 231.779 85.34C231.779 85.2 231.759 85.1 231.679 84.96L227.019 78.28L231.319 73C231.419 72.86 231.479 72.72 231.499 72.5C231.539 71.94 231.099 71.7 230.799 71.7C230.519 71.7 230.219 71.88 230.079 72.08L225.019 78.32V72.5C225.019 72.08 224.659 71.7 224.219 71.7C223.779 71.7 223.419 72.08 223.419 72.5V85.38C223.419 85.82 223.779 86.2 224.219 86.2C224.659 86.2 225.019 85.82 225.019 85.38V80.74L226.019 79.52L230.359 85.82ZM236.56 86.16C239 86.16 240.3 84.6 240.3 82.6V79.26C240.3 77.26 239 75.7 236.56 75.7C234.12 75.7 232.82 77.26 232.82 79.26V82.6C232.82 84.6 234.12 86.16 236.56 86.16ZM236.56 84.72C235.12 84.72 234.38 83.92 234.38 82.6V79.24C234.38 77.94 235.12 77.14 236.56 77.14C238 77.14 238.74 77.94 238.74 79.24V82.6C238.74 83.92 238 84.72 236.56 84.72ZM253.697 85.38C253.697 85.8 253.957 86.14 254.477 86.14C254.997 86.14 255.257 85.8 255.257 85.38V79.12C255.257 77.1 254.077 75.72 251.917 75.72C250.797 75.72 249.857 76.1 249.017 76.74C248.517 76.08 247.797 75.72 246.697 75.72C245.657 75.72 244.657 76.06 243.777 76.62C243.577 76.3 243.317 76.08 242.977 76.08C242.557 76.08 242.237 76.38 242.237 76.78C242.237 76.98 242.337 77.1 242.377 77.18C242.557 77.48 242.737 77.48 242.737 78.58V85.38C242.737 85.8 242.997 86.14 243.517 86.14C244.037 86.14 244.297 85.8 244.297 85.38V78.58C244.297 78.4 244.277 78.2 244.237 77.96C244.797 77.54 245.677 77.16 246.557 77.16C247.977 77.16 248.217 78.16 248.217 79.58V85.38C248.217 85.8 248.477 86.14 248.997 86.14C249.517 86.14 249.777 85.8 249.777 85.38V79.12C249.777 78.8 249.737 78.5 249.677 78.22C250.157 77.62 251.017 77.16 251.877 77.16C253.097 77.16 253.697 78.04 253.697 79.16V85.38Z" fill="#A62800"/>
</svg>
