<svg width="334" height="55" viewBox="0 0 334 55" fill="none" xmlns="http://www.w3.org/2000/svg">
<path d="M131.715 1.48C131.715 1.2 131.491 0.976 131.225 0.976C131.029 0.976 130.847 1.06 130.721 1.284V1.27L127.837 7.486L124.939 1.284V1.298C124.827 1.088 124.673 0.976 124.435 0.976C124.141 0.976 123.931 1.186 123.931 1.48V10.692C123.931 10.93 124.127 11.126 124.365 11.126C124.645 11.126 124.855 10.93 124.855 10.692V3.272L127.375 8.592C127.459 8.76 127.627 8.872 127.823 8.872C128.005 8.872 128.173 8.774 128.271 8.592C129.027 6.982 130.035 4.882 130.777 3.272V10.692C130.777 10.93 131.015 11.126 131.267 11.126C131.505 11.126 131.715 10.93 131.715 10.692V1.48ZM137.155 7.192C136.609 7.038 136.077 6.94 135.601 6.94C133.963 6.94 133.165 7.64 133.165 8.984V9.04C133.165 10.258 133.851 11.098 135.265 11.098C136.021 11.098 136.679 10.818 137.267 10.258C137.519 10.748 137.897 11.056 138.331 11.056C138.583 11.056 138.863 10.958 138.863 10.678C138.863 10.496 138.765 10.3 138.555 10.3C138.527 10.3 138.499 10.314 138.443 10.314C138.191 10.314 138.065 10.132 138.065 9.768V6.604C138.065 4.77 137.379 3.79 135.657 3.79C134.719 3.79 133.683 4.028 133.739 4.616C133.753 4.784 133.837 4.98 134.047 4.98C134.187 4.98 134.299 4.924 134.383 4.868C134.705 4.672 134.999 4.56 135.517 4.56C136.623 4.56 137.155 5.092 137.155 6.226V7.192ZM135.587 7.682C136.007 7.682 136.595 7.766 137.155 7.948V9.628C136.609 10.09 136.091 10.314 135.447 10.314C134.383 10.314 134.061 9.782 134.061 9.054V8.998C134.061 8.284 134.299 7.682 135.587 7.682ZM141.221 10.65V5.54C141.697 4.91 142.411 4.616 143.013 4.616C143.979 4.616 144.371 5.148 144.371 6.1V10.65C144.371 10.902 144.581 11.098 144.833 11.098C145.085 11.098 145.281 10.902 145.281 10.65V6.086C145.281 4.742 144.623 3.79 143.153 3.79C142.495 3.79 141.823 4.056 141.221 4.518V1.116C141.221 0.85 141.025 0.654 140.773 0.654C140.521 0.654 140.339 0.891999 140.339 1.116V10.65C140.339 10.902 140.535 11.098 140.801 11.098C141.039 11.098 141.221 10.902 141.221 10.65ZM151.004 7.192C150.458 7.038 149.926 6.94 149.45 6.94C147.812 6.94 147.014 7.64 147.014 8.984V9.04C147.014 10.258 147.7 11.098 149.114 11.098C149.87 11.098 150.528 10.818 151.116 10.258C151.368 10.748 151.746 11.056 152.18 11.056C152.432 11.056 152.712 10.958 152.712 10.678C152.712 10.496 152.614 10.3 152.404 10.3C152.376 10.3 152.348 10.314 152.292 10.314C152.04 10.314 151.914 10.132 151.914 9.768V6.604C151.914 4.77 151.228 3.79 149.506 3.79C148.568 3.79 147.532 4.028 147.588 4.616C147.602 4.784 147.686 4.98 147.896 4.98C148.036 4.98 148.148 4.924 148.232 4.868C148.554 4.672 148.848 4.56 149.366 4.56C150.472 4.56 151.004 5.092 151.004 6.226V7.192ZM149.436 7.682C149.856 7.682 150.444 7.766 151.004 7.948V9.628C150.458 10.09 149.94 10.314 149.296 10.314C148.232 10.314 147.91 9.782 147.91 9.054V8.998C147.91 8.284 148.148 7.682 149.436 7.682ZM158.092 5.764C158.092 7.444 159.786 7.584 160.878 8.13C161.186 8.298 161.452 8.564 161.452 9.152C161.452 9.978 160.878 10.328 160.024 10.328C159.394 10.328 158.932 10.146 158.512 9.978C158.47 9.964 158.456 9.964 158.428 9.964C158.162 9.964 157.994 10.174 157.994 10.384C157.994 10.958 159.31 11.098 160.024 11.098C161.55 11.098 162.334 10.342 162.334 9.11C162.334 7.43 160.822 7.29 159.716 6.744C159.17 6.45 158.974 6.198 158.974 5.694C158.974 4.952 159.408 4.56 160.36 4.56C160.906 4.56 161.186 4.686 161.508 4.84C161.578 4.868 161.634 4.896 161.718 4.896C161.956 4.896 162.124 4.714 162.124 4.49C162.124 3.958 161.032 3.79 160.318 3.79C158.862 3.79 158.092 4.574 158.092 5.764ZM168.077 9.32C168.077 9.502 168.091 9.642 168.105 9.782C167.587 10.118 166.999 10.314 166.411 10.314C165.473 10.314 164.969 9.642 164.969 8.494V4.28C164.969 4.028 164.815 3.832 164.521 3.832C164.227 3.832 164.059 4.028 164.059 4.28V8.494C164.059 10.048 164.801 11.098 166.257 11.098C166.915 11.098 167.657 10.944 168.329 10.552C168.511 10.832 168.693 11.014 168.931 11.014C169.155 11.014 169.351 10.846 169.351 10.622C169.351 10.482 169.225 10.328 169.141 10.23C169.057 10.132 168.987 10.02 168.987 9.32V4.28C168.987 4.028 168.833 3.832 168.539 3.832C168.231 3.832 168.077 4.028 168.077 4.28V9.32ZM170.776 8.564C170.776 9.992 171.532 11.098 173.268 11.098C173.898 11.098 175.158 10.93 175.158 10.342C175.158 10.132 174.99 9.95 174.78 9.95C174.724 9.95 174.668 9.964 174.57 9.992H174.584C174.248 10.16 173.926 10.328 173.38 10.328C172.162 10.328 171.686 9.67 171.686 8.564V6.38C171.686 5.26 172.162 4.602 173.38 4.602C173.898 4.602 174.234 4.77 174.584 4.952H174.57C174.64 4.966 174.696 4.98 174.78 4.98C174.99 4.98 175.158 4.812 175.158 4.602C175.158 4 173.898 3.832 173.268 3.832C171.532 3.832 170.776 4.952 170.776 6.38V8.564ZM177.882 1.466C177.882 1.13 177.616 0.877999 177.308 0.877999C176.972 0.877999 176.72 1.13 176.72 1.466C176.72 1.774 176.972 2.04 177.308 2.04C177.616 2.04 177.882 1.774 177.882 1.466ZM177.756 10.65V4.294C177.756 4.042 177.546 3.832 177.308 3.832C177.042 3.832 176.846 4.042 176.846 4.294V10.65C176.846 10.902 177.042 11.098 177.308 11.098C177.546 11.098 177.756 10.902 177.756 10.65ZM185.189 8.718H188.955L189.599 10.79C189.655 10.986 189.879 11.126 190.047 11.126C190.327 11.126 190.537 10.944 190.537 10.664C190.537 10.608 190.523 10.51 190.523 10.482L187.737 1.662C187.611 1.284 187.429 0.976 187.079 0.976C186.715 0.976 186.547 1.27 186.435 1.662L183.649 10.482C183.635 10.524 183.621 10.622 183.621 10.664C183.621 10.944 183.845 11.126 184.111 11.126C184.265 11.126 184.475 10.958 184.559 10.79L185.189 8.718ZM187.079 2.502L188.689 7.808H185.455L187.079 2.502ZM192.033 9.74C192.033 10.944 192.523 11.098 192.831 11.098C193.069 11.098 193.237 10.93 193.237 10.692C193.237 10.636 193.209 10.538 193.181 10.496C192.999 10.3 192.929 10.062 192.929 9.74V1.2C192.929 0.947999 192.733 0.737999 192.481 0.737999C192.229 0.737999 192.033 0.962 192.033 1.2V9.74ZM195.218 9.74C195.218 10.944 195.708 11.098 196.016 11.098C196.254 11.098 196.422 10.93 196.422 10.692C196.422 10.636 196.394 10.538 196.366 10.496C196.184 10.3 196.114 10.062 196.114 9.74V1.2C196.114 0.947999 195.918 0.737999 195.666 0.737999C195.414 0.737999 195.218 0.962 195.218 1.2V9.74ZM201.946 7.192C201.4 7.038 200.868 6.94 200.392 6.94C198.754 6.94 197.956 7.64 197.956 8.984V9.04C197.956 10.258 198.642 11.098 200.056 11.098C200.812 11.098 201.47 10.818 202.058 10.258C202.31 10.748 202.688 11.056 203.122 11.056C203.374 11.056 203.654 10.958 203.654 10.678C203.654 10.496 203.556 10.3 203.346 10.3C203.318 10.3 203.29 10.314 203.234 10.314C202.982 10.314 202.856 10.132 202.856 9.768V6.604C202.856 4.77 202.17 3.79 200.448 3.79C199.51 3.79 198.474 4.028 198.53 4.616C198.544 4.784 198.628 4.98 198.838 4.98C198.978 4.98 199.09 4.924 199.174 4.868C199.496 4.672 199.79 4.56 200.308 4.56C201.414 4.56 201.946 5.092 201.946 6.226V7.192ZM200.378 7.682C200.798 7.682 201.386 7.766 201.946 7.948V9.628C201.4 10.09 200.882 10.314 200.238 10.314C199.174 10.314 198.852 9.782 198.852 9.054V8.998C198.852 8.284 199.09 7.682 200.378 7.682ZM206.012 10.65V5.54C206.488 4.91 207.202 4.616 207.804 4.616C208.77 4.616 209.162 5.148 209.162 6.1V10.65C209.162 10.902 209.372 11.098 209.624 11.098C209.876 11.098 210.072 10.902 210.072 10.65V6.086C210.072 4.742 209.414 3.79 207.944 3.79C207.286 3.79 206.614 4.056 206.012 4.518V1.116C206.012 0.85 205.816 0.654 205.564 0.654C205.312 0.654 205.13 0.891999 205.13 1.116V10.65C205.13 10.902 205.326 11.098 205.592 11.098C205.83 11.098 206.012 10.902 206.012 10.65ZM5.61139 24.434C5.61139 24.406 5.62539 24.364 5.62539 24.294C5.62539 24.014 5.40139 23.832 5.17739 23.832C5.00939 23.832 4.84139 23.972 4.75739 24.126C4.25339 25.918 3.58139 28.158 3.07739 29.936L1.17339 24.126C1.10339 23.958 0.935391 23.832 0.767391 23.832C0.515391 23.832 0.305391 24 0.305391 24.252C0.305391 24.294 0.305391 24.364 0.347391 24.406L2.64339 31.07C2.18139 32.442 1.77539 32.918 0.781391 32.96C0.515391 32.974 0.361391 33.184 0.361391 33.394C0.361391 33.646 0.557391 33.828 0.837391 33.828C2.55939 33.828 3.20339 32.204 3.84739 30.16L5.61139 24.434ZM10.4166 27.192C9.87056 27.038 9.33856 26.94 8.86256 26.94C7.22456 26.94 6.42656 27.64 6.42656 28.984V29.04C6.42656 30.258 7.11256 31.098 8.52656 31.098C9.28256 31.098 9.94056 30.818 10.5286 30.258C10.7806 30.748 11.1586 31.056 11.5926 31.056C11.8446 31.056 12.1246 30.958 12.1246 30.678C12.1246 30.496 12.0266 30.3 11.8166 30.3C11.7886 30.3 11.7606 30.314 11.7046 30.314C11.4526 30.314 11.3266 30.132 11.3266 29.768V26.604C11.3266 24.77 10.6406 23.79 8.91856 23.79C7.98056 23.79 6.94456 24.028 7.00056 24.616C7.01456 24.784 7.09856 24.98 7.30856 24.98C7.44856 24.98 7.56056 24.924 7.64456 24.868C7.96656 24.672 8.26056 24.56 8.77856 24.56C9.88456 24.56 10.4166 25.092 10.4166 26.226V27.192ZM8.84856 27.682C9.26856 27.682 9.85656 27.766 10.4166 27.948V29.628C9.87056 30.09 9.35256 30.314 8.70856 30.314C7.64456 30.314 7.32256 29.782 7.32256 29.054V28.998C7.32256 28.284 7.56056 27.682 8.84856 27.682ZM14.2865 24.504C14.1325 24.196 13.8945 24.042 13.7125 24.042C13.5025 24.042 13.3065 24.21 13.3065 24.448C13.3065 24.532 13.3345 24.616 13.3905 24.686C13.5865 24.966 13.6425 25.26 13.6425 25.75V30.65C13.6425 30.902 13.7965 31.084 14.1045 31.084C14.3985 31.084 14.5525 30.902 14.5525 30.65V25.75C14.5525 25.596 14.5385 25.428 14.5105 25.274C15.0425 24.868 15.6305 24.602 16.2185 24.602C17.1565 24.602 17.6465 25.274 17.6465 26.436V30.65C17.6465 30.902 17.8145 31.084 18.1085 31.084C18.4025 31.084 18.5565 30.902 18.5565 30.65V26.436C18.5565 24.868 17.8425 23.818 16.3865 23.818C15.7005 23.818 14.9725 24.028 14.2865 24.504ZM22.5787 23.79C20.9127 23.79 20.1007 24.882 20.1007 26.324C20.1007 27.15 20.3807 27.85 20.9407 28.368C20.4507 28.802 20.3247 29.236 20.3247 29.544C20.3247 29.866 20.4367 30.3 20.8007 30.65C20.2827 31.112 20.0027 31.658 20.0027 32.302C20.0027 33.632 21.0947 34.402 22.6627 34.402C24.3007 34.402 25.5047 33.562 25.5047 32.176C25.5047 30.846 24.3147 30.23 22.7327 30.23H22.1307C21.7667 30.23 21.2347 30.09 21.2347 29.502C21.2347 29.292 21.2907 29.012 21.4727 28.69C21.8367 28.83 22.2427 28.914 22.6627 28.914C24.3287 28.914 25.1547 27.822 25.1547 26.422V25.526C25.1547 24.868 25.3787 24.644 25.8547 24.196L25.9807 24.056C26.0087 24.028 26.0367 23.958 26.0367 23.846C26.0367 23.608 25.8547 23.44 25.6167 23.44C25.3507 23.44 24.8607 23.706 24.5247 24.322C23.9367 23.972 23.2227 23.79 22.5787 23.79ZM24.2587 25.54V26.45C24.2587 27.472 23.7687 28.088 22.6627 28.088C21.5007 28.088 21.0107 27.388 21.0107 26.352C21.0107 25.218 21.5847 24.574 22.7187 24.574C23.2647 24.574 23.7967 24.756 24.3007 25.064C24.2727 25.274 24.2587 25.47 24.2587 25.54ZM22.1587 31.056H22.7607C23.9927 31.056 24.5947 31.392 24.5947 32.204C24.5947 33.142 23.7967 33.59 22.6907 33.59C21.5147 33.59 20.8987 33.086 20.8987 32.148C20.8987 31.686 21.0807 31.294 21.4727 30.986C21.6547 31.028 21.8927 31.056 22.1587 31.056ZM31.5383 28.172C31.5383 30.09 32.0143 31.042 33.9463 31.042C34.2823 31.042 34.6463 31 34.6463 30.608C34.6463 30.23 34.2823 30.188 34.0163 30.188C33.9183 30.188 33.8343 30.202 33.7363 30.202C32.6023 30.202 32.4343 29.628 32.4343 28.074V25.078H34.0583C34.2823 25.078 34.4643 24.896 34.4643 24.672C34.4643 24.42 34.2823 24.238 34.0583 24.238H32.4343V22.138C32.4343 21.9 32.2803 21.69 31.9863 21.69C31.6923 21.69 31.5383 21.9 31.5383 22.138V28.172ZM38.1927 30.328C37.0727 30.328 36.4987 29.754 36.4987 28.9V27.906C37.0447 28.018 37.6187 28.06 38.0807 28.06C39.7187 28.06 40.4047 27.29 40.4047 26.03C40.4047 24.672 39.6627 23.79 38.1367 23.79C36.4847 23.79 35.5887 24.798 35.5887 26.128V28.816C35.5887 30.104 36.4847 31.098 38.0527 31.098C38.7947 31.098 40.2787 30.902 40.2787 30.272C40.2787 30.076 40.1107 29.88 39.8867 29.88C39.8307 29.88 39.7607 29.908 39.7327 29.922C39.2287 30.146 38.8367 30.328 38.1927 30.328ZM39.5087 26.03C39.5087 26.688 39.3127 27.318 38.1367 27.318C37.8427 27.318 37.1007 27.29 36.4987 27.206V26.016C36.4987 25.148 37.0867 24.588 38.0947 24.588C38.9907 24.588 39.5087 25.008 39.5087 26.03ZM41.9293 29.74C41.9293 30.944 42.4193 31.098 42.7273 31.098C42.9653 31.098 43.1333 30.93 43.1333 30.692C43.1333 30.636 43.1053 30.538 43.0773 30.496C42.8953 30.3 42.8253 30.062 42.8253 29.74V21.2C42.8253 20.948 42.6292 20.738 42.3773 20.738C42.1253 20.738 41.9293 20.962 41.9293 21.2V29.74ZM48.6568 27.192C48.1108 27.038 47.5788 26.94 47.1028 26.94C45.4648 26.94 44.6668 27.64 44.6668 28.984V29.04C44.6668 30.258 45.3528 31.098 46.7668 31.098C47.5228 31.098 48.1808 30.818 48.7688 30.258C49.0208 30.748 49.3988 31.056 49.8328 31.056C50.0848 31.056 50.3648 30.958 50.3648 30.678C50.3648 30.496 50.2668 30.3 50.0568 30.3C50.0288 30.3 50.0008 30.314 49.9448 30.314C49.6928 30.314 49.5668 30.132 49.5668 29.768V26.604C49.5668 24.77 48.8808 23.79 47.1588 23.79C46.2208 23.79 45.1848 24.028 45.2408 24.616C45.2548 24.784 45.3388 24.98 45.5488 24.98C45.6888 24.98 45.8008 24.924 45.8848 24.868C46.2068 24.672 46.5008 24.56 47.0188 24.56C48.1248 24.56 48.6568 25.092 48.6568 26.226V27.192ZM47.0888 27.682C47.5088 27.682 48.0968 27.766 48.6568 27.948V29.628C48.1108 30.09 47.5928 30.314 46.9488 30.314C45.8848 30.314 45.5628 29.782 45.5628 29.054V28.998C45.5628 28.284 45.8008 27.682 47.0888 27.682ZM52.7227 30.65V25.54C53.1987 24.91 53.9127 24.616 54.5147 24.616C55.4807 24.616 55.8727 25.148 55.8727 26.1V30.65C55.8727 30.902 56.0827 31.098 56.3347 31.098C56.5867 31.098 56.7827 30.902 56.7827 30.65V26.086C56.7827 24.742 56.1247 23.79 54.6547 23.79C53.9967 23.79 53.3247 24.056 52.7227 24.518V21.116C52.7227 20.85 52.5267 20.654 52.2747 20.654C52.0227 20.654 51.8407 20.892 51.8407 21.116V30.65C51.8407 30.902 52.0367 31.098 52.3027 31.098C52.5407 31.098 52.7227 30.902 52.7227 30.65ZM63.7637 24.476C63.6097 24.168 63.3997 24.042 63.2177 24.042C63.0077 24.042 62.8117 24.21 62.8117 24.448C62.8117 24.532 62.8397 24.616 62.8957 24.686C63.0917 24.966 63.1477 25.26 63.1477 25.75V30.65C63.1477 30.902 63.3017 31.084 63.6097 31.084C63.9037 31.084 64.0577 30.902 64.0577 30.65V25.75C64.0577 25.568 64.0437 25.414 64.0157 25.246C64.4637 24.91 65.1497 24.602 65.7937 24.602C66.9137 24.602 67.0957 25.372 67.0957 26.464V30.65C67.0957 30.902 67.2497 31.084 67.5577 31.084C67.8657 31.084 68.0057 30.902 68.0057 30.65V26.142C68.0057 25.876 67.9777 25.652 67.9357 25.442C68.3137 24.966 68.9717 24.602 69.6297 24.602C70.5957 24.602 71.0437 25.302 71.0437 26.17V30.65C71.0437 30.902 71.2117 31.084 71.5057 31.084C71.8137 31.084 71.9537 30.902 71.9537 30.65V26.142C71.9537 24.742 71.1557 23.79 69.6717 23.79C68.9017 23.79 68.2017 24.084 67.5577 24.574C67.1657 24.07 66.6477 23.79 65.9057 23.79C65.1637 23.79 64.4357 24.042 63.7637 24.476ZM76.2142 30.328C75.0942 30.328 74.5202 29.754 74.5202 28.9V27.906C75.0662 28.018 75.6402 28.06 76.1022 28.06C77.7402 28.06 78.4262 27.29 78.4262 26.03C78.4262 24.672 77.6842 23.79 76.1582 23.79C74.5062 23.79 73.6102 24.798 73.6102 26.128V28.816C73.6102 30.104 74.5062 31.098 76.0742 31.098C76.8162 31.098 78.3002 30.902 78.3002 30.272C78.3002 30.076 78.1322 29.88 77.9082 29.88C77.8522 29.88 77.7822 29.908 77.7542 29.922C77.2502 30.146 76.8582 30.328 76.2142 30.328ZM77.5302 26.03C77.5302 26.688 77.3342 27.318 76.1582 27.318C75.8642 27.318 75.1222 27.29 74.5202 27.206V26.016C74.5202 25.148 75.1082 24.588 76.1162 24.588C77.0122 24.588 77.5302 25.008 77.5302 26.03ZM80.8001 24.504C80.6461 24.196 80.4081 24.042 80.2261 24.042C80.0161 24.042 79.8201 24.21 79.8201 24.448C79.8201 24.532 79.8481 24.616 79.9041 24.686C80.1001 24.966 80.1561 25.26 80.1561 25.75V30.65C80.1561 30.902 80.3101 31.084 80.6181 31.084C80.9121 31.084 81.0661 30.902 81.0661 30.65V25.75C81.0661 25.596 81.0521 25.428 81.0241 25.274C81.5561 24.868 82.1441 24.602 82.7321 24.602C83.6701 24.602 84.1601 25.274 84.1601 26.436V30.65C84.1601 30.902 84.3281 31.084 84.6221 31.084C84.9161 31.084 85.0701 30.902 85.0701 30.65V26.436C85.0701 24.868 84.3561 23.818 82.9001 23.818C82.2141 23.818 81.4861 24.028 80.8001 24.504ZM86.8172 28.564C86.8172 29.992 87.5732 31.098 89.3092 31.098C89.9392 31.098 91.1992 30.93 91.1992 30.342C91.1992 30.132 91.0312 29.95 90.8212 29.95C90.7652 29.95 90.7092 29.964 90.6112 29.992H90.6252C90.2892 30.16 89.9672 30.328 89.4212 30.328C88.2032 30.328 87.7272 29.67 87.7272 28.564V26.38C87.7272 25.26 88.2032 24.602 89.4212 24.602C89.9392 24.602 90.2752 24.77 90.6252 24.952H90.6112C90.6812 24.966 90.7372 24.98 90.8212 24.98C91.0312 24.98 91.1992 24.812 91.1992 24.602C91.1992 24 89.9392 23.832 89.3092 23.832C87.5732 23.832 86.8172 24.952 86.8172 26.38V28.564ZM93.9233 21.466C93.9233 21.13 93.6573 20.878 93.3493 20.878C93.0133 20.878 92.7613 21.13 92.7613 21.466C92.7613 21.774 93.0133 22.04 93.3493 22.04C93.6573 22.04 93.9233 21.774 93.9233 21.466ZM93.7973 30.65V24.294C93.7973 24.042 93.5873 23.832 93.3493 23.832C93.0833 23.832 92.8873 24.042 92.8873 24.294V30.65C92.8873 30.902 93.0833 31.098 93.3493 31.098C93.5873 31.098 93.7973 30.902 93.7973 30.65ZM98.8249 31.084C100.575 31.084 101.121 29.936 101.121 28.284V26.408C101.121 24.854 100.393 23.79 98.9509 23.79C98.2369 23.79 97.5089 24.084 96.8089 24.462C96.6549 24.238 96.4589 24.07 96.2769 24.07C96.0669 24.07 95.8709 24.238 95.8709 24.476C95.8709 24.56 95.8989 24.644 95.9549 24.714C96.1509 24.994 96.2069 25.288 96.2069 25.778V33.576C96.2069 33.814 96.3609 34.01 96.6689 34.01C96.9489 34.01 97.1169 33.814 97.1169 33.576V30.79C97.6909 30.972 98.3209 31.084 98.8249 31.084ZM97.1169 25.778C97.1169 25.554 97.0889 25.344 97.0469 25.134C97.5929 24.798 98.2089 24.574 98.7129 24.574C99.7349 24.574 100.211 25.218 100.211 26.408V28.284C100.211 29.698 99.8049 30.328 98.6849 30.328C98.2929 30.328 97.6209 30.216 97.1169 29.992V25.778ZM102.864 28.172C102.864 30.09 103.34 31.042 105.272 31.042C105.608 31.042 105.972 31 105.972 30.608C105.972 30.23 105.608 30.188 105.342 30.188C105.244 30.188 105.16 30.202 105.062 30.202C103.928 30.202 103.76 29.628 103.76 28.074V25.078H105.384C105.608 25.078 105.79 24.896 105.79 24.672C105.79 24.42 105.608 24.238 105.384 24.238H103.76V22.138C103.76 21.9 103.606 21.69 103.312 21.69C103.018 21.69 102.864 21.9 102.864 22.138V28.172ZM110.919 27.192C110.373 27.038 109.841 26.94 109.365 26.94C107.727 26.94 106.929 27.64 106.929 28.984V29.04C106.929 30.258 107.615 31.098 109.029 31.098C109.785 31.098 110.443 30.818 111.031 30.258C111.283 30.748 111.661 31.056 112.095 31.056C112.347 31.056 112.627 30.958 112.627 30.678C112.627 30.496 112.529 30.3 112.319 30.3C112.291 30.3 112.263 30.314 112.207 30.314C111.955 30.314 111.829 30.132 111.829 29.768V26.604C111.829 24.77 111.143 23.79 109.421 23.79C108.483 23.79 107.447 24.028 107.503 24.616C107.517 24.784 107.601 24.98 107.811 24.98C107.951 24.98 108.063 24.924 108.147 24.868C108.469 24.672 108.763 24.56 109.281 24.56C110.387 24.56 110.919 25.092 110.919 26.226V27.192ZM109.351 27.682C109.771 27.682 110.359 27.766 110.919 27.948V29.628C110.373 30.09 109.855 30.314 109.211 30.314C108.147 30.314 107.825 29.782 107.825 29.054V28.998C107.825 28.284 108.063 27.682 109.351 27.682ZM115.012 21.2C115.012 20.948 114.802 20.738 114.564 20.738C114.298 20.738 114.102 20.948 114.102 21.2V30.65C114.102 30.902 114.298 31.098 114.564 31.098C114.802 31.098 115.012 30.902 115.012 30.65V28.046L115.656 27.374L117.966 30.888C118.05 31.028 118.176 31.098 118.344 31.098C118.582 31.098 118.792 30.958 118.778 30.734C118.778 30.664 118.736 30.524 118.694 30.468L116.216 26.786L118.4 24.56C118.47 24.49 118.498 24.392 118.498 24.266C118.498 24.028 118.316 23.846 118.078 23.846C117.98 23.846 117.868 23.874 117.812 23.944L115.012 26.842V21.2ZM123.77 27.192C123.224 27.038 122.692 26.94 122.216 26.94C120.578 26.94 119.78 27.64 119.78 28.984V29.04C119.78 30.258 120.466 31.098 121.88 31.098C122.636 31.098 123.294 30.818 123.882 30.258C124.134 30.748 124.512 31.056 124.946 31.056C125.198 31.056 125.478 30.958 125.478 30.678C125.478 30.496 125.38 30.3 125.17 30.3C125.142 30.3 125.114 30.314 125.058 30.314C124.806 30.314 124.68 30.132 124.68 29.768V26.604C124.68 24.77 123.994 23.79 122.272 23.79C121.334 23.79 120.298 24.028 120.354 24.616C120.368 24.784 120.452 24.98 120.662 24.98C120.802 24.98 120.914 24.924 120.998 24.868C121.32 24.672 121.614 24.56 122.132 24.56C123.238 24.56 123.77 25.092 123.77 26.226V27.192ZM122.202 27.682C122.622 27.682 123.21 27.766 123.77 27.948V29.628C123.224 30.09 122.706 30.314 122.062 30.314C120.998 30.314 120.676 29.782 120.676 29.054V28.998C120.676 28.284 120.914 27.682 122.202 27.682ZM127.64 24.504C127.486 24.196 127.248 24.042 127.066 24.042C126.856 24.042 126.66 24.21 126.66 24.448C126.66 24.532 126.688 24.616 126.744 24.686C126.94 24.966 126.996 25.26 126.996 25.75V30.65C126.996 30.902 127.15 31.084 127.458 31.084C127.752 31.084 127.906 30.902 127.906 30.65V25.75C127.906 25.596 127.892 25.428 127.864 25.274C128.396 24.868 128.984 24.602 129.572 24.602C130.51 24.602 131 25.274 131 26.436V30.65C131 30.902 131.168 31.084 131.462 31.084C131.756 31.084 131.91 30.902 131.91 30.65V26.436C131.91 24.868 131.196 23.818 129.74 23.818C129.054 23.818 128.326 24.028 127.64 24.504ZM138.904 24.476C138.75 24.168 138.54 24.042 138.358 24.042C138.148 24.042 137.952 24.21 137.952 24.448C137.952 24.532 137.98 24.616 138.036 24.686C138.232 24.966 138.288 25.26 138.288 25.75V30.65C138.288 30.902 138.442 31.084 138.75 31.084C139.044 31.084 139.198 30.902 139.198 30.65V25.75C139.198 25.568 139.184 25.414 139.156 25.246C139.604 24.91 140.29 24.602 140.934 24.602C142.054 24.602 142.236 25.372 142.236 26.464V30.65C142.236 30.902 142.39 31.084 142.698 31.084C143.006 31.084 143.146 30.902 143.146 30.65V26.142C143.146 25.876 143.118 25.652 143.076 25.442C143.454 24.966 144.112 24.602 144.77 24.602C145.736 24.602 146.184 25.302 146.184 26.17V30.65C146.184 30.902 146.352 31.084 146.646 31.084C146.954 31.084 147.094 30.902 147.094 30.65V26.142C147.094 24.742 146.296 23.79 144.812 23.79C144.042 23.79 143.342 24.084 142.698 24.574C142.306 24.07 141.788 23.79 141.046 23.79C140.304 23.79 139.576 24.042 138.904 24.476ZM152.741 27.192C152.195 27.038 151.663 26.94 151.187 26.94C149.549 26.94 148.751 27.64 148.751 28.984V29.04C148.751 30.258 149.437 31.098 150.851 31.098C151.607 31.098 152.265 30.818 152.853 30.258C153.105 30.748 153.483 31.056 153.917 31.056C154.169 31.056 154.449 30.958 154.449 30.678C154.449 30.496 154.351 30.3 154.141 30.3C154.113 30.3 154.085 30.314 154.029 30.314C153.777 30.314 153.651 30.132 153.651 29.768V26.604C153.651 24.77 152.965 23.79 151.243 23.79C150.305 23.79 149.269 24.028 149.325 24.616C149.339 24.784 149.423 24.98 149.633 24.98C149.773 24.98 149.885 24.924 149.969 24.868C150.291 24.672 150.585 24.56 151.103 24.56C152.209 24.56 152.741 25.092 152.741 26.226V27.192ZM151.173 27.682C151.593 27.682 152.181 27.766 152.741 27.948V29.628C152.195 30.09 151.677 30.314 151.033 30.314C149.969 30.314 149.647 29.782 149.647 29.054V28.998C149.647 28.284 149.885 27.682 151.173 27.682ZM156.835 21.2C156.835 20.948 156.625 20.738 156.387 20.738C156.121 20.738 155.925 20.948 155.925 21.2V30.65C155.925 30.902 156.121 31.098 156.387 31.098C156.625 31.098 156.835 30.902 156.835 30.65V28.046L157.479 27.374L159.789 30.888C159.873 31.028 159.999 31.098 160.167 31.098C160.405 31.098 160.615 30.958 160.601 30.734C160.601 30.664 160.559 30.524 160.517 30.468L158.039 26.786L160.223 24.56C160.293 24.49 160.321 24.392 160.321 24.266C160.321 24.028 160.139 23.846 159.901 23.846C159.803 23.846 159.691 23.874 159.635 23.944L156.835 26.842V21.2ZM162.877 30.65V25.54C163.353 24.91 164.067 24.616 164.669 24.616C165.635 24.616 166.027 25.148 166.027 26.1V30.65C166.027 30.902 166.237 31.098 166.489 31.098C166.741 31.098 166.937 30.902 166.937 30.65V26.086C166.937 24.742 166.279 23.79 164.809 23.79C164.151 23.79 163.479 24.056 162.877 24.518V21.116C162.877 20.85 162.681 20.654 162.429 20.654C162.177 20.654 161.995 20.892 161.995 21.116V30.65C161.995 30.902 162.191 31.098 162.457 31.098C162.695 31.098 162.877 30.902 162.877 30.65ZM169.119 29.74C169.119 30.944 169.609 31.098 169.917 31.098C170.155 31.098 170.323 30.93 170.323 30.692C170.323 30.636 170.295 30.538 170.267 30.496C170.085 30.3 170.015 30.062 170.015 29.74V21.2C170.015 20.948 169.819 20.738 169.567 20.738C169.315 20.738 169.119 20.962 169.119 21.2V29.74ZM176.28 29.32C176.28 29.502 176.294 29.642 176.308 29.782C175.79 30.118 175.202 30.314 174.614 30.314C173.676 30.314 173.172 29.642 173.172 28.494V24.28C173.172 24.028 173.018 23.832 172.724 23.832C172.43 23.832 172.262 24.028 172.262 24.28V28.494C172.262 30.048 173.004 31.098 174.46 31.098C175.118 31.098 175.86 30.944 176.532 30.552C176.714 30.832 176.896 31.014 177.134 31.014C177.358 31.014 177.554 30.846 177.554 30.622C177.554 30.482 177.428 30.328 177.344 30.23C177.26 30.132 177.19 30.02 177.19 29.32V24.28C177.19 24.028 177.036 23.832 176.742 23.832C176.434 23.832 176.28 24.028 176.28 24.28V29.32ZM180.309 21.2C180.309 20.948 180.099 20.738 179.861 20.738C179.595 20.738 179.399 20.948 179.399 21.2V30.65C179.399 30.902 179.595 31.098 179.861 31.098C180.099 31.098 180.309 30.902 180.309 30.65V28.046L180.953 27.374L183.263 30.888C183.347 31.028 183.473 31.098 183.641 31.098C183.879 31.098 184.089 30.958 184.075 30.734C184.075 30.664 184.033 30.524 183.991 30.468L181.513 26.786L183.697 24.56C183.767 24.49 183.795 24.392 183.795 24.266C183.795 24.028 183.613 23.846 183.375 23.846C183.277 23.846 183.165 23.874 183.109 23.944L180.309 26.842V21.2ZM188.691 26.884C188.691 26.646 188.523 26.45 188.299 26.45H184.729C184.491 26.45 184.309 26.646 184.309 26.884C184.309 27.108 184.491 27.276 184.729 27.276H188.299C188.523 27.276 188.691 27.108 188.691 26.884ZM196.131 31.126C196.439 31.126 196.649 30.902 196.649 30.608V21.452C196.649 21.2 196.453 20.976 196.201 20.976C195.949 20.976 195.725 21.2 195.725 21.452V29.278L191.399 21.27C191.301 21.088 191.105 20.976 190.895 20.976C190.601 20.976 190.377 21.2 190.377 21.508V30.65C190.377 30.916 190.587 31.126 190.839 31.126C191.105 31.126 191.315 30.916 191.315 30.65V22.866L195.641 30.86C195.725 31.028 195.949 31.126 196.131 31.126ZM203.266 24.434C203.266 24.406 203.28 24.364 203.28 24.294C203.28 24.014 203.056 23.832 202.832 23.832C202.664 23.832 202.496 23.972 202.412 24.126C201.908 25.918 201.236 28.158 200.732 29.936L198.828 24.126C198.758 23.958 198.59 23.832 198.422 23.832C198.17 23.832 197.96 24 197.96 24.252C197.96 24.294 197.96 24.364 198.002 24.406L200.298 31.07C199.836 32.442 199.43 32.918 198.436 32.96C198.17 32.974 198.016 33.184 198.016 33.394C198.016 33.646 198.212 33.828 198.492 33.828C200.214 33.828 200.858 32.204 201.502 30.16L203.266 24.434ZM208.071 27.192C207.525 27.038 206.993 26.94 206.517 26.94C204.879 26.94 204.081 27.64 204.081 28.984V29.04C204.081 30.258 204.767 31.098 206.181 31.098C206.937 31.098 207.595 30.818 208.183 30.258C208.435 30.748 208.813 31.056 209.247 31.056C209.499 31.056 209.779 30.958 209.779 30.678C209.779 30.496 209.681 30.3 209.471 30.3C209.443 30.3 209.415 30.314 209.359 30.314C209.107 30.314 208.981 30.132 208.981 29.768V26.604C208.981 24.77 208.295 23.79 206.573 23.79C205.635 23.79 204.599 24.028 204.655 24.616C204.669 24.784 204.753 24.98 204.963 24.98C205.103 24.98 205.215 24.924 205.299 24.868C205.621 24.672 205.915 24.56 206.433 24.56C207.539 24.56 208.071 25.092 208.071 26.226V27.192ZM206.503 27.682C206.923 27.682 207.511 27.766 208.071 27.948V29.628C207.525 30.09 207.007 30.314 206.363 30.314C205.299 30.314 204.977 29.782 204.977 29.054V28.998C204.977 28.284 205.215 27.682 206.503 27.682ZM216.348 25.344C216.796 24.854 217.37 24.546 218.112 24.546C219.148 24.546 219.596 25.064 219.596 25.932V28.648C219.596 29.656 219.092 30.272 217.986 30.272C216.978 30.272 216.348 29.768 216.348 28.942V25.344ZM215.438 28.942C215.438 30.146 216.362 31.098 217.986 31.098C219.666 31.098 220.506 30.034 220.506 28.648V25.932C220.506 24.728 219.946 23.79 218.392 23.79C217.622 23.79 216.978 24.028 216.348 24.476V21.186C216.348 20.962 216.194 20.738 215.9 20.738C215.606 20.738 215.438 20.962 215.438 21.186V28.942ZM224.431 30.328C223.311 30.328 222.737 29.754 222.737 28.9V27.906C223.283 28.018 223.857 28.06 224.319 28.06C225.957 28.06 226.643 27.29 226.643 26.03C226.643 24.672 225.901 23.79 224.375 23.79C222.723 23.79 221.827 24.798 221.827 26.128V28.816C221.827 30.104 222.723 31.098 224.291 31.098C225.033 31.098 226.517 30.902 226.517 30.272C226.517 30.076 226.349 29.88 226.125 29.88C226.069 29.88 225.999 29.908 225.971 29.922C225.467 30.146 225.075 30.328 224.431 30.328ZM225.747 26.03C225.747 26.688 225.551 27.318 224.375 27.318C224.081 27.318 223.339 27.29 222.737 27.206V26.016C222.737 25.148 223.325 24.588 224.333 24.588C225.229 24.588 225.747 25.008 225.747 26.03ZM229.297 25.778C229.297 25.358 229.283 25.344 229.283 25.344V25.33C230.053 24.756 230.585 24.756 231.215 24.77C231.453 24.784 231.663 24.574 231.663 24.294C231.663 24.042 231.509 23.846 231.019 23.846C230.501 23.846 229.675 24.084 229.017 24.504C228.863 24.252 228.653 24.07 228.471 24.07C228.247 24.07 228.051 24.238 228.051 24.476C228.051 24.56 228.079 24.644 228.135 24.714C228.331 24.994 228.387 25.288 228.387 25.778V30.65C228.387 30.902 228.583 31.098 228.849 31.098C229.087 31.098 229.297 30.902 229.297 30.65V25.778ZM235.831 31.084C237.581 31.084 238.127 29.936 238.127 28.284V26.408C238.127 24.854 237.399 23.79 235.957 23.79C235.243 23.79 234.515 24.084 233.815 24.462C233.661 24.238 233.465 24.07 233.283 24.07C233.073 24.07 232.877 24.238 232.877 24.476C232.877 24.56 232.905 24.644 232.961 24.714C233.157 24.994 233.213 25.288 233.213 25.778V33.576C233.213 33.814 233.367 34.01 233.675 34.01C233.955 34.01 234.123 33.814 234.123 33.576V30.79C234.697 30.972 235.327 31.084 235.831 31.084ZM234.123 25.778C234.123 25.554 234.095 25.344 234.053 25.134C234.599 24.798 235.215 24.574 235.719 24.574C236.741 24.574 237.217 25.218 237.217 26.408V28.284C237.217 29.698 236.811 30.328 235.691 30.328C235.299 30.328 234.627 30.216 234.123 29.992V25.778ZM243.426 27.192C242.88 27.038 242.348 26.94 241.872 26.94C240.234 26.94 239.436 27.64 239.436 28.984V29.04C239.436 30.258 240.122 31.098 241.536 31.098C242.292 31.098 242.95 30.818 243.538 30.258C243.79 30.748 244.168 31.056 244.602 31.056C244.854 31.056 245.134 30.958 245.134 30.678C245.134 30.496 245.036 30.3 244.826 30.3C244.798 30.3 244.77 30.314 244.714 30.314C244.462 30.314 244.336 30.132 244.336 29.768V26.604C244.336 24.77 243.65 23.79 241.928 23.79C240.99 23.79 239.954 24.028 240.01 24.616C240.024 24.784 240.108 24.98 240.318 24.98C240.458 24.98 240.57 24.924 240.654 24.868C240.976 24.672 241.27 24.56 241.788 24.56C242.894 24.56 243.426 25.092 243.426 26.226V27.192ZM241.858 27.682C242.278 27.682 242.866 27.766 243.426 27.948V29.628C242.88 30.09 242.362 30.314 241.718 30.314C240.654 30.314 240.332 29.782 240.332 29.054V28.998C240.332 28.284 240.57 27.682 241.858 27.682ZM246.426 25.764C246.426 27.444 248.12 27.584 249.212 28.13C249.52 28.298 249.786 28.564 249.786 29.152C249.786 29.978 249.212 30.328 248.358 30.328C247.728 30.328 247.266 30.146 246.846 29.978C246.804 29.964 246.79 29.964 246.762 29.964C246.496 29.964 246.328 30.174 246.328 30.384C246.328 30.958 247.644 31.098 248.358 31.098C249.884 31.098 250.668 30.342 250.668 29.11C250.668 27.43 249.156 27.29 248.05 26.744C247.504 26.45 247.308 26.198 247.308 25.694C247.308 24.952 247.742 24.56 248.694 24.56C249.24 24.56 249.52 24.686 249.842 24.84C249.912 24.868 249.968 24.896 250.052 24.896C250.29 24.896 250.458 24.714 250.458 24.49C250.458 23.958 249.366 23.79 248.652 23.79C247.196 23.79 246.426 24.574 246.426 25.764ZM255.977 27.192C255.431 27.038 254.899 26.94 254.423 26.94C252.785 26.94 251.987 27.64 251.987 28.984V29.04C251.987 30.258 252.673 31.098 254.087 31.098C254.843 31.098 255.501 30.818 256.089 30.258C256.341 30.748 256.719 31.056 257.153 31.056C257.405 31.056 257.685 30.958 257.685 30.678C257.685 30.496 257.587 30.3 257.377 30.3C257.349 30.3 257.321 30.314 257.265 30.314C257.013 30.314 256.887 30.132 256.887 29.768V26.604C256.887 24.77 256.201 23.79 254.479 23.79C253.541 23.79 252.505 24.028 252.561 24.616C252.575 24.784 252.659 24.98 252.869 24.98C253.009 24.98 253.121 24.924 253.205 24.868C253.527 24.672 253.821 24.56 254.339 24.56C255.445 24.56 255.977 25.092 255.977 26.226V27.192ZM254.409 27.682C254.829 27.682 255.417 27.766 255.977 27.948V29.628C255.431 30.09 254.913 30.314 254.269 30.314C253.205 30.314 252.883 29.782 252.883 29.054V28.998C252.883 28.284 253.121 27.682 254.409 27.682ZM259.847 24.504C259.693 24.196 259.455 24.042 259.273 24.042C259.063 24.042 258.867 24.21 258.867 24.448C258.867 24.532 258.895 24.616 258.951 24.686C259.147 24.966 259.203 25.26 259.203 25.75V30.65C259.203 30.902 259.357 31.084 259.665 31.084C259.959 31.084 260.113 30.902 260.113 30.65V25.75C260.113 25.596 260.099 25.428 260.071 25.274C260.603 24.868 261.191 24.602 261.779 24.602C262.717 24.602 263.207 25.274 263.207 26.436V30.65C263.207 30.902 263.375 31.084 263.669 31.084C263.963 31.084 264.117 30.902 264.117 30.65V26.436C264.117 24.868 263.403 23.818 261.947 23.818C261.261 23.818 260.533 24.028 259.847 24.504ZM268.139 23.79C266.473 23.79 265.661 24.882 265.661 26.324C265.661 27.15 265.941 27.85 266.501 28.368C266.011 28.802 265.885 29.236 265.885 29.544C265.885 29.866 265.997 30.3 266.361 30.65C265.843 31.112 265.563 31.658 265.563 32.302C265.563 33.632 266.655 34.402 268.223 34.402C269.861 34.402 271.065 33.562 271.065 32.176C271.065 30.846 269.875 30.23 268.293 30.23H267.691C267.327 30.23 266.795 30.09 266.795 29.502C266.795 29.292 266.851 29.012 267.033 28.69C267.397 28.83 267.803 28.914 268.223 28.914C269.889 28.914 270.715 27.822 270.715 26.422V25.526C270.715 24.868 270.939 24.644 271.415 24.196L271.541 24.056C271.569 24.028 271.597 23.958 271.597 23.846C271.597 23.608 271.415 23.44 271.177 23.44C270.911 23.44 270.421 23.706 270.085 24.322C269.497 23.972 268.783 23.79 268.139 23.79ZM269.819 25.54V26.45C269.819 27.472 269.329 28.088 268.223 28.088C267.061 28.088 266.571 27.388 266.571 26.352C266.571 25.218 267.145 24.574 268.279 24.574C268.825 24.574 269.357 24.756 269.861 25.064C269.833 25.274 269.819 25.47 269.819 25.54ZM267.719 31.056H268.321C269.553 31.056 270.155 31.392 270.155 32.204C270.155 33.142 269.357 33.59 268.251 33.59C267.075 33.59 266.459 33.086 266.459 32.148C266.459 31.686 266.641 31.294 267.033 30.986C267.215 31.028 267.453 31.056 267.719 31.056ZM276.684 26.884C276.684 26.646 276.516 26.45 276.292 26.45H272.722C272.484 26.45 272.302 26.646 272.302 26.884C272.302 27.108 272.484 27.276 272.722 27.276H276.292C276.516 27.276 276.684 27.108 276.684 26.884ZM281.057 31.084C282.807 31.084 283.353 29.936 283.353 28.284V26.408C283.353 24.854 282.625 23.79 281.183 23.79C280.469 23.79 279.741 24.084 279.041 24.462C278.887 24.238 278.691 24.07 278.509 24.07C278.299 24.07 278.103 24.238 278.103 24.476C278.103 24.56 278.131 24.644 278.187 24.714C278.383 24.994 278.439 25.288 278.439 25.778V33.576C278.439 33.814 278.593 34.01 278.901 34.01C279.181 34.01 279.349 33.814 279.349 33.576V30.79C279.923 30.972 280.553 31.084 281.057 31.084ZM279.349 25.778C279.349 25.554 279.321 25.344 279.279 25.134C279.825 24.798 280.441 24.574 280.945 24.574C281.967 24.574 282.443 25.218 282.443 26.408V28.284C282.443 29.698 282.037 30.328 280.917 30.328C280.525 30.328 279.853 30.216 279.349 29.992V25.778ZM288.653 27.192C288.107 27.038 287.575 26.94 287.099 26.94C285.461 26.94 284.663 27.64 284.663 28.984V29.04C284.663 30.258 285.349 31.098 286.763 31.098C287.519 31.098 288.177 30.818 288.765 30.258C289.017 30.748 289.395 31.056 289.829 31.056C290.081 31.056 290.361 30.958 290.361 30.678C290.361 30.496 290.263 30.3 290.053 30.3C290.025 30.3 289.997 30.314 289.941 30.314C289.689 30.314 289.563 30.132 289.563 29.768V26.604C289.563 24.77 288.877 23.79 287.155 23.79C286.217 23.79 285.181 24.028 285.237 24.616C285.251 24.784 285.335 24.98 285.545 24.98C285.685 24.98 285.797 24.924 285.881 24.868C286.203 24.672 286.497 24.56 287.015 24.56C288.121 24.56 288.653 25.092 288.653 26.226V27.192ZM287.085 27.682C287.505 27.682 288.093 27.766 288.653 27.948V29.628C288.107 30.09 287.589 30.314 286.945 30.314C285.881 30.314 285.559 29.782 285.559 29.054V28.998C285.559 28.284 285.797 27.682 287.085 27.682ZM291.652 25.764C291.652 27.444 293.346 27.584 294.438 28.13C294.746 28.298 295.012 28.564 295.012 29.152C295.012 29.978 294.438 30.328 293.584 30.328C292.954 30.328 292.492 30.146 292.072 29.978C292.03 29.964 292.016 29.964 291.988 29.964C291.722 29.964 291.554 30.174 291.554 30.384C291.554 30.958 292.87 31.098 293.584 31.098C295.11 31.098 295.894 30.342 295.894 29.11C295.894 27.43 294.382 27.29 293.276 26.744C292.73 26.45 292.534 26.198 292.534 25.694C292.534 24.952 292.968 24.56 293.92 24.56C294.466 24.56 294.746 24.686 295.068 24.84C295.138 24.868 295.194 24.896 295.278 24.896C295.516 24.896 295.684 24.714 295.684 24.49C295.684 23.958 294.592 23.79 293.878 23.79C292.422 23.79 291.652 24.574 291.652 25.764ZM301.204 27.192C300.658 27.038 300.126 26.94 299.65 26.94C298.012 26.94 297.214 27.64 297.214 28.984V29.04C297.214 30.258 297.9 31.098 299.314 31.098C300.07 31.098 300.728 30.818 301.316 30.258C301.568 30.748 301.946 31.056 302.38 31.056C302.632 31.056 302.912 30.958 302.912 30.678C302.912 30.496 302.814 30.3 302.604 30.3C302.576 30.3 302.548 30.314 302.492 30.314C302.24 30.314 302.114 30.132 302.114 29.768V26.604C302.114 24.77 301.428 23.79 299.706 23.79C298.768 23.79 297.732 24.028 297.788 24.616C297.802 24.784 297.886 24.98 298.096 24.98C298.236 24.98 298.348 24.924 298.432 24.868C298.754 24.672 299.048 24.56 299.566 24.56C300.672 24.56 301.204 25.092 301.204 26.226V27.192ZM299.636 27.682C300.056 27.682 300.644 27.766 301.204 27.948V29.628C300.658 30.09 300.14 30.314 299.496 30.314C298.432 30.314 298.11 29.782 298.11 29.054V28.998C298.11 28.284 298.348 27.682 299.636 27.682ZM305.074 24.504C304.92 24.196 304.682 24.042 304.5 24.042C304.29 24.042 304.094 24.21 304.094 24.448C304.094 24.532 304.122 24.616 304.178 24.686C304.374 24.966 304.43 25.26 304.43 25.75V30.65C304.43 30.902 304.584 31.084 304.892 31.084C305.186 31.084 305.34 30.902 305.34 30.65V25.75C305.34 25.596 305.326 25.428 305.298 25.274C305.83 24.868 306.418 24.602 307.006 24.602C307.944 24.602 308.434 25.274 308.434 26.436V30.65C308.434 30.902 308.602 31.084 308.896 31.084C309.19 31.084 309.344 30.902 309.344 30.65V26.436C309.344 24.868 308.63 23.818 307.174 23.818C306.488 23.818 305.76 24.028 305.074 24.504ZM313.366 23.79C311.7 23.79 310.888 24.882 310.888 26.324C310.888 27.15 311.168 27.85 311.728 28.368C311.238 28.802 311.112 29.236 311.112 29.544C311.112 29.866 311.224 30.3 311.588 30.65C311.07 31.112 310.79 31.658 310.79 32.302C310.79 33.632 311.882 34.402 313.45 34.402C315.088 34.402 316.292 33.562 316.292 32.176C316.292 30.846 315.102 30.23 313.52 30.23H312.918C312.554 30.23 312.022 30.09 312.022 29.502C312.022 29.292 312.078 29.012 312.26 28.69C312.624 28.83 313.03 28.914 313.45 28.914C315.116 28.914 315.942 27.822 315.942 26.422V25.526C315.942 24.868 316.166 24.644 316.642 24.196L316.768 24.056C316.796 24.028 316.824 23.958 316.824 23.846C316.824 23.608 316.642 23.44 316.404 23.44C316.138 23.44 315.648 23.706 315.312 24.322C314.724 23.972 314.01 23.79 313.366 23.79ZM315.046 25.54V26.45C315.046 27.472 314.556 28.088 313.45 28.088C312.288 28.088 311.798 27.388 311.798 26.352C311.798 25.218 312.372 24.574 313.506 24.574C314.052 24.574 314.584 24.756 315.088 25.064C315.06 25.274 315.046 25.47 315.046 25.54ZM312.946 31.056H313.548C314.78 31.056 315.382 31.392 315.382 32.204C315.382 33.142 314.584 33.59 313.478 33.59C312.302 33.59 311.686 33.086 311.686 32.148C311.686 31.686 311.868 31.294 312.26 30.986C312.442 31.028 312.68 31.056 312.946 31.056ZM321.561 27.192C321.015 27.038 320.483 26.94 320.007 26.94C318.369 26.94 317.571 27.64 317.571 28.984V29.04C317.571 30.258 318.257 31.098 319.671 31.098C320.427 31.098 321.085 30.818 321.673 30.258C321.925 30.748 322.303 31.056 322.737 31.056C322.989 31.056 323.269 30.958 323.269 30.678C323.269 30.496 323.171 30.3 322.961 30.3C322.933 30.3 322.905 30.314 322.849 30.314C322.597 30.314 322.471 30.132 322.471 29.768V26.604C322.471 24.77 321.785 23.79 320.063 23.79C319.125 23.79 318.089 24.028 318.145 24.616C318.159 24.784 318.243 24.98 318.453 24.98C318.593 24.98 318.705 24.924 318.789 24.868C319.111 24.672 319.405 24.56 319.923 24.56C321.029 24.56 321.561 25.092 321.561 26.226V27.192ZM319.993 27.682C320.413 27.682 321.001 27.766 321.561 27.948V29.628C321.015 30.09 320.497 30.314 319.853 30.314C318.789 30.314 318.467 29.782 318.467 29.054V28.998C318.467 28.284 318.705 27.682 319.993 27.682ZM325.431 24.504C325.277 24.196 325.039 24.042 324.857 24.042C324.647 24.042 324.451 24.21 324.451 24.448C324.451 24.532 324.479 24.616 324.535 24.686C324.731 24.966 324.787 25.26 324.787 25.75V30.65C324.787 30.902 324.941 31.084 325.249 31.084C325.543 31.084 325.697 30.902 325.697 30.65V25.75C325.697 25.596 325.683 25.428 325.655 25.274C326.187 24.868 326.775 24.602 327.363 24.602C328.301 24.602 328.791 25.274 328.791 26.436V30.65C328.791 30.902 328.959 31.084 329.253 31.084C329.547 31.084 329.701 30.902 329.701 30.65V26.436C329.701 24.868 328.987 23.818 327.531 23.818C326.845 23.818 326.117 24.028 325.431 24.504ZM333.016 30.454C333.016 30.104 332.736 29.796 332.372 29.796C332.008 29.796 331.7 30.104 331.7 30.454C331.7 30.832 332.008 31.126 332.372 31.126C332.736 31.126 333.016 30.832 333.016 30.454ZM24.9014 47.262C26.7914 47.262 27.9954 46.184 27.9954 44.224C27.9954 42.6 27.1834 41.116 24.9014 41.116H22.8014C22.4794 41.116 22.2134 41.382 22.2134 41.704V50.636C22.2134 50.916 22.4374 51.126 22.6754 51.126C22.9414 51.126 23.1374 50.902 23.1374 50.636V47.262H24.9014ZM23.1374 42.012H24.9014C26.6654 42.012 27.0714 43.118 27.0714 44.21C27.0714 45.68 26.3294 46.366 24.9014 46.366H23.1374V42.012ZM31.7806 50.328C30.6606 50.328 30.0866 49.754 30.0866 48.9V47.906C30.6326 48.018 31.2066 48.06 31.6686 48.06C33.3066 48.06 33.9926 47.29 33.9926 46.03C33.9926 44.672 33.2506 43.79 31.7246 43.79C30.0726 43.79 29.1766 44.798 29.1766 46.128V48.816C29.1766 50.104 30.0726 51.098 31.6406 51.098C32.3826 51.098 33.8666 50.902 33.8666 50.272C33.8666 50.076 33.6986 49.88 33.4746 49.88C33.4186 49.88 33.3486 49.908 33.3206 49.922C32.8166 50.146 32.4246 50.328 31.7806 50.328ZM33.0966 46.03C33.0966 46.688 32.9006 47.318 31.7246 47.318C31.4306 47.318 30.6886 47.29 30.0866 47.206V46.016C30.0866 45.148 30.6746 44.588 31.6826 44.588C32.5786 44.588 33.0966 45.008 33.0966 46.03ZM36.6465 45.778C36.6465 45.358 36.6325 45.344 36.6325 45.344V45.33C37.4025 44.756 37.9345 44.756 38.5645 44.77C38.8025 44.784 39.0125 44.574 39.0125 44.294C39.0125 44.042 38.8585 43.846 38.3685 43.846C37.8505 43.846 37.0245 44.084 36.3665 44.504C36.2125 44.252 36.0025 44.07 35.8205 44.07C35.5965 44.07 35.4005 44.238 35.4005 44.476C35.4005 44.56 35.4285 44.644 35.4845 44.714C35.6805 44.994 35.7365 45.288 35.7365 45.778V50.65C35.7365 50.902 35.9325 51.098 36.1985 51.098C36.4365 51.098 36.6465 50.902 36.6465 50.65V45.778ZM41.2937 41.2C41.2937 40.948 41.0837 40.738 40.8457 40.738C40.5797 40.738 40.3837 40.948 40.3837 41.2V50.65C40.3837 50.902 40.5797 51.098 40.8457 51.098C41.0837 51.098 41.2937 50.902 41.2937 50.65V48.046L41.9377 47.374L44.2477 50.888C44.3317 51.028 44.4577 51.098 44.6257 51.098C44.8637 51.098 45.0737 50.958 45.0597 50.734C45.0597 50.664 45.0177 50.524 44.9757 50.468L42.4977 46.786L44.6817 44.56C44.7517 44.49 44.7797 44.392 44.7797 44.266C44.7797 44.028 44.5977 43.846 44.3597 43.846C44.2617 43.846 44.1497 43.874 44.0937 43.944L41.2937 46.842V41.2ZM48.5696 50.328C47.4496 50.328 46.8756 49.754 46.8756 48.9V47.906C47.4216 48.018 47.9956 48.06 48.4576 48.06C50.0956 48.06 50.7816 47.29 50.7816 46.03C50.7816 44.672 50.0396 43.79 48.5136 43.79C46.8616 43.79 45.9656 44.798 45.9656 46.128V48.816C45.9656 50.104 46.8616 51.098 48.4296 51.098C49.1716 51.098 50.6556 50.902 50.6556 50.272C50.6556 50.076 50.4876 49.88 50.2636 49.88C50.2076 49.88 50.1376 49.908 50.1096 49.922C49.6056 50.146 49.2136 50.328 48.5696 50.328ZM49.8856 46.03C49.8856 46.688 49.6896 47.318 48.5136 47.318C48.2196 47.318 47.4776 47.29 46.8756 47.206V46.016C46.8756 45.148 47.4636 44.588 48.4716 44.588C49.3676 44.588 49.8856 45.008 49.8856 46.03ZM53.1556 44.504C53.0016 44.196 52.7636 44.042 52.5816 44.042C52.3716 44.042 52.1756 44.21 52.1756 44.448C52.1756 44.532 52.2036 44.616 52.2596 44.686C52.4556 44.966 52.5116 45.26 52.5116 45.75V50.65C52.5116 50.902 52.6656 51.084 52.9736 51.084C53.2676 51.084 53.4216 50.902 53.4216 50.65V45.75C53.4216 45.596 53.4076 45.428 53.3796 45.274C53.9116 44.868 54.4996 44.602 55.0876 44.602C56.0256 44.602 56.5156 45.274 56.5156 46.436V50.65C56.5156 50.902 56.6836 51.084 56.9776 51.084C57.2716 51.084 57.4256 50.902 57.4256 50.65V46.436C57.4256 44.868 56.7116 43.818 55.2556 43.818C54.5696 43.818 53.8416 44.028 53.1556 44.504ZM63.1627 47.192C62.6167 47.038 62.0847 46.94 61.6087 46.94C59.9707 46.94 59.1727 47.64 59.1727 48.984V49.04C59.1727 50.258 59.8587 51.098 61.2727 51.098C62.0287 51.098 62.6867 50.818 63.2747 50.258C63.5267 50.748 63.9047 51.056 64.3387 51.056C64.5907 51.056 64.8707 50.958 64.8707 50.678C64.8707 50.496 64.7727 50.3 64.5627 50.3C64.5347 50.3 64.5067 50.314 64.4507 50.314C64.1987 50.314 64.0727 50.132 64.0727 49.768V46.604C64.0727 44.77 63.3867 43.79 61.6647 43.79C60.7267 43.79 59.6907 44.028 59.7467 44.616C59.7607 44.784 59.8447 44.98 60.0547 44.98C60.1947 44.98 60.3067 44.924 60.3907 44.868C60.7127 44.672 61.0067 44.56 61.5247 44.56C62.6307 44.56 63.1627 45.092 63.1627 46.226V47.192ZM61.5947 47.682C62.0147 47.682 62.6027 47.766 63.1627 47.948V49.628C62.6167 50.09 62.0987 50.314 61.4547 50.314C60.3907 50.314 60.0687 49.782 60.0687 49.054V48.998C60.0687 48.284 60.3067 47.682 61.5947 47.682ZM67.0326 44.504C66.8786 44.196 66.6406 44.042 66.4586 44.042C66.2486 44.042 66.0526 44.21 66.0526 44.448C66.0526 44.532 66.0806 44.616 66.1366 44.686C66.3326 44.966 66.3886 45.26 66.3886 45.75V50.65C66.3886 50.902 66.5426 51.084 66.8506 51.084C67.1446 51.084 67.2986 50.902 67.2986 50.65V45.75C67.2986 45.596 67.2846 45.428 67.2566 45.274C67.7886 44.868 68.3766 44.602 68.9646 44.602C69.9026 44.602 70.3926 45.274 70.3926 46.436V50.65C70.3926 50.902 70.5606 51.084 70.8546 51.084C71.1486 51.084 71.3026 50.902 71.3026 50.65V46.436C71.3026 44.868 70.5886 43.818 69.1326 43.818C68.4466 43.818 67.7186 44.028 67.0326 44.504ZM74.3796 41.2C74.3796 40.948 74.1696 40.738 73.9316 40.738C73.6656 40.738 73.4696 40.948 73.4696 41.2V50.65C73.4696 50.902 73.6656 51.098 73.9316 51.098C74.1696 51.098 74.3796 50.902 74.3796 50.65V48.046L75.0236 47.374L77.3336 50.888C77.4176 51.028 77.5436 51.098 77.7116 51.098C77.9496 51.098 78.1596 50.958 78.1456 50.734C78.1456 50.664 78.1036 50.524 78.0616 50.468L75.5836 46.786L77.7676 44.56C77.8376 44.49 77.8656 44.392 77.8656 44.266C77.8656 44.028 77.6836 43.846 77.4456 43.846C77.3476 43.846 77.2356 43.874 77.1796 43.944L74.3796 46.842V41.2ZM83.1373 47.192C82.5913 47.038 82.0593 46.94 81.5833 46.94C79.9453 46.94 79.1473 47.64 79.1473 48.984V49.04C79.1473 50.258 79.8333 51.098 81.2473 51.098C82.0033 51.098 82.6613 50.818 83.2493 50.258C83.5013 50.748 83.8793 51.056 84.3133 51.056C84.5653 51.056 84.8453 50.958 84.8453 50.678C84.8453 50.496 84.7473 50.3 84.5373 50.3C84.5093 50.3 84.4813 50.314 84.4253 50.314C84.1733 50.314 84.0473 50.132 84.0473 49.768V46.604C84.0473 44.77 83.3613 43.79 81.6393 43.79C80.7013 43.79 79.6653 44.028 79.7213 44.616C79.7353 44.784 79.8193 44.98 80.0293 44.98C80.1693 44.98 80.2813 44.924 80.3653 44.868C80.6873 44.672 80.9813 44.56 81.4993 44.56C82.6053 44.56 83.1373 45.092 83.1373 46.226V47.192ZM81.5693 47.682C81.9893 47.682 82.5773 47.766 83.1373 47.948V49.628C82.5913 50.09 82.0733 50.314 81.4293 50.314C80.3653 50.314 80.0433 49.782 80.0433 49.054V48.998C80.0433 48.284 80.2813 47.682 81.5693 47.682ZM87.0072 44.504C86.8532 44.196 86.6152 44.042 86.4332 44.042C86.2232 44.042 86.0272 44.21 86.0272 44.448C86.0272 44.532 86.0552 44.616 86.1112 44.686C86.3072 44.966 86.3632 45.26 86.3632 45.75V50.65C86.3632 50.902 86.5172 51.084 86.8252 51.084C87.1192 51.084 87.2732 50.902 87.2732 50.65V45.75C87.2732 45.596 87.2592 45.428 87.2312 45.274C87.7632 44.868 88.3512 44.602 88.9392 44.602C89.8772 44.602 90.3672 45.274 90.3672 46.436V50.65C90.3672 50.902 90.5352 51.084 90.8292 51.084C91.1232 51.084 91.2772 50.902 91.2772 50.65V46.436C91.2772 44.868 90.5632 43.818 89.1072 43.818C88.4212 43.818 87.6932 44.028 87.0072 44.504ZM93.4722 49.74C93.4722 50.944 93.9622 51.098 94.2702 51.098C94.5082 51.098 94.6762 50.93 94.6762 50.692C94.6762 50.636 94.6482 50.538 94.6202 50.496C94.4382 50.3 94.3682 50.062 94.3682 49.74V41.2C94.3682 40.948 94.1722 40.738 93.9202 40.738C93.6682 40.738 93.4722 40.962 93.4722 41.2V49.74ZM100.2 47.192C99.6538 47.038 99.1218 46.94 98.6458 46.94C97.0078 46.94 96.2098 47.64 96.2098 48.984V49.04C96.2098 50.258 96.8958 51.098 98.3098 51.098C99.0658 51.098 99.7238 50.818 100.312 50.258C100.564 50.748 100.942 51.056 101.376 51.056C101.628 51.056 101.908 50.958 101.908 50.678C101.908 50.496 101.81 50.3 101.6 50.3C101.572 50.3 101.544 50.314 101.488 50.314C101.236 50.314 101.11 50.132 101.11 49.768V46.604C101.11 44.77 100.424 43.79 98.7018 43.79C97.7638 43.79 96.7278 44.028 96.7838 44.616C96.7978 44.784 96.8818 44.98 97.0918 44.98C97.2318 44.98 97.3438 44.924 97.4278 44.868C97.7498 44.672 98.0438 44.56 98.5618 44.56C99.6678 44.56 100.2 45.092 100.2 46.226V47.192ZM98.6318 47.682C99.0518 47.682 99.6398 47.766 100.2 47.948V49.628C99.6538 50.09 99.1358 50.314 98.4918 50.314C97.4278 50.314 97.1058 49.782 97.1058 49.054V48.998C97.1058 48.284 97.3438 47.682 98.6318 47.682ZM104.266 50.65V45.54C104.742 44.91 105.456 44.616 106.058 44.616C107.024 44.616 107.416 45.148 107.416 46.1V50.65C107.416 50.902 107.626 51.098 107.878 51.098C108.13 51.098 108.326 50.902 108.326 50.65V46.086C108.326 44.742 107.668 43.79 106.198 43.79C105.54 43.79 104.868 44.056 104.266 44.518V41.116C104.266 40.85 104.07 40.654 103.818 40.654C103.566 40.654 103.384 40.892 103.384 41.116V50.65C103.384 50.902 103.58 51.098 103.846 51.098C104.084 51.098 104.266 50.902 104.266 50.65ZM115.587 41.2C115.587 40.948 115.377 40.738 115.139 40.738C114.873 40.738 114.677 40.948 114.677 41.2V50.65C114.677 50.902 114.873 51.098 115.139 51.098C115.377 51.098 115.587 50.902 115.587 50.65V48.046L116.231 47.374L118.541 50.888C118.625 51.028 118.751 51.098 118.919 51.098C119.157 51.098 119.367 50.958 119.353 50.734C119.353 50.664 119.311 50.524 119.269 50.468L116.791 46.786L118.975 44.56C119.045 44.49 119.073 44.392 119.073 44.266C119.073 44.028 118.891 43.846 118.653 43.846C118.555 43.846 118.443 43.874 118.387 43.944L115.587 46.842V41.2ZM124.344 47.192C123.798 47.038 123.266 46.94 122.79 46.94C121.152 46.94 120.354 47.64 120.354 48.984V49.04C120.354 50.258 121.04 51.098 122.454 51.098C123.21 51.098 123.868 50.818 124.456 50.258C124.708 50.748 125.086 51.056 125.52 51.056C125.772 51.056 126.052 50.958 126.052 50.678C126.052 50.496 125.954 50.3 125.744 50.3C125.716 50.3 125.688 50.314 125.632 50.314C125.38 50.314 125.254 50.132 125.254 49.768V46.604C125.254 44.77 124.568 43.79 122.846 43.79C121.908 43.79 120.872 44.028 120.928 44.616C120.942 44.784 121.026 44.98 121.236 44.98C121.376 44.98 121.488 44.924 121.572 44.868C121.894 44.672 122.188 44.56 122.706 44.56C123.812 44.56 124.344 45.092 124.344 46.226V47.192ZM122.776 47.682C123.196 47.682 123.784 47.766 124.344 47.948V49.628C123.798 50.09 123.28 50.314 122.636 50.314C121.572 50.314 121.25 49.782 121.25 49.054V48.998C121.25 48.284 121.488 47.682 122.776 47.682ZM128.158 44.476C128.004 44.168 127.794 44.042 127.612 44.042C127.402 44.042 127.206 44.21 127.206 44.448C127.206 44.532 127.234 44.616 127.29 44.686C127.486 44.966 127.542 45.26 127.542 45.75V50.65C127.542 50.902 127.696 51.084 128.004 51.084C128.298 51.084 128.452 50.902 128.452 50.65V45.75C128.452 45.568 128.438 45.414 128.41 45.246C128.858 44.91 129.544 44.602 130.188 44.602C131.308 44.602 131.49 45.372 131.49 46.464V50.65C131.49 50.902 131.644 51.084 131.952 51.084C132.26 51.084 132.4 50.902 132.4 50.65V46.142C132.4 45.876 132.372 45.652 132.33 45.442C132.708 44.966 133.366 44.602 134.024 44.602C134.99 44.602 135.438 45.302 135.438 46.17V50.65C135.438 50.902 135.606 51.084 135.9 51.084C136.208 51.084 136.348 50.902 136.348 50.65V46.142C136.348 44.742 135.55 43.79 134.066 43.79C133.296 43.79 132.596 44.084 131.952 44.574C131.56 44.07 131.042 43.79 130.3 43.79C129.558 43.79 128.83 44.042 128.158 44.476ZM139.615 41.466C139.615 41.13 139.349 40.878 139.041 40.878C138.705 40.878 138.453 41.13 138.453 41.466C138.453 41.774 138.705 42.04 139.041 42.04C139.349 42.04 139.615 41.774 139.615 41.466ZM139.489 50.65V44.294C139.489 44.042 139.279 43.832 139.041 43.832C138.775 43.832 138.579 44.042 138.579 44.294V50.65C138.579 50.902 138.775 51.098 139.041 51.098C139.279 51.098 139.489 50.902 139.489 50.65ZM146.684 44.476C146.53 44.168 146.32 44.042 146.138 44.042C145.928 44.042 145.732 44.21 145.732 44.448C145.732 44.532 145.76 44.616 145.816 44.686C146.012 44.966 146.068 45.26 146.068 45.75V50.65C146.068 50.902 146.222 51.084 146.53 51.084C146.824 51.084 146.978 50.902 146.978 50.65V45.75C146.978 45.568 146.964 45.414 146.936 45.246C147.384 44.91 148.07 44.602 148.714 44.602C149.834 44.602 150.016 45.372 150.016 46.464V50.65C150.016 50.902 150.17 51.084 150.478 51.084C150.786 51.084 150.926 50.902 150.926 50.65V46.142C150.926 45.876 150.898 45.652 150.856 45.442C151.234 44.966 151.892 44.602 152.55 44.602C153.516 44.602 153.964 45.302 153.964 46.17V50.65C153.964 50.902 154.132 51.084 154.426 51.084C154.734 51.084 154.874 50.902 154.874 50.65V46.142C154.874 44.742 154.076 43.79 152.592 43.79C151.822 43.79 151.122 44.084 150.478 44.574C150.086 44.07 149.568 43.79 148.826 43.79C148.084 43.79 147.356 44.042 146.684 44.476ZM159.134 50.328C158.014 50.328 157.44 49.754 157.44 48.9V47.906C157.986 48.018 158.56 48.06 159.022 48.06C160.66 48.06 161.346 47.29 161.346 46.03C161.346 44.672 160.604 43.79 159.078 43.79C157.426 43.79 156.53 44.798 156.53 46.128V48.816C156.53 50.104 157.426 51.098 158.994 51.098C159.736 51.098 161.22 50.902 161.22 50.272C161.22 50.076 161.052 49.88 160.828 49.88C160.772 49.88 160.702 49.908 160.674 49.922C160.17 50.146 159.778 50.328 159.134 50.328ZM160.45 46.03C160.45 46.688 160.254 47.318 159.078 47.318C158.784 47.318 158.042 47.29 157.44 47.206V46.016C157.44 45.148 158.028 44.588 159.036 44.588C159.932 44.588 160.45 45.008 160.45 46.03ZM163.72 44.504C163.566 44.196 163.328 44.042 163.146 44.042C162.936 44.042 162.74 44.21 162.74 44.448C162.74 44.532 162.768 44.616 162.824 44.686C163.02 44.966 163.076 45.26 163.076 45.75V50.65C163.076 50.902 163.23 51.084 163.538 51.084C163.832 51.084 163.986 50.902 163.986 50.65V45.75C163.986 45.596 163.972 45.428 163.944 45.274C164.476 44.868 165.064 44.602 165.652 44.602C166.59 44.602 167.08 45.274 167.08 46.436V50.65C167.08 50.902 167.248 51.084 167.542 51.084C167.836 51.084 167.99 50.902 167.99 50.65V46.436C167.99 44.868 167.276 43.818 165.82 43.818C165.134 43.818 164.406 44.028 163.72 44.504ZM171.347 41.466C171.347 41.13 171.081 40.878 170.773 40.878C170.437 40.878 170.185 41.13 170.185 41.466C170.185 41.774 170.437 42.04 170.773 42.04C171.081 42.04 171.347 41.774 171.347 41.466ZM171.221 50.65V44.294C171.221 44.042 171.011 43.832 170.773 43.832C170.507 43.832 170.311 44.042 170.311 44.294V50.65C170.311 50.902 170.507 51.098 170.773 51.098C171.011 51.098 171.221 50.902 171.221 50.65ZM174.499 41.2C174.499 40.948 174.289 40.738 174.051 40.738C173.785 40.738 173.589 40.948 173.589 41.2V50.65C173.589 50.902 173.785 51.098 174.051 51.098C174.289 51.098 174.499 50.902 174.499 50.65V48.046L175.143 47.374L177.453 50.888C177.537 51.028 177.663 51.098 177.831 51.098C178.069 51.098 178.279 50.958 178.265 50.734C178.265 50.664 178.223 50.524 178.181 50.468L175.703 46.786L177.887 44.56C177.957 44.49 177.985 44.392 177.985 44.266C177.985 44.028 177.803 43.846 177.565 43.846C177.467 43.846 177.355 43.874 177.299 43.944L174.499 46.842V41.2ZM183.256 47.192C182.71 47.038 182.178 46.94 181.702 46.94C180.064 46.94 179.266 47.64 179.266 48.984V49.04C179.266 50.258 179.952 51.098 181.366 51.098C182.122 51.098 182.78 50.818 183.368 50.258C183.62 50.748 183.998 51.056 184.432 51.056C184.684 51.056 184.964 50.958 184.964 50.678C184.964 50.496 184.866 50.3 184.656 50.3C184.628 50.3 184.6 50.314 184.544 50.314C184.292 50.314 184.166 50.132 184.166 49.768V46.604C184.166 44.77 183.48 43.79 181.758 43.79C180.82 43.79 179.784 44.028 179.84 44.616C179.854 44.784 179.938 44.98 180.148 44.98C180.288 44.98 180.4 44.924 180.484 44.868C180.806 44.672 181.1 44.56 181.618 44.56C182.724 44.56 183.256 45.092 183.256 46.226V47.192ZM181.688 47.682C182.108 47.682 182.696 47.766 183.256 47.948V49.628C182.71 50.09 182.192 50.314 181.548 50.314C180.484 50.314 180.162 49.782 180.162 49.054V48.998C180.162 48.284 180.4 47.682 181.688 47.682ZM187.322 50.65V45.54C187.798 44.91 188.512 44.616 189.114 44.616C190.08 44.616 190.472 45.148 190.472 46.1V50.65C190.472 50.902 190.682 51.098 190.934 51.098C191.186 51.098 191.382 50.902 191.382 50.65V46.086C191.382 44.742 190.724 43.79 189.254 43.79C188.596 43.79 187.924 44.056 187.322 44.518V41.116C187.322 40.85 187.126 40.654 186.874 40.654C186.622 40.654 186.44 40.892 186.44 41.116V50.65C186.44 50.902 186.636 51.098 186.902 51.098C187.14 51.098 187.322 50.902 187.322 50.65ZM194.446 41.2C194.446 40.948 194.236 40.738 193.998 40.738C193.732 40.738 193.536 40.948 193.536 41.2V50.65C193.536 50.902 193.732 51.098 193.998 51.098C194.236 51.098 194.446 50.902 194.446 50.65V48.046L195.09 47.374L197.4 50.888C197.484 51.028 197.61 51.098 197.778 51.098C198.016 51.098 198.226 50.958 198.212 50.734C198.212 50.664 198.17 50.524 198.128 50.468L195.65 46.786L197.834 44.56C197.904 44.49 197.932 44.392 197.932 44.266C197.932 44.028 197.75 43.846 197.512 43.846C197.414 43.846 197.302 43.874 197.246 43.944L194.446 46.842V41.2ZM203.204 47.192C202.658 47.038 202.126 46.94 201.65 46.94C200.012 46.94 199.214 47.64 199.214 48.984V49.04C199.214 50.258 199.9 51.098 201.314 51.098C202.07 51.098 202.728 50.818 203.316 50.258C203.568 50.748 203.946 51.056 204.38 51.056C204.632 51.056 204.912 50.958 204.912 50.678C204.912 50.496 204.814 50.3 204.604 50.3C204.576 50.3 204.548 50.314 204.492 50.314C204.24 50.314 204.114 50.132 204.114 49.768V46.604C204.114 44.77 203.428 43.79 201.706 43.79C200.768 43.79 199.732 44.028 199.788 44.616C199.802 44.784 199.886 44.98 200.096 44.98C200.236 44.98 200.348 44.924 200.432 44.868C200.754 44.672 201.048 44.56 201.566 44.56C202.672 44.56 203.204 45.092 203.204 46.226V47.192ZM201.636 47.682C202.056 47.682 202.644 47.766 203.204 47.948V49.628C202.658 50.09 202.14 50.314 201.496 50.314C200.432 50.314 200.11 49.782 200.11 49.054V48.998C200.11 48.284 200.348 47.682 201.636 47.682ZM207.074 44.504C206.92 44.196 206.682 44.042 206.5 44.042C206.29 44.042 206.094 44.21 206.094 44.448C206.094 44.532 206.122 44.616 206.178 44.686C206.374 44.966 206.43 45.26 206.43 45.75V50.65C206.43 50.902 206.584 51.084 206.892 51.084C207.186 51.084 207.34 50.902 207.34 50.65V45.75C207.34 45.596 207.326 45.428 207.298 45.274C207.83 44.868 208.418 44.602 209.006 44.602C209.944 44.602 210.434 45.274 210.434 46.436V50.65C210.434 50.902 210.602 51.084 210.896 51.084C211.19 51.084 211.344 50.902 211.344 50.65V46.436C211.344 44.868 210.63 43.818 209.174 43.818C208.488 43.818 207.76 44.028 207.074 44.504ZM220.368 51.084C222.118 51.084 222.664 49.936 222.664 48.284V46.408C222.664 44.854 221.936 43.79 220.494 43.79C219.78 43.79 219.052 44.084 218.352 44.462C218.198 44.238 218.002 44.07 217.82 44.07C217.61 44.07 217.414 44.238 217.414 44.476C217.414 44.56 217.442 44.644 217.498 44.714C217.694 44.994 217.75 45.288 217.75 45.778V53.576C217.75 53.814 217.904 54.01 218.212 54.01C218.492 54.01 218.66 53.814 218.66 53.576V50.79C219.234 50.972 219.864 51.084 220.368 51.084ZM218.66 45.778C218.66 45.554 218.632 45.344 218.59 45.134C219.136 44.798 219.752 44.574 220.256 44.574C221.278 44.574 221.754 45.218 221.754 46.408V48.284C221.754 49.698 221.348 50.328 220.228 50.328C219.836 50.328 219.164 50.216 218.66 49.992V45.778ZM228.397 49.32C228.397 49.502 228.411 49.642 228.425 49.782C227.907 50.118 227.319 50.314 226.731 50.314C225.793 50.314 225.289 49.642 225.289 48.494V44.28C225.289 44.028 225.135 43.832 224.841 43.832C224.547 43.832 224.379 44.028 224.379 44.28V48.494C224.379 50.048 225.121 51.098 226.577 51.098C227.235 51.098 227.977 50.944 228.649 50.552C228.831 50.832 229.013 51.014 229.251 51.014C229.475 51.014 229.671 50.846 229.671 50.622C229.671 50.482 229.545 50.328 229.461 50.23C229.377 50.132 229.307 50.02 229.307 49.32V44.28C229.307 44.028 229.153 43.832 228.859 43.832C228.551 43.832 228.397 44.028 228.397 44.28V49.32ZM231.53 48.172C231.53 50.09 232.006 51.042 233.938 51.042C234.274 51.042 234.638 51 234.638 50.608C234.638 50.23 234.274 50.188 234.008 50.188C233.91 50.188 233.826 50.202 233.728 50.202C232.594 50.202 232.426 49.628 232.426 48.074V45.078H234.05C234.274 45.078 234.456 44.896 234.456 44.672C234.456 44.42 234.274 44.238 234.05 44.238H232.426V42.138C232.426 41.9 232.272 41.69 231.978 41.69C231.684 41.69 231.53 41.9 231.53 42.138V48.172ZM237.008 45.778C237.008 45.358 236.994 45.344 236.994 45.344V45.33C237.764 44.756 238.296 44.756 238.926 44.77C239.164 44.784 239.374 44.574 239.374 44.294C239.374 44.042 239.22 43.846 238.73 43.846C238.212 43.846 237.386 44.084 236.728 44.504C236.574 44.252 236.364 44.07 236.182 44.07C235.958 44.07 235.762 44.238 235.762 44.476C235.762 44.56 235.79 44.644 235.846 44.714C236.042 44.994 236.098 45.288 236.098 45.778V50.65C236.098 50.902 236.294 51.098 236.56 51.098C236.798 51.098 237.008 50.902 237.008 50.65V45.778ZM244.233 47.192C243.687 47.038 243.155 46.94 242.679 46.94C241.041 46.94 240.243 47.64 240.243 48.984V49.04C240.243 50.258 240.929 51.098 242.343 51.098C243.099 51.098 243.757 50.818 244.345 50.258C244.597 50.748 244.975 51.056 245.409 51.056C245.661 51.056 245.941 50.958 245.941 50.678C245.941 50.496 245.843 50.3 245.633 50.3C245.605 50.3 245.577 50.314 245.521 50.314C245.269 50.314 245.143 50.132 245.143 49.768V46.604C245.143 44.77 244.457 43.79 242.735 43.79C241.797 43.79 240.761 44.028 240.817 44.616C240.831 44.784 240.915 44.98 241.125 44.98C241.265 44.98 241.377 44.924 241.461 44.868C241.783 44.672 242.077 44.56 242.595 44.56C243.701 44.56 244.233 45.092 244.233 46.226V47.192ZM242.665 47.682C243.085 47.682 243.673 47.766 244.233 47.948V49.628C243.687 50.09 243.169 50.314 242.525 50.314C241.461 50.314 241.139 49.782 241.139 49.054V48.998C241.139 48.284 241.377 47.682 242.665 47.682ZM251.295 46.884C251.295 46.646 251.127 46.45 250.903 46.45H247.333C247.095 46.45 246.913 46.646 246.913 46.884C246.913 47.108 247.095 47.276 247.333 47.276H250.903C251.127 47.276 251.295 47.108 251.295 46.884ZM255.669 51.084C257.419 51.084 257.965 49.936 257.965 48.284V46.408C257.965 44.854 257.237 43.79 255.795 43.79C255.081 43.79 254.353 44.084 253.653 44.462C253.499 44.238 253.303 44.07 253.121 44.07C252.911 44.07 252.715 44.238 252.715 44.476C252.715 44.56 252.743 44.644 252.799 44.714C252.995 44.994 253.051 45.288 253.051 45.778V53.576C253.051 53.814 253.205 54.01 253.513 54.01C253.793 54.01 253.961 53.814 253.961 53.576V50.79C254.535 50.972 255.165 51.084 255.669 51.084ZM253.961 45.778C253.961 45.554 253.933 45.344 253.891 45.134C254.437 44.798 255.053 44.574 255.557 44.574C256.579 44.574 257.055 45.218 257.055 46.408V48.284C257.055 49.698 256.649 50.328 255.529 50.328C255.137 50.328 254.465 50.216 253.961 49.992V45.778ZM263.698 49.32C263.698 49.502 263.712 49.642 263.726 49.782C263.208 50.118 262.62 50.314 262.032 50.314C261.094 50.314 260.59 49.642 260.59 48.494V44.28C260.59 44.028 260.436 43.832 260.142 43.832C259.848 43.832 259.68 44.028 259.68 44.28V48.494C259.68 50.048 260.422 51.098 261.878 51.098C262.536 51.098 263.278 50.944 263.95 50.552C264.132 50.832 264.314 51.014 264.552 51.014C264.776 51.014 264.972 50.846 264.972 50.622C264.972 50.482 264.846 50.328 264.762 50.23C264.678 50.132 264.608 50.02 264.608 49.32V44.28C264.608 44.028 264.454 43.832 264.16 43.832C263.852 43.832 263.698 44.028 263.698 44.28V49.32ZM266.831 48.172C266.831 50.09 267.307 51.042 269.239 51.042C269.575 51.042 269.939 51 269.939 50.608C269.939 50.23 269.575 50.188 269.309 50.188C269.211 50.188 269.127 50.202 269.029 50.202C267.895 50.202 267.727 49.628 267.727 48.074V45.078H269.351C269.575 45.078 269.757 44.896 269.757 44.672C269.757 44.42 269.575 44.238 269.351 44.238H267.727V42.138C267.727 41.9 267.573 41.69 267.279 41.69C266.985 41.69 266.831 41.9 266.831 42.138V48.172ZM272.309 45.778C272.309 45.358 272.295 45.344 272.295 45.344V45.33C273.065 44.756 273.597 44.756 274.227 44.77C274.465 44.784 274.675 44.574 274.675 44.294C274.675 44.042 274.521 43.846 274.031 43.846C273.513 43.846 272.687 44.084 272.029 44.504C271.875 44.252 271.665 44.07 271.483 44.07C271.259 44.07 271.063 44.238 271.063 44.476C271.063 44.56 271.091 44.644 271.147 44.714C271.343 44.994 271.399 45.288 271.399 45.778V50.65C271.399 50.902 271.595 51.098 271.861 51.098C272.099 51.098 272.309 50.902 272.309 50.65V45.778ZM277.167 41.466C277.167 41.13 276.901 40.878 276.593 40.878C276.257 40.878 276.005 41.13 276.005 41.466C276.005 41.774 276.257 42.04 276.593 42.04C276.901 42.04 277.167 41.774 277.167 41.466ZM277.041 50.65V44.294C277.041 44.042 276.831 43.832 276.593 43.832C276.327 43.832 276.131 44.042 276.131 44.294V50.65C276.131 50.902 276.327 51.098 276.593 51.098C276.831 51.098 277.041 50.902 277.041 50.65ZM284.516 41.2C284.516 40.948 284.306 40.738 284.068 40.738C283.802 40.738 283.606 40.948 283.606 41.2V50.65C283.606 50.902 283.802 51.098 284.068 51.098C284.306 51.098 284.516 50.902 284.516 50.65V48.046L285.16 47.374L287.47 50.888C287.554 51.028 287.68 51.098 287.848 51.098C288.086 51.098 288.296 50.958 288.282 50.734C288.282 50.664 288.24 50.524 288.198 50.468L285.72 46.786L287.904 44.56C287.974 44.49 288.002 44.392 288.002 44.266C288.002 44.028 287.82 43.846 287.582 43.846C287.484 43.846 287.372 43.874 287.316 43.944L284.516 46.842V41.2ZM293.274 47.192C292.728 47.038 292.196 46.94 291.72 46.94C290.082 46.94 289.284 47.64 289.284 48.984V49.04C289.284 50.258 289.97 51.098 291.384 51.098C292.14 51.098 292.798 50.818 293.386 50.258C293.638 50.748 294.016 51.056 294.45 51.056C294.702 51.056 294.982 50.958 294.982 50.678C294.982 50.496 294.884 50.3 294.674 50.3C294.646 50.3 294.618 50.314 294.562 50.314C294.31 50.314 294.184 50.132 294.184 49.768V46.604C294.184 44.77 293.498 43.79 291.776 43.79C290.838 43.79 289.802 44.028 289.858 44.616C289.872 44.784 289.956 44.98 290.166 44.98C290.306 44.98 290.418 44.924 290.502 44.868C290.824 44.672 291.118 44.56 291.636 44.56C292.742 44.56 293.274 45.092 293.274 46.226V47.192ZM291.706 47.682C292.126 47.682 292.714 47.766 293.274 47.948V49.628C292.728 50.09 292.21 50.314 291.566 50.314C290.502 50.314 290.18 49.782 290.18 49.054V48.998C290.18 48.284 290.418 47.682 291.706 47.682ZM297.088 44.476C296.934 44.168 296.724 44.042 296.542 44.042C296.332 44.042 296.136 44.21 296.136 44.448C296.136 44.532 296.164 44.616 296.22 44.686C296.416 44.966 296.472 45.26 296.472 45.75V50.65C296.472 50.902 296.626 51.084 296.934 51.084C297.228 51.084 297.382 50.902 297.382 50.65V45.75C297.382 45.568 297.368 45.414 297.34 45.246C297.788 44.91 298.474 44.602 299.118 44.602C300.238 44.602 300.42 45.372 300.42 46.464V50.65C300.42 50.902 300.574 51.084 300.882 51.084C301.19 51.084 301.33 50.902 301.33 50.65V46.142C301.33 45.876 301.302 45.652 301.26 45.442C301.638 44.966 302.296 44.602 302.954 44.602C303.92 44.602 304.368 45.302 304.368 46.17V50.65C304.368 50.902 304.536 51.084 304.83 51.084C305.138 51.084 305.278 50.902 305.278 50.65V46.142C305.278 44.742 304.48 43.79 302.996 43.79C302.226 43.79 301.526 44.084 300.882 44.574C300.49 44.07 299.972 43.79 299.23 43.79C298.488 43.79 297.76 44.042 297.088 44.476ZM308.544 41.466C308.544 41.13 308.278 40.878 307.97 40.878C307.634 40.878 307.382 41.13 307.382 41.466C307.382 41.774 307.634 42.04 307.97 42.04C308.278 42.04 308.544 41.774 308.544 41.466ZM308.418 50.65V44.294C308.418 44.042 308.208 43.832 307.97 43.832C307.704 43.832 307.508 44.042 307.508 44.294V50.65C307.508 50.902 307.704 51.098 307.97 51.098C308.208 51.098 308.418 50.902 308.418 50.65ZM311.934 46.254C311.934 45.904 311.654 45.596 311.29 45.596C310.926 45.596 310.618 45.904 310.618 46.254C310.618 46.632 310.926 46.926 311.29 46.926C311.654 46.926 311.934 46.632 311.934 46.254ZM311.934 50.454C311.934 50.104 311.654 49.796 311.29 49.796C310.926 49.796 310.618 50.104 310.618 50.454C310.618 50.832 310.926 51.126 311.29 51.126C311.654 51.126 311.934 50.832 311.934 50.454Z" fill="#4E2E1F"/>
</svg>
