<svg width="167" height="155" viewBox="0 0 167 155" fill="none" xmlns="http://www.w3.org/2000/svg">
<path d="M67.198 23.84C67.158 23.88 67.128 23.92 67.108 23.96C67.108 23.98 67.098 24 67.078 24.02C66.678 24.62 66.278 25.22 65.878 25.82C65.478 26.4 65.018 26.91 64.498 27.35C63.938 27.83 63.368 28.3 62.788 28.76C62.228 29.2 61.618 29.56 60.958 29.84C60.238 30.14 59.548 30.24 58.888 30.14C58.248 30.06 57.638 29.84 57.058 29.48C56.478 29.12 55.948 28.66 55.468 28.1C54.988 27.54 54.548 26.95 54.148 26.33C53.768 25.69 53.438 25.05 53.158 24.41C52.878 23.77 52.658 23.2 52.498 22.7C52.438 22.6 52.398 22.49 52.378 22.37C52.358 22.25 52.338 22.13 52.318 22.01C52.298 21.79 52.358 21.61 52.498 21.47C52.698 21.23 52.948 21.1 53.248 21.08C53.648 21.04 54.028 20.94 54.388 20.78C54.748 20.6 55.098 20.4 55.438 20.18C55.778 20 56.118 19.81 56.458 19.61C56.798 19.39 57.118 19.14 57.418 18.86C58.158 18.16 58.868 17.44 59.548 16.7C60.228 15.94 60.888 15.12 61.528 14.24C61.788 13.9 62.018 13.54 62.218 13.16C62.438 12.78 62.618 12.36 62.758 11.9C62.878 11.56 62.968 11.22 63.028 10.88C63.108 10.52 63.128 10.15 63.088 9.77C63.088 9.49 63.018 9.22 62.878 8.96C62.758 8.68 62.598 8.44 62.398 8.24C62.218 8.02 62.018 7.85 61.798 7.73C61.598 7.61 61.408 7.55 61.228 7.55C60.788 7.55 60.278 7.77 59.698 8.21C59.138 8.63 58.578 9.13 58.018 9.71C57.478 10.27 56.978 10.85 56.518 11.45C56.078 12.03 55.748 12.47 55.528 12.77C55.048 13.43 54.588 14.11 54.148 14.81C53.708 15.51 53.268 16.21 52.828 16.91C52.708 17.09 52.608 17.31 52.528 17.57C52.048 18.77 51.568 19.98 51.088 21.2C50.628 22.4 50.158 23.6 49.678 24.8C49.378 25.52 49.078 26.24 48.778 26.96C48.478 27.68 48.178 28.39 47.878 29.09C47.838 29.19 47.788 29.27 47.728 29.33C47.688 29.39 47.648 29.46 47.608 29.54C47.468 29.68 47.328 29.67 47.188 29.51C46.808 29.03 46.588 28.52 46.528 27.98C46.488 27.44 46.548 26.88 46.708 26.3C46.928 25.64 47.148 25 47.368 24.38C47.588 23.76 47.808 23.13 48.028 22.49C48.548 21.11 49.078 19.76 49.618 18.44C50.178 17.1 50.718 15.75 51.238 14.39C51.378 14.05 51.498 13.71 51.598 13.37C51.718 13.01 51.838 12.65 51.958 12.29C52.078 11.93 52.098 11.57 52.018 11.21C51.978 11.03 51.898 10.9 51.778 10.82C51.658 10.74 51.518 10.73 51.358 10.79C51.058 10.89 50.818 11.06 50.638 11.3C50.078 12 49.528 12.69 48.988 13.37C48.448 14.05 47.968 14.79 47.548 15.59C47.308 16.03 47.078 16.46 46.858 16.88C46.658 17.3 46.448 17.73 46.228 18.17C46.188 18.39 46.138 18.56 46.078 18.68C46.038 18.8 45.988 18.86 45.928 18.86C45.888 18.84 45.848 18.81 45.808 18.77C45.768 18.73 45.748 18.69 45.748 18.65C45.708 18.53 45.708 18.38 45.748 18.2C45.828 18 45.898 17.81 45.958 17.63C46.018 17.43 46.098 17.25 46.198 17.09C46.558 16.25 46.958 15.45 47.398 14.69C47.858 13.91 48.358 13.18 48.898 12.5C49.118 12.22 49.338 11.93 49.558 11.63C49.778 11.33 50.028 11.05 50.308 10.79C50.648 10.43 50.998 10.1 51.358 9.8C51.718 9.48 52.108 9.22 52.528 9.02C52.688 8.92 52.868 8.85 53.068 8.81C53.408 8.75 53.688 8.81 53.908 8.99C54.148 9.15 54.298 9.43 54.358 9.83C54.438 10.13 54.458 10.43 54.418 10.73C54.398 11.01 54.368 11.3 54.328 11.6C54.268 11.94 54.188 12.27 54.088 12.59C54.008 12.89 53.918 13.21 53.818 13.55C53.778 13.65 53.738 13.78 53.698 13.94C53.718 13.98 53.738 14.01 53.758 14.03C53.798 13.97 53.818 13.91 53.818 13.85C54.258 13.15 54.728 12.48 55.228 11.84C55.728 11.2 56.238 10.56 56.758 9.92C57.718 8.8 58.748 7.88 59.848 7.16C60.428 6.78 61.028 6.52 61.648 6.38C62.288 6.24 62.948 6.28 63.628 6.5C64.448 6.78 65.098 7.3 65.578 8.06C66.078 8.8 66.308 9.67 66.268 10.67C66.248 11.03 66.188 11.37 66.088 11.69C66.008 12.01 65.898 12.31 65.758 12.59C65.418 13.41 65.008 14.15 64.528 14.81C64.068 15.45 63.548 16.05 62.968 16.61C62.288 17.27 61.588 17.89 60.868 18.47C60.168 19.05 59.428 19.55 58.648 19.97C58.208 20.23 57.768 20.46 57.328 20.66C56.908 20.84 56.478 21.03 56.038 21.23C55.838 21.33 55.648 21.41 55.468 21.47C55.288 21.53 55.108 21.59 54.928 21.65C54.808 21.69 54.688 21.74 54.568 21.8C54.708 22.52 54.898 23.3 55.138 24.14C55.378 24.98 55.708 25.76 56.128 26.48C56.548 27.2 57.068 27.8 57.688 28.28C58.308 28.76 59.058 29.01 59.938 29.03C60.298 29.05 60.638 28.99 60.958 28.85C61.278 28.69 61.578 28.5 61.858 28.28C62.258 27.96 62.658 27.64 63.058 27.32C63.478 27 63.888 26.68 64.288 26.36C64.568 26.14 64.838 25.92 65.098 25.7C65.378 25.46 65.658 25.2 65.938 24.92C66.118 24.76 66.288 24.61 66.448 24.47C66.628 24.31 66.798 24.15 66.958 23.99C66.998 23.95 67.078 23.9 67.198 23.84ZM77.8574 19.52C77.8174 19.68 77.7674 19.8 77.7074 19.88C77.4274 20.48 77.0574 21.1 76.5974 21.74C76.1574 22.36 75.6574 22.95 75.0974 23.51C74.5574 24.05 73.9774 24.54 73.3574 24.98C72.7574 25.42 72.1474 25.75 71.5274 25.97C70.5874 26.29 69.7974 26.32 69.1574 26.06C68.5374 25.8 68.0474 25.38 67.6874 24.8C67.3274 24.22 67.1074 23.54 67.0274 22.76C66.9474 21.98 67.0074 21.23 67.2074 20.51C67.4074 19.77 67.7374 19.13 68.1974 18.59C68.6774 18.05 69.2874 17.72 70.0274 17.6C70.2674 17.56 70.5074 17.54 70.7474 17.54C70.9874 17.54 71.2174 17.54 71.4374 17.54C71.7374 17.54 71.9574 17.64 72.0974 17.84C72.2374 18.02 72.2574 18.25 72.1574 18.53C71.9174 19.23 71.4974 19.79 70.8974 20.21C70.3174 20.63 69.7374 20.98 69.1574 21.26C69.0574 21.3 69.0074 21.37 69.0074 21.47C68.9074 22.05 68.8574 22.61 68.8574 23.15C68.8774 23.69 69.0574 24.19 69.3974 24.65C69.5574 24.87 69.7574 25.02 69.9974 25.1C70.2374 25.16 70.4874 25.19 70.7474 25.19C71.1274 25.17 71.5274 25.06 71.9474 24.86C72.3874 24.64 72.8274 24.37 73.2674 24.05C73.7074 23.73 74.1374 23.38 74.5574 23C74.9974 22.6 75.4074 22.2 75.7874 21.8C76.1674 21.4 76.5174 21.02 76.8374 20.66C77.1574 20.3 77.4174 19.99 77.6174 19.73C77.6574 19.67 77.7274 19.59 77.8274 19.49C77.8274 19.51 77.8374 19.52 77.8574 19.52ZM71.5874 18.47C71.5874 18.39 71.5674 18.35 71.5274 18.35C71.4874 18.33 71.4474 18.32 71.4074 18.32C71.1674 18.34 70.9474 18.41 70.7474 18.53C70.5674 18.63 70.3974 18.76 70.2374 18.92C70.0174 19.12 69.8374 19.35 69.6974 19.61C69.5574 19.87 69.4174 20.13 69.2774 20.39C69.2174 20.49 69.1874 20.59 69.1874 20.69C69.1674 20.71 69.1774 20.73 69.2174 20.75C69.2374 20.77 69.2574 20.78 69.2774 20.78C69.8174 20.56 70.2774 20.24 70.6574 19.82C71.0574 19.38 71.3674 18.93 71.5874 18.47ZM79.0298 18.95C79.1498 19.19 79.3098 19.51 79.5098 19.91C79.7098 20.31 79.9098 20.73 80.1098 21.17C80.3298 21.61 80.5298 22.05 80.7098 22.49C80.9098 22.91 81.0598 23.26 81.1598 23.54C81.8198 22.96 82.4998 22.36 83.1998 21.74C83.9198 21.1 84.5598 20.56 85.1198 20.12C85.1998 20.04 85.2998 19.97 85.4198 19.91C85.5398 19.85 85.6398 19.83 85.7198 19.85C85.7998 19.85 85.8398 19.89 85.8398 19.97C85.8398 20.03 85.7698 20.13 85.6298 20.27C85.4298 20.49 85.1598 20.75 84.8198 21.05C84.4798 21.35 84.1098 21.67 83.7098 22.01C83.3298 22.35 82.9398 22.71 82.5398 23.09C82.1398 23.45 81.7698 23.8 81.4298 24.14C81.7298 24.9 81.8598 25.68 81.8198 26.48C81.7798 27.26 81.5898 27.98 81.2498 28.64C80.9298 29.3 80.4598 29.84 79.8398 30.26C79.2198 30.68 78.4698 30.89 77.5898 30.89C77.3098 30.89 77.0098 30.81 76.6898 30.65C76.3698 30.51 76.2098 30.27 76.2098 29.93C76.1498 29.41 76.2398 28.92 76.4798 28.46C76.8798 27.82 77.3098 27.2 77.7698 26.6C78.2498 25.98 78.7598 25.5 79.2998 25.16C79.0398 24.5 78.6998 23.77 78.2798 22.97C77.8798 22.17 77.5498 21.36 77.2898 20.54C77.0498 19.72 76.9498 18.92 76.9898 18.14C77.0298 17.34 77.3698 16.61 78.0098 15.95C78.3498 15.61 78.7298 15.37 79.1498 15.23C79.5698 15.09 80.0198 15.03 80.4998 15.05C80.6998 15.07 80.9098 15.16 81.1298 15.32C81.3698 15.44 81.4698 15.66 81.4298 15.98C81.4098 16.26 81.3198 16.52 81.1598 16.76C81.0198 16.98 80.8598 17.19 80.6798 17.39C80.4198 17.67 80.1498 17.94 79.8698 18.2C79.5898 18.44 79.3098 18.69 79.0298 18.95ZM79.6298 25.85C79.1698 26.19 78.7398 26.59 78.3398 27.05C77.9398 27.51 77.5998 27.98 77.3198 28.46C77.1798 28.66 77.0698 28.86 76.9898 29.06C76.9098 29.26 76.8798 29.49 76.8998 29.75C76.8998 29.91 76.9798 30.02 77.1398 30.08C77.2798 30.14 77.3998 30.17 77.4998 30.17C77.7998 30.13 78.0698 30.06 78.3098 29.96C78.5298 29.88 78.7398 29.74 78.9398 29.54C79.1598 29.36 79.3498 29.15 79.5098 28.91C79.6698 28.65 79.7898 28.38 79.8698 28.1C79.9698 27.82 80.0098 27.53 79.9898 27.23C79.9698 26.99 79.9398 26.76 79.8998 26.54C79.8598 26.3 79.7698 26.07 79.6298 25.85ZM78.7898 18.41C79.1298 18.21 79.4098 18 79.6298 17.78C79.8698 17.56 80.0998 17.33 80.3198 17.09C80.3998 16.99 80.4898 16.87 80.5898 16.73C80.7098 16.59 80.7998 16.45 80.8598 16.31C80.9198 16.15 80.9298 16.01 80.8898 15.89C80.8498 15.77 80.7298 15.68 80.5298 15.62C80.3098 15.58 80.0898 15.58 79.8698 15.62C79.6498 15.66 79.4498 15.73 79.2698 15.83C78.8498 16.09 78.5798 16.47 78.4598 16.97C78.3998 17.25 78.4098 17.51 78.4898 17.75C78.5898 17.97 78.6898 18.19 78.7898 18.41ZM95.6113 19.52C95.5713 19.68 95.5213 19.8 95.4613 19.88C95.1813 20.48 94.8113 21.1 94.3513 21.74C93.9113 22.36 93.4113 22.95 92.8513 23.51C92.3113 24.05 91.7313 24.54 91.1113 24.98C90.5113 25.42 89.9013 25.75 89.2813 25.97C88.3413 26.29 87.5513 26.32 86.9113 26.06C86.2913 25.8 85.8013 25.38 85.4413 24.8C85.0813 24.22 84.8613 23.54 84.7813 22.76C84.7013 21.98 84.7613 21.23 84.9613 20.51C85.1613 19.77 85.4913 19.13 85.9513 18.59C86.4313 18.05 87.0413 17.72 87.7813 17.6C88.0213 17.56 88.2613 17.54 88.5013 17.54C88.7413 17.54 88.9713 17.54 89.1913 17.54C89.4913 17.54 89.7113 17.64 89.8513 17.84C89.9913 18.02 90.0113 18.25 89.9113 18.53C89.6713 19.23 89.2513 19.79 88.6513 20.21C88.0713 20.63 87.4913 20.98 86.9113 21.26C86.8113 21.3 86.7613 21.37 86.7613 21.47C86.6613 22.05 86.6113 22.61 86.6113 23.15C86.6313 23.69 86.8113 24.19 87.1513 24.65C87.3113 24.87 87.5113 25.02 87.7513 25.1C87.9913 25.16 88.2413 25.19 88.5013 25.19C88.8813 25.17 89.2813 25.06 89.7013 24.86C90.1413 24.64 90.5813 24.37 91.0213 24.05C91.4613 23.73 91.8913 23.38 92.3113 23C92.7513 22.6 93.1613 22.2 93.5413 21.8C93.9213 21.4 94.2713 21.02 94.5913 20.66C94.9113 20.3 95.1713 19.99 95.3713 19.73C95.4113 19.67 95.4813 19.59 95.5813 19.49C95.5813 19.51 95.5913 19.52 95.6113 19.52ZM89.3413 18.47C89.3413 18.39 89.3213 18.35 89.2813 18.35C89.2413 18.33 89.2013 18.32 89.1613 18.32C88.9213 18.34 88.7013 18.41 88.5013 18.53C88.3213 18.63 88.1513 18.76 87.9913 18.92C87.7713 19.12 87.5913 19.35 87.4513 19.61C87.3113 19.87 87.1713 20.13 87.0313 20.39C86.9713 20.49 86.9413 20.59 86.9413 20.69C86.9213 20.71 86.9313 20.73 86.9713 20.75C86.9913 20.77 87.0113 20.78 87.0313 20.78C87.5713 20.56 88.0313 20.24 88.4113 19.82C88.8113 19.38 89.1213 18.93 89.3413 18.47ZM93.8737 34.58C93.6537 34.36 93.5137 34.1 93.4537 33.8C93.3937 33.5 93.3337 33.18 93.2737 32.84C93.2337 32.42 93.2137 32 93.2137 31.58C93.2137 31.18 93.2237 30.78 93.2437 30.38C93.3037 29.8 93.3637 29.24 93.4237 28.7C93.4837 28.14 93.5437 27.57 93.6037 26.99C93.7837 25.91 93.9937 24.83 94.2337 23.75C94.3337 23.23 94.4337 22.72 94.5337 22.22C94.6337 21.72 94.7337 21.24 94.8337 20.78C94.9537 20.28 95.0837 19.77 95.2237 19.25C95.3837 18.73 95.5337 18.23 95.6737 17.75C95.6737 17.59 95.7137 17.47 95.7937 17.39C96.0137 17.19 96.2437 17.03 96.4837 16.91C96.7237 16.77 96.9837 16.75 97.2637 16.85C97.4837 16.91 97.6437 17.03 97.7437 17.21C97.8437 17.39 97.8537 17.59 97.7737 17.81C97.6937 18.09 97.6037 18.37 97.5037 18.65C97.4237 18.93 97.3337 19.2 97.2337 19.46C97.1937 19.68 97.1337 19.88 97.0537 20.06C96.9937 20.22 96.9337 20.38 96.8737 20.54C97.0337 20.3 97.2037 20.07 97.3837 19.85C97.5637 19.61 97.7537 19.36 97.9537 19.1C98.1737 18.88 98.3937 18.68 98.6137 18.5C98.8337 18.32 99.0937 18.17 99.3937 18.05C99.8137 17.87 100.184 17.88 100.504 18.08C100.844 18.28 101.064 18.64 101.164 19.16C101.184 19.32 101.194 19.5 101.194 19.7C101.194 19.88 101.214 20.06 101.254 20.24C101.754 20.12 102.234 20.06 102.694 20.06C103.154 20.06 103.624 20.08 104.104 20.12C104.124 20.12 104.164 20.15 104.224 20.21C104.184 20.21 104.154 20.22 104.134 20.24C104.114 20.24 104.084 20.23 104.044 20.21C103.584 20.33 103.114 20.45 102.634 20.57C102.174 20.67 101.714 20.78 101.254 20.9C101.154 20.92 101.064 21.01 100.984 21.17C100.764 21.71 100.504 22.24 100.204 22.76C99.9237 23.28 99.5837 23.74 99.1837 24.14C98.9837 24.32 98.7637 24.48 98.5237 24.62C98.3037 24.76 98.0537 24.85 97.7737 24.89C97.3137 24.95 96.9237 24.76 96.6037 24.32C96.5637 24.16 96.5437 24.04 96.5437 23.96C96.5637 23.56 96.6437 23.18 96.7837 22.82C96.9237 22.44 97.1737 22.13 97.5337 21.89C97.8337 21.73 98.1337 21.58 98.4337 21.44C98.7537 21.28 99.0537 21.12 99.3337 20.96C99.4937 20.84 99.5737 20.74 99.5737 20.66C99.6137 20.42 99.6537 20.2 99.6937 20C99.7537 19.78 99.7637 19.53 99.7237 19.25C99.7237 19.15 99.7137 19.08 99.6937 19.04C99.5537 18.74 99.3637 18.66 99.1237 18.8C99.0437 18.86 98.9737 18.92 98.9137 18.98C98.8737 19.04 98.8037 19.11 98.7037 19.19C98.4837 19.37 98.2937 19.58 98.1337 19.82C97.9737 20.06 97.8137 20.3 97.6537 20.54C97.4537 20.94 97.2537 21.34 97.0537 21.74C96.8737 22.14 96.6637 22.52 96.4237 22.88C96.1437 23.3 95.9437 23.74 95.8237 24.2C95.7237 24.64 95.6237 25.09 95.5237 25.55C95.3237 26.69 95.1237 27.82 94.9237 28.94C94.7037 30.06 94.4837 31.19 94.2637 32.33C94.2037 32.63 94.1637 32.94 94.1437 33.26C94.1237 33.58 94.0937 33.89 94.0537 34.19C94.0537 34.33 94.0137 34.46 93.9337 34.58H93.8737ZM99.2737 21.62C98.4737 21.88 97.7637 22.4 97.1437 23.18C97.1237 23.2 97.1137 23.21 97.1137 23.21C97.0937 23.21 97.0837 23.22 97.0837 23.24C96.9637 23.54 96.9837 23.77 97.1437 23.93C97.4637 24.29 97.7837 24.29 98.1037 23.93C98.3837 23.61 98.6037 23.25 98.7637 22.85C98.9437 22.43 99.1137 22.02 99.2737 21.62ZM104.928 18.95C105.048 19.19 105.208 19.51 105.408 19.91C105.608 20.31 105.808 20.73 106.008 21.17C106.228 21.61 106.428 22.05 106.608 22.49C106.808 22.91 106.958 23.26 107.058 23.54C107.718 22.96 108.398 22.36 109.098 21.74C109.818 21.1 110.458 20.56 111.018 20.12C111.098 20.04 111.198 19.97 111.318 19.91C111.438 19.85 111.538 19.83 111.618 19.85C111.698 19.85 111.738 19.89 111.738 19.97C111.738 20.03 111.668 20.13 111.528 20.27C111.328 20.49 111.058 20.75 110.718 21.05C110.378 21.35 110.008 21.67 109.608 22.01C109.228 22.35 108.838 22.71 108.438 23.09C108.038 23.45 107.668 23.8 107.328 24.14C107.628 24.9 107.758 25.68 107.718 26.48C107.678 27.26 107.488 27.98 107.148 28.64C106.828 29.3 106.358 29.84 105.738 30.26C105.118 30.68 104.368 30.89 103.488 30.89C103.208 30.89 102.908 30.81 102.588 30.65C102.268 30.51 102.108 30.27 102.108 29.93C102.048 29.41 102.138 28.92 102.378 28.46C102.778 27.82 103.208 27.2 103.668 26.6C104.148 25.98 104.658 25.5 105.198 25.16C104.938 24.5 104.598 23.77 104.178 22.97C103.778 22.17 103.448 21.36 103.188 20.54C102.948 19.72 102.848 18.92 102.888 18.14C102.928 17.34 103.268 16.61 103.908 15.95C104.248 15.61 104.628 15.37 105.048 15.23C105.468 15.09 105.918 15.03 106.398 15.05C106.598 15.07 106.808 15.16 107.028 15.32C107.268 15.44 107.368 15.66 107.328 15.98C107.308 16.26 107.218 16.52 107.058 16.76C106.918 16.98 106.758 17.19 106.578 17.39C106.318 17.67 106.048 17.94 105.768 18.2C105.488 18.44 105.208 18.69 104.928 18.95ZM105.528 25.85C105.068 26.19 104.638 26.59 104.238 27.05C103.838 27.51 103.498 27.98 103.218 28.46C103.078 28.66 102.968 28.86 102.888 29.06C102.808 29.26 102.778 29.49 102.798 29.75C102.798 29.91 102.878 30.02 103.038 30.08C103.178 30.14 103.298 30.17 103.398 30.17C103.698 30.13 103.968 30.06 104.208 29.96C104.428 29.88 104.638 29.74 104.838 29.54C105.058 29.36 105.248 29.15 105.408 28.91C105.568 28.65 105.688 28.38 105.768 28.1C105.868 27.82 105.908 27.53 105.888 27.23C105.868 26.99 105.838 26.76 105.798 26.54C105.758 26.3 105.668 26.07 105.528 25.85ZM104.688 18.41C105.028 18.21 105.308 18 105.528 17.78C105.768 17.56 105.998 17.33 106.218 17.09C106.298 16.99 106.388 16.87 106.488 16.73C106.608 16.59 106.698 16.45 106.758 16.31C106.818 16.15 106.828 16.01 106.788 15.89C106.748 15.77 106.628 15.68 106.428 15.62C106.208 15.58 105.988 15.58 105.768 15.62C105.548 15.66 105.348 15.73 105.168 15.83C104.748 16.09 104.478 16.47 104.358 16.97C104.298 17.25 104.308 17.51 104.388 17.75C104.488 17.97 104.588 18.19 104.688 18.41ZM121.27 19.31C121.21 19.41 121.14 19.5 121.06 19.58C121 19.66 120.94 19.74 120.88 19.82C120.52 20.26 120.15 20.69 119.77 21.11C119.41 21.53 119.03 21.94 118.63 22.34C118.17 22.8 117.68 23.24 117.16 23.66C116.64 24.06 116.1 24.46 115.54 24.86C115.18 25.1 114.8 25.33 114.4 25.55C114.02 25.75 113.64 25.94 113.26 26.12C112.78 26.34 112.3 26.41 111.82 26.33C111.2 26.23 110.77 25.88 110.53 25.28C110.43 24.96 110.38 24.64 110.38 24.32C110.36 23.98 110.37 23.64 110.41 23.3C110.45 22.78 110.53 22.27 110.65 21.77C110.77 21.27 110.9 20.76 111.04 20.24C111.14 19.84 111.27 19.45 111.43 19.07C111.59 18.69 111.75 18.31 111.91 17.93C111.95 17.89 111.99 17.84 112.03 17.78C112.09 17.72 112.14 17.69 112.18 17.69C112.36 17.67 112.53 17.65 112.69 17.63C112.87 17.61 113.04 17.62 113.2 17.66C113.42 17.68 113.59 17.77 113.71 17.93C113.83 18.09 113.89 18.28 113.89 18.5C113.91 18.7 113.88 18.9 113.8 19.1C113.74 19.3 113.66 19.49 113.56 19.67C113.32 20.25 113.09 20.83 112.87 21.41C112.67 21.99 112.52 22.58 112.42 23.18C112.38 23.46 112.35 23.74 112.33 24.02C112.33 24.28 112.33 24.55 112.33 24.83C112.35 25.05 112.4 25.18 112.48 25.22C112.58 25.26 112.74 25.25 112.96 25.19C113.68 24.93 114.39 24.58 115.09 24.14C115.81 23.7 116.5 23.22 117.16 22.7C117.84 22.16 118.49 21.61 119.11 21.05C119.75 20.49 120.37 19.97 120.97 19.49C121.03 19.45 121.12 19.37 121.24 19.25V19.31H121.27ZM112.9 16.82C112.72 16.78 112.55 16.75 112.39 16.73C112.25 16.71 112.12 16.63 112 16.49C111.9 16.35 111.85 16.2 111.85 16.04C111.85 15.86 111.92 15.7 112.06 15.56C112.16 15.46 112.27 15.39 112.39 15.35C112.53 15.29 112.67 15.24 112.81 15.2C112.91 15.2 112.99 15.19 113.05 15.17C113.11 15.13 113.18 15.1 113.26 15.08C113.44 14.98 113.62 14.93 113.8 14.93C113.98 14.91 114.16 14.96 114.34 15.08C114.46 15.18 114.55 15.32 114.61 15.5C114.67 15.68 114.65 15.83 114.55 15.95C114.41 16.17 114.23 16.34 114.01 16.46C113.81 16.56 113.6 16.65 113.38 16.73C113.28 16.75 113.19 16.77 113.11 16.79C113.03 16.81 112.96 16.82 112.9 16.82Z" fill="#A62800"/>
<path d="M74.756 78.884C74.756 79.64 75.404 80.324 76.196 80.324C76.988 80.324 77.636 79.64 77.636 78.884V55.808C77.636 54.944 76.952 54.26 76.088 54.26C75.764 54.26 75.512 54.332 75.224 54.512L68.132 59.048C67.7 59.336 67.484 59.804 67.484 60.308C67.484 60.956 68.132 61.532 68.744 61.532C69.248 61.532 69.824 61.136 70.328 60.812L74.756 57.968V78.884ZM97.544 74.636H99.092C99.848 74.636 100.424 74.024 100.424 73.268C100.424 72.548 99.848 71.936 99.092 71.936H97.544V64.88C97.544 64.088 96.896 63.476 96.14 63.476C95.348 63.476 94.736 64.088 94.736 64.88V71.936H87.572L94.016 55.88C94.088 55.736 94.088 55.556 94.088 55.412C94.088 54.62 93.368 53.972 92.684 53.972C92.18 53.972 91.676 54.296 91.46 54.8L84.548 72.116C84.368 72.476 84.26 72.98 84.26 73.088C84.26 73.916 84.872 74.636 85.736 74.636H94.736V78.92C94.736 79.712 95.348 80.324 96.14 80.324C96.932 80.324 97.544 79.712 97.544 78.92V74.636Z" fill="#4E2E1F"/>
<path d="M124.609 64.796V62.636C124.609 61.004 123.721 59.528 121.141 59.528H119.785C119.377 59.528 119.029 59.864 119.029 60.248V67.28C119.029 67.676 119.377 68 119.785 68H121.141C123.733 68 124.609 66.464 124.609 64.796ZM123.289 64.796C123.289 65.888 122.797 66.776 121.345 66.776H120.349V60.764H121.345C122.773 60.764 123.289 61.592 123.289 62.636V64.796ZM128.008 65.636C129.532 65.636 130.192 64.964 130.192 63.836C130.192 62.636 129.472 61.844 128.02 61.844C126.472 61.844 125.644 62.744 125.644 63.92V66.044C125.644 67.208 126.484 68.096 127.96 68.096C128.668 68.096 130.084 67.892 130.084 67.172C130.084 66.932 129.904 66.632 129.496 66.632C129.352 66.632 129.268 66.668 129.232 66.692C128.836 66.872 128.512 66.992 128.068 66.992C127.312 66.992 126.94 66.644 126.94 66.104V65.552C127.324 65.612 127.672 65.636 128.008 65.636ZM128.908 63.8C128.908 64.304 128.68 64.628 127.996 64.628C127.816 64.628 127.348 64.604 126.94 64.556V63.848C126.94 63.272 127.324 62.912 127.996 62.912C128.584 62.912 128.908 63.164 128.908 63.8ZM131.234 63.644C131.234 65.768 134.03 65.168 134.03 66.296C134.03 66.728 133.61 66.992 133.07 66.992C132.566 66.992 132.05 66.764 131.834 66.716C131.306 66.584 131.162 67.076 131.162 67.292C131.162 67.928 132.434 68.084 133.118 68.084C134.546 68.084 135.302 67.388 135.302 66.272C135.302 64.124 132.506 64.7 132.506 63.524C132.506 63.008 133.058 62.948 133.358 62.948C133.994 62.948 134.174 63.212 134.558 63.212C134.87 63.212 135.086 63.044 135.086 62.72C135.086 62.024 134.066 61.844 133.358 61.844C131.954 61.844 131.234 62.564 131.234 63.644ZM138.672 65.636C140.196 65.636 140.856 64.964 140.856 63.836C140.856 62.636 140.136 61.844 138.684 61.844C137.136 61.844 136.308 62.744 136.308 63.92V66.044C136.308 67.208 137.148 68.096 138.624 68.096C139.332 68.096 140.748 67.892 140.748 67.172C140.748 66.932 140.568 66.632 140.16 66.632C140.016 66.632 139.932 66.668 139.896 66.692C139.5 66.872 139.176 66.992 138.732 66.992C137.976 66.992 137.604 66.644 137.604 66.104V65.552C137.988 65.612 138.336 65.636 138.672 65.636ZM139.572 63.8C139.572 64.304 139.344 64.628 138.66 64.628C138.48 64.628 138.012 64.604 137.604 64.556V63.848C137.604 63.272 137.988 62.912 138.66 62.912C139.248 62.912 139.572 63.164 139.572 63.8ZM148.727 67.484C148.727 67.82 148.943 68.084 149.375 68.084C149.807 68.084 150.023 67.82 150.023 67.484V63.932C150.023 62.684 149.231 61.844 147.875 61.844C147.215 61.844 146.675 62.048 146.099 62.408C145.727 62.036 145.283 61.844 144.707 61.844C144.131 61.844 143.555 62.036 143.015 62.372C142.883 62.18 142.703 62.048 142.463 62.048C142.127 62.048 141.851 62.276 141.851 62.612C141.851 62.732 141.899 62.816 141.995 62.96C142.067 63.08 142.151 63.104 142.151 63.632V67.484C142.151 67.82 142.367 68.084 142.799 68.084C143.231 68.084 143.447 67.82 143.447 67.484V63.632C143.447 63.56 143.435 63.464 143.423 63.38C143.771 63.164 144.215 62.984 144.623 62.984C145.319 62.984 145.439 63.488 145.439 64.196V67.484C145.439 67.82 145.655 68.084 146.087 68.084C146.519 68.084 146.735 67.82 146.735 67.484V63.932C146.735 63.788 146.711 63.644 146.687 63.512C146.999 63.2 147.419 62.984 147.827 62.984C148.415 62.984 148.727 63.416 148.727 63.956V67.484ZM152.985 63.344C153.273 63.044 153.657 62.876 154.149 62.876C154.845 62.876 155.145 63.2 155.145 63.74V65.972C155.145 66.62 154.797 67.016 154.065 67.016C153.393 67.016 152.985 66.68 152.985 66.14V63.344ZM151.689 66.14C151.689 67.232 152.553 68.096 154.065 68.096C155.649 68.096 156.441 67.136 156.441 65.912V63.776C156.441 62.684 155.877 61.844 154.437 61.844C153.825 61.844 153.393 61.988 152.985 62.252V59.912C152.985 59.6 152.745 59.324 152.337 59.324C151.917 59.324 151.689 59.6 151.689 59.912V66.14ZM159.883 65.636C161.407 65.636 162.067 64.964 162.067 63.836C162.067 62.636 161.347 61.844 159.895 61.844C158.347 61.844 157.519 62.744 157.519 63.92V66.044C157.519 67.208 158.359 68.096 159.835 68.096C160.543 68.096 161.959 67.892 161.959 67.172C161.959 66.932 161.779 66.632 161.371 66.632C161.227 66.632 161.143 66.668 161.107 66.692C160.711 66.872 160.387 66.992 159.943 66.992C159.187 66.992 158.815 66.644 158.815 66.104V65.552C159.199 65.612 159.547 65.636 159.883 65.636ZM160.783 63.8C160.783 64.304 160.555 64.628 159.871 64.628C159.691 64.628 159.223 64.604 158.815 64.556V63.848C158.815 63.272 159.199 62.912 159.871 62.912C160.459 62.912 160.783 63.164 160.783 63.8ZM165.966 63.092C166.326 63.116 166.626 62.864 166.626 62.48C166.626 62.144 166.434 61.892 165.822 61.892C165.402 61.892 164.79 62.084 164.25 62.408C164.106 62.204 163.914 62.06 163.698 62.06C163.362 62.06 163.074 62.288 163.074 62.624C163.074 62.768 163.122 62.852 163.194 62.948C163.314 63.128 163.362 63.308 163.362 63.644V67.484C163.362 67.832 163.638 68.096 164.01 68.096C164.37 68.096 164.658 67.832 164.658 67.484V63.644C164.658 63.56 164.646 63.476 164.634 63.368C165.138 63.068 165.462 63.08 165.966 63.092ZM135.779 80.4C135.779 80.064 135.491 79.8 135.131 79.8H132.143C132.767 78.72 133.931 77.892 134.819 76.92C135.347 76.356 135.731 75.684 135.731 74.676C135.731 73.368 134.771 72.312 133.139 72.312C132.239 72.312 130.631 72.696 130.631 73.44C130.631 73.788 130.943 74.028 131.267 74.028C131.543 74.028 131.771 73.812 132.047 73.692C132.359 73.56 132.695 73.488 133.127 73.488C133.979 73.488 134.435 74.076 134.435 74.808C134.435 75.84 133.391 76.596 132.647 77.304C131.843 78.06 131.039 78.828 130.595 79.836C130.523 79.992 130.511 80.196 130.511 80.352C130.511 80.724 130.787 81 131.183 81H135.131C135.491 81 135.779 80.736 135.779 80.4ZM139.386 73.488C140.298 73.488 140.67 74.124 140.67 75.024V78.552C140.67 79.38 140.214 79.932 139.386 79.932C138.546 79.932 138.102 79.38 138.102 78.552V75.024C138.102 74.124 138.462 73.488 139.386 73.488ZM139.386 72.312C137.574 72.312 136.794 73.572 136.794 75.12V78.552C136.794 79.98 137.706 81.12 139.386 81.12C141.054 81.12 141.978 79.98 141.978 78.552V75.12C141.978 73.572 141.186 72.312 139.386 72.312ZM145.692 80.484C145.692 80.808 145.98 81.108 146.352 81.108C146.712 81.108 147.012 80.808 147.012 80.484V73.092C147.012 72.72 146.7 72.432 146.304 72.432C146.172 72.432 146.064 72.456 145.932 72.54L143.556 73.992C143.376 74.1 143.268 74.292 143.268 74.532C143.268 74.904 143.58 75.084 143.856 75.084C144.084 75.084 144.276 74.964 144.48 74.844L145.692 74.076V80.484ZM153.186 77.448C153.15 78.864 152.862 79.956 151.566 79.956C151.002 79.956 150.594 79.728 150.282 79.728C149.922 79.728 149.694 80.004 149.694 80.28C149.694 81.024 151.242 81.108 151.71 81.108C153.63 81.108 154.542 79.536 154.542 76.596C154.542 74.136 153.918 72.432 151.818 72.432C150.006 72.432 149.166 73.716 149.166 75.228C149.166 77.04 150.342 77.916 151.734 77.916C152.226 77.916 152.73 77.796 153.186 77.448ZM153.222 76.164C152.922 76.488 152.382 76.704 151.818 76.704C150.99 76.704 150.474 76.236 150.474 75.228C150.474 74.424 150.81 73.656 151.77 73.656C152.898 73.656 153.222 74.7 153.222 75.948V76.164Z" fill="#4E2E1F"/>
<path d="M7.65508 72.18C7.65508 73.74 6.75508 74.64 4.97508 74.64C3.41508 74.64 2.55508 73.94 1.99508 73.94C1.59508 73.94 1.27508 74.32 1.27508 74.72C1.27508 75.8 3.67508 76.2 4.95508 76.2C7.47508 76.2 9.33508 74.68 9.33508 72.04C9.33508 68.54 6.03508 68.5 4.11508 67.5C3.65508 67.26 2.95508 66.82 2.95508 65.5C2.95508 63.76 4.17508 63.26 5.45508 63.26C6.81508 63.26 7.33508 63.82 7.95508 63.82C8.45508 63.82 8.75508 63.46 8.75508 63.06C8.75508 61.94 6.33508 61.7 5.33508 61.7C2.85508 61.7 1.29508 63.18 1.29508 65.6C1.29508 69.14 4.61508 69.16 6.51508 70.16C7.01508 70.42 7.65508 70.88 7.65508 72.18ZM13.0045 72.82H18.0645L18.9245 75.6C19.0245 75.96 19.4045 76.2 19.7045 76.2C20.1845 76.2 20.5445 75.88 20.5445 75.4C20.5445 75.32 20.5245 75.16 20.5045 75.1L16.6045 62.76C16.4045 62.14 16.1445 61.7 15.5445 61.7C14.9645 61.7 14.6845 62.16 14.5045 62.76L10.6045 75.1C10.5845 75.16 10.5645 75.32 10.5645 75.4C10.5645 75.88 10.9445 76.2 11.4045 76.2C11.6845 76.2 12.0445 75.96 12.1645 75.6L13.0045 72.82ZM15.5445 64.48L17.6045 71.26H13.4845L15.5445 64.48ZM24.0229 67.9V63.46H26.6629C28.4629 63.46 29.0629 64.46 29.0629 65.52C29.0629 67.14 27.6229 67.9 26.3229 67.9H24.0229ZM26.3829 69.46C28.1429 69.46 29.4429 70.36 29.4429 72.02C29.4429 73.46 28.4629 74.44 26.4629 74.44H24.0229V69.46H26.3829ZM26.6829 76C29.3829 76 31.0429 74.26 31.0429 72C31.0429 69.76 29.4229 69.16 28.0829 68.74C29.5629 68.12 30.6629 67.26 30.6629 65.54C30.6629 63.68 29.3629 61.9 26.7629 61.9H23.3829C22.8629 61.9 22.4229 62.32 22.4229 62.86V75.04C22.4229 75.56 22.8429 76 23.3829 76H26.6829ZM35.4516 75.4C35.4516 75.82 35.8116 76.2 36.2516 76.2C36.6916 76.2 37.0516 75.82 37.0516 75.4V63.46H39.7716C40.2116 63.46 40.5916 63.1 40.5916 62.68C40.5916 62.24 40.1916 61.9 39.7716 61.9H32.7316C32.2916 61.9 31.9316 62.34 31.9316 62.68C31.9316 63.1 32.2716 63.46 32.7316 63.46H35.4516V75.4ZM51.2396 71.4V62.54C51.2396 62.1 50.8796 61.7 50.3996 61.7C49.9596 61.7 49.6196 62.1 49.6196 62.54V71.4C49.6196 73.28 48.7396 74.64 46.8196 74.64C44.8996 74.64 43.9996 73.32 43.9996 71.4V62.54C43.9996 62.08 43.6396 61.7 43.2196 61.7C42.7596 61.7 42.3996 62.06 42.3996 62.54V71.4C42.3996 74.16 43.9796 76.2 46.8196 76.2C49.5996 76.2 51.2396 74.18 51.2396 71.4Z" fill="#4E2E1F"/>
<path d="M12.6732 131.42C12.6732 131.03 12.3482 130.718 11.9322 130.718C11.6332 130.718 11.3602 130.822 11.2042 131.121L8.7862 136.152L6.3552 131.134C6.2122 130.861 5.9652 130.718 5.6272 130.718C5.1982 130.718 4.8862 131.017 4.8862 131.42V139.467C4.8862 139.818 5.1852 140.13 5.5752 140.13C5.9782 140.13 6.3162 139.818 6.3162 139.467V134.059L8.0972 137.751C8.2402 138.024 8.4872 138.154 8.7732 138.154C9.0592 138.154 9.3192 138.024 9.4492 137.751L11.2432 134.059V139.467C11.2432 139.818 11.5812 140.13 11.9712 140.13C12.3482 140.13 12.6732 139.818 12.6732 139.467V131.42ZM16.6709 137.439C18.3219 137.439 19.0369 136.711 19.0369 135.489C19.0369 134.189 18.2569 133.331 16.6839 133.331C15.0069 133.331 14.1099 134.306 14.1099 135.58V137.881C14.1099 139.142 15.0199 140.104 16.6189 140.104C17.3859 140.104 18.9199 139.883 18.9199 139.103C18.9199 138.843 18.7249 138.518 18.2829 138.518C18.1269 138.518 18.0359 138.557 17.9969 138.583C17.5679 138.778 17.2169 138.908 16.7359 138.908C15.9169 138.908 15.5139 138.531 15.5139 137.946V137.348C15.9299 137.413 16.3069 137.439 16.6709 137.439ZM17.6459 135.45C17.6459 135.996 17.3989 136.347 16.6579 136.347C16.4629 136.347 15.9559 136.321 15.5139 136.269V135.502C15.5139 134.878 15.9299 134.488 16.6579 134.488C17.2949 134.488 17.6459 134.761 17.6459 135.45ZM23.2614 134.683C23.6514 134.709 23.9764 134.436 23.9764 134.02C23.9764 133.656 23.7684 133.383 23.1054 133.383C22.6504 133.383 21.9874 133.591 21.4024 133.942C21.2464 133.721 21.0384 133.565 20.8044 133.565C20.4404 133.565 20.1284 133.812 20.1284 134.176C20.1284 134.332 20.1804 134.423 20.2584 134.527C20.3884 134.722 20.4404 134.917 20.4404 135.281V139.441C20.4404 139.818 20.7394 140.104 21.1424 140.104C21.5324 140.104 21.8444 139.818 21.8444 139.441V135.281C21.8444 135.19 21.8314 135.099 21.8184 134.982C22.3644 134.657 22.7154 134.67 23.2614 134.683ZM28.2465 136.243C27.8695 136.139 27.4795 136.087 27.0765 136.087C25.4515 136.087 24.6455 136.75 24.6455 138.05V138.089C24.6455 139.298 25.3735 140.091 26.7905 140.091C27.5055 140.091 28.0775 139.883 28.5585 139.467C28.8055 139.87 29.1435 140.052 29.5985 140.052C30.0925 140.052 30.3655 139.87 30.3655 139.506C30.3655 139.259 30.2485 139.09 29.9755 139.038C29.7805 138.999 29.6505 138.947 29.6505 138.622V135.983C29.6505 134.254 28.9355 133.331 27.1805 133.331C26.1665 133.331 25.1655 133.604 25.1655 134.293C25.1655 134.566 25.3215 134.865 25.6985 134.865C25.8155 134.865 25.9585 134.839 26.0365 134.8L26.2835 134.696C26.5045 134.605 26.7125 134.527 27.0505 134.527C27.8565 134.527 28.2465 134.904 28.2465 135.671V136.243ZM27.1155 137.153C27.4405 137.153 27.8695 137.205 28.2465 137.296V138.466C27.8435 138.791 27.4535 138.921 27.0115 138.921C26.2965 138.921 26.0365 138.622 26.0365 138.102V138.063C26.0365 137.569 26.2055 137.153 27.1155 137.153ZM34.2779 140.091C36.0329 140.091 36.6049 138.973 36.6049 137.426V135.827C36.6049 134.345 35.8119 133.331 34.3819 133.331C33.7059 133.331 33.1209 133.565 32.5229 133.903C32.3669 133.695 32.1719 133.565 31.9249 133.565C31.6129 133.565 31.2749 133.812 31.2749 134.189C31.2749 134.332 31.3269 134.423 31.4049 134.527C31.5349 134.722 31.5869 134.917 31.5869 135.281V142.132C31.5869 142.483 31.8339 142.782 32.2889 142.782C32.7309 142.782 32.9909 142.496 32.9909 142.132V139.831C33.4589 140.026 33.8749 140.091 34.2779 140.091ZM32.9909 135.281C32.9909 135.164 32.9649 135.034 32.9389 134.891C33.3679 134.67 33.7839 134.54 34.1479 134.54C34.8499 134.54 35.2009 134.982 35.2009 135.827V137.426C35.2009 138.44 34.9149 138.908 34.1219 138.908C33.8359 138.908 33.3939 138.843 32.9909 138.687V135.281ZM39.724 131.472C39.724 131.056 39.36 130.705 38.905 130.705C38.437 130.705 38.086 131.043 38.086 131.472C38.086 131.888 38.437 132.239 38.905 132.239C39.36 132.239 39.711 131.901 39.724 131.472ZM39.607 139.441V134.02C39.607 133.669 39.295 133.37 38.905 133.37C38.502 133.37 38.203 133.669 38.203 134.02V139.441C38.203 139.818 38.502 140.091 38.905 140.091C39.295 140.091 39.607 139.818 39.607 139.441ZM46.8409 134.579V132.161H48.4919C49.4149 132.161 49.7269 132.707 49.7269 133.305C49.7269 134.176 48.9859 134.579 48.3359 134.579H46.8409ZM48.3749 135.918C49.2849 135.918 49.9739 136.425 49.9739 137.335C49.9739 138.141 49.4409 138.674 48.3619 138.674H46.8409V135.918H48.3749ZM48.3749 140C50.2469 140 51.4039 138.83 51.4039 137.335C51.4039 136.048 50.4679 135.554 49.6359 135.255C50.5069 134.865 51.1569 134.306 51.1569 133.292C51.1569 132.044 50.2469 130.835 48.4269 130.835H46.2299C45.7879 130.835 45.4109 131.173 45.4109 131.615V139.22C45.4109 139.649 45.7619 140 46.2299 140H48.3749ZM55.9477 136.243C55.5707 136.139 55.1807 136.087 54.7777 136.087C53.1527 136.087 52.3467 136.75 52.3467 138.05V138.089C52.3467 139.298 53.0747 140.091 54.4917 140.091C55.2067 140.091 55.7787 139.883 56.2597 139.467C56.5067 139.87 56.8447 140.052 57.2997 140.052C57.7937 140.052 58.0667 139.87 58.0667 139.506C58.0667 139.259 57.9497 139.09 57.6767 139.038C57.4817 138.999 57.3517 138.947 57.3517 138.622V135.983C57.3517 134.254 56.6367 133.331 54.8817 133.331C53.8677 133.331 52.8667 133.604 52.8667 134.293C52.8667 134.566 53.0227 134.865 53.3997 134.865C53.5167 134.865 53.6597 134.839 53.7377 134.8L53.9847 134.696C54.2057 134.605 54.4137 134.527 54.7517 134.527C55.5577 134.527 55.9477 134.904 55.9477 135.671V136.243ZM54.8167 137.153C55.1417 137.153 55.5707 137.205 55.9477 137.296V138.466C55.5447 138.791 55.1547 138.921 54.7127 138.921C53.9977 138.921 53.7377 138.622 53.7377 138.102V138.063C53.7377 137.569 53.9067 137.153 54.8167 137.153ZM60.2761 140.104C60.7181 140.104 61.0041 139.883 61.0041 139.519C61.0041 139.337 60.9261 139.259 60.8351 139.168C60.6661 138.986 60.6531 138.869 60.6531 138.596V131.251C60.6531 130.887 60.3411 130.601 59.9511 130.601C59.5481 130.601 59.2491 130.9 59.2491 131.251V138.674C59.2491 139.935 59.8601 140.104 60.2761 140.104ZM63.5007 140.104C63.9427 140.104 64.2287 139.883 64.2287 139.519C64.2287 139.337 64.1507 139.259 64.0597 139.168C63.8907 138.986 63.8777 138.869 63.8777 138.596V131.251C63.8777 130.887 63.5657 130.601 63.1757 130.601C62.7727 130.601 62.4737 130.9 62.4737 131.251V138.674C62.4737 139.935 63.0847 140.104 63.5007 140.104ZM68.5583 134.683C68.9483 134.709 69.2733 134.436 69.2733 134.02C69.2733 133.656 69.0653 133.383 68.4023 133.383C67.9473 133.383 67.2843 133.591 66.6993 133.942C66.5433 133.721 66.3353 133.565 66.1013 133.565C65.7373 133.565 65.4253 133.812 65.4253 134.176C65.4253 134.332 65.4773 134.423 65.5553 134.527C65.6853 134.722 65.7373 134.917 65.7373 135.281V139.441C65.7373 139.818 66.0363 140.104 66.4393 140.104C66.8293 140.104 67.1413 139.818 67.1413 139.441V135.281C67.1413 135.19 67.1283 135.099 67.1153 134.982C67.6613 134.657 68.0123 134.67 68.5583 134.683ZM72.6714 140.104C74.3874 140.104 75.2974 139.064 75.2974 137.738V135.684C75.2974 134.345 74.3874 133.318 72.6714 133.318C70.9554 133.318 70.0454 134.345 70.0454 135.684V137.738C70.0454 139.064 70.9554 140.104 72.6714 140.104ZM72.6714 138.869C71.8654 138.869 71.4494 138.44 71.4494 137.738V135.671C71.4494 134.982 71.8654 134.553 72.6714 134.553C73.4774 134.553 73.8934 134.982 73.8934 135.671V137.738C73.8934 138.44 73.4774 138.869 72.6714 138.869ZM79.0953 140.104C80.8113 140.104 81.7213 139.064 81.7213 137.738V135.684C81.7213 134.345 80.8113 133.318 79.0953 133.318C77.3793 133.318 76.4693 134.345 76.4693 135.684V137.738C76.4693 139.064 77.3793 140.104 79.0953 140.104ZM79.0953 138.869C78.2893 138.869 77.8733 138.44 77.8733 137.738V135.671C77.8733 134.982 78.2893 134.553 79.0953 134.553C79.9013 134.553 80.3173 134.982 80.3173 135.671V137.738C80.3173 138.44 79.9013 138.869 79.0953 138.869ZM90.3681 139.441C90.3681 139.805 90.6021 140.091 91.0701 140.091C91.5381 140.091 91.7721 139.805 91.7721 139.441V135.593C91.7721 134.241 90.9141 133.331 89.4451 133.331C88.7301 133.331 88.1451 133.552 87.5211 133.942C87.1181 133.539 86.6371 133.331 86.0131 133.331C85.3891 133.331 84.7651 133.539 84.1801 133.903C84.0371 133.695 83.8421 133.552 83.5821 133.552C83.2181 133.552 82.9191 133.799 82.9191 134.163C82.9191 134.293 82.9711 134.384 83.0751 134.54C83.1531 134.67 83.2441 134.696 83.2441 135.268V139.441C83.2441 139.805 83.4781 140.091 83.9461 140.091C84.4141 140.091 84.6481 139.805 84.6481 139.441V135.268C84.6481 135.19 84.6351 135.086 84.6221 134.995C84.9991 134.761 85.4801 134.566 85.9221 134.566C86.6761 134.566 86.8061 135.112 86.8061 135.879V139.441C86.8061 139.805 87.0401 140.091 87.5081 140.091C87.9761 140.091 88.2101 139.805 88.2101 139.441V135.593C88.2101 135.437 88.1841 135.281 88.1581 135.138C88.4961 134.8 88.9511 134.566 89.3931 134.566C90.0301 134.566 90.3681 135.034 90.3681 135.619V139.441ZM103.481 139.441V131.394C103.481 131.03 103.143 130.718 102.766 130.718C102.389 130.718 102.051 131.03 102.051 131.394V134.748H98.8916V131.394C98.8916 131.03 98.5666 130.718 98.1766 130.718C97.7736 130.718 97.4616 131.03 97.4616 131.394V139.441C97.4616 139.805 97.7736 140.13 98.1766 140.13C98.5666 140.13 98.8916 139.805 98.8916 139.441V136.087H102.051V139.441C102.051 139.805 102.389 140.13 102.766 140.13C103.156 140.13 103.481 139.805 103.481 139.441ZM107.584 140.104C109.3 140.104 110.21 139.064 110.21 137.738V135.684C110.21 134.345 109.3 133.318 107.584 133.318C105.868 133.318 104.958 134.345 104.958 135.684V137.738C104.958 139.064 105.868 140.104 107.584 140.104ZM107.584 138.869C106.778 138.869 106.362 138.44 106.362 137.738V135.671C106.362 134.982 106.778 134.553 107.584 134.553C108.39 134.553 108.806 134.982 108.806 135.671V137.738C108.806 138.44 108.39 138.869 107.584 138.869ZM111.693 137.335C111.693 139.116 112.174 140.052 114.085 140.052C114.592 140.052 115.086 139.974 115.086 139.376C115.086 138.934 114.774 138.791 114.215 138.791C114.163 138.791 114.072 138.804 113.981 138.804C113.201 138.804 113.097 138.388 113.097 137.244V134.969H114.254C114.618 134.969 114.917 134.696 114.917 134.345C114.917 133.981 114.618 133.708 114.254 133.708H113.097V132.096C113.097 131.745 112.837 131.446 112.395 131.446C111.94 131.446 111.693 131.732 111.693 132.096V137.335ZM118.398 137.439C120.049 137.439 120.764 136.711 120.764 135.489C120.764 134.189 119.984 133.331 118.411 133.331C116.734 133.331 115.837 134.306 115.837 135.58V137.881C115.837 139.142 116.747 140.104 118.346 140.104C119.113 140.104 120.647 139.883 120.647 139.103C120.647 138.843 120.452 138.518 120.01 138.518C119.854 138.518 119.763 138.557 119.724 138.583C119.295 138.778 118.944 138.908 118.463 138.908C117.644 138.908 117.241 138.531 117.241 137.946V137.348C117.657 137.413 118.034 137.439 118.398 137.439ZM119.373 135.45C119.373 135.996 119.126 136.347 118.385 136.347C118.19 136.347 117.683 136.321 117.241 136.269V135.502C117.241 134.878 117.657 134.488 118.385 134.488C119.022 134.488 119.373 134.761 119.373 135.45ZM123.054 140.104C123.496 140.104 123.782 139.883 123.782 139.519C123.782 139.337 123.704 139.259 123.613 139.168C123.444 138.986 123.431 138.869 123.431 138.596V131.251C123.431 130.887 123.119 130.601 122.729 130.601C122.326 130.601 122.027 130.9 122.027 131.251V138.674C122.027 139.935 122.638 140.104 123.054 140.104ZM130.202 134.072C130.202 132.785 130.631 131.979 131.957 131.979C132.412 131.979 132.789 132.109 133.14 132.343L133.205 132.382C133.4 132.499 133.478 132.59 133.725 132.59C134.102 132.59 134.388 132.304 134.388 131.966C134.388 131.29 133.166 130.718 131.892 130.718C129.747 130.718 128.772 132.044 128.772 134.072V136.75C128.772 138.778 129.747 140.104 131.892 140.104C133.14 140.104 134.648 139.623 134.648 138.492V135.502C134.648 134.995 134.219 134.748 133.738 134.748H132.256C131.918 134.748 131.606 135.034 131.606 135.398C131.606 135.762 131.918 136.061 132.256 136.061H133.231V138.466C132.88 138.7 132.49 138.843 131.957 138.843C130.631 138.843 130.202 138.037 130.202 136.75V134.072ZM139.03 134.683C139.42 134.709 139.745 134.436 139.745 134.02C139.745 133.656 139.537 133.383 138.874 133.383C138.419 133.383 137.756 133.591 137.171 133.942C137.015 133.721 136.807 133.565 136.573 133.565C136.209 133.565 135.897 133.812 135.897 134.176C135.897 134.332 135.949 134.423 136.027 134.527C136.157 134.722 136.209 134.917 136.209 135.281V139.441C136.209 139.818 136.508 140.104 136.911 140.104C137.301 140.104 137.613 139.818 137.613 139.441V135.281C137.613 135.19 137.6 135.099 137.587 134.982C138.133 134.657 138.484 134.67 139.03 134.683ZM144.015 136.243C143.638 136.139 143.248 136.087 142.845 136.087C141.22 136.087 140.414 136.75 140.414 138.05V138.089C140.414 139.298 141.142 140.091 142.559 140.091C143.274 140.091 143.846 139.883 144.327 139.467C144.574 139.87 144.912 140.052 145.367 140.052C145.861 140.052 146.134 139.87 146.134 139.506C146.134 139.259 146.017 139.09 145.744 139.038C145.549 138.999 145.419 138.947 145.419 138.622V135.983C145.419 134.254 144.704 133.331 142.949 133.331C141.935 133.331 140.934 133.604 140.934 134.293C140.934 134.566 141.09 134.865 141.467 134.865C141.584 134.865 141.727 134.839 141.805 134.8L142.052 134.696C142.273 134.605 142.481 134.527 142.819 134.527C143.625 134.527 144.015 134.904 144.015 135.671V136.243ZM142.884 137.153C143.209 137.153 143.638 137.205 144.015 137.296V138.466C143.612 138.791 143.222 138.921 142.78 138.921C142.065 138.921 141.805 138.622 141.805 138.102V138.063C141.805 137.569 141.974 137.153 142.884 137.153ZM147.208 135.281C147.208 137.582 150.237 136.932 150.237 138.154C150.237 138.622 149.782 138.908 149.197 138.908C148.651 138.908 148.092 138.661 147.858 138.609C147.286 138.466 147.13 138.999 147.13 139.233C147.13 139.922 148.508 140.091 149.249 140.091C150.796 140.091 151.615 139.337 151.615 138.128C151.615 135.801 148.586 136.425 148.586 135.151C148.586 134.592 149.184 134.527 149.509 134.527C150.198 134.527 150.393 134.813 150.809 134.813C151.147 134.813 151.381 134.631 151.381 134.28C151.381 133.526 150.276 133.331 149.509 133.331C147.988 133.331 147.208 134.111 147.208 135.281ZM154.515 131.472C154.515 131.056 154.151 130.705 153.696 130.705C153.228 130.705 152.877 131.043 152.877 131.472C152.877 131.888 153.228 132.239 153.696 132.239C154.151 132.239 154.502 131.901 154.515 131.472ZM154.398 139.441V134.02C154.398 133.669 154.086 133.37 153.696 133.37C153.293 133.37 152.994 133.669 152.994 134.02V139.441C152.994 139.818 153.293 140.091 153.696 140.091C154.086 140.091 154.398 139.818 154.398 139.441ZM159.541 136.243C159.164 136.139 158.774 136.087 158.371 136.087C156.746 136.087 155.94 136.75 155.94 138.05V138.089C155.94 139.298 156.668 140.091 158.085 140.091C158.8 140.091 159.372 139.883 159.853 139.467C160.1 139.87 160.438 140.052 160.893 140.052C161.387 140.052 161.66 139.87 161.66 139.506C161.66 139.259 161.543 139.09 161.27 139.038C161.075 138.999 160.945 138.947 160.945 138.622V135.983C160.945 134.254 160.23 133.331 158.475 133.331C157.461 133.331 156.46 133.604 156.46 134.293C156.46 134.566 156.616 134.865 156.993 134.865C157.11 134.865 157.253 134.839 157.331 134.8L157.578 134.696C157.799 134.605 158.007 134.527 158.345 134.527C159.151 134.527 159.541 134.904 159.541 135.671V136.243ZM158.41 137.153C158.735 137.153 159.164 137.205 159.541 137.296V138.466C159.138 138.791 158.748 138.921 158.306 138.921C157.591 138.921 157.331 138.622 157.331 138.102V138.063C157.331 137.569 157.5 137.153 158.41 137.153Z" fill="#4E2E1F"/>
<path d="M3.45523 145.17C3.45523 145 3.29523 144.84 3.12523 144.84C2.93523 144.84 2.78523 144.99 2.78523 145.17V149.77C2.78523 150.8 2.58523 151.46 1.58523 151.46C1.37523 151.46 1.22523 151.43 1.11523 151.41C1.04523 151.4 0.975234 151.39 0.955234 151.39C0.835234 151.39 0.675234 151.5 0.675234 151.71C0.675234 152.07 1.20523 152.09 1.47523 152.09C2.99523 152.09 3.45523 151.21 3.45523 149.77V145.17ZM5.03289 151.1C5.03289 151.96 5.38289 152.07 5.60289 152.07C5.77289 152.07 5.89289 151.95 5.89289 151.78C5.89289 151.74 5.87289 151.67 5.85289 151.64C5.72289 151.5 5.67289 151.33 5.67289 151.1V145C5.67289 144.82 5.53289 144.67 5.35289 144.67C5.17289 144.67 5.03289 144.83 5.03289 145V151.1ZM7.97156 151.61C7.97156 151.36 7.77156 151.14 7.51156 151.14C7.25156 151.14 7.03156 151.36 7.03156 151.61C7.03156 151.88 7.25156 152.09 7.51156 152.09C7.77156 152.09 7.97156 151.88 7.97156 151.61ZM12.8243 147.37C12.8243 146.18 13.2243 145.43 14.4343 145.43C14.8343 145.43 15.1743 145.55 15.4943 145.77C15.5243 145.79 15.5843 145.81 15.6043 145.83C15.6843 145.88 15.7343 145.92 15.8243 145.92C15.9843 145.92 16.1143 145.8 16.1143 145.64C16.1143 145.21 15.2743 144.84 14.3843 144.84C12.8643 144.84 12.1543 145.84 12.1543 147.37V149.56C12.1543 151.08 12.8643 152.08 14.3843 152.08C15.2543 152.08 16.3143 151.74 16.3143 150.98V148.54C16.3143 148.26 16.1043 148.14 15.8143 148.14H14.5943C14.4343 148.14 14.2843 148.28 14.2843 148.45C14.2843 148.63 14.4343 148.76 14.5943 148.76H15.6643V151.08C15.3343 151.34 14.9443 151.49 14.4343 151.49C13.2243 151.49 12.8243 150.74 12.8243 149.56V147.37ZM20.5096 150.8C20.5096 150.93 20.5196 151.03 20.5296 151.13C20.1596 151.37 19.7396 151.51 19.3196 151.51C18.6496 151.51 18.2896 151.03 18.2896 150.21V147.2C18.2896 147.02 18.1796 146.88 17.9696 146.88C17.7596 146.88 17.6396 147.02 17.6396 147.2V150.21C17.6396 151.32 18.1696 152.07 19.2096 152.07C19.6796 152.07 20.2096 151.96 20.6896 151.68C20.8196 151.88 20.9496 152.01 21.1196 152.01C21.2796 152.01 21.4196 151.89 21.4196 151.73C21.4196 151.63 21.3296 151.52 21.2696 151.45C21.2096 151.38 21.1596 151.3 21.1596 150.8V147.2C21.1596 147.02 21.0496 146.88 20.8396 146.88C20.6196 146.88 20.5096 147.02 20.5096 147.2V150.8ZM23.2275 147.36C23.1175 147.14 22.9475 147.03 22.8175 147.03C22.6675 147.03 22.5275 147.15 22.5275 147.32C22.5275 147.38 22.5475 147.44 22.5875 147.49C22.7275 147.69 22.7675 147.9 22.7675 148.25V151.75C22.7675 151.93 22.8775 152.06 23.0975 152.06C23.3075 152.06 23.4175 151.93 23.4175 151.75V148.25C23.4175 148.14 23.4075 148.02 23.3875 147.91C23.7675 147.62 24.1875 147.43 24.6075 147.43C25.2775 147.43 25.6275 147.91 25.6275 148.74V151.75C25.6275 151.93 25.7475 152.06 25.9575 152.06C26.1675 152.06 26.2775 151.93 26.2775 151.75V148.74C26.2775 147.62 25.7675 146.87 24.7275 146.87C24.2375 146.87 23.7175 147.02 23.2275 147.36ZM27.8354 149.98C27.8354 151.35 28.1754 152.03 29.5554 152.03C29.7954 152.03 30.0554 152 30.0554 151.72C30.0554 151.45 29.7954 151.42 29.6054 151.42C29.5354 151.42 29.4754 151.43 29.4054 151.43C28.5954 151.43 28.4754 151.02 28.4754 149.91V147.77H29.6354C29.7954 147.77 29.9254 147.64 29.9254 147.48C29.9254 147.3 29.7954 147.17 29.6354 147.17H28.4754V145.67C28.4754 145.5 28.3654 145.35 28.1554 145.35C27.9454 145.35 27.8354 145.5 27.8354 145.67V149.98ZM33.8299 150.8C33.8299 150.93 33.8399 151.03 33.8499 151.13C33.4799 151.37 33.0599 151.51 32.6399 151.51C31.9699 151.51 31.6099 151.03 31.6099 150.21V147.2C31.6099 147.02 31.4999 146.88 31.2899 146.88C31.0799 146.88 30.9599 147.02 30.9599 147.2V150.21C30.9599 151.32 31.4899 152.07 32.5299 152.07C32.9999 152.07 33.5299 151.96 34.0099 151.68C34.1399 151.88 34.2699 152.01 34.4399 152.01C34.5999 152.01 34.7399 151.89 34.7399 151.73C34.7399 151.63 34.6499 151.52 34.5899 151.45C34.5299 151.38 34.4799 151.3 34.4799 150.8V147.2C34.4799 147.02 34.3699 146.88 34.1599 146.88C33.9399 146.88 33.8299 147.02 33.8299 147.2V150.8ZM36.7478 148.27C36.7478 147.97 36.7378 147.96 36.7378 147.96V147.95C37.2878 147.54 37.6678 147.54 38.1178 147.55C38.2878 147.56 38.4378 147.41 38.4378 147.21C38.4378 147.03 38.3278 146.89 37.9778 146.89C37.6078 146.89 37.0178 147.06 36.5478 147.36C36.4378 147.18 36.2878 147.05 36.1578 147.05C35.9978 147.05 35.8578 147.17 35.8578 147.34C35.8578 147.4 35.8778 147.46 35.9178 147.51C36.0578 147.71 36.0978 147.92 36.0978 148.27V151.75C36.0978 151.93 36.2378 152.07 36.4278 152.07C36.5978 152.07 36.7478 151.93 36.7478 151.75V148.27ZM46.515 152.09C46.735 152.09 46.885 151.93 46.885 151.72V145.18C46.885 145 46.745 144.84 46.565 144.84C46.385 144.84 46.225 145 46.225 145.18V150.77L43.135 145.05C43.065 144.92 42.925 144.84 42.775 144.84C42.565 144.84 42.405 145 42.405 145.22V151.75C42.405 151.94 42.555 152.09 42.735 152.09C42.925 152.09 43.075 151.94 43.075 151.75V146.19L46.165 151.9C46.225 152.02 46.385 152.09 46.515 152.09ZM49.9711 152.07C51.1811 152.07 51.8211 151.31 51.8211 150.32V148.6C51.8211 147.61 51.1811 146.84 49.9711 146.84C48.7711 146.84 48.1211 147.61 48.1211 148.6V150.32C48.1211 151.31 48.7711 152.07 49.9711 152.07ZM49.9711 151.48C49.1811 151.48 48.7711 151.04 48.7711 150.32V148.59C48.7711 147.87 49.1811 147.42 49.9711 147.42C50.7711 147.42 51.1711 147.87 51.1711 148.59V150.32C51.1711 151.04 50.7711 151.48 49.9711 151.48ZM53.7235 151.61C53.7235 151.36 53.5235 151.14 53.2635 151.14C53.0035 151.14 52.7835 151.36 52.7835 151.61C52.7835 151.88 53.0035 152.09 53.2635 152.09C53.5235 152.09 53.7235 151.88 53.7235 151.61ZM58.5682 145.58C58.6282 145.51 58.6482 145.44 58.6482 145.34C58.6482 145.1 58.4982 144.95 58.2982 144.95H55.4382C55.2582 144.95 55.1182 145.11 55.1182 145.3C55.1182 145.47 55.2582 145.61 55.4382 145.61H57.8782L55.9482 148.11C55.7882 148.31 55.9382 148.6 56.1482 148.6C56.2182 148.6 56.2582 148.61 56.3882 148.55C56.4982 148.5 56.6182 148.47 56.7582 148.47C57.5982 148.47 58.2182 148.87 58.2182 149.87C58.2182 150.63 57.8782 151.5 56.7582 151.5C56.1582 151.5 55.8082 151.32 55.4682 151.15C55.3882 151.11 55.3282 151.09 55.2882 151.09C55.1182 151.09 54.9882 151.24 54.9882 151.41C54.9882 151.99 56.3982 152.08 56.7882 152.08C58.2682 152.08 58.8782 150.85 58.8782 149.83C58.8782 148.62 57.9782 147.93 56.7582 147.9L58.5682 145.58ZM63.5763 147.37C63.5763 146.18 63.9763 145.43 65.1863 145.43C65.5863 145.43 65.9263 145.55 66.2463 145.77C66.2763 145.79 66.3363 145.81 66.3563 145.83C66.4363 145.88 66.4863 145.92 66.5763 145.92C66.7363 145.92 66.8663 145.8 66.8663 145.64C66.8663 145.21 66.0263 144.84 65.1363 144.84C63.6163 144.84 62.9063 145.84 62.9063 147.37V149.56C62.9063 151.08 63.6163 152.08 65.1363 152.08C66.0063 152.08 67.0663 151.74 67.0663 150.98V148.54C67.0663 148.26 66.8563 148.14 66.5663 148.14H65.3462C65.1863 148.14 65.0363 148.28 65.0363 148.45C65.0363 148.63 65.1863 148.76 65.3462 148.76H66.4163V151.08C66.0863 151.34 65.6963 151.49 65.1863 151.49C63.9763 151.49 63.5763 150.74 63.5763 149.56V147.37ZM70.9125 149.28C70.5225 149.17 70.1425 149.1 69.8025 149.1C68.6325 149.1 68.0625 149.6 68.0625 150.56V150.6C68.0625 151.47 68.5525 152.07 69.5625 152.07C70.1025 152.07 70.5725 151.87 70.9925 151.47C71.1725 151.82 71.4425 152.04 71.7525 152.04C71.9325 152.04 72.1325 151.97 72.1325 151.77C72.1325 151.64 72.0625 151.5 71.9125 151.5C71.8925 151.5 71.8725 151.51 71.8325 151.51C71.6525 151.51 71.5625 151.38 71.5625 151.12V148.86C71.5625 147.55 71.0725 146.85 69.8425 146.85C69.1725 146.85 68.4325 147.02 68.4725 147.44C68.4825 147.56 68.5425 147.7 68.6925 147.7C68.7925 147.7 68.8725 147.66 68.9325 147.62C69.1625 147.48 69.3725 147.4 69.7425 147.4C70.5325 147.4 70.9125 147.78 70.9125 148.59V149.28ZM69.7925 149.63C70.0925 149.63 70.5125 149.69 70.9125 149.82V151.02C70.5225 151.35 70.1525 151.51 69.6925 151.51C68.9325 151.51 68.7025 151.13 68.7025 150.61V150.57C68.7025 150.06 68.8725 149.63 69.7925 149.63ZM73.9567 147.21C73.9567 147.03 73.8067 146.88 73.6367 146.88C73.4467 146.88 73.3067 147.03 73.3067 147.21V152.27C73.3067 153.07 72.9667 153.39 72.3667 153.53C72.2367 153.55 72.0667 153.65 72.1167 153.88C72.1467 154 72.2667 154.08 72.3867 154.08C72.4467 154.08 72.4867 154.09 72.5667 154.08C73.4167 153.94 73.9567 153.24 73.9567 152.23V147.21ZM74.0467 145.19C74.0467 144.95 73.8567 144.77 73.6367 144.77C73.3967 144.77 73.2067 144.95 73.2067 145.19C73.2067 145.41 73.3967 145.6 73.6367 145.6C73.8567 145.6 74.0467 145.41 74.0467 145.19ZM78.1879 149.28C77.7979 149.17 77.4179 149.1 77.0779 149.1C75.9079 149.1 75.3379 149.6 75.3379 150.56V150.6C75.3379 151.47 75.8279 152.07 76.8379 152.07C77.3779 152.07 77.8479 151.87 78.2679 151.47C78.4479 151.82 78.7179 152.04 79.0279 152.04C79.2079 152.04 79.4079 151.97 79.4079 151.77C79.4079 151.64 79.3379 151.5 79.1879 151.5C79.1679 151.5 79.1479 151.51 79.1079 151.51C78.9279 151.51 78.8379 151.38 78.8379 151.12V148.86C78.8379 147.55 78.3479 146.85 77.1179 146.85C76.4479 146.85 75.7079 147.02 75.7479 147.44C75.7579 147.56 75.8179 147.7 75.9679 147.7C76.0679 147.7 76.1479 147.66 76.2079 147.62C76.4379 147.48 76.6479 147.4 77.0179 147.4C77.8079 147.4 78.1879 147.78 78.1879 148.59V149.28ZM77.0679 149.63C77.3679 149.63 77.7879 149.69 78.1879 149.82V151.02C77.7979 151.35 77.4279 151.51 76.9679 151.51C76.2079 151.51 75.9779 151.13 75.9779 150.61V150.57C75.9779 150.06 76.1479 149.63 77.0679 149.63ZM81.0921 151.75V148.1C81.4321 147.65 81.9421 147.44 82.3721 147.44C83.0621 147.44 83.3421 147.82 83.3421 148.5V151.75C83.3421 151.93 83.4921 152.07 83.6721 152.07C83.8521 152.07 83.9921 151.93 83.9921 151.75V148.49C83.9921 147.53 83.5221 146.85 82.4721 146.85C82.0021 146.85 81.5221 147.04 81.0921 147.37V144.94C81.0921 144.75 80.9521 144.61 80.7721 144.61C80.5921 144.61 80.4621 144.78 80.4621 144.94V151.75C80.4621 151.93 80.6021 152.07 80.7921 152.07C80.9621 152.07 81.0921 151.93 81.0921 151.75ZM94.0285 145.2C94.0285 145 93.8685 144.84 93.6785 144.84C93.5385 144.84 93.4085 144.9 93.3185 145.06V145.05L91.2585 149.49L89.1885 145.06V145.07C89.1085 144.92 88.9985 144.84 88.8285 144.84C88.6185 144.84 88.4685 144.99 88.4685 145.2V151.78C88.4685 151.95 88.6085 152.09 88.7785 152.09C88.9785 152.09 89.1285 151.95 89.1285 151.78V146.48L90.9285 150.28C90.9885 150.4 91.1085 150.48 91.2485 150.48C91.3785 150.48 91.4985 150.41 91.5685 150.28C92.1085 149.13 92.8285 147.63 93.3585 146.48V151.78C93.3585 151.95 93.5285 152.09 93.7085 152.09C93.8785 152.09 94.0285 151.95 94.0285 151.78V145.2ZM98.3807 150.8C98.3807 150.93 98.3907 151.03 98.4007 151.13C98.0307 151.37 97.6107 151.51 97.1907 151.51C96.5207 151.51 96.1607 151.03 96.1607 150.21V147.2C96.1607 147.02 96.0507 146.88 95.8407 146.88C95.6307 146.88 95.5107 147.02 95.5107 147.2V150.21C95.5107 151.32 96.0407 152.07 97.0807 152.07C97.5507 152.07 98.0807 151.96 98.5607 151.68C98.6907 151.88 98.8207 152.01 98.9907 152.01C99.1507 152.01 99.2907 151.89 99.2907 151.73C99.2907 151.63 99.2007 151.52 99.1407 151.45C99.0807 151.38 99.0307 151.3 99.0307 150.8V147.2C99.0307 147.02 98.9207 146.88 98.7107 146.88C98.4907 146.88 98.3807 147.02 98.3807 147.2V150.8ZM101.099 147.36C100.989 147.14 100.819 147.03 100.689 147.03C100.539 147.03 100.399 147.15 100.399 147.32C100.399 147.38 100.419 147.44 100.459 147.49C100.599 147.69 100.639 147.9 100.639 148.25V151.75C100.639 151.93 100.749 152.06 100.969 152.06C101.179 152.06 101.289 151.93 101.289 151.75V148.25C101.289 148.14 101.279 148.02 101.259 147.91C101.639 147.62 102.059 147.43 102.479 147.43C103.149 147.43 103.499 147.91 103.499 148.74V151.75C103.499 151.93 103.619 152.06 103.829 152.06C104.039 152.06 104.149 151.93 104.149 151.75V148.74C104.149 147.62 103.639 146.87 102.599 146.87C102.109 146.87 101.589 147.02 101.099 147.36ZM107.022 146.85C105.832 146.85 105.252 147.63 105.252 148.66C105.252 149.25 105.452 149.75 105.852 150.12C105.502 150.43 105.412 150.74 105.412 150.96C105.412 151.19 105.492 151.5 105.752 151.75C105.382 152.08 105.182 152.47 105.182 152.93C105.182 153.88 105.962 154.43 107.082 154.43C108.252 154.43 109.112 153.83 109.112 152.84C109.112 151.89 108.262 151.45 107.132 151.45H106.702C106.442 151.45 106.062 151.35 106.062 150.93C106.062 150.78 106.102 150.58 106.232 150.35C106.492 150.45 106.782 150.51 107.082 150.51C108.272 150.51 108.862 149.73 108.862 148.73V148.09C108.862 147.62 109.022 147.46 109.362 147.14L109.452 147.04C109.472 147.02 109.492 146.97 109.492 146.89C109.492 146.72 109.362 146.6 109.192 146.6C109.002 146.6 108.652 146.79 108.412 147.23C107.992 146.98 107.482 146.85 107.022 146.85ZM108.222 148.1V148.75C108.222 149.48 107.872 149.92 107.082 149.92C106.252 149.92 105.902 149.42 105.902 148.68C105.902 147.87 106.312 147.41 107.122 147.41C107.512 147.41 107.892 147.54 108.252 147.76C108.232 147.91 108.222 148.05 108.222 148.1ZM106.722 152.04H107.152C108.032 152.04 108.462 152.28 108.462 152.86C108.462 153.53 107.892 153.85 107.102 153.85C106.262 153.85 105.822 153.49 105.822 152.82C105.822 152.49 105.952 152.21 106.232 151.99C106.362 152.02 106.532 152.04 106.722 152.04ZM111.063 145C111.063 144.82 110.913 144.67 110.743 144.67C110.553 144.67 110.413 144.82 110.413 145V151.75C110.413 151.93 110.553 152.07 110.743 152.07C110.913 152.07 111.063 151.93 111.063 151.75V149.89L111.523 149.41L113.173 151.92C113.233 152.02 113.323 152.07 113.443 152.07C113.613 152.07 113.763 151.97 113.753 151.81C113.753 151.76 113.723 151.66 113.693 151.62L111.923 148.99L113.483 147.4C113.533 147.35 113.553 147.28 113.553 147.19C113.553 147.02 113.423 146.89 113.253 146.89C113.183 146.89 113.103 146.91 113.063 146.96L111.063 149.03V145ZM117.512 150.8C117.512 150.93 117.522 151.03 117.532 151.13C117.162 151.37 116.742 151.51 116.322 151.51C115.652 151.51 115.292 151.03 115.292 150.21V147.2C115.292 147.02 115.182 146.88 114.972 146.88C114.762 146.88 114.642 147.02 114.642 147.2V150.21C114.642 151.32 115.172 152.07 116.212 152.07C116.682 152.07 117.212 151.96 117.692 151.68C117.822 151.88 117.952 152.01 118.122 152.01C118.282 152.01 118.422 151.89 118.422 151.73C118.422 151.63 118.332 151.52 118.272 151.45C118.212 151.38 118.162 151.3 118.162 150.8V147.2C118.162 147.02 118.052 146.88 117.842 146.88C117.622 146.88 117.512 147.02 117.512 147.2V150.8ZM120.429 148.27C120.429 147.97 120.419 147.96 120.419 147.96V147.95C120.969 147.54 121.349 147.54 121.799 147.55C121.969 147.56 122.119 147.41 122.119 147.21C122.119 147.03 122.009 146.89 121.659 146.89C121.289 146.89 120.699 147.06 120.229 147.36C120.119 147.18 119.969 147.05 119.839 147.05C119.679 147.05 119.539 147.17 119.539 147.34C119.539 147.4 119.559 147.46 119.599 147.51C119.739 147.71 119.779 147.92 119.779 148.27V151.75C119.779 151.93 119.919 152.07 120.109 152.07C120.279 152.07 120.429 151.93 120.429 151.75V148.27ZM123.196 151.61C123.196 151.36 122.996 151.14 122.736 151.14C122.476 151.14 122.256 151.36 122.256 151.61C122.256 151.88 122.486 152.08 122.776 152.11C122.686 152.47 122.626 152.55 122.556 152.67C122.466 152.84 122.376 152.97 122.376 153.11C122.376 153.19 122.446 153.21 122.506 153.21C122.746 153.21 123.196 152.27 123.196 151.61ZM130.599 150.12C130.599 150.96 130.119 151.45 129.159 151.45C128.639 151.45 128.269 151.31 128.009 151.2C127.859 151.15 127.699 151.09 127.639 151.09C127.479 151.09 127.339 151.25 127.339 151.42C127.339 151.91 128.519 152.09 129.149 152.09C130.389 152.09 131.309 151.35 131.309 150.05C131.309 148.77 130.339 148.4 129.489 148.12C129.209 148.03 128.909 147.91 128.689 147.8C128.439 147.67 128.049 147.42 128.049 146.71C128.049 145.76 128.709 145.48 129.409 145.48C129.819 145.48 130.099 145.59 130.329 145.68C130.439 145.73 130.569 145.77 130.679 145.77C130.889 145.77 131.009 145.62 131.009 145.46C131.009 144.95 129.839 144.84 129.349 144.84C128.119 144.84 127.349 145.56 127.349 146.76C127.349 148.09 128.299 148.4 129.179 148.7C129.469 148.8 129.769 148.91 129.979 149.02C130.249 149.16 130.599 149.44 130.599 150.12ZM134.112 151.52C133.312 151.52 132.902 151.11 132.902 150.5V149.79C133.292 149.87 133.702 149.9 134.032 149.9C135.202 149.9 135.692 149.35 135.692 148.45C135.692 147.48 135.162 146.85 134.072 146.85C132.892 146.85 132.252 147.57 132.252 148.52V150.44C132.252 151.36 132.892 152.07 134.012 152.07C134.542 152.07 135.602 151.93 135.602 151.48C135.602 151.34 135.482 151.2 135.322 151.2C135.282 151.2 135.232 151.22 135.212 151.23C134.852 151.39 134.572 151.52 134.112 151.52ZM135.052 148.45C135.052 148.92 134.912 149.37 134.072 149.37C133.862 149.37 133.332 149.35 132.902 149.29V148.44C132.902 147.82 133.322 147.42 134.042 147.42C134.682 147.42 135.052 147.72 135.052 148.45ZM137.348 147.34C137.238 147.12 137.088 147.03 136.958 147.03C136.808 147.03 136.668 147.15 136.668 147.32C136.668 147.38 136.688 147.44 136.728 147.49C136.868 147.69 136.908 147.9 136.908 148.25V151.75C136.908 151.93 137.018 152.06 137.238 152.06C137.448 152.06 137.558 151.93 137.558 151.75V148.25C137.558 148.12 137.548 148.01 137.528 147.89C137.848 147.65 138.338 147.43 138.798 147.43C139.598 147.43 139.728 147.98 139.728 148.76V151.75C139.728 151.93 139.838 152.06 140.058 152.06C140.278 152.06 140.378 151.93 140.378 151.75V148.53C140.378 148.34 140.358 148.18 140.328 148.03C140.598 147.69 141.068 147.43 141.538 147.43C142.228 147.43 142.548 147.93 142.548 148.55V151.75C142.548 151.93 142.668 152.06 142.878 152.06C143.098 152.06 143.198 151.93 143.198 151.75V148.53C143.198 147.53 142.628 146.85 141.568 146.85C141.018 146.85 140.518 147.06 140.058 147.41C139.778 147.05 139.408 146.85 138.878 146.85C138.348 146.85 137.828 147.03 137.348 147.34ZM147.231 149.28C146.841 149.17 146.461 149.1 146.121 149.1C144.951 149.1 144.381 149.6 144.381 150.56V150.6C144.381 151.47 144.871 152.07 145.881 152.07C146.421 152.07 146.891 151.87 147.311 151.47C147.491 151.82 147.761 152.04 148.071 152.04C148.251 152.04 148.451 151.97 148.451 151.77C148.451 151.64 148.381 151.5 148.231 151.5C148.211 151.5 148.191 151.51 148.151 151.51C147.971 151.51 147.881 151.38 147.881 151.12V148.86C147.881 147.55 147.391 146.85 146.161 146.85C145.491 146.85 144.751 147.02 144.791 147.44C144.801 147.56 144.861 147.7 145.011 147.7C145.111 147.7 145.191 147.66 145.251 147.62C145.481 147.48 145.691 147.4 146.061 147.4C146.851 147.4 147.231 147.78 147.231 148.59V149.28ZM146.111 149.63C146.411 149.63 146.831 149.69 147.231 149.82V151.02C146.841 151.35 146.471 151.51 146.011 151.51C145.251 151.51 145.021 151.13 145.021 150.61V150.57C145.021 150.06 145.191 149.63 146.111 149.63ZM150.195 148.27C150.195 147.97 150.185 147.96 150.185 147.96V147.95C150.735 147.54 151.115 147.54 151.565 147.55C151.735 147.56 151.885 147.41 151.885 147.21C151.885 147.03 151.775 146.89 151.425 146.89C151.055 146.89 150.465 147.06 149.995 147.36C149.885 147.18 149.735 147.05 149.605 147.05C149.445 147.05 149.305 147.17 149.305 147.34C149.305 147.4 149.325 147.46 149.365 147.51C149.505 147.71 149.545 147.92 149.545 148.27V151.75C149.545 151.93 149.685 152.07 149.875 152.07C150.045 152.07 150.195 151.93 150.195 151.75V148.27ZM155.356 149.28C154.966 149.17 154.586 149.1 154.246 149.1C153.076 149.1 152.506 149.6 152.506 150.56V150.6C152.506 151.47 152.996 152.07 154.006 152.07C154.546 152.07 155.016 151.87 155.436 151.47C155.616 151.82 155.886 152.04 156.196 152.04C156.376 152.04 156.576 151.97 156.576 151.77C156.576 151.64 156.506 151.5 156.356 151.5C156.336 151.5 156.316 151.51 156.276 151.51C156.096 151.51 156.006 151.38 156.006 151.12V148.86C156.006 147.55 155.516 146.85 154.286 146.85C153.616 146.85 152.876 147.02 152.916 147.44C152.926 147.56 152.986 147.7 153.136 147.7C153.236 147.7 153.316 147.66 153.376 147.62C153.606 147.48 153.816 147.4 154.186 147.4C154.976 147.4 155.356 147.78 155.356 148.59V149.28ZM154.236 149.63C154.536 149.63 154.956 149.69 155.356 149.82V151.02C154.966 151.35 154.596 151.51 154.136 151.51C153.376 151.51 153.146 151.13 153.146 150.61V150.57C153.146 150.06 153.316 149.63 154.236 149.63ZM158.12 147.36C158.01 147.14 157.84 147.03 157.71 147.03C157.56 147.03 157.42 147.15 157.42 147.32C157.42 147.38 157.44 147.44 157.48 147.49C157.62 147.69 157.66 147.9 157.66 148.25V151.75C157.66 151.93 157.77 152.06 157.99 152.06C158.2 152.06 158.31 151.93 158.31 151.75V148.25C158.31 148.14 158.3 148.02 158.28 147.91C158.66 147.62 159.08 147.43 159.5 147.43C160.17 147.43 160.52 147.91 160.52 148.74V151.75C160.52 151.93 160.64 152.06 160.85 152.06C161.06 152.06 161.17 151.93 161.17 151.75V148.74C161.17 147.62 160.66 146.87 159.62 146.87C159.13 146.87 158.61 147.02 158.12 147.36ZM164.043 146.85C162.853 146.85 162.273 147.63 162.273 148.66C162.273 149.25 162.473 149.75 162.873 150.12C162.523 150.43 162.433 150.74 162.433 150.96C162.433 151.19 162.513 151.5 162.773 151.75C162.403 152.08 162.203 152.47 162.203 152.93C162.203 153.88 162.983 154.43 164.103 154.43C165.273 154.43 166.133 153.83 166.133 152.84C166.133 151.89 165.283 151.45 164.153 151.45H163.723C163.463 151.45 163.083 151.35 163.083 150.93C163.083 150.78 163.123 150.58 163.253 150.35C163.513 150.45 163.803 150.51 164.103 150.51C165.293 150.51 165.883 149.73 165.883 148.73V148.09C165.883 147.62 166.043 147.46 166.383 147.14L166.473 147.04C166.493 147.02 166.513 146.97 166.513 146.89C166.513 146.72 166.383 146.6 166.213 146.6C166.023 146.6 165.673 146.79 165.433 147.23C165.013 146.98 164.503 146.85 164.043 146.85ZM165.243 148.1V148.75C165.243 149.48 164.893 149.92 164.103 149.92C163.273 149.92 162.923 149.42 162.923 148.68C162.923 147.87 163.333 147.41 164.143 147.41C164.533 147.41 164.913 147.54 165.273 147.76C165.253 147.91 165.243 148.05 165.243 148.1ZM163.743 152.04H164.173C165.053 152.04 165.483 152.28 165.483 152.86C165.483 153.53 164.913 153.85 164.123 153.85C163.283 153.85 162.843 153.49 162.843 152.82C162.843 152.49 162.973 152.21 163.253 151.99C163.383 152.02 163.553 152.04 163.743 152.04Z" fill="#4E2E1F"/>
<path d="M19.9424 108.529C21.6974 108.529 22.8154 107.528 22.8154 105.708C22.8154 104.2 22.0614 102.822 19.9424 102.822H17.9924C17.6934 102.822 17.4464 103.069 17.4464 103.368V111.662C17.4464 111.922 17.6544 112.117 17.8754 112.117C18.1224 112.117 18.3044 111.909 18.3044 111.662V108.529H19.9424ZM18.3044 103.654H19.9424C21.5804 103.654 21.9574 104.681 21.9574 105.695C21.9574 107.06 21.2684 107.697 19.9424 107.697H18.3044V103.654ZM28.071 110.44C28.071 110.609 28.084 110.739 28.097 110.869C27.616 111.181 27.07 111.363 26.524 111.363C25.653 111.363 25.185 110.739 25.185 109.673V105.76C25.185 105.526 25.042 105.344 24.769 105.344C24.496 105.344 24.34 105.526 24.34 105.76V109.673C24.34 111.116 25.029 112.091 26.381 112.091C26.992 112.091 27.681 111.948 28.305 111.584C28.474 111.844 28.643 112.013 28.864 112.013C29.072 112.013 29.254 111.857 29.254 111.649C29.254 111.519 29.137 111.376 29.059 111.285C28.981 111.194 28.916 111.09 28.916 110.44V105.76C28.916 105.526 28.773 105.344 28.5 105.344C28.214 105.344 28.071 105.526 28.071 105.76V110.44ZM31.8122 102.9C31.8122 102.666 31.6172 102.471 31.3962 102.471C31.1492 102.471 30.9672 102.666 30.9672 102.9V111.675C30.9672 111.909 31.1492 112.091 31.3962 112.091C31.6172 112.091 31.8122 111.909 31.8122 111.675V109.257L32.4102 108.633L34.5552 111.896C34.6332 112.026 34.7502 112.091 34.9062 112.091C35.1272 112.091 35.3222 111.961 35.3092 111.753C35.3092 111.688 35.2702 111.558 35.2312 111.506L32.9302 108.087L34.9582 106.02C35.0232 105.955 35.0492 105.864 35.0492 105.747C35.0492 105.526 34.8802 105.357 34.6592 105.357C34.5682 105.357 34.4642 105.383 34.4122 105.448L31.8122 108.139V102.9ZM40.195 110.44C40.195 110.609 40.208 110.739 40.221 110.869C39.74 111.181 39.194 111.363 38.648 111.363C37.777 111.363 37.309 110.739 37.309 109.673V105.76C37.309 105.526 37.166 105.344 36.893 105.344C36.62 105.344 36.464 105.526 36.464 105.76V109.673C36.464 111.116 37.153 112.091 38.505 112.091C39.116 112.091 39.805 111.948 40.429 111.584C40.598 111.844 40.767 112.013 40.988 112.013C41.196 112.013 41.378 111.857 41.378 111.649C41.378 111.519 41.261 111.376 41.183 111.285C41.105 111.194 41.04 111.09 41.04 110.44V105.76C41.04 105.526 40.897 105.344 40.624 105.344C40.338 105.344 40.195 105.526 40.195 105.76V110.44ZM43.1173 110.83C43.1173 111.948 43.5723 112.091 43.8583 112.091C44.0793 112.091 44.2353 111.935 44.2353 111.714C44.2353 111.662 44.2093 111.571 44.1833 111.532C44.0143 111.35 43.9493 111.129 43.9493 110.83V102.9C43.9493 102.666 43.7673 102.471 43.5333 102.471C43.2993 102.471 43.1173 102.679 43.1173 102.9V110.83ZM52.2997 111.272C52.2997 111.714 52.7027 112.104 53.2097 112.104C53.7037 112.104 54.1197 111.714 54.1197 111.272V103.589C54.1197 103.095 53.7037 102.718 53.1577 102.718C52.9757 102.718 52.8327 102.757 52.6507 102.861L50.0767 104.369C49.8297 104.512 49.6737 104.759 49.6737 105.097C49.6737 105.656 50.1157 105.851 50.5057 105.851C50.8047 105.851 51.0257 105.734 51.2727 105.578L52.2997 104.954V111.272ZM59.1252 110.544C58.5142 110.531 58.1372 110.297 57.7082 110.297C57.1622 110.297 56.8502 110.7 56.9022 111.103C57.0062 112.013 58.7482 112.117 59.2812 112.117C61.4912 112.117 62.5442 110.349 62.5442 107.19C62.5442 104.603 61.8422 102.718 59.4372 102.718C57.3442 102.718 56.3302 104.135 56.3302 105.825C56.3302 107.801 57.6952 108.789 59.2812 108.789C59.7622 108.789 60.1912 108.698 60.6852 108.399C60.5942 109.621 60.3602 110.57 59.1252 110.544ZM60.7242 106.722C60.4252 106.995 59.9182 107.164 59.4112 107.164C58.6182 107.164 58.1372 106.735 58.1372 105.812C58.1372 105.058 58.4492 104.369 59.3722 104.369C60.4902 104.369 60.7242 105.422 60.7242 106.566V106.722ZM65.7818 111.103C65.7818 110.557 65.2878 110.102 64.7028 110.102C64.0918 110.102 63.6108 110.557 63.6108 111.103C63.6108 111.649 64.0918 112.117 64.7028 112.117C65.2878 112.117 65.7818 111.649 65.7818 111.103ZM69.9617 104.187C70.8197 104.187 71.1577 104.772 71.1577 105.604V109.27C71.1577 110.011 70.7417 110.518 69.9617 110.518C69.1817 110.518 68.7657 110.011 68.7657 109.27V105.604C68.7657 104.772 69.1037 104.187 69.9617 104.187ZM69.9617 102.601C67.8687 102.601 66.9587 103.979 66.9587 105.695V109.27C66.9587 110.856 68.0247 112.117 69.9617 112.117C71.8987 112.117 72.9647 110.856 72.9647 109.27V105.695C72.9647 103.979 72.0547 102.601 69.9617 102.601ZM76.9822 104.187C77.8402 104.187 78.1782 104.772 78.1782 105.604V109.27C78.1782 110.011 77.7622 110.518 76.9822 110.518C76.2022 110.518 75.7862 110.011 75.7862 109.27V105.604C75.7862 104.772 76.1242 104.187 76.9822 104.187ZM76.9822 102.601C74.8892 102.601 73.9792 103.979 73.9792 105.695V109.27C73.9792 110.856 75.0452 112.117 76.9822 112.117C78.9192 112.117 79.9852 110.856 79.9852 109.27V105.695C79.9852 103.979 79.0752 102.601 76.9822 102.601ZM89.7201 108.1C89.7201 107.671 89.3431 107.307 88.8621 107.307H85.6251C85.1311 107.307 84.7541 107.671 84.7541 108.1C84.7541 108.555 85.1311 108.893 85.6251 108.893H88.8621C89.3431 108.893 89.7201 108.555 89.7201 108.1ZM100.552 111.181C100.552 110.726 100.162 110.375 99.6555 110.375H96.7565C97.4585 109.413 98.6025 108.607 99.4735 107.697C100.071 107.073 100.5 106.345 100.5 105.24C100.5 103.771 99.3955 102.601 97.4975 102.601C96.4445 102.601 94.5855 103.004 94.5855 103.953C94.5855 104.434 95.0275 104.746 95.4695 104.746C95.8465 104.746 96.1065 104.512 96.3925 104.395C96.7045 104.265 97.0425 104.187 97.4845 104.187C98.2905 104.187 98.7065 104.707 98.7065 105.37C98.7065 106.332 97.6665 107.073 96.9515 107.723C96.0285 108.555 95.0795 109.387 94.5595 110.531C94.4685 110.726 94.4555 110.96 94.4555 111.142C94.4555 111.623 94.8325 112 95.3785 112H99.6555C100.162 112 100.552 111.636 100.552 111.181ZM104.414 111.272C104.414 111.714 104.817 112.104 105.324 112.104C105.818 112.104 106.234 111.714 106.234 111.272V103.589C106.234 103.095 105.818 102.718 105.272 102.718C105.09 102.718 104.947 102.757 104.765 102.861L102.191 104.369C101.944 104.512 101.788 104.759 101.788 105.097C101.788 105.656 102.23 105.851 102.62 105.851C102.919 105.851 103.14 105.734 103.387 105.578L104.414 104.954V111.272ZM110.876 111.103C110.876 110.557 110.382 110.102 109.797 110.102C109.186 110.102 108.705 110.557 108.705 111.103C108.705 111.649 109.186 112.117 109.797 112.117C110.382 112.117 110.876 111.649 110.876 111.103ZM115.055 104.187C115.913 104.187 116.251 104.772 116.251 105.604V109.27C116.251 110.011 115.835 110.518 115.055 110.518C114.275 110.518 113.859 110.011 113.859 109.27V105.604C113.859 104.772 114.197 104.187 115.055 104.187ZM115.055 102.601C112.962 102.601 112.052 103.979 112.052 105.695V109.27C112.052 110.856 113.118 112.117 115.055 112.117C116.992 112.117 118.058 110.856 118.058 109.27V105.695C118.058 103.979 117.148 102.601 115.055 102.601ZM122.076 104.187C122.934 104.187 123.272 104.772 123.272 105.604V109.27C123.272 110.011 122.856 110.518 122.076 110.518C121.296 110.518 120.88 110.011 120.88 109.27V105.604C120.88 104.772 121.218 104.187 122.076 104.187ZM122.076 102.601C119.983 102.601 119.073 103.979 119.073 105.695V109.27C119.073 110.856 120.139 112.117 122.076 112.117C124.013 112.117 125.079 110.856 125.079 109.27V105.695C125.079 103.979 124.169 102.601 122.076 102.601ZM136.205 111.571C136.283 111.844 136.491 112.117 136.829 112.117C137.154 112.117 137.362 111.857 137.44 111.584L139.416 103.251V103.238C139.429 103.199 139.429 103.134 139.429 103.121C139.429 102.861 139.13 102.744 138.896 102.744C138.74 102.744 138.61 102.874 138.545 103.056L136.816 110.583L135.165 103.394C135.074 102.978 134.931 102.692 134.58 102.692C134.216 102.692 134.086 102.965 133.982 103.394L132.357 110.57L130.615 103.056C130.55 102.874 130.381 102.744 130.225 102.744C129.991 102.744 129.718 102.874 129.718 103.108V103.16L131.707 111.584C131.798 111.883 132.006 112.117 132.331 112.117C132.695 112.117 132.864 111.818 132.942 111.584C133.423 109.426 134.099 106.54 134.58 104.369L136.205 111.571ZM140.629 111.688C140.629 111.922 140.837 112.117 141.071 112.117C141.318 112.117 141.5 111.922 141.5 111.688V103.121C141.5 102.9 141.318 102.692 141.071 102.692C140.837 102.692 140.629 102.9 140.629 103.121V111.688ZM144.42 106.8V103.654H146.279C147.54 103.654 147.969 104.382 147.969 105.136C147.969 106.28 146.955 106.8 146.058 106.8H144.42ZM146.097 107.645C147.319 107.645 148.216 108.282 148.216 109.452C148.216 110.453 147.54 111.155 146.149 111.155H144.42V107.645H146.097ZM146.292 111.987C148.021 111.987 149.087 110.869 149.087 109.439C149.087 108.022 148.047 107.593 147.189 107.281C148.125 106.839 148.827 106.241 148.827 105.149C148.827 103.966 148.008 102.822 146.344 102.822H144.095C143.809 102.822 143.562 103.056 143.562 103.368V111.454C143.562 111.753 143.796 111.987 144.095 111.987H146.292Z" fill="#4E2E1F"/>
</svg>
